G04 #@! TF.GenerationSoftware,KiCad,Pcbnew,(5.1.4)-1*
G04 #@! TF.CreationDate,2019-09-12T01:17:16+08:00*
G04 #@! TF.ProjectId,ErgoDoxTW,4572676f-446f-4785-9457-2e6b69636164,rev?*
G04 #@! TF.SameCoordinates,Original*
G04 #@! TF.FileFunction,Paste,Top*
G04 #@! TF.FilePolarity,Positive*
%FSLAX46Y46*%
G04 Gerber Fmt 4.6, Leading zero omitted, Abs format (unit mm)*
G04 Created by KiCad (PCBNEW (5.1.4)-1) date 2019-09-12 01:17:16*
%MOMM*%
%LPD*%
G04 APERTURE LIST*
%ADD10R,1.000000X1.400000*%
%ADD11R,2.550000X2.500000*%
%ADD12C,1.000000*%
%ADD13C,0.150000*%
%ADD14C,2.500000*%
%ADD15R,1.400000X1.000000*%
%ADD16R,2.500000X2.550000*%
%ADD17C,1.250000*%
G04 APERTURE END LIST*
D10*
X189720000Y-113231000D03*
X193320000Y-113231000D03*
D11*
X199080000Y-102563000D03*
X185230000Y-100023000D03*
D10*
X189720000Y-94180700D03*
X193320000Y-94180700D03*
D11*
X199080000Y-83512700D03*
X185230000Y-80972700D03*
D10*
X189720000Y-132281000D03*
X193320000Y-132281000D03*
D11*
X199080000Y-121613000D03*
X185230000Y-119073000D03*
D10*
X189720000Y-75133200D03*
X193320000Y-75133200D03*
D11*
X199080000Y-64465200D03*
X185230000Y-61925200D03*
D12*
X53766987Y-143346183D03*
D13*
G36*
X53609666Y-144191908D02*
G01*
X53018000Y-142923077D01*
X53924308Y-142500458D01*
X54515974Y-143769289D01*
X53609666Y-144191908D01*
X53609666Y-144191908D01*
G37*
D12*
X57029695Y-141824757D03*
D13*
G36*
X56872374Y-142670482D02*
G01*
X56280708Y-141401651D01*
X57187016Y-140979032D01*
X57778682Y-142247863D01*
X56872374Y-142670482D01*
X56872374Y-142670482D01*
G37*
D14*
X57741536Y-129721984D03*
D13*
G36*
X57114266Y-131393707D02*
G01*
X56057721Y-129127938D01*
X58368806Y-128050261D01*
X59425351Y-130316030D01*
X57114266Y-131393707D01*
X57114266Y-131393707D01*
G37*
D14*
X44115723Y-133273225D03*
D13*
G36*
X43488453Y-134944948D02*
G01*
X42431908Y-132679179D01*
X44742993Y-131601502D01*
X45799538Y-133867271D01*
X43488453Y-134944948D01*
X43488453Y-134944948D01*
G37*
D10*
X89640000Y-130376000D03*
X93240000Y-130376000D03*
D11*
X99000000Y-119708000D03*
X85150000Y-117168000D03*
D10*
X127740000Y-70358000D03*
X131340000Y-70358000D03*
D11*
X137100000Y-59690000D03*
X123250000Y-57150000D03*
D10*
X89640000Y-73228200D03*
X93240000Y-73228200D03*
D11*
X99000000Y-62560200D03*
X85150000Y-60020200D03*
D10*
X108690000Y-91005700D03*
X112290000Y-91005700D03*
D11*
X118050000Y-80337700D03*
X104200000Y-77797700D03*
D10*
X127740000Y-89408000D03*
X131340000Y-89408000D03*
D11*
X137100000Y-78740000D03*
X123250000Y-76200000D03*
D10*
X89640000Y-92275700D03*
X93240000Y-92275700D03*
D11*
X99000000Y-81607700D03*
X85150000Y-79067700D03*
D15*
X80518000Y-90710200D03*
X80518000Y-87110200D03*
D16*
X69850000Y-81350200D03*
X67310000Y-95200200D03*
D10*
X108690000Y-71955700D03*
X112290000Y-71955700D03*
D11*
X118050000Y-61287700D03*
X104200000Y-58747700D03*
D10*
X165840000Y-75133200D03*
X169440000Y-75133200D03*
D11*
X175200000Y-64465200D03*
X161350000Y-61925200D03*
D10*
X146790000Y-71955700D03*
X150390000Y-71955700D03*
D11*
X156150000Y-61287700D03*
X142300000Y-58747700D03*
D10*
X165840000Y-94180700D03*
X169440000Y-94180700D03*
D11*
X175200000Y-83512700D03*
X161350000Y-80972700D03*
D10*
X146790000Y-91005700D03*
X150390000Y-91005700D03*
D11*
X156150000Y-80337700D03*
X142300000Y-77797700D03*
D10*
X165840000Y-113231000D03*
X169440000Y-113231000D03*
D11*
X175200000Y-102563000D03*
X161350000Y-100023000D03*
D10*
X146790000Y-110056000D03*
X150390000Y-110056000D03*
D11*
X156150000Y-99388000D03*
X142300000Y-96848000D03*
D10*
X127740000Y-108458000D03*
X131340000Y-108458000D03*
D11*
X137100000Y-97790000D03*
X123250000Y-95250000D03*
D10*
X108690000Y-110056000D03*
X112290000Y-110056000D03*
D11*
X118050000Y-99388000D03*
X104200000Y-96848000D03*
D10*
X89640000Y-111326000D03*
X93240000Y-111326000D03*
D11*
X99000000Y-100658000D03*
X85150000Y-98118000D03*
D10*
X165840000Y-132281000D03*
X169440000Y-132281000D03*
D11*
X175200000Y-121613000D03*
X161350000Y-119073000D03*
D10*
X146790000Y-129106000D03*
X150390000Y-129106000D03*
D11*
X156150000Y-118438000D03*
X142300000Y-115898000D03*
D10*
X127740000Y-127508000D03*
X131340000Y-127508000D03*
D11*
X137100000Y-116840000D03*
X123250000Y-114300000D03*
D10*
X108690000Y-129106000D03*
X112290000Y-129106000D03*
D11*
X118050000Y-118438000D03*
X104200000Y-115898000D03*
D15*
X80518000Y-119285000D03*
X80518000Y-115685000D03*
D16*
X69850000Y-109925000D03*
X67310000Y-123775000D03*
D10*
X184890000Y-151331000D03*
X188490000Y-151331000D03*
D11*
X194250000Y-140663000D03*
X180400000Y-138123000D03*
D10*
X165840000Y-151331000D03*
X169440000Y-151331000D03*
D11*
X175200000Y-140663000D03*
X161350000Y-138123000D03*
D10*
X146790000Y-148156000D03*
X150390000Y-148156000D03*
D11*
X156150000Y-137488000D03*
X142300000Y-134948000D03*
D10*
X127740000Y-146558000D03*
X131340000Y-146558000D03*
D11*
X137100000Y-135890000D03*
X123250000Y-133350000D03*
D10*
X108690000Y-148156000D03*
X112290000Y-148156000D03*
D11*
X118050000Y-137488000D03*
X104200000Y-134948000D03*
D12*
X52603687Y-185927183D03*
D13*
G36*
X52446366Y-186772908D02*
G01*
X51854700Y-185504077D01*
X52761008Y-185081458D01*
X53352674Y-186350289D01*
X52446366Y-186772908D01*
X52446366Y-186772908D01*
G37*
D12*
X55866395Y-184405757D03*
D13*
G36*
X55709074Y-185251482D02*
G01*
X55117408Y-183982651D01*
X56023716Y-183560032D01*
X56615382Y-184828863D01*
X55709074Y-185251482D01*
X55709074Y-185251482D01*
G37*
D14*
X56578236Y-172302984D03*
D13*
G36*
X55950966Y-173974707D02*
G01*
X54894421Y-171708938D01*
X57205506Y-170631261D01*
X58262051Y-172897030D01*
X55950966Y-173974707D01*
X55950966Y-173974707D01*
G37*
D14*
X42952423Y-175854225D03*
D13*
G36*
X42325153Y-177525948D02*
G01*
X41268608Y-175260179D01*
X43579693Y-174182502D01*
X44636238Y-176448271D01*
X42325153Y-177525948D01*
X42325153Y-177525948D01*
G37*
D12*
X72165683Y-159313313D03*
D13*
G36*
X73011408Y-159470634D02*
G01*
X71742577Y-160062300D01*
X71319958Y-159155992D01*
X72588789Y-158564326D01*
X73011408Y-159470634D01*
X73011408Y-159470634D01*
G37*
D12*
X70644257Y-156050605D03*
D13*
G36*
X71489982Y-156207926D02*
G01*
X70221151Y-156799592D01*
X69798532Y-155893284D01*
X71067363Y-155301618D01*
X71489982Y-156207926D01*
X71489982Y-156207926D01*
G37*
D14*
X58541484Y-155338764D03*
D13*
G36*
X60213207Y-155966034D02*
G01*
X57947438Y-157022579D01*
X56869761Y-154711494D01*
X59135530Y-153654949D01*
X60213207Y-155966034D01*
X60213207Y-155966034D01*
G37*
D14*
X62092725Y-168964577D03*
D13*
G36*
X63764448Y-169591847D02*
G01*
X61498679Y-170648392D01*
X60421002Y-168337307D01*
X62686771Y-167280762D01*
X63764448Y-169591847D01*
X63764448Y-169591847D01*
G37*
D12*
X89430083Y-151261313D03*
D13*
G36*
X90275808Y-151418634D02*
G01*
X89006977Y-152010300D01*
X88584358Y-151103992D01*
X89853189Y-150512326D01*
X90275808Y-151418634D01*
X90275808Y-151418634D01*
G37*
D12*
X87908657Y-147998605D03*
D13*
G36*
X88754382Y-148155926D02*
G01*
X87485551Y-148747592D01*
X87062932Y-147841284D01*
X88331763Y-147249618D01*
X88754382Y-148155926D01*
X88754382Y-148155926D01*
G37*
D14*
X75805884Y-147286764D03*
D13*
G36*
X77477607Y-147914034D02*
G01*
X75211838Y-148970579D01*
X74134161Y-146659494D01*
X76399930Y-145602949D01*
X77477607Y-147914034D01*
X77477607Y-147914034D01*
G37*
D14*
X79357125Y-160912577D03*
D13*
G36*
X81028848Y-161539847D02*
G01*
X78763079Y-162596392D01*
X77685402Y-160285307D01*
X79951171Y-159228762D01*
X81028848Y-161539847D01*
X81028848Y-161539847D01*
G37*
D12*
X44551887Y-168660183D03*
D13*
G36*
X44394566Y-169505908D02*
G01*
X43802900Y-168237077D01*
X44709208Y-167814458D01*
X45300874Y-169083289D01*
X44394566Y-169505908D01*
X44394566Y-169505908D01*
G37*
D12*
X47814595Y-167138757D03*
D13*
G36*
X47657274Y-167984482D02*
G01*
X47065608Y-166715651D01*
X47971916Y-166293032D01*
X48563582Y-167561863D01*
X47657274Y-167984482D01*
X47657274Y-167984482D01*
G37*
D14*
X48526436Y-155035984D03*
D13*
G36*
X47899166Y-156707707D02*
G01*
X46842621Y-154441938D01*
X49153706Y-153364261D01*
X50210251Y-155630030D01*
X47899166Y-156707707D01*
X47899166Y-156707707D01*
G37*
D14*
X34900623Y-158587225D03*
D13*
G36*
X34273353Y-160258948D02*
G01*
X33216808Y-157993179D01*
X35527893Y-156915502D01*
X36584438Y-159181271D01*
X34273353Y-160258948D01*
X34273353Y-160258948D01*
G37*
D12*
X36502587Y-151396183D03*
D13*
G36*
X36345266Y-152241908D02*
G01*
X35753600Y-150973077D01*
X36659908Y-150550458D01*
X37251574Y-151819289D01*
X36345266Y-152241908D01*
X36345266Y-152241908D01*
G37*
D12*
X39765295Y-149874757D03*
D13*
G36*
X39607974Y-150720482D02*
G01*
X39016308Y-149451651D01*
X39922616Y-149029032D01*
X40514282Y-150297863D01*
X39607974Y-150720482D01*
X39607974Y-150720482D01*
G37*
D14*
X40477136Y-137771984D03*
D13*
G36*
X39849866Y-139443707D02*
G01*
X38793321Y-137177938D01*
X41104406Y-136100261D01*
X42160951Y-138366030D01*
X39849866Y-139443707D01*
X39849866Y-139443707D01*
G37*
D14*
X26851323Y-141323225D03*
D13*
G36*
X26224053Y-142994948D02*
G01*
X25167508Y-140729179D01*
X27478593Y-139651502D01*
X28535138Y-141917271D01*
X26224053Y-142994948D01*
X26224053Y-142994948D01*
G37*
D10*
X70590000Y-73228200D03*
X74190000Y-73228200D03*
D11*
X79950000Y-62560200D03*
X66100000Y-60020200D03*
D13*
G36*
X204700404Y-39178004D02*
G01*
X204724673Y-39181604D01*
X204748471Y-39187565D01*
X204771571Y-39195830D01*
X204793749Y-39206320D01*
X204814793Y-39218933D01*
X204834498Y-39233547D01*
X204852677Y-39250023D01*
X204869153Y-39268202D01*
X204883767Y-39287907D01*
X204896380Y-39308951D01*
X204906870Y-39331129D01*
X204915135Y-39354229D01*
X204921096Y-39378027D01*
X204924696Y-39402296D01*
X204925900Y-39426800D01*
X204925900Y-40176800D01*
X204924696Y-40201304D01*
X204921096Y-40225573D01*
X204915135Y-40249371D01*
X204906870Y-40272471D01*
X204896380Y-40294649D01*
X204883767Y-40315693D01*
X204869153Y-40335398D01*
X204852677Y-40353577D01*
X204834498Y-40370053D01*
X204814793Y-40384667D01*
X204793749Y-40397280D01*
X204771571Y-40407770D01*
X204748471Y-40416035D01*
X204724673Y-40421996D01*
X204700404Y-40425596D01*
X204675900Y-40426800D01*
X203425900Y-40426800D01*
X203401396Y-40425596D01*
X203377127Y-40421996D01*
X203353329Y-40416035D01*
X203330229Y-40407770D01*
X203308051Y-40397280D01*
X203287007Y-40384667D01*
X203267302Y-40370053D01*
X203249123Y-40353577D01*
X203232647Y-40335398D01*
X203218033Y-40315693D01*
X203205420Y-40294649D01*
X203194930Y-40272471D01*
X203186665Y-40249371D01*
X203180704Y-40225573D01*
X203177104Y-40201304D01*
X203175900Y-40176800D01*
X203175900Y-39426800D01*
X203177104Y-39402296D01*
X203180704Y-39378027D01*
X203186665Y-39354229D01*
X203194930Y-39331129D01*
X203205420Y-39308951D01*
X203218033Y-39287907D01*
X203232647Y-39268202D01*
X203249123Y-39250023D01*
X203267302Y-39233547D01*
X203287007Y-39218933D01*
X203308051Y-39206320D01*
X203330229Y-39195830D01*
X203353329Y-39187565D01*
X203377127Y-39181604D01*
X203401396Y-39178004D01*
X203425900Y-39176800D01*
X204675900Y-39176800D01*
X204700404Y-39178004D01*
X204700404Y-39178004D01*
G37*
D17*
X204050900Y-39801800D03*
D13*
G36*
X204700404Y-41978004D02*
G01*
X204724673Y-41981604D01*
X204748471Y-41987565D01*
X204771571Y-41995830D01*
X204793749Y-42006320D01*
X204814793Y-42018933D01*
X204834498Y-42033547D01*
X204852677Y-42050023D01*
X204869153Y-42068202D01*
X204883767Y-42087907D01*
X204896380Y-42108951D01*
X204906870Y-42131129D01*
X204915135Y-42154229D01*
X204921096Y-42178027D01*
X204924696Y-42202296D01*
X204925900Y-42226800D01*
X204925900Y-42976800D01*
X204924696Y-43001304D01*
X204921096Y-43025573D01*
X204915135Y-43049371D01*
X204906870Y-43072471D01*
X204896380Y-43094649D01*
X204883767Y-43115693D01*
X204869153Y-43135398D01*
X204852677Y-43153577D01*
X204834498Y-43170053D01*
X204814793Y-43184667D01*
X204793749Y-43197280D01*
X204771571Y-43207770D01*
X204748471Y-43216035D01*
X204724673Y-43221996D01*
X204700404Y-43225596D01*
X204675900Y-43226800D01*
X203425900Y-43226800D01*
X203401396Y-43225596D01*
X203377127Y-43221996D01*
X203353329Y-43216035D01*
X203330229Y-43207770D01*
X203308051Y-43197280D01*
X203287007Y-43184667D01*
X203267302Y-43170053D01*
X203249123Y-43153577D01*
X203232647Y-43135398D01*
X203218033Y-43115693D01*
X203205420Y-43094649D01*
X203194930Y-43072471D01*
X203186665Y-43049371D01*
X203180704Y-43025573D01*
X203177104Y-43001304D01*
X203175900Y-42976800D01*
X203175900Y-42226800D01*
X203177104Y-42202296D01*
X203180704Y-42178027D01*
X203186665Y-42154229D01*
X203194930Y-42131129D01*
X203205420Y-42108951D01*
X203218033Y-42087907D01*
X203232647Y-42068202D01*
X203249123Y-42050023D01*
X203267302Y-42033547D01*
X203287007Y-42018933D01*
X203308051Y-42006320D01*
X203330229Y-41995830D01*
X203353329Y-41987565D01*
X203377127Y-41981604D01*
X203401396Y-41978004D01*
X203425900Y-41976800D01*
X204675900Y-41976800D01*
X204700404Y-41978004D01*
X204700404Y-41978004D01*
G37*
D17*
X204050900Y-42601800D03*
M02*
