G04 #@! TF.GenerationSoftware,KiCad,Pcbnew,(5.1.4)-1*
G04 #@! TF.CreationDate,2019-09-13T04:19:27+08:00*
G04 #@! TF.ProjectId,ErgoDoxTW,4572676f-446f-4785-9457-2e6b69636164,rev?*
G04 #@! TF.SameCoordinates,Original*
G04 #@! TF.FileFunction,Profile,NP*
%FSLAX46Y46*%
G04 Gerber Fmt 4.6, Leading zero omitted, Abs format (unit mm)*
G04 Created by KiCad (PCBNEW (5.1.4)-1) date 2019-09-13 04:19:27*
%MOMM*%
%LPD*%
G04 APERTURE LIST*
%ADD10C,0.381000*%
G04 APERTURE END LIST*
D10*
X72473174Y-113019674D02*
X67570975Y-113019675D01*
X54627134Y-179171435D02*
X58846074Y-180705594D01*
X58846074Y-180705594D02*
X137014575Y-144261674D01*
X137014575Y-144261674D02*
X206254974Y-144261675D01*
X206254974Y-144261675D02*
X215779975Y-134736674D01*
X215779975Y-134736674D02*
X215779974Y-26786674D01*
X215779974Y-26786674D02*
X212604974Y-23611674D01*
X212604974Y-23611674D02*
X153270574Y-23611674D01*
X153270574Y-23611674D02*
X153270575Y-21833674D01*
X153270575Y-21833674D02*
X141764375Y-21833675D01*
X141764375Y-21833675D02*
X141764375Y-23611674D01*
X141764375Y-23611674D02*
X104908975Y-23611674D01*
X104908975Y-23611674D02*
X104908975Y-21833675D01*
X104908975Y-21833675D02*
X98571675Y-21833674D01*
X98571675Y-21833674D02*
X98571674Y-23103675D01*
X98571674Y-23103675D02*
X94075875Y-23103675D01*
X94075875Y-23103675D02*
X94075875Y-21833675D01*
X94075875Y-21833675D02*
X87738575Y-21833674D01*
X87738575Y-21833674D02*
X87738574Y-23611674D01*
X87738574Y-23611674D02*
X75673575Y-23611675D01*
X75673575Y-23611675D02*
X72473175Y-26786675D01*
X72473175Y-26786675D02*
X72473174Y-113019674D01*
X67570975Y-113019675D02*
X34479854Y-128450174D01*
X34479854Y-128450174D02*
X32943155Y-132669114D01*
X32943155Y-132669114D02*
X54627134Y-179171435D01*
M02*
