G04 #@! TF.GenerationSoftware,KiCad,Pcbnew,(5.1.4)-1*
G04 #@! TF.CreationDate,2019-09-13T04:19:27+08:00*
G04 #@! TF.ProjectId,ErgoDoxTW,4572676f-446f-4785-9457-2e6b69636164,rev?*
G04 #@! TF.SameCoordinates,Original*
G04 #@! TF.FileFunction,Legend,Bot*
G04 #@! TF.FilePolarity,Positive*
%FSLAX46Y46*%
G04 Gerber Fmt 4.6, Leading zero omitted, Abs format (unit mm)*
G04 Created by KiCad (PCBNEW (5.1.4)-1) date 2019-09-13 04:19:27*
%MOMM*%
%LPD*%
G04 APERTURE LIST*
%ADD10C,0.250000*%
%ADD11C,0.750000*%
%ADD12C,0.150000*%
%ADD13C,0.304800*%
%ADD14C,0.508000*%
%ADD15C,0.120000*%
%ADD16C,0.381000*%
%ADD17C,0.300000*%
%ADD18C,0.100000*%
%ADD19C,0.457200*%
G04 APERTURE END LIST*
D10*
X201750126Y-45221211D02*
X202250126Y-45221211D01*
X202250126Y-46006925D02*
X202250126Y-44506925D01*
X201535840Y-44506925D01*
X200107269Y-46006925D02*
X200607269Y-45292639D01*
X200964412Y-46006925D02*
X200964412Y-44506925D01*
X200392983Y-44506925D01*
X200250126Y-44578354D01*
X200178697Y-44649782D01*
X200107269Y-44792639D01*
X200107269Y-45006925D01*
X200178697Y-45149782D01*
X200250126Y-45221211D01*
X200392983Y-45292639D01*
X200964412Y-45292639D01*
X198821555Y-45006925D02*
X198821555Y-46006925D01*
X199178697Y-44435496D02*
X199535840Y-45506925D01*
X198607269Y-45506925D01*
X197107269Y-44506925D02*
X196250126Y-44506925D01*
X196678697Y-46006925D02*
X196678697Y-44506925D01*
X195107269Y-45006925D02*
X195107269Y-46221211D01*
X195178697Y-46364068D01*
X195250126Y-46435496D01*
X195392983Y-46506925D01*
X195607269Y-46506925D01*
X195750126Y-46435496D01*
X195107269Y-45935496D02*
X195250126Y-46006925D01*
X195535840Y-46006925D01*
X195678697Y-45935496D01*
X195750126Y-45864068D01*
X195821555Y-45721211D01*
X195821555Y-45292639D01*
X195750126Y-45149782D01*
X195678697Y-45078354D01*
X195535840Y-45006925D01*
X195250126Y-45006925D01*
X195107269Y-45078354D01*
X193607269Y-46006925D02*
X194464412Y-46006925D01*
X194035840Y-46006925D02*
X194035840Y-44506925D01*
X194178697Y-44721211D01*
X194321555Y-44864068D01*
X194464412Y-44935496D01*
X193107269Y-44506925D02*
X192107269Y-44506925D01*
X192750126Y-46006925D01*
X191250126Y-44506925D02*
X191107269Y-44506925D01*
X190964412Y-44578354D01*
X190892983Y-44649782D01*
X190821555Y-44792639D01*
X190750126Y-45078354D01*
X190750126Y-45435496D01*
X190821555Y-45721211D01*
X190892983Y-45864068D01*
X190964412Y-45935496D01*
X191107269Y-46006925D01*
X191250126Y-46006925D01*
X191392983Y-45935496D01*
X191464412Y-45864068D01*
X191535840Y-45721211D01*
X191607269Y-45435496D01*
X191607269Y-45078354D01*
X191535840Y-44792639D01*
X191464412Y-44649782D01*
X191392983Y-44578354D01*
X191250126Y-44506925D01*
X189892983Y-44506925D02*
X190035840Y-44578354D01*
X190107269Y-44721211D01*
X190035840Y-44864068D01*
X189892983Y-44935496D01*
X189750126Y-44864068D01*
X189678697Y-44721211D01*
X189750126Y-44578354D01*
X189892983Y-44506925D01*
X187107269Y-46006925D02*
X187821555Y-46006925D01*
X187821555Y-44506925D01*
X185964412Y-46006925D02*
X185964412Y-45221211D01*
X186035840Y-45078354D01*
X186178697Y-45006925D01*
X186464412Y-45006925D01*
X186607269Y-45078354D01*
X185964412Y-45935496D02*
X186107269Y-46006925D01*
X186464412Y-46006925D01*
X186607269Y-45935496D01*
X186678697Y-45792639D01*
X186678697Y-45649782D01*
X186607269Y-45506925D01*
X186464412Y-45435496D01*
X186107269Y-45435496D01*
X185964412Y-45364068D01*
X185250126Y-46006925D02*
X185250126Y-45006925D01*
X185250126Y-45149782D02*
X185178697Y-45078354D01*
X185035840Y-45006925D01*
X184821555Y-45006925D01*
X184678697Y-45078354D01*
X184607269Y-45221211D01*
X184607269Y-46006925D01*
X184607269Y-45221211D02*
X184535840Y-45078354D01*
X184392983Y-45006925D01*
X184178697Y-45006925D01*
X184035840Y-45078354D01*
X183964412Y-45221211D01*
X183964412Y-46006925D01*
X183250126Y-46006925D02*
X183250126Y-45006925D01*
X183250126Y-44506925D02*
X183321555Y-44578354D01*
X183250126Y-44649782D01*
X183178697Y-44578354D01*
X183250126Y-44506925D01*
X183250126Y-44649782D01*
X182535840Y-45006925D02*
X182535840Y-46006925D01*
X182535840Y-45149782D02*
X182464412Y-45078354D01*
X182321555Y-45006925D01*
X182107269Y-45006925D01*
X181964412Y-45078354D01*
X181892983Y-45221211D01*
X181892983Y-46006925D01*
X180535840Y-46006925D02*
X180535840Y-45221211D01*
X180607269Y-45078354D01*
X180750126Y-45006925D01*
X181035840Y-45006925D01*
X181178697Y-45078354D01*
X180535840Y-45935496D02*
X180678697Y-46006925D01*
X181035840Y-46006925D01*
X181178697Y-45935496D01*
X181250126Y-45792639D01*
X181250126Y-45649782D01*
X181178697Y-45506925D01*
X181035840Y-45435496D01*
X180678697Y-45435496D01*
X180535840Y-45364068D01*
X180035840Y-45006925D02*
X179464412Y-45006925D01*
X179821555Y-44506925D02*
X179821555Y-45792639D01*
X179750126Y-45935496D01*
X179607269Y-46006925D01*
X179464412Y-46006925D01*
X178392983Y-45935496D02*
X178535840Y-46006925D01*
X178821555Y-46006925D01*
X178964412Y-45935496D01*
X179035840Y-45792639D01*
X179035840Y-45221211D01*
X178964412Y-45078354D01*
X178821555Y-45006925D01*
X178535840Y-45006925D01*
X178392983Y-45078354D01*
X178321555Y-45221211D01*
X178321555Y-45364068D01*
X179035840Y-45506925D01*
X206678697Y-47149782D02*
X206607269Y-47078354D01*
X206464412Y-47006925D01*
X206107269Y-47006925D01*
X205964412Y-47078354D01*
X205892983Y-47149782D01*
X205821555Y-47292639D01*
X205821555Y-47435496D01*
X205892983Y-47649782D01*
X206750126Y-48506925D01*
X205821555Y-48506925D01*
X204535840Y-47506925D02*
X204535840Y-48506925D01*
X204892983Y-46935496D02*
X205250126Y-48006925D01*
X204321555Y-48006925D01*
X203750126Y-48506925D02*
X203750126Y-47506925D01*
X203750126Y-47649782D02*
X203678697Y-47578354D01*
X203535840Y-47506925D01*
X203321555Y-47506925D01*
X203178697Y-47578354D01*
X203107269Y-47721211D01*
X203107269Y-48506925D01*
X203107269Y-47721211D02*
X203035840Y-47578354D01*
X202892983Y-47506925D01*
X202678697Y-47506925D01*
X202535840Y-47578354D01*
X202464412Y-47721211D01*
X202464412Y-48506925D01*
X201750126Y-48506925D02*
X201750126Y-47506925D01*
X201750126Y-47006925D02*
X201821555Y-47078354D01*
X201750126Y-47149782D01*
X201678697Y-47078354D01*
X201750126Y-47006925D01*
X201750126Y-47149782D01*
X200821555Y-48506925D02*
X200964412Y-48435496D01*
X201035840Y-48292639D01*
X201035840Y-47006925D01*
X199321555Y-47506925D02*
X198750126Y-47506925D01*
X199107269Y-47006925D02*
X199107269Y-48292639D01*
X199035840Y-48435496D01*
X198892983Y-48506925D01*
X198750126Y-48506925D01*
X198250126Y-48506925D02*
X198250126Y-47506925D01*
X198250126Y-47792639D02*
X198178697Y-47649782D01*
X198107269Y-47578354D01*
X197964412Y-47506925D01*
X197821555Y-47506925D01*
X196678697Y-48506925D02*
X196678697Y-47721211D01*
X196750126Y-47578354D01*
X196892983Y-47506925D01*
X197178697Y-47506925D01*
X197321555Y-47578354D01*
X196678697Y-48435496D02*
X196821555Y-48506925D01*
X197178697Y-48506925D01*
X197321555Y-48435496D01*
X197392983Y-48292639D01*
X197392983Y-48149782D01*
X197321555Y-48006925D01*
X197178697Y-47935496D01*
X196821555Y-47935496D01*
X196678697Y-47864068D01*
X195321555Y-48435496D02*
X195464412Y-48506925D01*
X195750126Y-48506925D01*
X195892983Y-48435496D01*
X195964412Y-48364068D01*
X196035840Y-48221211D01*
X196035840Y-47792639D01*
X195964412Y-47649782D01*
X195892983Y-47578354D01*
X195750126Y-47506925D01*
X195464412Y-47506925D01*
X195321555Y-47578354D01*
X194107269Y-48435496D02*
X194250126Y-48506925D01*
X194535840Y-48506925D01*
X194678697Y-48435496D01*
X194750126Y-48292639D01*
X194750126Y-47721211D01*
X194678697Y-47578354D01*
X194535840Y-47506925D01*
X194250126Y-47506925D01*
X194107269Y-47578354D01*
X194035840Y-47721211D01*
X194035840Y-47864068D01*
X194750126Y-48006925D01*
X193464412Y-48435496D02*
X193321555Y-48506925D01*
X193035840Y-48506925D01*
X192892983Y-48435496D01*
X192821555Y-48292639D01*
X192821555Y-48221211D01*
X192892983Y-48078354D01*
X193035840Y-48006925D01*
X193250126Y-48006925D01*
X193392983Y-47935496D01*
X193464412Y-47792639D01*
X193464412Y-47721211D01*
X193392983Y-47578354D01*
X193250126Y-47506925D01*
X193035840Y-47506925D01*
X192892983Y-47578354D01*
X190821555Y-48506925D02*
X190964412Y-48435496D01*
X191035840Y-48364068D01*
X191107269Y-48221211D01*
X191107269Y-47792639D01*
X191035840Y-47649782D01*
X190964412Y-47578354D01*
X190821555Y-47506925D01*
X190607269Y-47506925D01*
X190464412Y-47578354D01*
X190392983Y-47649782D01*
X190321555Y-47792639D01*
X190321555Y-48221211D01*
X190392983Y-48364068D01*
X190464412Y-48435496D01*
X190607269Y-48506925D01*
X190821555Y-48506925D01*
X189678697Y-47506925D02*
X189678697Y-48506925D01*
X189678697Y-47649782D02*
X189607269Y-47578354D01*
X189464412Y-47506925D01*
X189250126Y-47506925D01*
X189107269Y-47578354D01*
X189035840Y-47721211D01*
X189035840Y-48506925D01*
X186392983Y-48506925D02*
X187250126Y-48506925D01*
X186821555Y-48506925D02*
X186821555Y-47006925D01*
X186964412Y-47221211D01*
X187107269Y-47364068D01*
X187250126Y-47435496D01*
X185535840Y-48506925D02*
X185678697Y-48435496D01*
X185750126Y-48364068D01*
X185821555Y-48221211D01*
X185821555Y-47792639D01*
X185750126Y-47649782D01*
X185678697Y-47578354D01*
X185535840Y-47506925D01*
X185321555Y-47506925D01*
X185178697Y-47578354D01*
X185107269Y-47649782D01*
X185035840Y-47792639D01*
X185035840Y-48221211D01*
X185107269Y-48364068D01*
X185178697Y-48435496D01*
X185321555Y-48506925D01*
X185535840Y-48506925D01*
X184535840Y-47506925D02*
X183750126Y-47506925D01*
X184535840Y-48506925D01*
X183750126Y-48506925D01*
X181392983Y-48435496D02*
X181535840Y-48506925D01*
X181821555Y-48506925D01*
X181964412Y-48435496D01*
X182035840Y-48364068D01*
X182107269Y-48221211D01*
X182107269Y-47792639D01*
X182035840Y-47649782D01*
X181964412Y-47578354D01*
X181821555Y-47506925D01*
X181535840Y-47506925D01*
X181392983Y-47578354D01*
X180535840Y-48506925D02*
X180678697Y-48435496D01*
X180750126Y-48364068D01*
X180821555Y-48221211D01*
X180821555Y-47792639D01*
X180750126Y-47649782D01*
X180678697Y-47578354D01*
X180535840Y-47506925D01*
X180321555Y-47506925D01*
X180178697Y-47578354D01*
X180107269Y-47649782D01*
X180035840Y-47792639D01*
X180035840Y-48221211D01*
X180107269Y-48364068D01*
X180178697Y-48435496D01*
X180321555Y-48506925D01*
X180535840Y-48506925D01*
X179392983Y-47506925D02*
X179392983Y-49006925D01*
X179392983Y-47578354D02*
X179250126Y-47506925D01*
X178964412Y-47506925D01*
X178821555Y-47578354D01*
X178750126Y-47649782D01*
X178678697Y-47792639D01*
X178678697Y-48221211D01*
X178750126Y-48364068D01*
X178821555Y-48435496D01*
X178964412Y-48506925D01*
X179250126Y-48506925D01*
X179392983Y-48435496D01*
X178035840Y-47506925D02*
X178035840Y-49006925D01*
X178035840Y-47578354D02*
X177892983Y-47506925D01*
X177607269Y-47506925D01*
X177464412Y-47578354D01*
X177392983Y-47649782D01*
X177321555Y-47792639D01*
X177321555Y-48221211D01*
X177392983Y-48364068D01*
X177464412Y-48435496D01*
X177607269Y-48506925D01*
X177892983Y-48506925D01*
X178035840Y-48435496D01*
X176107269Y-48435496D02*
X176250126Y-48506925D01*
X176535840Y-48506925D01*
X176678697Y-48435496D01*
X176750126Y-48292639D01*
X176750126Y-47721211D01*
X176678697Y-47578354D01*
X176535840Y-47506925D01*
X176250126Y-47506925D01*
X176107269Y-47578354D01*
X176035840Y-47721211D01*
X176035840Y-47864068D01*
X176750126Y-48006925D01*
X175392983Y-48506925D02*
X175392983Y-47506925D01*
X175392983Y-47792639D02*
X175321555Y-47649782D01*
X175250126Y-47578354D01*
X175107269Y-47506925D01*
X174964412Y-47506925D01*
D11*
X156602354Y-40374132D02*
X154935688Y-40374132D01*
X154221402Y-42993179D02*
X156602354Y-42993179D01*
X156602354Y-37993179D01*
X154221402Y-37993179D01*
X152078545Y-42993179D02*
X152078545Y-39659846D01*
X152078545Y-40612227D02*
X151840450Y-40136036D01*
X151602354Y-39897941D01*
X151126164Y-39659846D01*
X150649974Y-39659846D01*
X146840450Y-39659846D02*
X146840450Y-43707465D01*
X147078545Y-44183655D01*
X147316640Y-44421751D01*
X147792831Y-44659846D01*
X148507116Y-44659846D01*
X148983307Y-44421751D01*
X146840450Y-42755084D02*
X147316640Y-42993179D01*
X148269021Y-42993179D01*
X148745212Y-42755084D01*
X148983307Y-42516989D01*
X149221402Y-42040798D01*
X149221402Y-40612227D01*
X148983307Y-40136036D01*
X148745212Y-39897941D01*
X148269021Y-39659846D01*
X147316640Y-39659846D01*
X146840450Y-39897941D01*
X143745212Y-42993179D02*
X144221402Y-42755084D01*
X144459497Y-42516989D01*
X144697593Y-42040798D01*
X144697593Y-40612227D01*
X144459497Y-40136036D01*
X144221402Y-39897941D01*
X143745212Y-39659846D01*
X143030926Y-39659846D01*
X142554735Y-39897941D01*
X142316640Y-40136036D01*
X142078545Y-40612227D01*
X142078545Y-42040798D01*
X142316640Y-42516989D01*
X142554735Y-42755084D01*
X143030926Y-42993179D01*
X143745212Y-42993179D01*
X139935688Y-42993179D02*
X139935688Y-37993179D01*
X138745212Y-37993179D01*
X138030926Y-38231275D01*
X137554735Y-38707465D01*
X137316640Y-39183655D01*
X137078545Y-40136036D01*
X137078545Y-40850322D01*
X137316640Y-41802703D01*
X137554735Y-42278894D01*
X138030926Y-42755084D01*
X138745212Y-42993179D01*
X139935688Y-42993179D01*
X134221402Y-42993179D02*
X134697593Y-42755084D01*
X134935688Y-42516989D01*
X135173783Y-42040798D01*
X135173783Y-40612227D01*
X134935688Y-40136036D01*
X134697593Y-39897941D01*
X134221402Y-39659846D01*
X133507116Y-39659846D01*
X133030926Y-39897941D01*
X132792831Y-40136036D01*
X132554735Y-40612227D01*
X132554735Y-42040798D01*
X132792831Y-42516989D01*
X133030926Y-42755084D01*
X133507116Y-42993179D01*
X134221402Y-42993179D01*
X130888069Y-42993179D02*
X128269021Y-39659846D01*
X130888069Y-39659846D02*
X128269021Y-42993179D01*
X127078545Y-37993179D02*
X124221402Y-37993179D01*
X125649974Y-42993179D02*
X125649974Y-37993179D01*
X123030926Y-37993179D02*
X121840450Y-42993179D01*
X120888069Y-39421751D01*
X119935688Y-42993179D01*
X118745212Y-37993179D01*
X113507116Y-39659846D02*
X112316640Y-42993179D01*
X111126164Y-39659846D01*
X106602354Y-42993179D02*
X109459497Y-42993179D01*
X108030926Y-42993179D02*
X108030926Y-37993179D01*
X108507116Y-38707465D01*
X108983307Y-39183655D01*
X109459497Y-39421751D01*
X104459497Y-42516989D02*
X104221402Y-42755084D01*
X104459497Y-42993179D01*
X104697593Y-42755084D01*
X104459497Y-42516989D01*
X104459497Y-42993179D01*
X101126164Y-37993179D02*
X100649974Y-37993179D01*
X100173783Y-38231275D01*
X99935688Y-38469370D01*
X99697593Y-38945560D01*
X99459497Y-39897941D01*
X99459497Y-41088417D01*
X99697593Y-42040798D01*
X99935688Y-42516989D01*
X100173783Y-42755084D01*
X100649974Y-42993179D01*
X101126164Y-42993179D01*
X101602354Y-42755084D01*
X101840450Y-42516989D01*
X102078545Y-42040798D01*
X102316640Y-41088417D01*
X102316640Y-39897941D01*
X102078545Y-38945560D01*
X101840450Y-38469370D01*
X101602354Y-38231275D01*
X101126164Y-37993179D01*
D12*
X79683146Y-28851331D02*
X78522003Y-28851331D01*
X79102575Y-29431902D02*
X79102575Y-28270759D01*
X79084432Y-25621903D02*
X79084432Y-26783046D01*
D13*
X166072174Y-37708675D02*
X170517175Y-37708674D01*
X166072175Y-30088675D02*
X166072174Y-37708675D01*
X170517175Y-30088674D02*
X166072175Y-30088675D01*
X167499413Y-31975532D02*
X169144365Y-31975532D01*
X169337889Y-32048103D01*
X169434651Y-32120675D01*
X169531413Y-32265817D01*
X169531413Y-32556103D01*
X169434651Y-32701246D01*
X169337889Y-32773817D01*
X169144365Y-32846389D01*
X167499413Y-32846389D01*
X169434651Y-33499532D02*
X169531413Y-33717246D01*
X169531413Y-34080103D01*
X169434651Y-34225246D01*
X169337889Y-34297817D01*
X169144365Y-34370389D01*
X168950841Y-34370389D01*
X168757317Y-34297817D01*
X168660555Y-34225246D01*
X168563794Y-34080103D01*
X168467032Y-33789817D01*
X168370270Y-33644675D01*
X168273508Y-33572103D01*
X168079984Y-33499532D01*
X167886460Y-33499532D01*
X167692936Y-33572103D01*
X167596175Y-33644675D01*
X167499413Y-33789817D01*
X167499413Y-34152675D01*
X167596175Y-34370389D01*
X168467032Y-35531532D02*
X168563794Y-35749246D01*
X168660555Y-35821817D01*
X168854079Y-35894389D01*
X169144365Y-35894389D01*
X169337889Y-35821817D01*
X169434651Y-35749246D01*
X169531413Y-35604103D01*
X169531413Y-35023532D01*
X167499413Y-35023532D01*
X167499413Y-35531532D01*
X167596175Y-35676675D01*
X167692936Y-35749246D01*
X167886460Y-35821817D01*
X168079984Y-35821817D01*
X168273508Y-35749246D01*
X168370270Y-35676675D01*
X168467032Y-35531532D01*
X168467032Y-35023532D01*
D14*
X87892788Y-92727251D02*
X89102312Y-92727251D01*
X89102312Y-89679251D01*
X87046121Y-91130679D02*
X86199454Y-91130679D01*
X85836597Y-92727251D02*
X87046121Y-92727251D01*
X87046121Y-89679251D01*
X85836597Y-89679251D01*
X83901359Y-91130679D02*
X84748026Y-91130679D01*
X84748026Y-92727251D02*
X84748026Y-89679251D01*
X83538502Y-89679251D01*
X82933740Y-89679251D02*
X81482312Y-89679251D01*
X82208026Y-92727251D02*
X82208026Y-89679251D01*
X89102312Y-97807251D02*
X89102312Y-94759251D01*
X89102312Y-96210679D02*
X87650883Y-96210679D01*
X87650883Y-97807251D02*
X87650883Y-94759251D01*
X86562312Y-96936394D02*
X85352788Y-96936394D01*
X86804216Y-97807251D02*
X85957550Y-94759251D01*
X85110883Y-97807251D01*
X84264216Y-97807251D02*
X84264216Y-94759251D01*
X82812788Y-97807251D01*
X82812788Y-94759251D01*
X81603264Y-97807251D02*
X81603264Y-94759251D01*
X80998502Y-94759251D01*
X80635645Y-94904394D01*
X80393740Y-95194679D01*
X80272788Y-95484965D01*
X80151835Y-96065536D01*
X80151835Y-96500965D01*
X80272788Y-97081536D01*
X80393740Y-97371822D01*
X80635645Y-97662108D01*
X80998502Y-97807251D01*
X81603264Y-97807251D01*
D12*
X41175393Y-143925554D02*
X40752775Y-143019247D01*
X42081701Y-143502936D02*
X41175393Y-143925554D01*
X53441084Y-137102591D02*
X53863702Y-138008899D01*
X53863702Y-138008899D02*
X52957395Y-138431517D01*
X47040739Y-125743208D02*
X47947047Y-125320590D01*
X35258738Y-131237245D02*
X36165045Y-130814627D01*
X35681356Y-132143553D02*
X35258738Y-131237245D01*
X47947047Y-125320590D02*
X48369665Y-126226897D01*
X83203279Y-155856654D02*
X82296972Y-156279272D01*
X82780661Y-154950346D02*
X83203279Y-155856654D01*
X76380316Y-143590963D02*
X77286624Y-143168345D01*
X77286624Y-143168345D02*
X77709242Y-144074652D01*
X65020933Y-149991308D02*
X64598315Y-149085000D01*
X70514970Y-161773309D02*
X70092352Y-160867002D01*
X71421278Y-161350691D02*
X70514970Y-161773309D01*
X64598315Y-149085000D02*
X65504622Y-148662382D01*
D15*
X120095526Y-27785528D02*
X119325526Y-27785528D01*
X112015526Y-27785528D02*
X112785526Y-27785528D01*
X119325526Y-29155528D02*
X112785526Y-29155528D01*
X119325526Y-26415528D02*
X119325526Y-29155528D01*
X112785526Y-26415528D02*
X119325526Y-26415528D01*
X112785526Y-29155528D02*
X112785526Y-26415528D01*
X130227025Y-26075498D02*
X130997025Y-26075498D01*
X138307025Y-26075498D02*
X137537025Y-26075498D01*
X130997025Y-24705498D02*
X137537025Y-24705498D01*
X130997025Y-27445498D02*
X130997025Y-24705498D01*
X137537025Y-27445498D02*
X130997025Y-27445498D01*
X137537025Y-24705498D02*
X137537025Y-27445498D01*
X120101970Y-31071803D02*
X119331970Y-31071803D01*
X112021970Y-31071803D02*
X112791970Y-31071803D01*
X119331970Y-32441803D02*
X112791970Y-32441803D01*
X119331970Y-29701803D02*
X119331970Y-32441803D01*
X112791970Y-29701803D02*
X119331970Y-29701803D01*
X112791970Y-32441803D02*
X112791970Y-29701803D01*
X130226837Y-32797474D02*
X130996837Y-32797474D01*
X138306837Y-32797474D02*
X137536837Y-32797474D01*
X130996837Y-31427474D02*
X137536837Y-31427474D01*
X130996837Y-34167474D02*
X130996837Y-31427474D01*
X137536837Y-34167474D02*
X130996837Y-34167474D01*
X137536837Y-31427474D02*
X137536837Y-34167474D01*
X75247054Y-26507652D02*
G75*
G03X75246891Y-28589743I1079837J-1041130D01*
G01*
X77406728Y-26507652D02*
G75*
G02X77406891Y-28589743I-1079837J-1041130D01*
G01*
X75248283Y-25876447D02*
G75*
G03X75091375Y-29108782I1078608J-1672335D01*
G01*
X77405499Y-25876447D02*
G75*
G02X77562407Y-29108782I-1078608J-1672335D01*
G01*
X75246891Y-29108782D02*
X75090891Y-29108782D01*
X77562891Y-29108782D02*
X77406891Y-29108782D01*
X134848147Y-26985444D02*
X133644019Y-26985444D01*
X134848147Y-25165444D02*
X133644019Y-25165444D01*
X134846640Y-33716421D02*
X133642512Y-33716421D01*
X134846640Y-31896421D02*
X133642512Y-31896421D01*
X75247278Y-39207537D02*
G75*
G03X75247115Y-41289628I1079837J-1041130D01*
G01*
X77406952Y-39207537D02*
G75*
G02X77407115Y-41289628I-1079837J-1041130D01*
G01*
X75248507Y-38576332D02*
G75*
G03X75091599Y-41808667I1078608J-1672335D01*
G01*
X77405723Y-38576332D02*
G75*
G02X77562631Y-41808667I-1078608J-1672335D01*
G01*
X75247115Y-41808667D02*
X75091115Y-41808667D01*
X77563115Y-41808667D02*
X77407115Y-41808667D01*
X75247528Y-32807498D02*
G75*
G03X75247365Y-34889589I1079837J-1041130D01*
G01*
X77407202Y-32807498D02*
G75*
G02X77407365Y-34889589I-1079837J-1041130D01*
G01*
X75248757Y-32176293D02*
G75*
G03X75091849Y-35408628I1078608J-1672335D01*
G01*
X77405973Y-32176293D02*
G75*
G02X77562881Y-35408628I-1078608J-1672335D01*
G01*
X75247365Y-35408628D02*
X75091365Y-35408628D01*
X77563365Y-35408628D02*
X77407365Y-35408628D01*
D12*
X194382609Y-103456587D02*
X194382609Y-102456587D01*
X195382609Y-103456587D02*
X194382609Y-103456587D01*
X208382609Y-102456587D02*
X208382609Y-103456587D01*
X208382609Y-103456587D02*
X207382609Y-103456587D01*
X207382609Y-89456587D02*
X208382609Y-89456587D01*
X194382609Y-89456587D02*
X195382609Y-89456587D01*
X194382609Y-90456587D02*
X194382609Y-89456587D01*
X208382609Y-89456587D02*
X208382609Y-90456587D01*
X194382366Y-84405777D02*
X194382366Y-83405777D01*
X195382366Y-84405777D02*
X194382366Y-84405777D01*
X208382366Y-83405777D02*
X208382366Y-84405777D01*
X208382366Y-84405777D02*
X207382366Y-84405777D01*
X207382366Y-70405777D02*
X208382366Y-70405777D01*
X194382366Y-70405777D02*
X195382366Y-70405777D01*
X194382366Y-71405777D02*
X194382366Y-70405777D01*
X208382366Y-70405777D02*
X208382366Y-71405777D01*
X194382430Y-122506490D02*
X194382430Y-121506490D01*
X195382430Y-122506490D02*
X194382430Y-122506490D01*
X208382430Y-121506490D02*
X208382430Y-122506490D01*
X208382430Y-122506490D02*
X207382430Y-122506490D01*
X207382430Y-108506490D02*
X208382430Y-108506490D01*
X194382430Y-108506490D02*
X195382430Y-108506490D01*
X194382430Y-109506490D02*
X194382430Y-108506490D01*
X208382430Y-108506490D02*
X208382430Y-109506490D01*
X194382001Y-65359437D02*
X194382001Y-64359437D01*
X195382001Y-65359437D02*
X194382001Y-65359437D01*
X208382001Y-64359437D02*
X208382001Y-65359437D01*
X208382001Y-65359437D02*
X207382001Y-65359437D01*
X207382001Y-51359437D02*
X208382001Y-51359437D01*
X194382001Y-51359437D02*
X195382001Y-51359437D01*
X194382001Y-52359437D02*
X194382001Y-51359437D01*
X208382001Y-51359437D02*
X208382001Y-52359437D01*
X58439650Y-135875099D02*
X58017032Y-134968792D01*
X59345958Y-135452481D02*
X58439650Y-135875099D01*
X70705341Y-129052136D02*
X71127959Y-129958444D01*
X71127959Y-129958444D02*
X70221652Y-130381062D01*
X64304996Y-117692753D02*
X65211304Y-117270135D01*
X52522995Y-123186790D02*
X53429302Y-122764172D01*
X52945613Y-124093098D02*
X52522995Y-123186790D01*
X65211304Y-117270135D02*
X65633922Y-118176442D01*
X94301765Y-120601968D02*
X94301765Y-119601968D01*
X95301765Y-120601968D02*
X94301765Y-120601968D01*
X108301765Y-119601968D02*
X108301765Y-120601968D01*
X108301765Y-120601968D02*
X107301765Y-120601968D01*
X107301765Y-106601968D02*
X108301765Y-106601968D01*
X94301765Y-106601968D02*
X95301765Y-106601968D01*
X94301765Y-107601968D02*
X94301765Y-106601968D01*
X108301765Y-106601968D02*
X108301765Y-107601968D01*
X132402655Y-60583581D02*
X132402655Y-59583581D01*
X133402655Y-60583581D02*
X132402655Y-60583581D01*
X146402655Y-59583581D02*
X146402655Y-60583581D01*
X146402655Y-60583581D02*
X145402655Y-60583581D01*
X145402655Y-46583581D02*
X146402655Y-46583581D01*
X132402655Y-46583581D02*
X133402655Y-46583581D01*
X132402655Y-47583581D02*
X132402655Y-46583581D01*
X146402655Y-46583581D02*
X146402655Y-47583581D01*
X94301989Y-63453949D02*
X94301989Y-62453949D01*
X95301989Y-63453949D02*
X94301989Y-63453949D01*
X108301989Y-62453949D02*
X108301989Y-63453949D01*
X108301989Y-63453949D02*
X107301989Y-63453949D01*
X107301989Y-49453949D02*
X108301989Y-49453949D01*
X94301989Y-49453949D02*
X95301989Y-49453949D01*
X94301989Y-50453949D02*
X94301989Y-49453949D01*
X108301989Y-49453949D02*
X108301989Y-50453949D01*
X113351859Y-81231328D02*
X113351859Y-80231328D01*
X114351859Y-81231328D02*
X113351859Y-81231328D01*
X127351859Y-80231328D02*
X127351859Y-81231328D01*
X127351859Y-81231328D02*
X126351859Y-81231328D01*
X126351859Y-67231328D02*
X127351859Y-67231328D01*
X113351859Y-67231328D02*
X114351859Y-67231328D01*
X113351859Y-68231328D02*
X113351859Y-67231328D01*
X127351859Y-67231328D02*
X127351859Y-68231328D01*
X132402475Y-79633484D02*
X132402475Y-78633484D01*
X133402475Y-79633484D02*
X132402475Y-79633484D01*
X146402475Y-78633484D02*
X146402475Y-79633484D01*
X146402475Y-79633484D02*
X145402475Y-79633484D01*
X145402475Y-65633484D02*
X146402475Y-65633484D01*
X132402475Y-65633484D02*
X133402475Y-65633484D01*
X132402475Y-66633484D02*
X132402475Y-65633484D01*
X146402475Y-65633484D02*
X146402475Y-66633484D01*
X94301702Y-82501255D02*
X94301702Y-81501255D01*
X95301702Y-82501255D02*
X94301702Y-82501255D01*
X108301702Y-81501255D02*
X108301702Y-82501255D01*
X108301702Y-82501255D02*
X107301702Y-82501255D01*
X107301702Y-68501255D02*
X108301702Y-68501255D01*
X94301702Y-68501255D02*
X95301702Y-68501255D01*
X94301702Y-69501255D02*
X94301702Y-68501255D01*
X108301702Y-68501255D02*
X108301702Y-69501255D01*
X89251844Y-87264336D02*
X88251844Y-87264336D01*
X89251844Y-86264336D02*
X89251844Y-87264336D01*
X88251844Y-73264336D02*
X89251844Y-73264336D01*
X89251844Y-73264336D02*
X89251844Y-74264336D01*
X75251844Y-74264336D02*
X75251844Y-73264336D01*
X75251844Y-87264336D02*
X75251844Y-86264336D01*
X76251844Y-87264336D02*
X75251844Y-87264336D01*
X75251844Y-73264336D02*
X76251844Y-73264336D01*
X113352039Y-62181424D02*
X113352039Y-61181424D01*
X114352039Y-62181424D02*
X113352039Y-62181424D01*
X127352039Y-61181424D02*
X127352039Y-62181424D01*
X127352039Y-62181424D02*
X126352039Y-62181424D01*
X126352039Y-48181424D02*
X127352039Y-48181424D01*
X113352039Y-48181424D02*
X114352039Y-48181424D01*
X113352039Y-49181424D02*
X113352039Y-48181424D01*
X127352039Y-48181424D02*
X127352039Y-49181424D01*
X170502202Y-65358377D02*
X170502202Y-64358377D01*
X171502202Y-65358377D02*
X170502202Y-65358377D01*
X184502202Y-64358377D02*
X184502202Y-65358377D01*
X184502202Y-65358377D02*
X183502202Y-65358377D01*
X183502202Y-51358377D02*
X184502202Y-51358377D01*
X170502202Y-51358377D02*
X171502202Y-51358377D01*
X170502202Y-52358377D02*
X170502202Y-51358377D01*
X184502202Y-51358377D02*
X184502202Y-52358377D01*
X151451846Y-62181784D02*
X151451846Y-61181784D01*
X152451846Y-62181784D02*
X151451846Y-62181784D01*
X165451846Y-61181784D02*
X165451846Y-62181784D01*
X165451846Y-62181784D02*
X164451846Y-62181784D01*
X164451846Y-48181784D02*
X165451846Y-48181784D01*
X151451846Y-48181784D02*
X152451846Y-48181784D01*
X151451846Y-49181784D02*
X151451846Y-48181784D01*
X165451846Y-48181784D02*
X165451846Y-49181784D01*
X170502084Y-84406046D02*
X170502084Y-83406046D01*
X171502084Y-84406046D02*
X170502084Y-84406046D01*
X184502084Y-83406046D02*
X184502084Y-84406046D01*
X184502084Y-84406046D02*
X183502084Y-84406046D01*
X183502084Y-70406046D02*
X184502084Y-70406046D01*
X170502084Y-70406046D02*
X171502084Y-70406046D01*
X170502084Y-71406046D02*
X170502084Y-70406046D01*
X184502084Y-70406046D02*
X184502084Y-71406046D01*
X151452572Y-81231265D02*
X151452572Y-80231265D01*
X152452572Y-81231265D02*
X151452572Y-81231265D01*
X165452572Y-80231265D02*
X165452572Y-81231265D01*
X165452572Y-81231265D02*
X164452572Y-81231265D01*
X164452572Y-67231265D02*
X165452572Y-67231265D01*
X151452572Y-67231265D02*
X152452572Y-67231265D01*
X151452572Y-68231265D02*
X151452572Y-67231265D01*
X165452572Y-67231265D02*
X165452572Y-68231265D01*
X170502326Y-103456856D02*
X170502326Y-102456856D01*
X171502326Y-103456856D02*
X170502326Y-103456856D01*
X184502326Y-102456856D02*
X184502326Y-103456856D01*
X184502326Y-103456856D02*
X183502326Y-103456856D01*
X183502326Y-89456856D02*
X184502326Y-89456856D01*
X170502326Y-89456856D02*
X171502326Y-89456856D01*
X170502326Y-90456856D02*
X170502326Y-89456856D01*
X184502326Y-89456856D02*
X184502326Y-90456856D01*
X151452393Y-100281168D02*
X151452393Y-99281168D01*
X152452393Y-100281168D02*
X151452393Y-100281168D01*
X165452393Y-99281168D02*
X165452393Y-100281168D01*
X165452393Y-100281168D02*
X164452393Y-100281168D01*
X164452393Y-86281168D02*
X165452393Y-86281168D01*
X151452393Y-86281168D02*
X152452393Y-86281168D01*
X151452393Y-87281168D02*
X151452393Y-86281168D01*
X165452393Y-86281168D02*
X165452393Y-87281168D01*
X132402296Y-98683388D02*
X132402296Y-97683388D01*
X133402296Y-98683388D02*
X132402296Y-98683388D01*
X146402296Y-97683388D02*
X146402296Y-98683388D01*
X146402296Y-98683388D02*
X145402296Y-98683388D01*
X145402296Y-84683388D02*
X146402296Y-84683388D01*
X132402296Y-84683388D02*
X133402296Y-84683388D01*
X132402296Y-85683388D02*
X132402296Y-84683388D01*
X146402296Y-84683388D02*
X146402296Y-85683388D01*
X113352102Y-100282138D02*
X113352102Y-99282138D01*
X114352102Y-100282138D02*
X113352102Y-100282138D01*
X127352102Y-99282138D02*
X127352102Y-100282138D01*
X127352102Y-100282138D02*
X126352102Y-100282138D01*
X126352102Y-86282138D02*
X127352102Y-86282138D01*
X113352102Y-86282138D02*
X114352102Y-86282138D01*
X113352102Y-87282138D02*
X113352102Y-86282138D01*
X127352102Y-86282138D02*
X127352102Y-87282138D01*
X94301945Y-101552064D02*
X94301945Y-100552064D01*
X95301945Y-101552064D02*
X94301945Y-101552064D01*
X108301945Y-100552064D02*
X108301945Y-101552064D01*
X108301945Y-101552064D02*
X107301945Y-101552064D01*
X107301945Y-87552064D02*
X108301945Y-87552064D01*
X94301945Y-87552064D02*
X95301945Y-87552064D01*
X94301945Y-88552064D02*
X94301945Y-87552064D01*
X108301945Y-87552064D02*
X108301945Y-88552064D01*
X170502147Y-122506759D02*
X170502147Y-121506759D01*
X171502147Y-122506759D02*
X170502147Y-122506759D01*
X184502147Y-121506759D02*
X184502147Y-122506759D01*
X184502147Y-122506759D02*
X183502147Y-122506759D01*
X183502147Y-108506759D02*
X184502147Y-108506759D01*
X170502147Y-108506759D02*
X171502147Y-108506759D01*
X170502147Y-109506759D02*
X170502147Y-108506759D01*
X184502147Y-108506759D02*
X184502147Y-109506759D01*
X151452636Y-119331978D02*
X151452636Y-118331978D01*
X152452636Y-119331978D02*
X151452636Y-119331978D01*
X165452636Y-118331978D02*
X165452636Y-119331978D01*
X165452636Y-119331978D02*
X164452636Y-119331978D01*
X164452636Y-105331978D02*
X165452636Y-105331978D01*
X151452636Y-105331978D02*
X152452636Y-105331978D01*
X151452636Y-106331978D02*
X151452636Y-105331978D01*
X165452636Y-105331978D02*
X165452636Y-106331978D01*
X132402116Y-117733291D02*
X132402116Y-116733291D01*
X133402116Y-117733291D02*
X132402116Y-117733291D01*
X146402116Y-116733291D02*
X146402116Y-117733291D01*
X146402116Y-117733291D02*
X145402116Y-117733291D01*
X145402116Y-103733291D02*
X146402116Y-103733291D01*
X132402116Y-103733291D02*
X133402116Y-103733291D01*
X132402116Y-104733291D02*
X132402116Y-103733291D01*
X146402116Y-103733291D02*
X146402116Y-104733291D01*
X113351922Y-119332041D02*
X113351922Y-118332041D01*
X114351922Y-119332041D02*
X113351922Y-119332041D01*
X127351922Y-118332041D02*
X127351922Y-119332041D01*
X127351922Y-119332041D02*
X126351922Y-119332041D01*
X126351922Y-105332041D02*
X127351922Y-105332041D01*
X113351922Y-105332041D02*
X114351922Y-105332041D01*
X113351922Y-106332041D02*
X113351922Y-105332041D01*
X127351922Y-105332041D02*
X127351922Y-106332041D01*
X89252088Y-115838400D02*
X88252088Y-115838400D01*
X89252088Y-114838400D02*
X89252088Y-115838400D01*
X88252088Y-101838400D02*
X89252088Y-101838400D01*
X89252088Y-101838400D02*
X89252088Y-102838400D01*
X75252088Y-102838400D02*
X75252088Y-101838400D01*
X75252088Y-115838400D02*
X75252088Y-114838400D01*
X76252088Y-115838400D02*
X75252088Y-115838400D01*
X75252088Y-101838400D02*
X76252088Y-101838400D01*
X189551871Y-141556842D02*
X189551871Y-140556842D01*
X190551871Y-141556842D02*
X189551871Y-141556842D01*
X203551871Y-140556842D02*
X203551871Y-141556842D01*
X203551871Y-141556842D02*
X202551871Y-141556842D01*
X202551871Y-127556842D02*
X203551871Y-127556842D01*
X189551871Y-127556842D02*
X190551871Y-127556842D01*
X189551871Y-128556842D02*
X189551871Y-127556842D01*
X203551871Y-127556842D02*
X203551871Y-128556842D01*
X170501967Y-141556663D02*
X170501967Y-140556663D01*
X171501967Y-141556663D02*
X170501967Y-141556663D01*
X184501967Y-140556663D02*
X184501967Y-141556663D01*
X184501967Y-141556663D02*
X183501967Y-141556663D01*
X183501967Y-127556663D02*
X184501967Y-127556663D01*
X170501967Y-127556663D02*
X171501967Y-127556663D01*
X170501967Y-128556663D02*
X170501967Y-127556663D01*
X184501967Y-127556663D02*
X184501967Y-128556663D01*
X151452456Y-138381882D02*
X151452456Y-137381882D01*
X152452456Y-138381882D02*
X151452456Y-138381882D01*
X165452456Y-137381882D02*
X165452456Y-138381882D01*
X165452456Y-138381882D02*
X164452456Y-138381882D01*
X164452456Y-124381882D02*
X165452456Y-124381882D01*
X151452456Y-124381882D02*
X152452456Y-124381882D01*
X151452456Y-125381882D02*
X151452456Y-124381882D01*
X165452456Y-124381882D02*
X165452456Y-125381882D01*
X132402359Y-136784101D02*
X132402359Y-135784101D01*
X133402359Y-136784101D02*
X132402359Y-136784101D01*
X146402359Y-135784101D02*
X146402359Y-136784101D01*
X146402359Y-136784101D02*
X145402359Y-136784101D01*
X145402359Y-122784101D02*
X146402359Y-122784101D01*
X132402359Y-122784101D02*
X133402359Y-122784101D01*
X132402359Y-123784101D02*
X132402359Y-122784101D01*
X146402359Y-122784101D02*
X146402359Y-123784101D01*
X113352649Y-138381522D02*
X113352649Y-137381522D01*
X114352649Y-138381522D02*
X113352649Y-138381522D01*
X127352649Y-137381522D02*
X127352649Y-138381522D01*
X127352649Y-138381522D02*
X126352649Y-138381522D01*
X126352649Y-124381522D02*
X127352649Y-124381522D01*
X113352649Y-124381522D02*
X114352649Y-124381522D01*
X113352649Y-125381522D02*
X113352649Y-124381522D01*
X127352649Y-124381522D02*
X127352649Y-125381522D01*
X57276424Y-178456219D02*
X56853806Y-177549912D01*
X58182732Y-178033601D02*
X57276424Y-178456219D01*
X69542115Y-171633256D02*
X69964733Y-172539564D01*
X69964733Y-172539564D02*
X69058426Y-172962182D01*
X63141770Y-160273873D02*
X64048078Y-159851255D01*
X51359769Y-165767910D02*
X52266076Y-165345292D01*
X51782387Y-166674218D02*
X51359769Y-165767910D01*
X64048078Y-159851255D02*
X64470696Y-160757562D01*
X100467325Y-147804090D02*
X99561018Y-148226708D01*
X100044707Y-146897782D02*
X100467325Y-147804090D01*
X93644362Y-135538399D02*
X94550670Y-135115781D01*
X94550670Y-135115781D02*
X94973288Y-136022088D01*
X82284979Y-141938744D02*
X81862361Y-141032436D01*
X87779016Y-153720745D02*
X87356398Y-152814438D01*
X88685324Y-153298127D02*
X87779016Y-153720745D01*
X81862361Y-141032436D02*
X82768668Y-140609818D01*
X49224610Y-161189285D02*
X48801992Y-160282978D01*
X50130918Y-160766667D02*
X49224610Y-161189285D01*
X61490301Y-154366322D02*
X61912919Y-155272630D01*
X61912919Y-155272630D02*
X61006612Y-155695248D01*
X55089956Y-143006939D02*
X55996264Y-142584321D01*
X43307955Y-148500976D02*
X44214262Y-148078358D01*
X43730573Y-149407284D02*
X43307955Y-148500976D01*
X55996264Y-142584321D02*
X56418882Y-143490628D01*
X75252128Y-63453860D02*
X75252128Y-62453860D01*
X76252128Y-63453860D02*
X75252128Y-63453860D01*
X89252128Y-62453860D02*
X89252128Y-63453860D01*
X89252128Y-63453860D02*
X88252128Y-63453860D01*
X88252128Y-49453860D02*
X89252128Y-49453860D01*
X75252128Y-49453860D02*
X76252128Y-49453860D01*
X75252128Y-50453860D02*
X75252128Y-49453860D01*
X89252128Y-49453860D02*
X89252128Y-50453860D01*
D16*
X91370560Y-33898792D02*
X91370560Y-21833792D01*
X100971760Y-33898792D02*
X91370560Y-33898792D01*
X100971760Y-21833792D02*
X100971760Y-33898792D01*
D17*
X102571862Y-31358859D02*
X102571862Y-28818859D01*
X105111862Y-31358859D02*
G75*
G02X103841862Y-32628859I-1270000J0D01*
G01*
X103841862Y-32628859D02*
G75*
G02X102571862Y-31358859I0J1270000D01*
G01*
X103841862Y-27548859D02*
G75*
G02X105111862Y-28818859I0J-1270000D01*
G01*
X102571862Y-28818859D02*
G75*
G02X103841862Y-27548859I1270000J0D01*
G01*
X105111862Y-31358859D02*
X105111862Y-28818859D01*
X87331982Y-28818806D02*
G75*
G03X88601982Y-30088806I1270000J0D01*
G01*
X88601982Y-30088806D02*
G75*
G03X89871982Y-28818806I0J1270000D01*
G01*
X88601982Y-25008806D02*
G75*
G03X87331982Y-26278806I0J-1270000D01*
G01*
X89871982Y-26278806D02*
G75*
G03X88601982Y-25008806I-1270000J0D01*
G01*
X87331982Y-28818806D02*
X87331982Y-26278806D01*
X89871982Y-28818806D02*
X89871982Y-26278806D01*
D16*
X170517614Y-42788819D02*
X170517614Y-25008819D01*
X170517614Y-25008819D02*
X200997614Y-25008819D01*
X200997614Y-25008819D02*
X200997614Y-42788819D01*
X200997614Y-42788819D02*
X170517614Y-42788819D01*
X170517614Y-27548819D02*
X173057614Y-27548819D01*
X173057614Y-27548819D02*
X173057614Y-25008819D01*
D15*
X115497371Y-26879878D02*
X116701499Y-26879878D01*
X115497371Y-28699878D02*
X116701499Y-28699878D01*
X115497470Y-30169111D02*
X116701598Y-30169111D01*
X115497470Y-31989111D02*
X116701598Y-31989111D01*
X83089641Y-39147133D02*
X83089641Y-40351261D01*
X81269641Y-39147133D02*
X81269641Y-40351261D01*
X86390866Y-39146959D02*
X86390866Y-40351087D01*
X84570866Y-39146959D02*
X84570866Y-40351087D01*
X89781605Y-39147082D02*
X89781605Y-40351210D01*
X87961605Y-39147082D02*
X87961605Y-40351210D01*
X82179713Y-43729961D02*
X82179713Y-42959961D01*
X82179713Y-35649961D02*
X82179713Y-36419961D01*
X80809713Y-42959961D02*
X80809713Y-36419961D01*
X83549713Y-42959961D02*
X80809713Y-42959961D01*
X83549713Y-36419961D02*
X83549713Y-42959961D01*
X80809713Y-36419961D02*
X83549713Y-36419961D01*
X85480412Y-43731024D02*
X85480412Y-42961024D01*
X85480412Y-35651024D02*
X85480412Y-36421024D01*
X84110412Y-42961024D02*
X84110412Y-36421024D01*
X86850412Y-42961024D02*
X84110412Y-42961024D01*
X86850412Y-36421024D02*
X86850412Y-42961024D01*
X84110412Y-36421024D02*
X86850412Y-36421024D01*
X88877790Y-43728824D02*
X88877790Y-42958824D01*
X88877790Y-35648824D02*
X88877790Y-36418824D01*
X87507790Y-42958824D02*
X87507790Y-36418824D01*
X90247790Y-42958824D02*
X87507790Y-42958824D01*
X90247790Y-36418824D02*
X90247790Y-42958824D01*
X87507790Y-36418824D02*
X90247790Y-36418824D01*
D18*
X47160798Y-136806330D02*
X47084254Y-136878802D01*
X46933203Y-136949238D01*
X46858695Y-136947203D01*
X46814397Y-136931080D01*
X46756013Y-136884746D01*
X46727838Y-136824326D01*
X46729874Y-136749818D01*
X46745997Y-136705521D01*
X46792330Y-136647136D01*
X46899084Y-136560576D01*
X46945417Y-136502192D01*
X46961540Y-136457894D01*
X46963576Y-136383386D01*
X46935401Y-136322966D01*
X46877016Y-136276632D01*
X46832719Y-136260509D01*
X46758211Y-136258474D01*
X46607160Y-136328910D01*
X46530616Y-136401382D01*
X46305057Y-136469783D02*
X46449839Y-137174635D01*
X46117688Y-136777830D01*
X46208156Y-137287333D01*
X45761272Y-136723354D01*
X45398749Y-136892401D02*
X45338329Y-136920576D01*
X45291996Y-136978961D01*
X45275873Y-137023258D01*
X45273837Y-137097766D01*
X45299976Y-137232694D01*
X45370412Y-137383745D01*
X45456971Y-137490499D01*
X45515356Y-137536832D01*
X45559654Y-137552955D01*
X45634162Y-137554991D01*
X45694582Y-137526817D01*
X45740915Y-137468432D01*
X45757038Y-137424134D01*
X45759074Y-137349626D01*
X45732935Y-137214698D01*
X45662499Y-137063647D01*
X45575939Y-136956893D01*
X45517555Y-136910560D01*
X45473257Y-136894437D01*
X45398749Y-136892401D01*
X45183043Y-137691793D02*
X45166920Y-137736090D01*
X45211218Y-137752213D01*
X45227341Y-137707915D01*
X45183043Y-137691793D01*
X45211218Y-137752213D01*
X45028083Y-137359480D02*
X45011960Y-137403777D01*
X45056258Y-137419900D01*
X45072381Y-137375603D01*
X45028083Y-137359480D01*
X45056258Y-137419900D01*
X44341390Y-137385456D02*
X44462231Y-137329107D01*
X44536739Y-137331142D01*
X44581037Y-137347265D01*
X44683719Y-137409722D01*
X44770278Y-137516475D01*
X44882976Y-137758157D01*
X44880941Y-137832665D01*
X44864818Y-137876963D01*
X44818485Y-137935348D01*
X44697643Y-137991697D01*
X44623136Y-137989661D01*
X44578838Y-137973538D01*
X44520453Y-137927205D01*
X44450017Y-137776153D01*
X44452053Y-137701646D01*
X44468176Y-137657348D01*
X44514509Y-137598963D01*
X44635350Y-137542614D01*
X44709858Y-137544650D01*
X44754155Y-137560773D01*
X44812540Y-137607106D01*
X76781986Y-152708815D02*
X76709514Y-152632271D01*
X76639078Y-152481220D01*
X76641113Y-152406712D01*
X76657236Y-152362414D01*
X76703570Y-152304030D01*
X76763990Y-152275855D01*
X76838498Y-152277891D01*
X76882795Y-152294014D01*
X76941180Y-152340347D01*
X77027740Y-152447101D01*
X77086124Y-152493434D01*
X77130422Y-152509557D01*
X77204930Y-152511593D01*
X77265350Y-152483418D01*
X77311684Y-152425033D01*
X77327807Y-152380736D01*
X77329842Y-152306228D01*
X77259406Y-152155177D01*
X77186934Y-152078633D01*
X77118533Y-151853074D02*
X76413681Y-151997856D01*
X76810486Y-151665705D01*
X76300983Y-151756173D01*
X76864962Y-151309289D01*
X76695915Y-150946766D02*
X76667740Y-150886346D01*
X76609355Y-150840013D01*
X76565058Y-150823890D01*
X76490550Y-150821854D01*
X76355622Y-150847993D01*
X76204571Y-150918429D01*
X76097817Y-151004988D01*
X76051484Y-151063373D01*
X76035361Y-151107671D01*
X76033325Y-151182179D01*
X76061499Y-151242599D01*
X76119884Y-151288932D01*
X76164182Y-151305055D01*
X76238690Y-151307091D01*
X76373618Y-151280952D01*
X76524669Y-151210516D01*
X76631423Y-151123956D01*
X76677756Y-151065572D01*
X76693879Y-151021274D01*
X76695915Y-150946766D01*
X75896523Y-150731060D02*
X75852226Y-150714937D01*
X75836103Y-150759235D01*
X75880401Y-150775358D01*
X75896523Y-150731060D01*
X75836103Y-150759235D01*
X76228836Y-150576100D02*
X76184539Y-150559977D01*
X76168416Y-150604275D01*
X76212713Y-150620398D01*
X76228836Y-150576100D01*
X76168416Y-150604275D01*
X76283312Y-150219684D02*
X76299435Y-150175387D01*
X76301471Y-150100879D01*
X76231035Y-149949828D01*
X76172650Y-149903494D01*
X76128352Y-149887371D01*
X76053845Y-149885336D01*
X75993424Y-149913510D01*
X75916881Y-149985982D01*
X75723405Y-150517553D01*
X75540270Y-150124819D01*
D12*
X149214611Y-26889420D02*
X149214611Y-27698944D01*
X149166992Y-27794182D01*
X149119373Y-27841801D01*
X149024135Y-27889420D01*
X148833658Y-27889420D01*
X148738420Y-27841801D01*
X148690801Y-27794182D01*
X148643182Y-27698944D01*
X148643182Y-26889420D01*
X148214611Y-27841801D02*
X148071754Y-27889420D01*
X147833658Y-27889420D01*
X147738420Y-27841801D01*
X147690801Y-27794182D01*
X147643182Y-27698944D01*
X147643182Y-27603706D01*
X147690801Y-27508468D01*
X147738420Y-27460849D01*
X147833658Y-27413230D01*
X148024135Y-27365611D01*
X148119373Y-27317992D01*
X148166992Y-27270373D01*
X148214611Y-27175135D01*
X148214611Y-27079897D01*
X148166992Y-26984659D01*
X148119373Y-26937040D01*
X148024135Y-26889420D01*
X147786039Y-26889420D01*
X147643182Y-26937040D01*
X146881277Y-27365611D02*
X146738420Y-27413230D01*
X146690801Y-27460849D01*
X146643182Y-27556087D01*
X146643182Y-27698944D01*
X146690801Y-27794182D01*
X146738420Y-27841801D01*
X146833658Y-27889420D01*
X147214611Y-27889420D01*
X147214611Y-26889420D01*
X146881277Y-26889420D01*
X146786039Y-26937040D01*
X146738420Y-26984659D01*
X146690801Y-27079897D01*
X146690801Y-27175135D01*
X146738420Y-27270373D01*
X146786039Y-27317992D01*
X146881277Y-27365611D01*
X147214611Y-27365611D01*
X145690801Y-27889420D02*
X146262230Y-27889420D01*
X145976516Y-27889420D02*
X145976516Y-26889420D01*
X146071754Y-27032278D01*
X146166992Y-27127516D01*
X146262230Y-27175135D01*
X150236811Y-33204540D02*
X150332049Y-33156920D01*
X150474906Y-33156920D01*
X150617763Y-33204540D01*
X150713001Y-33299778D01*
X150760620Y-33395016D01*
X150808239Y-33585492D01*
X150808239Y-33728349D01*
X150760620Y-33918825D01*
X150713001Y-34014063D01*
X150617763Y-34109301D01*
X150474906Y-34156920D01*
X150379668Y-34156920D01*
X150236811Y-34109301D01*
X150189192Y-34061682D01*
X150189192Y-33728349D01*
X150379668Y-33728349D01*
X148735220Y-34156920D02*
X148735220Y-33156920D01*
X148354268Y-33156920D01*
X148259030Y-33204540D01*
X148211411Y-33252159D01*
X148163792Y-33347397D01*
X148163792Y-33490254D01*
X148211411Y-33585492D01*
X148259030Y-33633111D01*
X148354268Y-33680730D01*
X148735220Y-33680730D01*
X146733630Y-34156920D02*
X146733630Y-33156920D01*
X146162201Y-34156920D01*
X146162201Y-33156920D01*
X144730449Y-33156920D02*
X144397116Y-34156920D01*
X144063782Y-33156920D01*
X117270474Y-32963822D02*
X117222855Y-32916203D01*
X117127617Y-32868583D01*
X116889522Y-32868583D01*
X116794284Y-32916203D01*
X116746665Y-32963822D01*
X116699046Y-33059060D01*
X116699046Y-33154298D01*
X116746665Y-33297155D01*
X117318093Y-33868583D01*
X116699046Y-33868583D01*
X116270474Y-33868583D02*
X116270474Y-32868583D01*
X115699046Y-33868583D02*
X116127617Y-33297155D01*
X115699046Y-32868583D02*
X116270474Y-33440012D01*
X115318093Y-32963822D02*
X115270474Y-32916203D01*
X115175236Y-32868583D01*
X114937141Y-32868583D01*
X114841903Y-32916203D01*
X114794284Y-32963822D01*
X114746665Y-33059060D01*
X114746665Y-33154298D01*
X114794284Y-33297155D01*
X115365712Y-33868583D01*
X114746665Y-33868583D01*
X135034532Y-28893554D02*
X135510722Y-28893554D01*
X135558341Y-29369745D01*
X135510722Y-29322126D01*
X135415484Y-29274507D01*
X135177389Y-29274507D01*
X135082151Y-29322126D01*
X135034532Y-29369745D01*
X134986913Y-29464983D01*
X134986913Y-29703078D01*
X135034532Y-29798316D01*
X135082151Y-29845935D01*
X135177389Y-29893554D01*
X135415484Y-29893554D01*
X135510722Y-29845935D01*
X135558341Y-29798316D01*
X134558341Y-29893554D02*
X134558341Y-28893554D01*
X133986913Y-29893554D02*
X134415484Y-29322126D01*
X133986913Y-28893554D02*
X134558341Y-29464983D01*
X133034532Y-29893554D02*
X133605960Y-29893554D01*
X133320246Y-29893554D02*
X133320246Y-28893554D01*
X133415484Y-29036412D01*
X133510722Y-29131650D01*
X133605960Y-29179269D01*
X79739271Y-26429734D02*
X79739271Y-25953543D01*
X78739271Y-25953543D01*
X79215462Y-26763067D02*
X79215462Y-27096401D01*
X79739271Y-27239258D02*
X79739271Y-26763067D01*
X78739271Y-26763067D01*
X78739271Y-27239258D01*
X79739271Y-27667829D02*
X78739271Y-27667829D01*
X78739271Y-27905924D01*
X78786891Y-28048782D01*
X78882129Y-28144020D01*
X78977367Y-28191639D01*
X79167843Y-28239258D01*
X79310700Y-28239258D01*
X79501176Y-28191639D01*
X79596414Y-28144020D01*
X79691652Y-28048782D01*
X79739271Y-27905924D01*
X79739271Y-27667829D01*
X79739271Y-29191639D02*
X79739271Y-28620210D01*
X79739271Y-28905924D02*
X78739271Y-28905924D01*
X78882129Y-28810686D01*
X78977367Y-28715448D01*
X79024986Y-28620210D01*
X79739495Y-39129619D02*
X79739495Y-38653428D01*
X78739495Y-38653428D01*
X79215686Y-39462952D02*
X79215686Y-39796286D01*
X79739495Y-39939143D02*
X79739495Y-39462952D01*
X78739495Y-39462952D01*
X78739495Y-39939143D01*
X79739495Y-40367714D02*
X78739495Y-40367714D01*
X78739495Y-40605809D01*
X78787115Y-40748667D01*
X78882353Y-40843905D01*
X78977591Y-40891524D01*
X79168067Y-40939143D01*
X79310924Y-40939143D01*
X79501400Y-40891524D01*
X79596638Y-40843905D01*
X79691876Y-40748667D01*
X79739495Y-40605809D01*
X79739495Y-40367714D01*
X78739495Y-41272476D02*
X78739495Y-41891524D01*
X79120448Y-41558190D01*
X79120448Y-41701047D01*
X79168067Y-41796286D01*
X79215686Y-41843905D01*
X79310924Y-41891524D01*
X79549019Y-41891524D01*
X79644257Y-41843905D01*
X79691876Y-41796286D01*
X79739495Y-41701047D01*
X79739495Y-41415333D01*
X79691876Y-41320095D01*
X79644257Y-41272476D01*
X79739745Y-32729580D02*
X79739745Y-32253389D01*
X78739745Y-32253389D01*
X79215936Y-33062913D02*
X79215936Y-33396247D01*
X79739745Y-33539104D02*
X79739745Y-33062913D01*
X78739745Y-33062913D01*
X78739745Y-33539104D01*
X79739745Y-33967675D02*
X78739745Y-33967675D01*
X78739745Y-34205770D01*
X78787365Y-34348628D01*
X78882603Y-34443866D01*
X78977841Y-34491485D01*
X79168317Y-34539104D01*
X79311174Y-34539104D01*
X79501650Y-34491485D01*
X79596888Y-34443866D01*
X79692126Y-34348628D01*
X79739745Y-34205770D01*
X79739745Y-33967675D01*
X78834984Y-34920056D02*
X78787365Y-34967675D01*
X78739745Y-35062913D01*
X78739745Y-35301008D01*
X78787365Y-35396247D01*
X78834984Y-35443866D01*
X78930222Y-35491485D01*
X79025460Y-35491485D01*
X79168317Y-35443866D01*
X79739745Y-34872437D01*
X79739745Y-35491485D01*
D18*
X202815942Y-99533920D02*
X202715942Y-99567253D01*
X202549275Y-99567253D01*
X202482609Y-99533920D01*
X202449275Y-99500587D01*
X202415942Y-99433920D01*
X202415942Y-99367253D01*
X202449275Y-99300587D01*
X202482609Y-99267253D01*
X202549275Y-99233920D01*
X202682609Y-99200587D01*
X202749275Y-99167253D01*
X202782609Y-99133920D01*
X202815942Y-99067253D01*
X202815942Y-99000587D01*
X202782609Y-98933920D01*
X202749275Y-98900587D01*
X202682609Y-98867253D01*
X202515942Y-98867253D01*
X202415942Y-98900587D01*
X202182609Y-98867253D02*
X202015942Y-99567253D01*
X201882609Y-99067253D01*
X201749275Y-99567253D01*
X201582609Y-98867253D01*
X201382609Y-98867253D02*
X200949275Y-98867253D01*
X201182609Y-99133920D01*
X201082609Y-99133920D01*
X201015942Y-99167253D01*
X200982609Y-99200587D01*
X200949275Y-99267253D01*
X200949275Y-99433920D01*
X200982609Y-99500587D01*
X201015942Y-99533920D01*
X201082609Y-99567253D01*
X201282609Y-99567253D01*
X201349275Y-99533920D01*
X201382609Y-99500587D01*
X200649275Y-99500587D02*
X200615942Y-99533920D01*
X200649275Y-99567253D01*
X200682609Y-99533920D01*
X200649275Y-99500587D01*
X200649275Y-99567253D01*
X200649275Y-99133920D02*
X200615942Y-99167253D01*
X200649275Y-99200587D01*
X200682609Y-99167253D01*
X200649275Y-99133920D01*
X200649275Y-99200587D01*
X200182609Y-98867253D02*
X200115942Y-98867253D01*
X200049275Y-98900587D01*
X200015942Y-98933920D01*
X199982609Y-99000587D01*
X199949275Y-99133920D01*
X199949275Y-99300587D01*
X199982609Y-99433920D01*
X200015942Y-99500587D01*
X200049275Y-99533920D01*
X200115942Y-99567253D01*
X200182609Y-99567253D01*
X200249275Y-99533920D01*
X200282609Y-99500587D01*
X200315942Y-99433920D01*
X200349275Y-99300587D01*
X200349275Y-99133920D01*
X200315942Y-99000587D01*
X200282609Y-98933920D01*
X200249275Y-98900587D01*
X200182609Y-98867253D01*
X202815699Y-80483110D02*
X202715699Y-80516443D01*
X202549032Y-80516443D01*
X202482366Y-80483110D01*
X202449032Y-80449777D01*
X202415699Y-80383110D01*
X202415699Y-80316443D01*
X202449032Y-80249777D01*
X202482366Y-80216443D01*
X202549032Y-80183110D01*
X202682366Y-80149777D01*
X202749032Y-80116443D01*
X202782366Y-80083110D01*
X202815699Y-80016443D01*
X202815699Y-79949777D01*
X202782366Y-79883110D01*
X202749032Y-79849777D01*
X202682366Y-79816443D01*
X202515699Y-79816443D01*
X202415699Y-79849777D01*
X202182366Y-79816443D02*
X202015699Y-80516443D01*
X201882366Y-80016443D01*
X201749032Y-80516443D01*
X201582366Y-79816443D01*
X201015699Y-80049777D02*
X201015699Y-80516443D01*
X201182366Y-79783110D02*
X201349032Y-80283110D01*
X200915699Y-80283110D01*
X200649032Y-80449777D02*
X200615699Y-80483110D01*
X200649032Y-80516443D01*
X200682366Y-80483110D01*
X200649032Y-80449777D01*
X200649032Y-80516443D01*
X200649032Y-80083110D02*
X200615699Y-80116443D01*
X200649032Y-80149777D01*
X200682366Y-80116443D01*
X200649032Y-80083110D01*
X200649032Y-80149777D01*
X200182366Y-79816443D02*
X200115699Y-79816443D01*
X200049032Y-79849777D01*
X200015699Y-79883110D01*
X199982366Y-79949777D01*
X199949032Y-80083110D01*
X199949032Y-80249777D01*
X199982366Y-80383110D01*
X200015699Y-80449777D01*
X200049032Y-80483110D01*
X200115699Y-80516443D01*
X200182366Y-80516443D01*
X200249032Y-80483110D01*
X200282366Y-80449777D01*
X200315699Y-80383110D01*
X200349032Y-80249777D01*
X200349032Y-80083110D01*
X200315699Y-79949777D01*
X200282366Y-79883110D01*
X200249032Y-79849777D01*
X200182366Y-79816443D01*
X202815763Y-118583823D02*
X202715763Y-118617156D01*
X202549096Y-118617156D01*
X202482430Y-118583823D01*
X202449096Y-118550490D01*
X202415763Y-118483823D01*
X202415763Y-118417156D01*
X202449096Y-118350490D01*
X202482430Y-118317156D01*
X202549096Y-118283823D01*
X202682430Y-118250490D01*
X202749096Y-118217156D01*
X202782430Y-118183823D01*
X202815763Y-118117156D01*
X202815763Y-118050490D01*
X202782430Y-117983823D01*
X202749096Y-117950490D01*
X202682430Y-117917156D01*
X202515763Y-117917156D01*
X202415763Y-117950490D01*
X202182430Y-117917156D02*
X202015763Y-118617156D01*
X201882430Y-118117156D01*
X201749096Y-118617156D01*
X201582430Y-117917156D01*
X201349096Y-117983823D02*
X201315763Y-117950490D01*
X201249096Y-117917156D01*
X201082430Y-117917156D01*
X201015763Y-117950490D01*
X200982430Y-117983823D01*
X200949096Y-118050490D01*
X200949096Y-118117156D01*
X200982430Y-118217156D01*
X201382430Y-118617156D01*
X200949096Y-118617156D01*
X200649096Y-118550490D02*
X200615763Y-118583823D01*
X200649096Y-118617156D01*
X200682430Y-118583823D01*
X200649096Y-118550490D01*
X200649096Y-118617156D01*
X200649096Y-118183823D02*
X200615763Y-118217156D01*
X200649096Y-118250490D01*
X200682430Y-118217156D01*
X200649096Y-118183823D01*
X200649096Y-118250490D01*
X200182430Y-117917156D02*
X200115763Y-117917156D01*
X200049096Y-117950490D01*
X200015763Y-117983823D01*
X199982430Y-118050490D01*
X199949096Y-118183823D01*
X199949096Y-118350490D01*
X199982430Y-118483823D01*
X200015763Y-118550490D01*
X200049096Y-118583823D01*
X200115763Y-118617156D01*
X200182430Y-118617156D01*
X200249096Y-118583823D01*
X200282430Y-118550490D01*
X200315763Y-118483823D01*
X200349096Y-118350490D01*
X200349096Y-118183823D01*
X200315763Y-118050490D01*
X200282430Y-117983823D01*
X200249096Y-117950490D01*
X200182430Y-117917156D01*
X202815334Y-61436770D02*
X202715334Y-61470103D01*
X202548667Y-61470103D01*
X202482001Y-61436770D01*
X202448667Y-61403437D01*
X202415334Y-61336770D01*
X202415334Y-61270103D01*
X202448667Y-61203437D01*
X202482001Y-61170103D01*
X202548667Y-61136770D01*
X202682001Y-61103437D01*
X202748667Y-61070103D01*
X202782001Y-61036770D01*
X202815334Y-60970103D01*
X202815334Y-60903437D01*
X202782001Y-60836770D01*
X202748667Y-60803437D01*
X202682001Y-60770103D01*
X202515334Y-60770103D01*
X202415334Y-60803437D01*
X202182001Y-60770103D02*
X202015334Y-61470103D01*
X201882001Y-60970103D01*
X201748667Y-61470103D01*
X201582001Y-60770103D01*
X200982001Y-60770103D02*
X201315334Y-60770103D01*
X201348667Y-61103437D01*
X201315334Y-61070103D01*
X201248667Y-61036770D01*
X201082001Y-61036770D01*
X201015334Y-61070103D01*
X200982001Y-61103437D01*
X200948667Y-61170103D01*
X200948667Y-61336770D01*
X200982001Y-61403437D01*
X201015334Y-61436770D01*
X201082001Y-61470103D01*
X201248667Y-61470103D01*
X201315334Y-61436770D01*
X201348667Y-61403437D01*
X200648667Y-61403437D02*
X200615334Y-61436770D01*
X200648667Y-61470103D01*
X200682001Y-61436770D01*
X200648667Y-61403437D01*
X200648667Y-61470103D01*
X200648667Y-61036770D02*
X200615334Y-61070103D01*
X200648667Y-61103437D01*
X200682001Y-61070103D01*
X200648667Y-61036770D01*
X200648667Y-61103437D01*
X200182001Y-60770103D02*
X200115334Y-60770103D01*
X200048667Y-60803437D01*
X200015334Y-60836770D01*
X199982001Y-60903437D01*
X199948667Y-61036770D01*
X199948667Y-61203437D01*
X199982001Y-61336770D01*
X200015334Y-61403437D01*
X200048667Y-61436770D01*
X200115334Y-61470103D01*
X200182001Y-61470103D01*
X200248667Y-61436770D01*
X200282001Y-61403437D01*
X200315334Y-61336770D01*
X200348667Y-61203437D01*
X200348667Y-61036770D01*
X200315334Y-60903437D01*
X200282001Y-60836770D01*
X200248667Y-60803437D01*
X200182001Y-60770103D01*
X64425055Y-128755875D02*
X64348511Y-128828347D01*
X64197460Y-128898783D01*
X64122952Y-128896748D01*
X64078654Y-128880625D01*
X64020270Y-128834291D01*
X63992095Y-128773871D01*
X63994131Y-128699363D01*
X64010254Y-128655066D01*
X64056587Y-128596681D01*
X64163341Y-128510121D01*
X64209674Y-128451737D01*
X64225797Y-128407439D01*
X64227833Y-128332931D01*
X64199658Y-128272511D01*
X64141273Y-128226177D01*
X64096976Y-128210054D01*
X64022468Y-128208019D01*
X63871417Y-128278455D01*
X63794873Y-128350927D01*
X63569314Y-128419328D02*
X63714096Y-129124180D01*
X63381945Y-128727375D01*
X63472413Y-129236878D01*
X63025529Y-128672899D01*
X62663006Y-128841946D02*
X62602586Y-128870121D01*
X62556253Y-128928506D01*
X62540130Y-128972803D01*
X62538094Y-129047311D01*
X62564233Y-129182239D01*
X62634669Y-129333290D01*
X62721228Y-129440044D01*
X62779613Y-129486377D01*
X62823911Y-129502500D01*
X62898419Y-129504536D01*
X62958839Y-129476362D01*
X63005172Y-129417977D01*
X63021295Y-129373679D01*
X63023331Y-129299171D01*
X62997192Y-129164243D01*
X62926756Y-129013192D01*
X62840196Y-128906438D01*
X62781812Y-128860105D01*
X62737514Y-128843982D01*
X62663006Y-128841946D01*
X62447300Y-129641338D02*
X62431177Y-129685635D01*
X62475475Y-129701758D01*
X62491598Y-129657460D01*
X62447300Y-129641338D01*
X62475475Y-129701758D01*
X62292340Y-129309025D02*
X62276217Y-129353322D01*
X62320515Y-129369445D01*
X62336638Y-129325148D01*
X62292340Y-129309025D01*
X62320515Y-129369445D01*
X61575437Y-129349088D02*
X61877540Y-129208215D01*
X62048623Y-129496231D01*
X62004325Y-129480108D01*
X61929817Y-129478072D01*
X61778766Y-129548508D01*
X61732433Y-129606893D01*
X61716310Y-129651191D01*
X61714274Y-129725698D01*
X61784710Y-129876750D01*
X61843095Y-129923083D01*
X61887393Y-129939206D01*
X61961900Y-129941242D01*
X62112952Y-129870805D01*
X62159285Y-129812421D01*
X62175408Y-129768123D01*
X102735098Y-116679301D02*
X102635098Y-116712634D01*
X102468431Y-116712634D01*
X102401765Y-116679301D01*
X102368431Y-116645968D01*
X102335098Y-116579301D01*
X102335098Y-116512634D01*
X102368431Y-116445968D01*
X102401765Y-116412634D01*
X102468431Y-116379301D01*
X102601765Y-116345968D01*
X102668431Y-116312634D01*
X102701765Y-116279301D01*
X102735098Y-116212634D01*
X102735098Y-116145968D01*
X102701765Y-116079301D01*
X102668431Y-116045968D01*
X102601765Y-116012634D01*
X102435098Y-116012634D01*
X102335098Y-116045968D01*
X102101765Y-116012634D02*
X101935098Y-116712634D01*
X101801765Y-116212634D01*
X101668431Y-116712634D01*
X101501765Y-116012634D01*
X101268431Y-116079301D02*
X101235098Y-116045968D01*
X101168431Y-116012634D01*
X101001765Y-116012634D01*
X100935098Y-116045968D01*
X100901765Y-116079301D01*
X100868431Y-116145968D01*
X100868431Y-116212634D01*
X100901765Y-116312634D01*
X101301765Y-116712634D01*
X100868431Y-116712634D01*
X100568431Y-116645968D02*
X100535098Y-116679301D01*
X100568431Y-116712634D01*
X100601765Y-116679301D01*
X100568431Y-116645968D01*
X100568431Y-116712634D01*
X100568431Y-116279301D02*
X100535098Y-116312634D01*
X100568431Y-116345968D01*
X100601765Y-116312634D01*
X100568431Y-116279301D01*
X100568431Y-116345968D01*
X99901765Y-116012634D02*
X100235098Y-116012634D01*
X100268431Y-116345968D01*
X100235098Y-116312634D01*
X100168431Y-116279301D01*
X100001765Y-116279301D01*
X99935098Y-116312634D01*
X99901765Y-116345968D01*
X99868431Y-116412634D01*
X99868431Y-116579301D01*
X99901765Y-116645968D01*
X99935098Y-116679301D01*
X100001765Y-116712634D01*
X100168431Y-116712634D01*
X100235098Y-116679301D01*
X100268431Y-116645968D01*
X140835988Y-56660914D02*
X140735988Y-56694247D01*
X140569321Y-56694247D01*
X140502655Y-56660914D01*
X140469321Y-56627581D01*
X140435988Y-56560914D01*
X140435988Y-56494247D01*
X140469321Y-56427581D01*
X140502655Y-56394247D01*
X140569321Y-56360914D01*
X140702655Y-56327581D01*
X140769321Y-56294247D01*
X140802655Y-56260914D01*
X140835988Y-56194247D01*
X140835988Y-56127581D01*
X140802655Y-56060914D01*
X140769321Y-56027581D01*
X140702655Y-55994247D01*
X140535988Y-55994247D01*
X140435988Y-56027581D01*
X140202655Y-55994247D02*
X140035988Y-56694247D01*
X139902655Y-56194247D01*
X139769321Y-56694247D01*
X139602655Y-55994247D01*
X139002655Y-55994247D02*
X139335988Y-55994247D01*
X139369321Y-56327581D01*
X139335988Y-56294247D01*
X139269321Y-56260914D01*
X139102655Y-56260914D01*
X139035988Y-56294247D01*
X139002655Y-56327581D01*
X138969321Y-56394247D01*
X138969321Y-56560914D01*
X139002655Y-56627581D01*
X139035988Y-56660914D01*
X139102655Y-56694247D01*
X139269321Y-56694247D01*
X139335988Y-56660914D01*
X139369321Y-56627581D01*
X138669321Y-56627581D02*
X138635988Y-56660914D01*
X138669321Y-56694247D01*
X138702655Y-56660914D01*
X138669321Y-56627581D01*
X138669321Y-56694247D01*
X138669321Y-56260914D02*
X138635988Y-56294247D01*
X138669321Y-56327581D01*
X138702655Y-56294247D01*
X138669321Y-56260914D01*
X138669321Y-56327581D01*
X138402655Y-55994247D02*
X137969321Y-55994247D01*
X138202655Y-56260914D01*
X138102655Y-56260914D01*
X138035988Y-56294247D01*
X138002655Y-56327581D01*
X137969321Y-56394247D01*
X137969321Y-56560914D01*
X138002655Y-56627581D01*
X138035988Y-56660914D01*
X138102655Y-56694247D01*
X138302655Y-56694247D01*
X138369321Y-56660914D01*
X138402655Y-56627581D01*
X102735322Y-59531282D02*
X102635322Y-59564615D01*
X102468655Y-59564615D01*
X102401989Y-59531282D01*
X102368655Y-59497949D01*
X102335322Y-59431282D01*
X102335322Y-59364615D01*
X102368655Y-59297949D01*
X102401989Y-59264615D01*
X102468655Y-59231282D01*
X102601989Y-59197949D01*
X102668655Y-59164615D01*
X102701989Y-59131282D01*
X102735322Y-59064615D01*
X102735322Y-58997949D01*
X102701989Y-58931282D01*
X102668655Y-58897949D01*
X102601989Y-58864615D01*
X102435322Y-58864615D01*
X102335322Y-58897949D01*
X102101989Y-58864615D02*
X101935322Y-59564615D01*
X101801989Y-59064615D01*
X101668655Y-59564615D01*
X101501989Y-58864615D01*
X100901989Y-58864615D02*
X101235322Y-58864615D01*
X101268655Y-59197949D01*
X101235322Y-59164615D01*
X101168655Y-59131282D01*
X101001989Y-59131282D01*
X100935322Y-59164615D01*
X100901989Y-59197949D01*
X100868655Y-59264615D01*
X100868655Y-59431282D01*
X100901989Y-59497949D01*
X100935322Y-59531282D01*
X101001989Y-59564615D01*
X101168655Y-59564615D01*
X101235322Y-59531282D01*
X101268655Y-59497949D01*
X100568655Y-59497949D02*
X100535322Y-59531282D01*
X100568655Y-59564615D01*
X100601989Y-59531282D01*
X100568655Y-59497949D01*
X100568655Y-59564615D01*
X100568655Y-59131282D02*
X100535322Y-59164615D01*
X100568655Y-59197949D01*
X100601989Y-59164615D01*
X100568655Y-59131282D01*
X100568655Y-59197949D01*
X99901989Y-58864615D02*
X100235322Y-58864615D01*
X100268655Y-59197949D01*
X100235322Y-59164615D01*
X100168655Y-59131282D01*
X100001989Y-59131282D01*
X99935322Y-59164615D01*
X99901989Y-59197949D01*
X99868655Y-59264615D01*
X99868655Y-59431282D01*
X99901989Y-59497949D01*
X99935322Y-59531282D01*
X100001989Y-59564615D01*
X100168655Y-59564615D01*
X100235322Y-59531282D01*
X100268655Y-59497949D01*
X121785192Y-77308661D02*
X121685192Y-77341994D01*
X121518525Y-77341994D01*
X121451859Y-77308661D01*
X121418525Y-77275328D01*
X121385192Y-77208661D01*
X121385192Y-77141994D01*
X121418525Y-77075328D01*
X121451859Y-77041994D01*
X121518525Y-77008661D01*
X121651859Y-76975328D01*
X121718525Y-76941994D01*
X121751859Y-76908661D01*
X121785192Y-76841994D01*
X121785192Y-76775328D01*
X121751859Y-76708661D01*
X121718525Y-76675328D01*
X121651859Y-76641994D01*
X121485192Y-76641994D01*
X121385192Y-76675328D01*
X121151859Y-76641994D02*
X120985192Y-77341994D01*
X120851859Y-76841994D01*
X120718525Y-77341994D01*
X120551859Y-76641994D01*
X119985192Y-76875328D02*
X119985192Y-77341994D01*
X120151859Y-76608661D02*
X120318525Y-77108661D01*
X119885192Y-77108661D01*
X119618525Y-77275328D02*
X119585192Y-77308661D01*
X119618525Y-77341994D01*
X119651859Y-77308661D01*
X119618525Y-77275328D01*
X119618525Y-77341994D01*
X119618525Y-76908661D02*
X119585192Y-76941994D01*
X119618525Y-76975328D01*
X119651859Y-76941994D01*
X119618525Y-76908661D01*
X119618525Y-76975328D01*
X118985192Y-76875328D02*
X118985192Y-77341994D01*
X119151859Y-76608661D02*
X119318525Y-77108661D01*
X118885192Y-77108661D01*
X140835808Y-75710817D02*
X140735808Y-75744150D01*
X140569141Y-75744150D01*
X140502475Y-75710817D01*
X140469141Y-75677484D01*
X140435808Y-75610817D01*
X140435808Y-75544150D01*
X140469141Y-75477484D01*
X140502475Y-75444150D01*
X140569141Y-75410817D01*
X140702475Y-75377484D01*
X140769141Y-75344150D01*
X140802475Y-75310817D01*
X140835808Y-75244150D01*
X140835808Y-75177484D01*
X140802475Y-75110817D01*
X140769141Y-75077484D01*
X140702475Y-75044150D01*
X140535808Y-75044150D01*
X140435808Y-75077484D01*
X140202475Y-75044150D02*
X140035808Y-75744150D01*
X139902475Y-75244150D01*
X139769141Y-75744150D01*
X139602475Y-75044150D01*
X139035808Y-75277484D02*
X139035808Y-75744150D01*
X139202475Y-75010817D02*
X139369141Y-75510817D01*
X138935808Y-75510817D01*
X138669141Y-75677484D02*
X138635808Y-75710817D01*
X138669141Y-75744150D01*
X138702475Y-75710817D01*
X138669141Y-75677484D01*
X138669141Y-75744150D01*
X138669141Y-75310817D02*
X138635808Y-75344150D01*
X138669141Y-75377484D01*
X138702475Y-75344150D01*
X138669141Y-75310817D01*
X138669141Y-75377484D01*
X138402475Y-75044150D02*
X137969141Y-75044150D01*
X138202475Y-75310817D01*
X138102475Y-75310817D01*
X138035808Y-75344150D01*
X138002475Y-75377484D01*
X137969141Y-75444150D01*
X137969141Y-75610817D01*
X138002475Y-75677484D01*
X138035808Y-75710817D01*
X138102475Y-75744150D01*
X138302475Y-75744150D01*
X138369141Y-75710817D01*
X138402475Y-75677484D01*
X102735035Y-78578588D02*
X102635035Y-78611921D01*
X102468368Y-78611921D01*
X102401702Y-78578588D01*
X102368368Y-78545255D01*
X102335035Y-78478588D01*
X102335035Y-78411921D01*
X102368368Y-78345255D01*
X102401702Y-78311921D01*
X102468368Y-78278588D01*
X102601702Y-78245255D01*
X102668368Y-78211921D01*
X102701702Y-78178588D01*
X102735035Y-78111921D01*
X102735035Y-78045255D01*
X102701702Y-77978588D01*
X102668368Y-77945255D01*
X102601702Y-77911921D01*
X102435035Y-77911921D01*
X102335035Y-77945255D01*
X102101702Y-77911921D02*
X101935035Y-78611921D01*
X101801702Y-78111921D01*
X101668368Y-78611921D01*
X101501702Y-77911921D01*
X100935035Y-78145255D02*
X100935035Y-78611921D01*
X101101702Y-77878588D02*
X101268368Y-78378588D01*
X100835035Y-78378588D01*
X100568368Y-78545255D02*
X100535035Y-78578588D01*
X100568368Y-78611921D01*
X100601702Y-78578588D01*
X100568368Y-78545255D01*
X100568368Y-78611921D01*
X100568368Y-78178588D02*
X100535035Y-78211921D01*
X100568368Y-78245255D01*
X100601702Y-78211921D01*
X100568368Y-78178588D01*
X100568368Y-78245255D01*
X99901702Y-77911921D02*
X100235035Y-77911921D01*
X100268368Y-78245255D01*
X100235035Y-78211921D01*
X100168368Y-78178588D01*
X100001702Y-78178588D01*
X99935035Y-78211921D01*
X99901702Y-78245255D01*
X99868368Y-78311921D01*
X99868368Y-78478588D01*
X99901702Y-78545255D01*
X99935035Y-78578588D01*
X100001702Y-78611921D01*
X100168368Y-78611921D01*
X100235035Y-78578588D01*
X100268368Y-78545255D01*
X85329177Y-78831002D02*
X85362510Y-78931002D01*
X85362510Y-79097669D01*
X85329177Y-79164336D01*
X85295844Y-79197669D01*
X85229177Y-79231002D01*
X85162510Y-79231002D01*
X85095844Y-79197669D01*
X85062510Y-79164336D01*
X85029177Y-79097669D01*
X84995844Y-78964336D01*
X84962510Y-78897669D01*
X84929177Y-78864336D01*
X84862510Y-78831002D01*
X84795844Y-78831002D01*
X84729177Y-78864336D01*
X84695844Y-78897669D01*
X84662510Y-78964336D01*
X84662510Y-79131002D01*
X84695844Y-79231002D01*
X84662510Y-79464336D02*
X85362510Y-79631002D01*
X84862510Y-79764336D01*
X85362510Y-79897669D01*
X84662510Y-80064336D01*
X84895844Y-80631002D02*
X85362510Y-80631002D01*
X84629177Y-80464336D02*
X85129177Y-80297669D01*
X85129177Y-80731002D01*
X85295844Y-80997669D02*
X85329177Y-81031002D01*
X85362510Y-80997669D01*
X85329177Y-80964336D01*
X85295844Y-80997669D01*
X85362510Y-80997669D01*
X84929177Y-80997669D02*
X84962510Y-81031002D01*
X84995844Y-80997669D01*
X84962510Y-80964336D01*
X84929177Y-80997669D01*
X84995844Y-80997669D01*
X84662510Y-81631002D02*
X84662510Y-81497669D01*
X84695844Y-81431002D01*
X84729177Y-81397669D01*
X84829177Y-81331002D01*
X84962510Y-81297669D01*
X85229177Y-81297669D01*
X85295844Y-81331002D01*
X85329177Y-81364336D01*
X85362510Y-81431002D01*
X85362510Y-81564336D01*
X85329177Y-81631002D01*
X85295844Y-81664336D01*
X85229177Y-81697669D01*
X85062510Y-81697669D01*
X84995844Y-81664336D01*
X84962510Y-81631002D01*
X84929177Y-81564336D01*
X84929177Y-81431002D01*
X84962510Y-81364336D01*
X84995844Y-81331002D01*
X85062510Y-81297669D01*
X121785372Y-58258757D02*
X121685372Y-58292090D01*
X121518705Y-58292090D01*
X121452039Y-58258757D01*
X121418705Y-58225424D01*
X121385372Y-58158757D01*
X121385372Y-58092090D01*
X121418705Y-58025424D01*
X121452039Y-57992090D01*
X121518705Y-57958757D01*
X121652039Y-57925424D01*
X121718705Y-57892090D01*
X121752039Y-57858757D01*
X121785372Y-57792090D01*
X121785372Y-57725424D01*
X121752039Y-57658757D01*
X121718705Y-57625424D01*
X121652039Y-57592090D01*
X121485372Y-57592090D01*
X121385372Y-57625424D01*
X121152039Y-57592090D02*
X120985372Y-58292090D01*
X120852039Y-57792090D01*
X120718705Y-58292090D01*
X120552039Y-57592090D01*
X119952039Y-57592090D02*
X120285372Y-57592090D01*
X120318705Y-57925424D01*
X120285372Y-57892090D01*
X120218705Y-57858757D01*
X120052039Y-57858757D01*
X119985372Y-57892090D01*
X119952039Y-57925424D01*
X119918705Y-57992090D01*
X119918705Y-58158757D01*
X119952039Y-58225424D01*
X119985372Y-58258757D01*
X120052039Y-58292090D01*
X120218705Y-58292090D01*
X120285372Y-58258757D01*
X120318705Y-58225424D01*
X119618705Y-58225424D02*
X119585372Y-58258757D01*
X119618705Y-58292090D01*
X119652039Y-58258757D01*
X119618705Y-58225424D01*
X119618705Y-58292090D01*
X119618705Y-57858757D02*
X119585372Y-57892090D01*
X119618705Y-57925424D01*
X119652039Y-57892090D01*
X119618705Y-57858757D01*
X119618705Y-57925424D01*
X118985372Y-57825424D02*
X118985372Y-58292090D01*
X119152039Y-57558757D02*
X119318705Y-58058757D01*
X118885372Y-58058757D01*
X178935535Y-61435710D02*
X178835535Y-61469043D01*
X178668868Y-61469043D01*
X178602202Y-61435710D01*
X178568868Y-61402377D01*
X178535535Y-61335710D01*
X178535535Y-61269043D01*
X178568868Y-61202377D01*
X178602202Y-61169043D01*
X178668868Y-61135710D01*
X178802202Y-61102377D01*
X178868868Y-61069043D01*
X178902202Y-61035710D01*
X178935535Y-60969043D01*
X178935535Y-60902377D01*
X178902202Y-60835710D01*
X178868868Y-60802377D01*
X178802202Y-60769043D01*
X178635535Y-60769043D01*
X178535535Y-60802377D01*
X178302202Y-60769043D02*
X178135535Y-61469043D01*
X178002202Y-60969043D01*
X177868868Y-61469043D01*
X177702202Y-60769043D01*
X177102202Y-60769043D02*
X177435535Y-60769043D01*
X177468868Y-61102377D01*
X177435535Y-61069043D01*
X177368868Y-61035710D01*
X177202202Y-61035710D01*
X177135535Y-61069043D01*
X177102202Y-61102377D01*
X177068868Y-61169043D01*
X177068868Y-61335710D01*
X177102202Y-61402377D01*
X177135535Y-61435710D01*
X177202202Y-61469043D01*
X177368868Y-61469043D01*
X177435535Y-61435710D01*
X177468868Y-61402377D01*
X176768868Y-61402377D02*
X176735535Y-61435710D01*
X176768868Y-61469043D01*
X176802202Y-61435710D01*
X176768868Y-61402377D01*
X176768868Y-61469043D01*
X176768868Y-61035710D02*
X176735535Y-61069043D01*
X176768868Y-61102377D01*
X176802202Y-61069043D01*
X176768868Y-61035710D01*
X176768868Y-61102377D01*
X176068868Y-61469043D02*
X176468868Y-61469043D01*
X176268868Y-61469043D02*
X176268868Y-60769043D01*
X176335535Y-60869043D01*
X176402202Y-60935710D01*
X176468868Y-60969043D01*
X159885179Y-58259117D02*
X159785179Y-58292450D01*
X159618512Y-58292450D01*
X159551846Y-58259117D01*
X159518512Y-58225784D01*
X159485179Y-58159117D01*
X159485179Y-58092450D01*
X159518512Y-58025784D01*
X159551846Y-57992450D01*
X159618512Y-57959117D01*
X159751846Y-57925784D01*
X159818512Y-57892450D01*
X159851846Y-57859117D01*
X159885179Y-57792450D01*
X159885179Y-57725784D01*
X159851846Y-57659117D01*
X159818512Y-57625784D01*
X159751846Y-57592450D01*
X159585179Y-57592450D01*
X159485179Y-57625784D01*
X159251846Y-57592450D02*
X159085179Y-58292450D01*
X158951846Y-57792450D01*
X158818512Y-58292450D01*
X158651846Y-57592450D01*
X158051846Y-57592450D02*
X158385179Y-57592450D01*
X158418512Y-57925784D01*
X158385179Y-57892450D01*
X158318512Y-57859117D01*
X158151846Y-57859117D01*
X158085179Y-57892450D01*
X158051846Y-57925784D01*
X158018512Y-57992450D01*
X158018512Y-58159117D01*
X158051846Y-58225784D01*
X158085179Y-58259117D01*
X158151846Y-58292450D01*
X158318512Y-58292450D01*
X158385179Y-58259117D01*
X158418512Y-58225784D01*
X157718512Y-58225784D02*
X157685179Y-58259117D01*
X157718512Y-58292450D01*
X157751846Y-58259117D01*
X157718512Y-58225784D01*
X157718512Y-58292450D01*
X157718512Y-57859117D02*
X157685179Y-57892450D01*
X157718512Y-57925784D01*
X157751846Y-57892450D01*
X157718512Y-57859117D01*
X157718512Y-57925784D01*
X157418512Y-57659117D02*
X157385179Y-57625784D01*
X157318512Y-57592450D01*
X157151846Y-57592450D01*
X157085179Y-57625784D01*
X157051846Y-57659117D01*
X157018512Y-57725784D01*
X157018512Y-57792450D01*
X157051846Y-57892450D01*
X157451846Y-58292450D01*
X157018512Y-58292450D01*
X178935417Y-80483379D02*
X178835417Y-80516712D01*
X178668750Y-80516712D01*
X178602084Y-80483379D01*
X178568750Y-80450046D01*
X178535417Y-80383379D01*
X178535417Y-80316712D01*
X178568750Y-80250046D01*
X178602084Y-80216712D01*
X178668750Y-80183379D01*
X178802084Y-80150046D01*
X178868750Y-80116712D01*
X178902084Y-80083379D01*
X178935417Y-80016712D01*
X178935417Y-79950046D01*
X178902084Y-79883379D01*
X178868750Y-79850046D01*
X178802084Y-79816712D01*
X178635417Y-79816712D01*
X178535417Y-79850046D01*
X178302084Y-79816712D02*
X178135417Y-80516712D01*
X178002084Y-80016712D01*
X177868750Y-80516712D01*
X177702084Y-79816712D01*
X177135417Y-80050046D02*
X177135417Y-80516712D01*
X177302084Y-79783379D02*
X177468750Y-80283379D01*
X177035417Y-80283379D01*
X176768750Y-80450046D02*
X176735417Y-80483379D01*
X176768750Y-80516712D01*
X176802084Y-80483379D01*
X176768750Y-80450046D01*
X176768750Y-80516712D01*
X176768750Y-80083379D02*
X176735417Y-80116712D01*
X176768750Y-80150046D01*
X176802084Y-80116712D01*
X176768750Y-80083379D01*
X176768750Y-80150046D01*
X176068750Y-80516712D02*
X176468750Y-80516712D01*
X176268750Y-80516712D02*
X176268750Y-79816712D01*
X176335417Y-79916712D01*
X176402084Y-79983379D01*
X176468750Y-80016712D01*
X159885905Y-77308598D02*
X159785905Y-77341931D01*
X159619238Y-77341931D01*
X159552572Y-77308598D01*
X159519238Y-77275265D01*
X159485905Y-77208598D01*
X159485905Y-77141931D01*
X159519238Y-77075265D01*
X159552572Y-77041931D01*
X159619238Y-77008598D01*
X159752572Y-76975265D01*
X159819238Y-76941931D01*
X159852572Y-76908598D01*
X159885905Y-76841931D01*
X159885905Y-76775265D01*
X159852572Y-76708598D01*
X159819238Y-76675265D01*
X159752572Y-76641931D01*
X159585905Y-76641931D01*
X159485905Y-76675265D01*
X159252572Y-76641931D02*
X159085905Y-77341931D01*
X158952572Y-76841931D01*
X158819238Y-77341931D01*
X158652572Y-76641931D01*
X158085905Y-76875265D02*
X158085905Y-77341931D01*
X158252572Y-76608598D02*
X158419238Y-77108598D01*
X157985905Y-77108598D01*
X157719238Y-77275265D02*
X157685905Y-77308598D01*
X157719238Y-77341931D01*
X157752572Y-77308598D01*
X157719238Y-77275265D01*
X157719238Y-77341931D01*
X157719238Y-76908598D02*
X157685905Y-76941931D01*
X157719238Y-76975265D01*
X157752572Y-76941931D01*
X157719238Y-76908598D01*
X157719238Y-76975265D01*
X157419238Y-76708598D02*
X157385905Y-76675265D01*
X157319238Y-76641931D01*
X157152572Y-76641931D01*
X157085905Y-76675265D01*
X157052572Y-76708598D01*
X157019238Y-76775265D01*
X157019238Y-76841931D01*
X157052572Y-76941931D01*
X157452572Y-77341931D01*
X157019238Y-77341931D01*
X178935659Y-99534189D02*
X178835659Y-99567522D01*
X178668992Y-99567522D01*
X178602326Y-99534189D01*
X178568992Y-99500856D01*
X178535659Y-99434189D01*
X178535659Y-99367522D01*
X178568992Y-99300856D01*
X178602326Y-99267522D01*
X178668992Y-99234189D01*
X178802326Y-99200856D01*
X178868992Y-99167522D01*
X178902326Y-99134189D01*
X178935659Y-99067522D01*
X178935659Y-99000856D01*
X178902326Y-98934189D01*
X178868992Y-98900856D01*
X178802326Y-98867522D01*
X178635659Y-98867522D01*
X178535659Y-98900856D01*
X178302326Y-98867522D02*
X178135659Y-99567522D01*
X178002326Y-99067522D01*
X177868992Y-99567522D01*
X177702326Y-98867522D01*
X177502326Y-98867522D02*
X177068992Y-98867522D01*
X177302326Y-99134189D01*
X177202326Y-99134189D01*
X177135659Y-99167522D01*
X177102326Y-99200856D01*
X177068992Y-99267522D01*
X177068992Y-99434189D01*
X177102326Y-99500856D01*
X177135659Y-99534189D01*
X177202326Y-99567522D01*
X177402326Y-99567522D01*
X177468992Y-99534189D01*
X177502326Y-99500856D01*
X176768992Y-99500856D02*
X176735659Y-99534189D01*
X176768992Y-99567522D01*
X176802326Y-99534189D01*
X176768992Y-99500856D01*
X176768992Y-99567522D01*
X176768992Y-99134189D02*
X176735659Y-99167522D01*
X176768992Y-99200856D01*
X176802326Y-99167522D01*
X176768992Y-99134189D01*
X176768992Y-99200856D01*
X176068992Y-99567522D02*
X176468992Y-99567522D01*
X176268992Y-99567522D02*
X176268992Y-98867522D01*
X176335659Y-98967522D01*
X176402326Y-99034189D01*
X176468992Y-99067522D01*
X159885726Y-96358501D02*
X159785726Y-96391834D01*
X159619059Y-96391834D01*
X159552393Y-96358501D01*
X159519059Y-96325168D01*
X159485726Y-96258501D01*
X159485726Y-96191834D01*
X159519059Y-96125168D01*
X159552393Y-96091834D01*
X159619059Y-96058501D01*
X159752393Y-96025168D01*
X159819059Y-95991834D01*
X159852393Y-95958501D01*
X159885726Y-95891834D01*
X159885726Y-95825168D01*
X159852393Y-95758501D01*
X159819059Y-95725168D01*
X159752393Y-95691834D01*
X159585726Y-95691834D01*
X159485726Y-95725168D01*
X159252393Y-95691834D02*
X159085726Y-96391834D01*
X158952393Y-95891834D01*
X158819059Y-96391834D01*
X158652393Y-95691834D01*
X158452393Y-95691834D02*
X158019059Y-95691834D01*
X158252393Y-95958501D01*
X158152393Y-95958501D01*
X158085726Y-95991834D01*
X158052393Y-96025168D01*
X158019059Y-96091834D01*
X158019059Y-96258501D01*
X158052393Y-96325168D01*
X158085726Y-96358501D01*
X158152393Y-96391834D01*
X158352393Y-96391834D01*
X158419059Y-96358501D01*
X158452393Y-96325168D01*
X157719059Y-96325168D02*
X157685726Y-96358501D01*
X157719059Y-96391834D01*
X157752393Y-96358501D01*
X157719059Y-96325168D01*
X157719059Y-96391834D01*
X157719059Y-95958501D02*
X157685726Y-95991834D01*
X157719059Y-96025168D01*
X157752393Y-95991834D01*
X157719059Y-95958501D01*
X157719059Y-96025168D01*
X157419059Y-95758501D02*
X157385726Y-95725168D01*
X157319059Y-95691834D01*
X157152393Y-95691834D01*
X157085726Y-95725168D01*
X157052393Y-95758501D01*
X157019059Y-95825168D01*
X157019059Y-95891834D01*
X157052393Y-95991834D01*
X157452393Y-96391834D01*
X157019059Y-96391834D01*
X140835629Y-94760721D02*
X140735629Y-94794054D01*
X140568962Y-94794054D01*
X140502296Y-94760721D01*
X140468962Y-94727388D01*
X140435629Y-94660721D01*
X140435629Y-94594054D01*
X140468962Y-94527388D01*
X140502296Y-94494054D01*
X140568962Y-94460721D01*
X140702296Y-94427388D01*
X140768962Y-94394054D01*
X140802296Y-94360721D01*
X140835629Y-94294054D01*
X140835629Y-94227388D01*
X140802296Y-94160721D01*
X140768962Y-94127388D01*
X140702296Y-94094054D01*
X140535629Y-94094054D01*
X140435629Y-94127388D01*
X140202296Y-94094054D02*
X140035629Y-94794054D01*
X139902296Y-94294054D01*
X139768962Y-94794054D01*
X139602296Y-94094054D01*
X139402296Y-94094054D02*
X138968962Y-94094054D01*
X139202296Y-94360721D01*
X139102296Y-94360721D01*
X139035629Y-94394054D01*
X139002296Y-94427388D01*
X138968962Y-94494054D01*
X138968962Y-94660721D01*
X139002296Y-94727388D01*
X139035629Y-94760721D01*
X139102296Y-94794054D01*
X139302296Y-94794054D01*
X139368962Y-94760721D01*
X139402296Y-94727388D01*
X138668962Y-94727388D02*
X138635629Y-94760721D01*
X138668962Y-94794054D01*
X138702296Y-94760721D01*
X138668962Y-94727388D01*
X138668962Y-94794054D01*
X138668962Y-94360721D02*
X138635629Y-94394054D01*
X138668962Y-94427388D01*
X138702296Y-94394054D01*
X138668962Y-94360721D01*
X138668962Y-94427388D01*
X138402296Y-94094054D02*
X137968962Y-94094054D01*
X138202296Y-94360721D01*
X138102296Y-94360721D01*
X138035629Y-94394054D01*
X138002296Y-94427388D01*
X137968962Y-94494054D01*
X137968962Y-94660721D01*
X138002296Y-94727388D01*
X138035629Y-94760721D01*
X138102296Y-94794054D01*
X138302296Y-94794054D01*
X138368962Y-94760721D01*
X138402296Y-94727388D01*
X121785435Y-96359471D02*
X121685435Y-96392804D01*
X121518768Y-96392804D01*
X121452102Y-96359471D01*
X121418768Y-96326138D01*
X121385435Y-96259471D01*
X121385435Y-96192804D01*
X121418768Y-96126138D01*
X121452102Y-96092804D01*
X121518768Y-96059471D01*
X121652102Y-96026138D01*
X121718768Y-95992804D01*
X121752102Y-95959471D01*
X121785435Y-95892804D01*
X121785435Y-95826138D01*
X121752102Y-95759471D01*
X121718768Y-95726138D01*
X121652102Y-95692804D01*
X121485435Y-95692804D01*
X121385435Y-95726138D01*
X121152102Y-95692804D02*
X120985435Y-96392804D01*
X120852102Y-95892804D01*
X120718768Y-96392804D01*
X120552102Y-95692804D01*
X120352102Y-95692804D02*
X119918768Y-95692804D01*
X120152102Y-95959471D01*
X120052102Y-95959471D01*
X119985435Y-95992804D01*
X119952102Y-96026138D01*
X119918768Y-96092804D01*
X119918768Y-96259471D01*
X119952102Y-96326138D01*
X119985435Y-96359471D01*
X120052102Y-96392804D01*
X120252102Y-96392804D01*
X120318768Y-96359471D01*
X120352102Y-96326138D01*
X119618768Y-96326138D02*
X119585435Y-96359471D01*
X119618768Y-96392804D01*
X119652102Y-96359471D01*
X119618768Y-96326138D01*
X119618768Y-96392804D01*
X119618768Y-95959471D02*
X119585435Y-95992804D01*
X119618768Y-96026138D01*
X119652102Y-95992804D01*
X119618768Y-95959471D01*
X119618768Y-96026138D01*
X118985435Y-95926138D02*
X118985435Y-96392804D01*
X119152102Y-95659471D02*
X119318768Y-96159471D01*
X118885435Y-96159471D01*
X102735278Y-97629397D02*
X102635278Y-97662730D01*
X102468611Y-97662730D01*
X102401945Y-97629397D01*
X102368611Y-97596064D01*
X102335278Y-97529397D01*
X102335278Y-97462730D01*
X102368611Y-97396064D01*
X102401945Y-97362730D01*
X102468611Y-97329397D01*
X102601945Y-97296064D01*
X102668611Y-97262730D01*
X102701945Y-97229397D01*
X102735278Y-97162730D01*
X102735278Y-97096064D01*
X102701945Y-97029397D01*
X102668611Y-96996064D01*
X102601945Y-96962730D01*
X102435278Y-96962730D01*
X102335278Y-96996064D01*
X102101945Y-96962730D02*
X101935278Y-97662730D01*
X101801945Y-97162730D01*
X101668611Y-97662730D01*
X101501945Y-96962730D01*
X101301945Y-96962730D02*
X100868611Y-96962730D01*
X101101945Y-97229397D01*
X101001945Y-97229397D01*
X100935278Y-97262730D01*
X100901945Y-97296064D01*
X100868611Y-97362730D01*
X100868611Y-97529397D01*
X100901945Y-97596064D01*
X100935278Y-97629397D01*
X101001945Y-97662730D01*
X101201945Y-97662730D01*
X101268611Y-97629397D01*
X101301945Y-97596064D01*
X100568611Y-97596064D02*
X100535278Y-97629397D01*
X100568611Y-97662730D01*
X100601945Y-97629397D01*
X100568611Y-97596064D01*
X100568611Y-97662730D01*
X100568611Y-97229397D02*
X100535278Y-97262730D01*
X100568611Y-97296064D01*
X100601945Y-97262730D01*
X100568611Y-97229397D01*
X100568611Y-97296064D01*
X99901945Y-96962730D02*
X100235278Y-96962730D01*
X100268611Y-97296064D01*
X100235278Y-97262730D01*
X100168611Y-97229397D01*
X100001945Y-97229397D01*
X99935278Y-97262730D01*
X99901945Y-97296064D01*
X99868611Y-97362730D01*
X99868611Y-97529397D01*
X99901945Y-97596064D01*
X99935278Y-97629397D01*
X100001945Y-97662730D01*
X100168611Y-97662730D01*
X100235278Y-97629397D01*
X100268611Y-97596064D01*
X178935480Y-118584092D02*
X178835480Y-118617425D01*
X178668813Y-118617425D01*
X178602147Y-118584092D01*
X178568813Y-118550759D01*
X178535480Y-118484092D01*
X178535480Y-118417425D01*
X178568813Y-118350759D01*
X178602147Y-118317425D01*
X178668813Y-118284092D01*
X178802147Y-118250759D01*
X178868813Y-118217425D01*
X178902147Y-118184092D01*
X178935480Y-118117425D01*
X178935480Y-118050759D01*
X178902147Y-117984092D01*
X178868813Y-117950759D01*
X178802147Y-117917425D01*
X178635480Y-117917425D01*
X178535480Y-117950759D01*
X178302147Y-117917425D02*
X178135480Y-118617425D01*
X178002147Y-118117425D01*
X177868813Y-118617425D01*
X177702147Y-117917425D01*
X177468813Y-117984092D02*
X177435480Y-117950759D01*
X177368813Y-117917425D01*
X177202147Y-117917425D01*
X177135480Y-117950759D01*
X177102147Y-117984092D01*
X177068813Y-118050759D01*
X177068813Y-118117425D01*
X177102147Y-118217425D01*
X177502147Y-118617425D01*
X177068813Y-118617425D01*
X176768813Y-118550759D02*
X176735480Y-118584092D01*
X176768813Y-118617425D01*
X176802147Y-118584092D01*
X176768813Y-118550759D01*
X176768813Y-118617425D01*
X176768813Y-118184092D02*
X176735480Y-118217425D01*
X176768813Y-118250759D01*
X176802147Y-118217425D01*
X176768813Y-118184092D01*
X176768813Y-118250759D01*
X176068813Y-118617425D02*
X176468813Y-118617425D01*
X176268813Y-118617425D02*
X176268813Y-117917425D01*
X176335480Y-118017425D01*
X176402147Y-118084092D01*
X176468813Y-118117425D01*
X159885969Y-115409311D02*
X159785969Y-115442644D01*
X159619302Y-115442644D01*
X159552636Y-115409311D01*
X159519302Y-115375978D01*
X159485969Y-115309311D01*
X159485969Y-115242644D01*
X159519302Y-115175978D01*
X159552636Y-115142644D01*
X159619302Y-115109311D01*
X159752636Y-115075978D01*
X159819302Y-115042644D01*
X159852636Y-115009311D01*
X159885969Y-114942644D01*
X159885969Y-114875978D01*
X159852636Y-114809311D01*
X159819302Y-114775978D01*
X159752636Y-114742644D01*
X159585969Y-114742644D01*
X159485969Y-114775978D01*
X159252636Y-114742644D02*
X159085969Y-115442644D01*
X158952636Y-114942644D01*
X158819302Y-115442644D01*
X158652636Y-114742644D01*
X158419302Y-114809311D02*
X158385969Y-114775978D01*
X158319302Y-114742644D01*
X158152636Y-114742644D01*
X158085969Y-114775978D01*
X158052636Y-114809311D01*
X158019302Y-114875978D01*
X158019302Y-114942644D01*
X158052636Y-115042644D01*
X158452636Y-115442644D01*
X158019302Y-115442644D01*
X157719302Y-115375978D02*
X157685969Y-115409311D01*
X157719302Y-115442644D01*
X157752636Y-115409311D01*
X157719302Y-115375978D01*
X157719302Y-115442644D01*
X157719302Y-115009311D02*
X157685969Y-115042644D01*
X157719302Y-115075978D01*
X157752636Y-115042644D01*
X157719302Y-115009311D01*
X157719302Y-115075978D01*
X157419302Y-114809311D02*
X157385969Y-114775978D01*
X157319302Y-114742644D01*
X157152636Y-114742644D01*
X157085969Y-114775978D01*
X157052636Y-114809311D01*
X157019302Y-114875978D01*
X157019302Y-114942644D01*
X157052636Y-115042644D01*
X157452636Y-115442644D01*
X157019302Y-115442644D01*
X140835449Y-113810624D02*
X140735449Y-113843957D01*
X140568782Y-113843957D01*
X140502116Y-113810624D01*
X140468782Y-113777291D01*
X140435449Y-113710624D01*
X140435449Y-113643957D01*
X140468782Y-113577291D01*
X140502116Y-113543957D01*
X140568782Y-113510624D01*
X140702116Y-113477291D01*
X140768782Y-113443957D01*
X140802116Y-113410624D01*
X140835449Y-113343957D01*
X140835449Y-113277291D01*
X140802116Y-113210624D01*
X140768782Y-113177291D01*
X140702116Y-113143957D01*
X140535449Y-113143957D01*
X140435449Y-113177291D01*
X140202116Y-113143957D02*
X140035449Y-113843957D01*
X139902116Y-113343957D01*
X139768782Y-113843957D01*
X139602116Y-113143957D01*
X139368782Y-113210624D02*
X139335449Y-113177291D01*
X139268782Y-113143957D01*
X139102116Y-113143957D01*
X139035449Y-113177291D01*
X139002116Y-113210624D01*
X138968782Y-113277291D01*
X138968782Y-113343957D01*
X139002116Y-113443957D01*
X139402116Y-113843957D01*
X138968782Y-113843957D01*
X138668782Y-113777291D02*
X138635449Y-113810624D01*
X138668782Y-113843957D01*
X138702116Y-113810624D01*
X138668782Y-113777291D01*
X138668782Y-113843957D01*
X138668782Y-113410624D02*
X138635449Y-113443957D01*
X138668782Y-113477291D01*
X138702116Y-113443957D01*
X138668782Y-113410624D01*
X138668782Y-113477291D01*
X138402116Y-113143957D02*
X137968782Y-113143957D01*
X138202116Y-113410624D01*
X138102116Y-113410624D01*
X138035449Y-113443957D01*
X138002116Y-113477291D01*
X137968782Y-113543957D01*
X137968782Y-113710624D01*
X138002116Y-113777291D01*
X138035449Y-113810624D01*
X138102116Y-113843957D01*
X138302116Y-113843957D01*
X138368782Y-113810624D01*
X138402116Y-113777291D01*
X121785255Y-115409374D02*
X121685255Y-115442707D01*
X121518588Y-115442707D01*
X121451922Y-115409374D01*
X121418588Y-115376041D01*
X121385255Y-115309374D01*
X121385255Y-115242707D01*
X121418588Y-115176041D01*
X121451922Y-115142707D01*
X121518588Y-115109374D01*
X121651922Y-115076041D01*
X121718588Y-115042707D01*
X121751922Y-115009374D01*
X121785255Y-114942707D01*
X121785255Y-114876041D01*
X121751922Y-114809374D01*
X121718588Y-114776041D01*
X121651922Y-114742707D01*
X121485255Y-114742707D01*
X121385255Y-114776041D01*
X121151922Y-114742707D02*
X120985255Y-115442707D01*
X120851922Y-114942707D01*
X120718588Y-115442707D01*
X120551922Y-114742707D01*
X120318588Y-114809374D02*
X120285255Y-114776041D01*
X120218588Y-114742707D01*
X120051922Y-114742707D01*
X119985255Y-114776041D01*
X119951922Y-114809374D01*
X119918588Y-114876041D01*
X119918588Y-114942707D01*
X119951922Y-115042707D01*
X120351922Y-115442707D01*
X119918588Y-115442707D01*
X119618588Y-115376041D02*
X119585255Y-115409374D01*
X119618588Y-115442707D01*
X119651922Y-115409374D01*
X119618588Y-115376041D01*
X119618588Y-115442707D01*
X119618588Y-115009374D02*
X119585255Y-115042707D01*
X119618588Y-115076041D01*
X119651922Y-115042707D01*
X119618588Y-115009374D01*
X119618588Y-115076041D01*
X118985255Y-114976041D02*
X118985255Y-115442707D01*
X119151922Y-114709374D02*
X119318588Y-115209374D01*
X118885255Y-115209374D01*
X85329421Y-107405066D02*
X85362754Y-107505066D01*
X85362754Y-107671733D01*
X85329421Y-107738400D01*
X85296088Y-107771733D01*
X85229421Y-107805066D01*
X85162754Y-107805066D01*
X85096088Y-107771733D01*
X85062754Y-107738400D01*
X85029421Y-107671733D01*
X84996088Y-107538400D01*
X84962754Y-107471733D01*
X84929421Y-107438400D01*
X84862754Y-107405066D01*
X84796088Y-107405066D01*
X84729421Y-107438400D01*
X84696088Y-107471733D01*
X84662754Y-107538400D01*
X84662754Y-107705066D01*
X84696088Y-107805066D01*
X84662754Y-108038400D02*
X85362754Y-108205066D01*
X84862754Y-108338400D01*
X85362754Y-108471733D01*
X84662754Y-108638400D01*
X84729421Y-108871733D02*
X84696088Y-108905066D01*
X84662754Y-108971733D01*
X84662754Y-109138400D01*
X84696088Y-109205066D01*
X84729421Y-109238400D01*
X84796088Y-109271733D01*
X84862754Y-109271733D01*
X84962754Y-109238400D01*
X85362754Y-108838400D01*
X85362754Y-109271733D01*
X85296088Y-109571733D02*
X85329421Y-109605066D01*
X85362754Y-109571733D01*
X85329421Y-109538400D01*
X85296088Y-109571733D01*
X85362754Y-109571733D01*
X84929421Y-109571733D02*
X84962754Y-109605066D01*
X84996088Y-109571733D01*
X84962754Y-109538400D01*
X84929421Y-109571733D01*
X84996088Y-109571733D01*
X84662754Y-110205066D02*
X84662754Y-110071733D01*
X84696088Y-110005066D01*
X84729421Y-109971733D01*
X84829421Y-109905066D01*
X84962754Y-109871733D01*
X85229421Y-109871733D01*
X85296088Y-109905066D01*
X85329421Y-109938400D01*
X85362754Y-110005066D01*
X85362754Y-110138400D01*
X85329421Y-110205066D01*
X85296088Y-110238400D01*
X85229421Y-110271733D01*
X85062754Y-110271733D01*
X84996088Y-110238400D01*
X84962754Y-110205066D01*
X84929421Y-110138400D01*
X84929421Y-110005066D01*
X84962754Y-109938400D01*
X84996088Y-109905066D01*
X85062754Y-109871733D01*
X197985204Y-137634175D02*
X197885204Y-137667508D01*
X197718537Y-137667508D01*
X197651871Y-137634175D01*
X197618537Y-137600842D01*
X197585204Y-137534175D01*
X197585204Y-137467508D01*
X197618537Y-137400842D01*
X197651871Y-137367508D01*
X197718537Y-137334175D01*
X197851871Y-137300842D01*
X197918537Y-137267508D01*
X197951871Y-137234175D01*
X197985204Y-137167508D01*
X197985204Y-137100842D01*
X197951871Y-137034175D01*
X197918537Y-137000842D01*
X197851871Y-136967508D01*
X197685204Y-136967508D01*
X197585204Y-137000842D01*
X197351871Y-136967508D02*
X197185204Y-137667508D01*
X197051871Y-137167508D01*
X196918537Y-137667508D01*
X196751871Y-136967508D01*
X196118537Y-137667508D02*
X196518537Y-137667508D01*
X196318537Y-137667508D02*
X196318537Y-136967508D01*
X196385204Y-137067508D01*
X196451871Y-137134175D01*
X196518537Y-137167508D01*
X195818537Y-137600842D02*
X195785204Y-137634175D01*
X195818537Y-137667508D01*
X195851871Y-137634175D01*
X195818537Y-137600842D01*
X195818537Y-137667508D01*
X195818537Y-137234175D02*
X195785204Y-137267508D01*
X195818537Y-137300842D01*
X195851871Y-137267508D01*
X195818537Y-137234175D01*
X195818537Y-137300842D01*
X195351871Y-136967508D02*
X195285204Y-136967508D01*
X195218537Y-137000842D01*
X195185204Y-137034175D01*
X195151871Y-137100842D01*
X195118537Y-137234175D01*
X195118537Y-137400842D01*
X195151871Y-137534175D01*
X195185204Y-137600842D01*
X195218537Y-137634175D01*
X195285204Y-137667508D01*
X195351871Y-137667508D01*
X195418537Y-137634175D01*
X195451871Y-137600842D01*
X195485204Y-137534175D01*
X195518537Y-137400842D01*
X195518537Y-137234175D01*
X195485204Y-137100842D01*
X195451871Y-137034175D01*
X195418537Y-137000842D01*
X195351871Y-136967508D01*
X178935300Y-137633996D02*
X178835300Y-137667329D01*
X178668633Y-137667329D01*
X178601967Y-137633996D01*
X178568633Y-137600663D01*
X178535300Y-137533996D01*
X178535300Y-137467329D01*
X178568633Y-137400663D01*
X178601967Y-137367329D01*
X178668633Y-137333996D01*
X178801967Y-137300663D01*
X178868633Y-137267329D01*
X178901967Y-137233996D01*
X178935300Y-137167329D01*
X178935300Y-137100663D01*
X178901967Y-137033996D01*
X178868633Y-137000663D01*
X178801967Y-136967329D01*
X178635300Y-136967329D01*
X178535300Y-137000663D01*
X178301967Y-136967329D02*
X178135300Y-137667329D01*
X178001967Y-137167329D01*
X177868633Y-137667329D01*
X177701967Y-136967329D01*
X177068633Y-137667329D02*
X177468633Y-137667329D01*
X177268633Y-137667329D02*
X177268633Y-136967329D01*
X177335300Y-137067329D01*
X177401967Y-137133996D01*
X177468633Y-137167329D01*
X176768633Y-137600663D02*
X176735300Y-137633996D01*
X176768633Y-137667329D01*
X176801967Y-137633996D01*
X176768633Y-137600663D01*
X176768633Y-137667329D01*
X176768633Y-137233996D02*
X176735300Y-137267329D01*
X176768633Y-137300663D01*
X176801967Y-137267329D01*
X176768633Y-137233996D01*
X176768633Y-137300663D01*
X176068633Y-137667329D02*
X176468633Y-137667329D01*
X176268633Y-137667329D02*
X176268633Y-136967329D01*
X176335300Y-137067329D01*
X176401967Y-137133996D01*
X176468633Y-137167329D01*
X159885789Y-134459215D02*
X159785789Y-134492548D01*
X159619122Y-134492548D01*
X159552456Y-134459215D01*
X159519122Y-134425882D01*
X159485789Y-134359215D01*
X159485789Y-134292548D01*
X159519122Y-134225882D01*
X159552456Y-134192548D01*
X159619122Y-134159215D01*
X159752456Y-134125882D01*
X159819122Y-134092548D01*
X159852456Y-134059215D01*
X159885789Y-133992548D01*
X159885789Y-133925882D01*
X159852456Y-133859215D01*
X159819122Y-133825882D01*
X159752456Y-133792548D01*
X159585789Y-133792548D01*
X159485789Y-133825882D01*
X159252456Y-133792548D02*
X159085789Y-134492548D01*
X158952456Y-133992548D01*
X158819122Y-134492548D01*
X158652456Y-133792548D01*
X158019122Y-134492548D02*
X158419122Y-134492548D01*
X158219122Y-134492548D02*
X158219122Y-133792548D01*
X158285789Y-133892548D01*
X158352456Y-133959215D01*
X158419122Y-133992548D01*
X157719122Y-134425882D02*
X157685789Y-134459215D01*
X157719122Y-134492548D01*
X157752456Y-134459215D01*
X157719122Y-134425882D01*
X157719122Y-134492548D01*
X157719122Y-134059215D02*
X157685789Y-134092548D01*
X157719122Y-134125882D01*
X157752456Y-134092548D01*
X157719122Y-134059215D01*
X157719122Y-134125882D01*
X157419122Y-133859215D02*
X157385789Y-133825882D01*
X157319122Y-133792548D01*
X157152456Y-133792548D01*
X157085789Y-133825882D01*
X157052456Y-133859215D01*
X157019122Y-133925882D01*
X157019122Y-133992548D01*
X157052456Y-134092548D01*
X157452456Y-134492548D01*
X157019122Y-134492548D01*
X140835692Y-132861434D02*
X140735692Y-132894767D01*
X140569025Y-132894767D01*
X140502359Y-132861434D01*
X140469025Y-132828101D01*
X140435692Y-132761434D01*
X140435692Y-132694767D01*
X140469025Y-132628101D01*
X140502359Y-132594767D01*
X140569025Y-132561434D01*
X140702359Y-132528101D01*
X140769025Y-132494767D01*
X140802359Y-132461434D01*
X140835692Y-132394767D01*
X140835692Y-132328101D01*
X140802359Y-132261434D01*
X140769025Y-132228101D01*
X140702359Y-132194767D01*
X140535692Y-132194767D01*
X140435692Y-132228101D01*
X140202359Y-132194767D02*
X140035692Y-132894767D01*
X139902359Y-132394767D01*
X139769025Y-132894767D01*
X139602359Y-132194767D01*
X138969025Y-132894767D02*
X139369025Y-132894767D01*
X139169025Y-132894767D02*
X139169025Y-132194767D01*
X139235692Y-132294767D01*
X139302359Y-132361434D01*
X139369025Y-132394767D01*
X138669025Y-132828101D02*
X138635692Y-132861434D01*
X138669025Y-132894767D01*
X138702359Y-132861434D01*
X138669025Y-132828101D01*
X138669025Y-132894767D01*
X138669025Y-132461434D02*
X138635692Y-132494767D01*
X138669025Y-132528101D01*
X138702359Y-132494767D01*
X138669025Y-132461434D01*
X138669025Y-132528101D01*
X138402359Y-132194767D02*
X137969025Y-132194767D01*
X138202359Y-132461434D01*
X138102359Y-132461434D01*
X138035692Y-132494767D01*
X138002359Y-132528101D01*
X137969025Y-132594767D01*
X137969025Y-132761434D01*
X138002359Y-132828101D01*
X138035692Y-132861434D01*
X138102359Y-132894767D01*
X138302359Y-132894767D01*
X138369025Y-132861434D01*
X138402359Y-132828101D01*
X121785982Y-134458855D02*
X121685982Y-134492188D01*
X121519315Y-134492188D01*
X121452649Y-134458855D01*
X121419315Y-134425522D01*
X121385982Y-134358855D01*
X121385982Y-134292188D01*
X121419315Y-134225522D01*
X121452649Y-134192188D01*
X121519315Y-134158855D01*
X121652649Y-134125522D01*
X121719315Y-134092188D01*
X121752649Y-134058855D01*
X121785982Y-133992188D01*
X121785982Y-133925522D01*
X121752649Y-133858855D01*
X121719315Y-133825522D01*
X121652649Y-133792188D01*
X121485982Y-133792188D01*
X121385982Y-133825522D01*
X121152649Y-133792188D02*
X120985982Y-134492188D01*
X120852649Y-133992188D01*
X120719315Y-134492188D01*
X120552649Y-133792188D01*
X119919315Y-134492188D02*
X120319315Y-134492188D01*
X120119315Y-134492188D02*
X120119315Y-133792188D01*
X120185982Y-133892188D01*
X120252649Y-133958855D01*
X120319315Y-133992188D01*
X119619315Y-134425522D02*
X119585982Y-134458855D01*
X119619315Y-134492188D01*
X119652649Y-134458855D01*
X119619315Y-134425522D01*
X119619315Y-134492188D01*
X119619315Y-134058855D02*
X119585982Y-134092188D01*
X119619315Y-134125522D01*
X119652649Y-134092188D01*
X119619315Y-134058855D01*
X119619315Y-134125522D01*
X118985982Y-134025522D02*
X118985982Y-134492188D01*
X119152649Y-133758855D02*
X119319315Y-134258855D01*
X118885982Y-134258855D01*
X63261829Y-171336995D02*
X63185285Y-171409467D01*
X63034234Y-171479903D01*
X62959726Y-171477868D01*
X62915428Y-171461745D01*
X62857044Y-171415411D01*
X62828869Y-171354991D01*
X62830905Y-171280483D01*
X62847028Y-171236186D01*
X62893361Y-171177801D01*
X63000115Y-171091241D01*
X63046448Y-171032857D01*
X63062571Y-170988559D01*
X63064607Y-170914051D01*
X63036432Y-170853631D01*
X62978047Y-170807297D01*
X62933750Y-170791174D01*
X62859242Y-170789139D01*
X62708191Y-170859575D01*
X62631647Y-170932047D01*
X62406088Y-171000448D02*
X62550870Y-171705300D01*
X62218719Y-171308495D01*
X62309187Y-171817998D01*
X61862303Y-171254019D01*
X61499780Y-171423066D02*
X61439360Y-171451241D01*
X61393027Y-171509626D01*
X61376904Y-171553923D01*
X61374868Y-171628431D01*
X61401007Y-171763359D01*
X61471443Y-171914410D01*
X61558002Y-172021164D01*
X61616387Y-172067497D01*
X61660685Y-172083620D01*
X61735193Y-172085656D01*
X61795613Y-172057482D01*
X61841946Y-171999097D01*
X61858069Y-171954799D01*
X61860105Y-171880291D01*
X61833966Y-171745363D01*
X61763530Y-171594312D01*
X61676970Y-171487558D01*
X61618586Y-171441225D01*
X61574288Y-171425102D01*
X61499780Y-171423066D01*
X61284074Y-172222458D02*
X61267951Y-172266755D01*
X61312249Y-172282878D01*
X61328372Y-172238580D01*
X61284074Y-172222458D01*
X61312249Y-172282878D01*
X61129114Y-171890145D02*
X61112991Y-171934442D01*
X61157289Y-171950565D01*
X61173412Y-171906268D01*
X61129114Y-171890145D01*
X61157289Y-171950565D01*
X60677833Y-172578711D02*
X61040357Y-172409664D01*
X60859095Y-172494187D02*
X60563262Y-171859772D01*
X60665945Y-171922228D01*
X60754540Y-171954474D01*
X60829047Y-171956510D01*
X94046032Y-144656251D02*
X93973560Y-144579707D01*
X93903124Y-144428656D01*
X93905159Y-144354148D01*
X93921282Y-144309850D01*
X93967616Y-144251466D01*
X94028036Y-144223291D01*
X94102544Y-144225327D01*
X94146841Y-144241450D01*
X94205226Y-144287783D01*
X94291786Y-144394537D01*
X94350170Y-144440870D01*
X94394468Y-144456993D01*
X94468976Y-144459029D01*
X94529396Y-144430854D01*
X94575730Y-144372469D01*
X94591853Y-144328172D01*
X94593888Y-144253664D01*
X94523452Y-144102613D01*
X94450980Y-144026069D01*
X94382579Y-143800510D02*
X93677727Y-143945292D01*
X94074532Y-143613141D01*
X93565029Y-143703609D01*
X94129008Y-143256725D01*
X93959961Y-142894202D02*
X93931786Y-142833782D01*
X93873401Y-142787449D01*
X93829104Y-142771326D01*
X93754596Y-142769290D01*
X93619668Y-142795429D01*
X93468617Y-142865865D01*
X93361863Y-142952424D01*
X93315530Y-143010809D01*
X93299407Y-143055107D01*
X93297371Y-143129615D01*
X93325545Y-143190035D01*
X93383930Y-143236368D01*
X93428228Y-143252491D01*
X93502736Y-143254527D01*
X93637664Y-143228388D01*
X93788715Y-143157952D01*
X93895469Y-143071392D01*
X93941802Y-143013008D01*
X93957925Y-142968710D01*
X93959961Y-142894202D01*
X93160569Y-142678496D02*
X93116272Y-142662373D01*
X93100149Y-142706671D01*
X93144447Y-142722794D01*
X93160569Y-142678496D01*
X93100149Y-142706671D01*
X93492882Y-142523536D02*
X93448585Y-142507413D01*
X93432462Y-142551711D01*
X93476759Y-142567834D01*
X93492882Y-142523536D01*
X93432462Y-142551711D01*
X93621866Y-142169156D02*
X93438732Y-141776423D01*
X93295660Y-142100593D01*
X93253399Y-142009962D01*
X93195014Y-141963629D01*
X93150716Y-141947506D01*
X93076209Y-141945470D01*
X92925157Y-142015906D01*
X92878824Y-142074291D01*
X92862701Y-142118589D01*
X92860665Y-142193096D01*
X92945189Y-142374358D01*
X93003574Y-142420691D01*
X93047871Y-142436814D01*
X55210015Y-154070061D02*
X55133471Y-154142533D01*
X54982420Y-154212969D01*
X54907912Y-154210934D01*
X54863614Y-154194811D01*
X54805230Y-154148477D01*
X54777055Y-154088057D01*
X54779091Y-154013549D01*
X54795214Y-153969252D01*
X54841547Y-153910867D01*
X54948301Y-153824307D01*
X54994634Y-153765923D01*
X55010757Y-153721625D01*
X55012793Y-153647117D01*
X54984618Y-153586697D01*
X54926233Y-153540363D01*
X54881936Y-153524240D01*
X54807428Y-153522205D01*
X54656377Y-153592641D01*
X54579833Y-153665113D01*
X54354274Y-153733514D02*
X54499056Y-154438366D01*
X54166905Y-154041561D01*
X54257373Y-154551064D01*
X53810489Y-153987085D01*
X53447966Y-154156132D02*
X53387546Y-154184307D01*
X53341213Y-154242692D01*
X53325090Y-154286989D01*
X53323054Y-154361497D01*
X53349193Y-154496425D01*
X53419629Y-154647476D01*
X53506188Y-154754230D01*
X53564573Y-154800563D01*
X53608871Y-154816686D01*
X53683379Y-154818722D01*
X53743799Y-154790548D01*
X53790132Y-154732163D01*
X53806255Y-154687865D01*
X53808291Y-154613357D01*
X53782152Y-154478429D01*
X53711716Y-154327378D01*
X53625156Y-154220624D01*
X53566772Y-154174291D01*
X53522474Y-154158168D01*
X53447966Y-154156132D01*
X53232260Y-154955524D02*
X53216137Y-154999821D01*
X53260435Y-155015944D01*
X53276558Y-154971646D01*
X53232260Y-154955524D01*
X53260435Y-155015944D01*
X53077300Y-154623211D02*
X53061177Y-154667508D01*
X53105475Y-154683631D01*
X53121598Y-154639334D01*
X53077300Y-154623211D01*
X53105475Y-154683631D01*
X52489218Y-154860659D02*
X52686440Y-155283602D01*
X52527571Y-154548540D02*
X52889932Y-154931258D01*
X52497198Y-155114392D01*
X83685461Y-59531193D02*
X83585461Y-59564526D01*
X83418794Y-59564526D01*
X83352128Y-59531193D01*
X83318794Y-59497860D01*
X83285461Y-59431193D01*
X83285461Y-59364526D01*
X83318794Y-59297860D01*
X83352128Y-59264526D01*
X83418794Y-59231193D01*
X83552128Y-59197860D01*
X83618794Y-59164526D01*
X83652128Y-59131193D01*
X83685461Y-59064526D01*
X83685461Y-58997860D01*
X83652128Y-58931193D01*
X83618794Y-58897860D01*
X83552128Y-58864526D01*
X83385461Y-58864526D01*
X83285461Y-58897860D01*
X83052128Y-58864526D02*
X82885461Y-59564526D01*
X82752128Y-59064526D01*
X82618794Y-59564526D01*
X82452128Y-58864526D01*
X81852128Y-58864526D02*
X82185461Y-58864526D01*
X82218794Y-59197860D01*
X82185461Y-59164526D01*
X82118794Y-59131193D01*
X81952128Y-59131193D01*
X81885461Y-59164526D01*
X81852128Y-59197860D01*
X81818794Y-59264526D01*
X81818794Y-59431193D01*
X81852128Y-59497860D01*
X81885461Y-59531193D01*
X81952128Y-59564526D01*
X82118794Y-59564526D01*
X82185461Y-59531193D01*
X82218794Y-59497860D01*
X81518794Y-59497860D02*
X81485461Y-59531193D01*
X81518794Y-59564526D01*
X81552128Y-59531193D01*
X81518794Y-59497860D01*
X81518794Y-59564526D01*
X81518794Y-59131193D02*
X81485461Y-59164526D01*
X81518794Y-59197860D01*
X81552128Y-59164526D01*
X81518794Y-59131193D01*
X81518794Y-59197860D01*
X80885461Y-58864526D02*
X81018794Y-58864526D01*
X81085461Y-58897860D01*
X81118794Y-58931193D01*
X81185461Y-59031193D01*
X81218794Y-59164526D01*
X81218794Y-59431193D01*
X81185461Y-59497860D01*
X81152128Y-59531193D01*
X81085461Y-59564526D01*
X80952128Y-59564526D01*
X80885461Y-59531193D01*
X80852128Y-59497860D01*
X80818794Y-59431193D01*
X80818794Y-59264526D01*
X80852128Y-59197860D01*
X80885461Y-59164526D01*
X80952128Y-59131193D01*
X81085461Y-59131193D01*
X81152128Y-59164526D01*
X81185461Y-59197860D01*
X81218794Y-59264526D01*
D13*
X100404493Y-26714220D02*
X99303826Y-26714220D01*
X99896493Y-27294792D01*
X99642493Y-27294792D01*
X99473160Y-27367363D01*
X99388493Y-27439934D01*
X99303826Y-27585077D01*
X99303826Y-27947934D01*
X99388493Y-28093077D01*
X99473160Y-28165649D01*
X99642493Y-28238220D01*
X100150493Y-28238220D01*
X100319826Y-28165649D01*
X100404493Y-28093077D01*
X98541826Y-28093077D02*
X98457160Y-28165649D01*
X98541826Y-28238220D01*
X98626493Y-28165649D01*
X98541826Y-28093077D01*
X98541826Y-28238220D01*
X96848493Y-26714220D02*
X97695160Y-26714220D01*
X97779826Y-27439934D01*
X97695160Y-27367363D01*
X97525826Y-27294792D01*
X97102493Y-27294792D01*
X96933160Y-27367363D01*
X96848493Y-27439934D01*
X96763826Y-27585077D01*
X96763826Y-27947934D01*
X96848493Y-28093077D01*
X96933160Y-28165649D01*
X97102493Y-28238220D01*
X97525826Y-28238220D01*
X97695160Y-28165649D01*
X97779826Y-28093077D01*
X96001826Y-28238220D02*
X96001826Y-27222220D01*
X96001826Y-27367363D02*
X95917160Y-27294792D01*
X95747826Y-27222220D01*
X95493826Y-27222220D01*
X95324493Y-27294792D01*
X95239826Y-27439934D01*
X95239826Y-28238220D01*
X95239826Y-27439934D02*
X95155160Y-27294792D01*
X94985826Y-27222220D01*
X94731826Y-27222220D01*
X94562493Y-27294792D01*
X94477826Y-27439934D01*
X94477826Y-28238220D01*
X93631160Y-28238220D02*
X93631160Y-27222220D01*
X93631160Y-27367363D02*
X93546493Y-27294792D01*
X93377160Y-27222220D01*
X93123160Y-27222220D01*
X92953826Y-27294792D01*
X92869160Y-27439934D01*
X92869160Y-28238220D01*
X92869160Y-27439934D02*
X92784493Y-27294792D01*
X92615160Y-27222220D01*
X92361160Y-27222220D01*
X92191826Y-27294792D01*
X92107160Y-27439934D01*
X92107160Y-28238220D01*
D19*
X195433804Y-32229676D02*
X193982375Y-32229676D01*
X194708090Y-35277676D02*
X194708090Y-32229676D01*
X193135709Y-33681104D02*
X192289042Y-33681104D01*
X191926185Y-35277676D02*
X193135709Y-35277676D01*
X193135709Y-32229676D01*
X191926185Y-32229676D01*
X190837614Y-33681104D02*
X189990947Y-33681104D01*
X189628090Y-35277676D02*
X190837614Y-35277676D01*
X190837614Y-32229676D01*
X189628090Y-32229676D01*
X188539518Y-35277676D02*
X188539518Y-32229676D01*
X187088090Y-35277676D01*
X187088090Y-32229676D01*
X185999518Y-35132533D02*
X185636661Y-35277676D01*
X185031899Y-35277676D01*
X184789994Y-35132533D01*
X184669042Y-34987390D01*
X184548090Y-34697104D01*
X184548090Y-34406819D01*
X184669042Y-34116533D01*
X184789994Y-33971390D01*
X185031899Y-33826247D01*
X185515709Y-33681104D01*
X185757614Y-33535961D01*
X185878566Y-33390819D01*
X185999518Y-33100533D01*
X185999518Y-32810247D01*
X185878566Y-32519961D01*
X185757614Y-32374819D01*
X185515709Y-32229676D01*
X184910947Y-32229676D01*
X184548090Y-32374819D01*
X182975709Y-33826247D02*
X182975709Y-35277676D01*
X183822375Y-32229676D02*
X182975709Y-33826247D01*
X182129042Y-32229676D01*
X181403328Y-32519961D02*
X181282375Y-32374819D01*
X181040471Y-32229676D01*
X180435709Y-32229676D01*
X180193804Y-32374819D01*
X180072852Y-32519961D01*
X179951899Y-32810247D01*
X179951899Y-33100533D01*
X180072852Y-33535961D01*
X181524280Y-35277676D01*
X179951899Y-35277676D01*
X178863328Y-34987390D02*
X178742375Y-35132533D01*
X178863328Y-35277676D01*
X178984280Y-35132533D01*
X178863328Y-34987390D01*
X178863328Y-35277676D01*
X177169994Y-32229676D02*
X176928090Y-32229676D01*
X176686185Y-32374819D01*
X176565233Y-32519961D01*
X176444280Y-32810247D01*
X176323328Y-33390819D01*
X176323328Y-34116533D01*
X176444280Y-34697104D01*
X176565233Y-34987390D01*
X176686185Y-35132533D01*
X176928090Y-35277676D01*
X177169994Y-35277676D01*
X177411899Y-35132533D01*
X177532852Y-34987390D01*
X177653804Y-34697104D01*
X177774756Y-34116533D01*
X177774756Y-33390819D01*
X177653804Y-32810247D01*
X177532852Y-32519961D01*
X177411899Y-32374819D01*
X177169994Y-32229676D01*
M02*
