G04 #@! TF.GenerationSoftware,KiCad,Pcbnew,(5.1.4)-1*
G04 #@! TF.CreationDate,2019-09-13T04:19:27+08:00*
G04 #@! TF.ProjectId,ErgoDoxTW,4572676f-446f-4785-9457-2e6b69636164,rev?*
G04 #@! TF.SameCoordinates,Original*
G04 #@! TF.FileFunction,Legend,Top*
G04 #@! TF.FilePolarity,Positive*
%FSLAX46Y46*%
G04 Gerber Fmt 4.6, Leading zero omitted, Abs format (unit mm)*
G04 Created by KiCad (PCBNEW (5.1.4)-1) date 2019-09-13 04:19:27*
%MOMM*%
%LPD*%
G04 APERTURE LIST*
%ADD10C,0.750000*%
%ADD11C,0.250000*%
%ADD12C,0.508000*%
%ADD13C,0.150000*%
%ADD14C,0.381000*%
%ADD15C,0.300000*%
%ADD16C,0.120000*%
%ADD17C,0.100000*%
%ADD18C,0.457200*%
%ADD19C,0.304800*%
G04 APERTURE END LIST*
D10*
X99697593Y-40374132D02*
X101364259Y-40374132D01*
X102078545Y-42993179D02*
X99697593Y-42993179D01*
X99697593Y-37993179D01*
X102078545Y-37993179D01*
X104221402Y-42993179D02*
X104221402Y-39659846D01*
X104221402Y-40612227D02*
X104459497Y-40136036D01*
X104697593Y-39897941D01*
X105173783Y-39659846D01*
X105649974Y-39659846D01*
X109459497Y-39659846D02*
X109459497Y-43707465D01*
X109221402Y-44183655D01*
X108983307Y-44421751D01*
X108507116Y-44659846D01*
X107792831Y-44659846D01*
X107316640Y-44421751D01*
X109459497Y-42755084D02*
X108983307Y-42993179D01*
X108030926Y-42993179D01*
X107554735Y-42755084D01*
X107316640Y-42516989D01*
X107078545Y-42040798D01*
X107078545Y-40612227D01*
X107316640Y-40136036D01*
X107554735Y-39897941D01*
X108030926Y-39659846D01*
X108983307Y-39659846D01*
X109459497Y-39897941D01*
X112554735Y-42993179D02*
X112078545Y-42755084D01*
X111840450Y-42516989D01*
X111602354Y-42040798D01*
X111602354Y-40612227D01*
X111840450Y-40136036D01*
X112078545Y-39897941D01*
X112554735Y-39659846D01*
X113269021Y-39659846D01*
X113745212Y-39897941D01*
X113983307Y-40136036D01*
X114221402Y-40612227D01*
X114221402Y-42040798D01*
X113983307Y-42516989D01*
X113745212Y-42755084D01*
X113269021Y-42993179D01*
X112554735Y-42993179D01*
X116364259Y-42993179D02*
X116364259Y-37993179D01*
X117554735Y-37993179D01*
X118269021Y-38231275D01*
X118745212Y-38707465D01*
X118983307Y-39183655D01*
X119221402Y-40136036D01*
X119221402Y-40850322D01*
X118983307Y-41802703D01*
X118745212Y-42278894D01*
X118269021Y-42755084D01*
X117554735Y-42993179D01*
X116364259Y-42993179D01*
X122078545Y-42993179D02*
X121602354Y-42755084D01*
X121364259Y-42516989D01*
X121126164Y-42040798D01*
X121126164Y-40612227D01*
X121364259Y-40136036D01*
X121602354Y-39897941D01*
X122078545Y-39659846D01*
X122792831Y-39659846D01*
X123269021Y-39897941D01*
X123507116Y-40136036D01*
X123745212Y-40612227D01*
X123745212Y-42040798D01*
X123507116Y-42516989D01*
X123269021Y-42755084D01*
X122792831Y-42993179D01*
X122078545Y-42993179D01*
X125411878Y-42993179D02*
X128030926Y-39659846D01*
X125411878Y-39659846D02*
X128030926Y-42993179D01*
X129221402Y-37993179D02*
X132078545Y-37993179D01*
X130649974Y-42993179D02*
X130649974Y-37993179D01*
X133269021Y-37993179D02*
X134459497Y-42993179D01*
X135411878Y-39421751D01*
X136364259Y-42993179D01*
X137554735Y-37993179D01*
X142792831Y-39659846D02*
X143983307Y-42993179D01*
X145173783Y-39659846D01*
X149697593Y-42993179D02*
X146840450Y-42993179D01*
X148269021Y-42993179D02*
X148269021Y-37993179D01*
X147792831Y-38707465D01*
X147316640Y-39183655D01*
X146840450Y-39421751D01*
X151840450Y-42516989D02*
X152078545Y-42755084D01*
X151840450Y-42993179D01*
X151602354Y-42755084D01*
X151840450Y-42516989D01*
X151840450Y-42993179D01*
X155173783Y-37993179D02*
X155649974Y-37993179D01*
X156126164Y-38231275D01*
X156364259Y-38469370D01*
X156602354Y-38945560D01*
X156840450Y-39897941D01*
X156840450Y-41088417D01*
X156602354Y-42040798D01*
X156364259Y-42516989D01*
X156126164Y-42755084D01*
X155649974Y-42993179D01*
X155173783Y-42993179D01*
X154697593Y-42755084D01*
X154459497Y-42516989D01*
X154221402Y-42040798D01*
X153983307Y-41088417D01*
X153983307Y-39897941D01*
X154221402Y-38945560D01*
X154459497Y-38469370D01*
X154697593Y-38231275D01*
X155173783Y-37993179D01*
D11*
X178892983Y-45221211D02*
X178392983Y-45221211D01*
X178392983Y-46006925D02*
X178392983Y-44506925D01*
X179107269Y-44506925D01*
X180535840Y-46006925D02*
X180035840Y-45292639D01*
X179678697Y-46006925D02*
X179678697Y-44506925D01*
X180250126Y-44506925D01*
X180392983Y-44578354D01*
X180464412Y-44649782D01*
X180535840Y-44792639D01*
X180535840Y-45006925D01*
X180464412Y-45149782D01*
X180392983Y-45221211D01*
X180250126Y-45292639D01*
X179678697Y-45292639D01*
X181821555Y-45006925D02*
X181821555Y-46006925D01*
X181464412Y-44435496D02*
X181107269Y-45506925D01*
X182035840Y-45506925D01*
X183535840Y-44506925D02*
X184392983Y-44506925D01*
X183964412Y-46006925D02*
X183964412Y-44506925D01*
X185535840Y-45006925D02*
X185535840Y-46221211D01*
X185464412Y-46364068D01*
X185392983Y-46435496D01*
X185250126Y-46506925D01*
X185035840Y-46506925D01*
X184892983Y-46435496D01*
X185535840Y-45935496D02*
X185392983Y-46006925D01*
X185107269Y-46006925D01*
X184964412Y-45935496D01*
X184892983Y-45864068D01*
X184821555Y-45721211D01*
X184821555Y-45292639D01*
X184892983Y-45149782D01*
X184964412Y-45078354D01*
X185107269Y-45006925D01*
X185392983Y-45006925D01*
X185535840Y-45078354D01*
X187035840Y-46006925D02*
X186178697Y-46006925D01*
X186607269Y-46006925D02*
X186607269Y-44506925D01*
X186464412Y-44721211D01*
X186321555Y-44864068D01*
X186178697Y-44935496D01*
X187535840Y-44506925D02*
X188535840Y-44506925D01*
X187892983Y-46006925D01*
X189392983Y-44506925D02*
X189535840Y-44506925D01*
X189678697Y-44578354D01*
X189750126Y-44649782D01*
X189821555Y-44792639D01*
X189892983Y-45078354D01*
X189892983Y-45435496D01*
X189821555Y-45721211D01*
X189750126Y-45864068D01*
X189678697Y-45935496D01*
X189535840Y-46006925D01*
X189392983Y-46006925D01*
X189250126Y-45935496D01*
X189178697Y-45864068D01*
X189107269Y-45721211D01*
X189035840Y-45435496D01*
X189035840Y-45078354D01*
X189107269Y-44792639D01*
X189178697Y-44649782D01*
X189250126Y-44578354D01*
X189392983Y-44506925D01*
X190750126Y-44506925D02*
X190607269Y-44578354D01*
X190535840Y-44721211D01*
X190607269Y-44864068D01*
X190750126Y-44935496D01*
X190892983Y-44864068D01*
X190964412Y-44721211D01*
X190892983Y-44578354D01*
X190750126Y-44506925D01*
X193535840Y-46006925D02*
X192821555Y-46006925D01*
X192821555Y-44506925D01*
X194678697Y-46006925D02*
X194678697Y-45221211D01*
X194607269Y-45078354D01*
X194464412Y-45006925D01*
X194178697Y-45006925D01*
X194035840Y-45078354D01*
X194678697Y-45935496D02*
X194535840Y-46006925D01*
X194178697Y-46006925D01*
X194035840Y-45935496D01*
X193964412Y-45792639D01*
X193964412Y-45649782D01*
X194035840Y-45506925D01*
X194178697Y-45435496D01*
X194535840Y-45435496D01*
X194678697Y-45364068D01*
X195392983Y-46006925D02*
X195392983Y-45006925D01*
X195392983Y-45149782D02*
X195464412Y-45078354D01*
X195607269Y-45006925D01*
X195821555Y-45006925D01*
X195964412Y-45078354D01*
X196035840Y-45221211D01*
X196035840Y-46006925D01*
X196035840Y-45221211D02*
X196107269Y-45078354D01*
X196250126Y-45006925D01*
X196464412Y-45006925D01*
X196607269Y-45078354D01*
X196678697Y-45221211D01*
X196678697Y-46006925D01*
X197392983Y-46006925D02*
X197392983Y-45006925D01*
X197392983Y-44506925D02*
X197321555Y-44578354D01*
X197392983Y-44649782D01*
X197464412Y-44578354D01*
X197392983Y-44506925D01*
X197392983Y-44649782D01*
X198107269Y-45006925D02*
X198107269Y-46006925D01*
X198107269Y-45149782D02*
X198178697Y-45078354D01*
X198321555Y-45006925D01*
X198535840Y-45006925D01*
X198678697Y-45078354D01*
X198750126Y-45221211D01*
X198750126Y-46006925D01*
X200107269Y-46006925D02*
X200107269Y-45221211D01*
X200035840Y-45078354D01*
X199892983Y-45006925D01*
X199607269Y-45006925D01*
X199464412Y-45078354D01*
X200107269Y-45935496D02*
X199964412Y-46006925D01*
X199607269Y-46006925D01*
X199464412Y-45935496D01*
X199392983Y-45792639D01*
X199392983Y-45649782D01*
X199464412Y-45506925D01*
X199607269Y-45435496D01*
X199964412Y-45435496D01*
X200107269Y-45364068D01*
X200607269Y-45006925D02*
X201178697Y-45006925D01*
X200821555Y-44506925D02*
X200821555Y-45792639D01*
X200892983Y-45935496D01*
X201035840Y-46006925D01*
X201178697Y-46006925D01*
X202250126Y-45935496D02*
X202107269Y-46006925D01*
X201821555Y-46006925D01*
X201678697Y-45935496D01*
X201607269Y-45792639D01*
X201607269Y-45221211D01*
X201678697Y-45078354D01*
X201821555Y-45006925D01*
X202107269Y-45006925D01*
X202250126Y-45078354D01*
X202321555Y-45221211D01*
X202321555Y-45364068D01*
X201607269Y-45506925D01*
X173964412Y-47149782D02*
X174035840Y-47078354D01*
X174178697Y-47006925D01*
X174535840Y-47006925D01*
X174678697Y-47078354D01*
X174750126Y-47149782D01*
X174821555Y-47292639D01*
X174821555Y-47435496D01*
X174750126Y-47649782D01*
X173892983Y-48506925D01*
X174821555Y-48506925D01*
X176107269Y-47506925D02*
X176107269Y-48506925D01*
X175750126Y-46935496D02*
X175392983Y-48006925D01*
X176321555Y-48006925D01*
X176892983Y-48506925D02*
X176892983Y-47506925D01*
X176892983Y-47649782D02*
X176964412Y-47578354D01*
X177107269Y-47506925D01*
X177321555Y-47506925D01*
X177464412Y-47578354D01*
X177535840Y-47721211D01*
X177535840Y-48506925D01*
X177535840Y-47721211D02*
X177607269Y-47578354D01*
X177750126Y-47506925D01*
X177964412Y-47506925D01*
X178107269Y-47578354D01*
X178178697Y-47721211D01*
X178178697Y-48506925D01*
X178892983Y-48506925D02*
X178892983Y-47506925D01*
X178892983Y-47006925D02*
X178821555Y-47078354D01*
X178892983Y-47149782D01*
X178964412Y-47078354D01*
X178892983Y-47006925D01*
X178892983Y-47149782D01*
X179821555Y-48506925D02*
X179678697Y-48435496D01*
X179607269Y-48292639D01*
X179607269Y-47006925D01*
X181321555Y-47506925D02*
X181892983Y-47506925D01*
X181535840Y-47006925D02*
X181535840Y-48292639D01*
X181607269Y-48435496D01*
X181750126Y-48506925D01*
X181892983Y-48506925D01*
X182392983Y-48506925D02*
X182392983Y-47506925D01*
X182392983Y-47792639D02*
X182464412Y-47649782D01*
X182535840Y-47578354D01*
X182678697Y-47506925D01*
X182821555Y-47506925D01*
X183964412Y-48506925D02*
X183964412Y-47721211D01*
X183892983Y-47578354D01*
X183750126Y-47506925D01*
X183464412Y-47506925D01*
X183321555Y-47578354D01*
X183964412Y-48435496D02*
X183821555Y-48506925D01*
X183464412Y-48506925D01*
X183321555Y-48435496D01*
X183250126Y-48292639D01*
X183250126Y-48149782D01*
X183321555Y-48006925D01*
X183464412Y-47935496D01*
X183821555Y-47935496D01*
X183964412Y-47864068D01*
X185321555Y-48435496D02*
X185178697Y-48506925D01*
X184892983Y-48506925D01*
X184750126Y-48435496D01*
X184678697Y-48364068D01*
X184607269Y-48221211D01*
X184607269Y-47792639D01*
X184678697Y-47649782D01*
X184750126Y-47578354D01*
X184892983Y-47506925D01*
X185178697Y-47506925D01*
X185321555Y-47578354D01*
X186535840Y-48435496D02*
X186392983Y-48506925D01*
X186107269Y-48506925D01*
X185964412Y-48435496D01*
X185892983Y-48292639D01*
X185892983Y-47721211D01*
X185964412Y-47578354D01*
X186107269Y-47506925D01*
X186392983Y-47506925D01*
X186535840Y-47578354D01*
X186607269Y-47721211D01*
X186607269Y-47864068D01*
X185892983Y-48006925D01*
X187178697Y-48435496D02*
X187321555Y-48506925D01*
X187607269Y-48506925D01*
X187750126Y-48435496D01*
X187821555Y-48292639D01*
X187821555Y-48221211D01*
X187750126Y-48078354D01*
X187607269Y-48006925D01*
X187392983Y-48006925D01*
X187250126Y-47935496D01*
X187178697Y-47792639D01*
X187178697Y-47721211D01*
X187250126Y-47578354D01*
X187392983Y-47506925D01*
X187607269Y-47506925D01*
X187750126Y-47578354D01*
X189821555Y-48506925D02*
X189678697Y-48435496D01*
X189607269Y-48364068D01*
X189535840Y-48221211D01*
X189535840Y-47792639D01*
X189607269Y-47649782D01*
X189678697Y-47578354D01*
X189821555Y-47506925D01*
X190035840Y-47506925D01*
X190178697Y-47578354D01*
X190250126Y-47649782D01*
X190321555Y-47792639D01*
X190321555Y-48221211D01*
X190250126Y-48364068D01*
X190178697Y-48435496D01*
X190035840Y-48506925D01*
X189821555Y-48506925D01*
X190964412Y-47506925D02*
X190964412Y-48506925D01*
X190964412Y-47649782D02*
X191035840Y-47578354D01*
X191178697Y-47506925D01*
X191392983Y-47506925D01*
X191535840Y-47578354D01*
X191607269Y-47721211D01*
X191607269Y-48506925D01*
X194250126Y-48506925D02*
X193392983Y-48506925D01*
X193821555Y-48506925D02*
X193821555Y-47006925D01*
X193678697Y-47221211D01*
X193535840Y-47364068D01*
X193392983Y-47435496D01*
X195107269Y-48506925D02*
X194964412Y-48435496D01*
X194892983Y-48364068D01*
X194821555Y-48221211D01*
X194821555Y-47792639D01*
X194892983Y-47649782D01*
X194964412Y-47578354D01*
X195107269Y-47506925D01*
X195321555Y-47506925D01*
X195464412Y-47578354D01*
X195535840Y-47649782D01*
X195607269Y-47792639D01*
X195607269Y-48221211D01*
X195535840Y-48364068D01*
X195464412Y-48435496D01*
X195321555Y-48506925D01*
X195107269Y-48506925D01*
X196107269Y-47506925D02*
X196892983Y-47506925D01*
X196107269Y-48506925D01*
X196892983Y-48506925D01*
X199250126Y-48435496D02*
X199107269Y-48506925D01*
X198821555Y-48506925D01*
X198678697Y-48435496D01*
X198607269Y-48364068D01*
X198535840Y-48221211D01*
X198535840Y-47792639D01*
X198607269Y-47649782D01*
X198678697Y-47578354D01*
X198821555Y-47506925D01*
X199107269Y-47506925D01*
X199250126Y-47578354D01*
X200107269Y-48506925D02*
X199964412Y-48435496D01*
X199892983Y-48364068D01*
X199821555Y-48221211D01*
X199821555Y-47792639D01*
X199892983Y-47649782D01*
X199964412Y-47578354D01*
X200107269Y-47506925D01*
X200321555Y-47506925D01*
X200464412Y-47578354D01*
X200535840Y-47649782D01*
X200607269Y-47792639D01*
X200607269Y-48221211D01*
X200535840Y-48364068D01*
X200464412Y-48435496D01*
X200321555Y-48506925D01*
X200107269Y-48506925D01*
X201250126Y-47506925D02*
X201250126Y-49006925D01*
X201250126Y-47578354D02*
X201392983Y-47506925D01*
X201678697Y-47506925D01*
X201821555Y-47578354D01*
X201892983Y-47649782D01*
X201964412Y-47792639D01*
X201964412Y-48221211D01*
X201892983Y-48364068D01*
X201821555Y-48435496D01*
X201678697Y-48506925D01*
X201392983Y-48506925D01*
X201250126Y-48435496D01*
X202607269Y-47506925D02*
X202607269Y-49006925D01*
X202607269Y-47578354D02*
X202750126Y-47506925D01*
X203035840Y-47506925D01*
X203178697Y-47578354D01*
X203250126Y-47649782D01*
X203321555Y-47792639D01*
X203321555Y-48221211D01*
X203250126Y-48364068D01*
X203178697Y-48435496D01*
X203035840Y-48506925D01*
X202750126Y-48506925D01*
X202607269Y-48435496D01*
X204535840Y-48435496D02*
X204392983Y-48506925D01*
X204107269Y-48506925D01*
X203964412Y-48435496D01*
X203892983Y-48292639D01*
X203892983Y-47721211D01*
X203964412Y-47578354D01*
X204107269Y-47506925D01*
X204392983Y-47506925D01*
X204535840Y-47578354D01*
X204607269Y-47721211D01*
X204607269Y-47864068D01*
X203892983Y-48006925D01*
X205250126Y-48506925D02*
X205250126Y-47506925D01*
X205250126Y-47792639D02*
X205321555Y-47649782D01*
X205392983Y-47578354D01*
X205535840Y-47506925D01*
X205678697Y-47506925D01*
D12*
X82009665Y-92727251D02*
X81162998Y-91275822D01*
X80558236Y-92727251D02*
X80558236Y-89679251D01*
X81525855Y-89679251D01*
X81767760Y-89824394D01*
X81888713Y-89969536D01*
X82009665Y-90259822D01*
X82009665Y-90695251D01*
X81888713Y-90985536D01*
X81767760Y-91130679D01*
X81525855Y-91275822D01*
X80558236Y-91275822D01*
X83098236Y-92727251D02*
X83098236Y-89679251D01*
X85638236Y-89824394D02*
X85396332Y-89679251D01*
X85033475Y-89679251D01*
X84670617Y-89824394D01*
X84428713Y-90114679D01*
X84307760Y-90404965D01*
X84186808Y-90985536D01*
X84186808Y-91420965D01*
X84307760Y-92001536D01*
X84428713Y-92291822D01*
X84670617Y-92582108D01*
X85033475Y-92727251D01*
X85275379Y-92727251D01*
X85638236Y-92582108D01*
X85759189Y-92436965D01*
X85759189Y-91420965D01*
X85275379Y-91420965D01*
X86847760Y-92727251D02*
X86847760Y-89679251D01*
X86847760Y-91130679D02*
X88299189Y-91130679D01*
X88299189Y-92727251D02*
X88299189Y-89679251D01*
X89145855Y-89679251D02*
X90597284Y-89679251D01*
X89871570Y-92727251D02*
X89871570Y-89679251D01*
X80558236Y-97807251D02*
X80558236Y-94759251D01*
X80558236Y-96210679D02*
X82009665Y-96210679D01*
X82009665Y-97807251D02*
X82009665Y-94759251D01*
X83098236Y-96936394D02*
X84307760Y-96936394D01*
X82856332Y-97807251D02*
X83702998Y-94759251D01*
X84549665Y-97807251D01*
X85396332Y-97807251D02*
X85396332Y-94759251D01*
X86847760Y-97807251D01*
X86847760Y-94759251D01*
X88057284Y-97807251D02*
X88057284Y-94759251D01*
X88662046Y-94759251D01*
X89024903Y-94904394D01*
X89266808Y-95194679D01*
X89387760Y-95484965D01*
X89508713Y-96065536D01*
X89508713Y-96500965D01*
X89387760Y-97081536D01*
X89266808Y-97371822D01*
X89024903Y-97662108D01*
X88662046Y-97807251D01*
X88057284Y-97807251D01*
D13*
X47947047Y-125320590D02*
X48369665Y-126226897D01*
X47040739Y-125743208D02*
X47947047Y-125320590D01*
X53863702Y-138008899D02*
X52957395Y-138431517D01*
X53441084Y-137102591D02*
X53863702Y-138008899D01*
X41175393Y-143925554D02*
X40752775Y-143019247D01*
X42081701Y-143502936D02*
X41175393Y-143925554D01*
X35258738Y-131237245D02*
X36165045Y-130814627D01*
X35681356Y-132143553D02*
X35258738Y-131237245D01*
X64598315Y-149085000D02*
X65504622Y-148662382D01*
X65020933Y-149991308D02*
X64598315Y-149085000D01*
X77286624Y-143168345D02*
X77709242Y-144074652D01*
X76380316Y-143590963D02*
X77286624Y-143168345D01*
X83203279Y-155856654D02*
X82296972Y-156279272D01*
X82780661Y-154950346D02*
X83203279Y-155856654D01*
X70514970Y-161773309D02*
X70092352Y-160867002D01*
X71421278Y-161350691D02*
X70514970Y-161773309D01*
X208382609Y-89456587D02*
X208382609Y-90456587D01*
X207382609Y-89456587D02*
X208382609Y-89456587D01*
X208382609Y-103456587D02*
X207382609Y-103456587D01*
X208382609Y-102456587D02*
X208382609Y-103456587D01*
X194382609Y-103456587D02*
X194382609Y-102456587D01*
X195382609Y-103456587D02*
X194382609Y-103456587D01*
X194382609Y-89456587D02*
X195382609Y-89456587D01*
X194382609Y-90456587D02*
X194382609Y-89456587D01*
X208382366Y-70405777D02*
X208382366Y-71405777D01*
X207382366Y-70405777D02*
X208382366Y-70405777D01*
X208382366Y-84405777D02*
X207382366Y-84405777D01*
X208382366Y-83405777D02*
X208382366Y-84405777D01*
X194382366Y-84405777D02*
X194382366Y-83405777D01*
X195382366Y-84405777D02*
X194382366Y-84405777D01*
X194382366Y-70405777D02*
X195382366Y-70405777D01*
X194382366Y-71405777D02*
X194382366Y-70405777D01*
X208382430Y-108506490D02*
X208382430Y-109506490D01*
X207382430Y-108506490D02*
X208382430Y-108506490D01*
X208382430Y-122506490D02*
X207382430Y-122506490D01*
X208382430Y-121506490D02*
X208382430Y-122506490D01*
X194382430Y-122506490D02*
X194382430Y-121506490D01*
X195382430Y-122506490D02*
X194382430Y-122506490D01*
X194382430Y-108506490D02*
X195382430Y-108506490D01*
X194382430Y-109506490D02*
X194382430Y-108506490D01*
X208382001Y-51359437D02*
X208382001Y-52359437D01*
X207382001Y-51359437D02*
X208382001Y-51359437D01*
X208382001Y-65359437D02*
X207382001Y-65359437D01*
X208382001Y-64359437D02*
X208382001Y-65359437D01*
X194382001Y-65359437D02*
X194382001Y-64359437D01*
X195382001Y-65359437D02*
X194382001Y-65359437D01*
X194382001Y-51359437D02*
X195382001Y-51359437D01*
X194382001Y-52359437D02*
X194382001Y-51359437D01*
X65211304Y-117270135D02*
X65633922Y-118176442D01*
X64304996Y-117692753D02*
X65211304Y-117270135D01*
X71127959Y-129958444D02*
X70221652Y-130381062D01*
X70705341Y-129052136D02*
X71127959Y-129958444D01*
X58439650Y-135875099D02*
X58017032Y-134968792D01*
X59345958Y-135452481D02*
X58439650Y-135875099D01*
X52522995Y-123186790D02*
X53429302Y-122764172D01*
X52945613Y-124093098D02*
X52522995Y-123186790D01*
X108301765Y-106601968D02*
X108301765Y-107601968D01*
X107301765Y-106601968D02*
X108301765Y-106601968D01*
X108301765Y-120601968D02*
X107301765Y-120601968D01*
X108301765Y-119601968D02*
X108301765Y-120601968D01*
X94301765Y-120601968D02*
X94301765Y-119601968D01*
X95301765Y-120601968D02*
X94301765Y-120601968D01*
X94301765Y-106601968D02*
X95301765Y-106601968D01*
X94301765Y-107601968D02*
X94301765Y-106601968D01*
X146402655Y-46583581D02*
X146402655Y-47583581D01*
X145402655Y-46583581D02*
X146402655Y-46583581D01*
X146402655Y-60583581D02*
X145402655Y-60583581D01*
X146402655Y-59583581D02*
X146402655Y-60583581D01*
X132402655Y-60583581D02*
X132402655Y-59583581D01*
X133402655Y-60583581D02*
X132402655Y-60583581D01*
X132402655Y-46583581D02*
X133402655Y-46583581D01*
X132402655Y-47583581D02*
X132402655Y-46583581D01*
X108301989Y-49453949D02*
X108301989Y-50453949D01*
X107301989Y-49453949D02*
X108301989Y-49453949D01*
X108301989Y-63453949D02*
X107301989Y-63453949D01*
X108301989Y-62453949D02*
X108301989Y-63453949D01*
X94301989Y-63453949D02*
X94301989Y-62453949D01*
X95301989Y-63453949D02*
X94301989Y-63453949D01*
X94301989Y-49453949D02*
X95301989Y-49453949D01*
X94301989Y-50453949D02*
X94301989Y-49453949D01*
X127351859Y-67231328D02*
X127351859Y-68231328D01*
X126351859Y-67231328D02*
X127351859Y-67231328D01*
X127351859Y-81231328D02*
X126351859Y-81231328D01*
X127351859Y-80231328D02*
X127351859Y-81231328D01*
X113351859Y-81231328D02*
X113351859Y-80231328D01*
X114351859Y-81231328D02*
X113351859Y-81231328D01*
X113351859Y-67231328D02*
X114351859Y-67231328D01*
X113351859Y-68231328D02*
X113351859Y-67231328D01*
X146402475Y-65633484D02*
X146402475Y-66633484D01*
X145402475Y-65633484D02*
X146402475Y-65633484D01*
X146402475Y-79633484D02*
X145402475Y-79633484D01*
X146402475Y-78633484D02*
X146402475Y-79633484D01*
X132402475Y-79633484D02*
X132402475Y-78633484D01*
X133402475Y-79633484D02*
X132402475Y-79633484D01*
X132402475Y-65633484D02*
X133402475Y-65633484D01*
X132402475Y-66633484D02*
X132402475Y-65633484D01*
X108301702Y-68501255D02*
X108301702Y-69501255D01*
X107301702Y-68501255D02*
X108301702Y-68501255D01*
X108301702Y-82501255D02*
X107301702Y-82501255D01*
X108301702Y-81501255D02*
X108301702Y-82501255D01*
X94301702Y-82501255D02*
X94301702Y-81501255D01*
X95301702Y-82501255D02*
X94301702Y-82501255D01*
X94301702Y-68501255D02*
X95301702Y-68501255D01*
X94301702Y-69501255D02*
X94301702Y-68501255D01*
X75251844Y-73264336D02*
X76251844Y-73264336D01*
X75251844Y-74264336D02*
X75251844Y-73264336D01*
X89251844Y-73264336D02*
X89251844Y-74264336D01*
X88251844Y-73264336D02*
X89251844Y-73264336D01*
X89251844Y-87264336D02*
X88251844Y-87264336D01*
X89251844Y-86264336D02*
X89251844Y-87264336D01*
X75251844Y-87264336D02*
X75251844Y-86264336D01*
X76251844Y-87264336D02*
X75251844Y-87264336D01*
X127352039Y-48181424D02*
X127352039Y-49181424D01*
X126352039Y-48181424D02*
X127352039Y-48181424D01*
X127352039Y-62181424D02*
X126352039Y-62181424D01*
X127352039Y-61181424D02*
X127352039Y-62181424D01*
X113352039Y-62181424D02*
X113352039Y-61181424D01*
X114352039Y-62181424D02*
X113352039Y-62181424D01*
X113352039Y-48181424D02*
X114352039Y-48181424D01*
X113352039Y-49181424D02*
X113352039Y-48181424D01*
X184502202Y-51358377D02*
X184502202Y-52358377D01*
X183502202Y-51358377D02*
X184502202Y-51358377D01*
X184502202Y-65358377D02*
X183502202Y-65358377D01*
X184502202Y-64358377D02*
X184502202Y-65358377D01*
X170502202Y-65358377D02*
X170502202Y-64358377D01*
X171502202Y-65358377D02*
X170502202Y-65358377D01*
X170502202Y-51358377D02*
X171502202Y-51358377D01*
X170502202Y-52358377D02*
X170502202Y-51358377D01*
X165451846Y-48181784D02*
X165451846Y-49181784D01*
X164451846Y-48181784D02*
X165451846Y-48181784D01*
X165451846Y-62181784D02*
X164451846Y-62181784D01*
X165451846Y-61181784D02*
X165451846Y-62181784D01*
X151451846Y-62181784D02*
X151451846Y-61181784D01*
X152451846Y-62181784D02*
X151451846Y-62181784D01*
X151451846Y-48181784D02*
X152451846Y-48181784D01*
X151451846Y-49181784D02*
X151451846Y-48181784D01*
X184502084Y-70406046D02*
X184502084Y-71406046D01*
X183502084Y-70406046D02*
X184502084Y-70406046D01*
X184502084Y-84406046D02*
X183502084Y-84406046D01*
X184502084Y-83406046D02*
X184502084Y-84406046D01*
X170502084Y-84406046D02*
X170502084Y-83406046D01*
X171502084Y-84406046D02*
X170502084Y-84406046D01*
X170502084Y-70406046D02*
X171502084Y-70406046D01*
X170502084Y-71406046D02*
X170502084Y-70406046D01*
X165452572Y-67231265D02*
X165452572Y-68231265D01*
X164452572Y-67231265D02*
X165452572Y-67231265D01*
X165452572Y-81231265D02*
X164452572Y-81231265D01*
X165452572Y-80231265D02*
X165452572Y-81231265D01*
X151452572Y-81231265D02*
X151452572Y-80231265D01*
X152452572Y-81231265D02*
X151452572Y-81231265D01*
X151452572Y-67231265D02*
X152452572Y-67231265D01*
X151452572Y-68231265D02*
X151452572Y-67231265D01*
X184502326Y-89456856D02*
X184502326Y-90456856D01*
X183502326Y-89456856D02*
X184502326Y-89456856D01*
X184502326Y-103456856D02*
X183502326Y-103456856D01*
X184502326Y-102456856D02*
X184502326Y-103456856D01*
X170502326Y-103456856D02*
X170502326Y-102456856D01*
X171502326Y-103456856D02*
X170502326Y-103456856D01*
X170502326Y-89456856D02*
X171502326Y-89456856D01*
X170502326Y-90456856D02*
X170502326Y-89456856D01*
X165452393Y-86281168D02*
X165452393Y-87281168D01*
X164452393Y-86281168D02*
X165452393Y-86281168D01*
X165452393Y-100281168D02*
X164452393Y-100281168D01*
X165452393Y-99281168D02*
X165452393Y-100281168D01*
X151452393Y-100281168D02*
X151452393Y-99281168D01*
X152452393Y-100281168D02*
X151452393Y-100281168D01*
X151452393Y-86281168D02*
X152452393Y-86281168D01*
X151452393Y-87281168D02*
X151452393Y-86281168D01*
X146402296Y-84683388D02*
X146402296Y-85683388D01*
X145402296Y-84683388D02*
X146402296Y-84683388D01*
X146402296Y-98683388D02*
X145402296Y-98683388D01*
X146402296Y-97683388D02*
X146402296Y-98683388D01*
X132402296Y-98683388D02*
X132402296Y-97683388D01*
X133402296Y-98683388D02*
X132402296Y-98683388D01*
X132402296Y-84683388D02*
X133402296Y-84683388D01*
X132402296Y-85683388D02*
X132402296Y-84683388D01*
X127352102Y-86282138D02*
X127352102Y-87282138D01*
X126352102Y-86282138D02*
X127352102Y-86282138D01*
X127352102Y-100282138D02*
X126352102Y-100282138D01*
X127352102Y-99282138D02*
X127352102Y-100282138D01*
X113352102Y-100282138D02*
X113352102Y-99282138D01*
X114352102Y-100282138D02*
X113352102Y-100282138D01*
X113352102Y-86282138D02*
X114352102Y-86282138D01*
X113352102Y-87282138D02*
X113352102Y-86282138D01*
X108301945Y-87552064D02*
X108301945Y-88552064D01*
X107301945Y-87552064D02*
X108301945Y-87552064D01*
X108301945Y-101552064D02*
X107301945Y-101552064D01*
X108301945Y-100552064D02*
X108301945Y-101552064D01*
X94301945Y-101552064D02*
X94301945Y-100552064D01*
X95301945Y-101552064D02*
X94301945Y-101552064D01*
X94301945Y-87552064D02*
X95301945Y-87552064D01*
X94301945Y-88552064D02*
X94301945Y-87552064D01*
X184502147Y-108506759D02*
X184502147Y-109506759D01*
X183502147Y-108506759D02*
X184502147Y-108506759D01*
X184502147Y-122506759D02*
X183502147Y-122506759D01*
X184502147Y-121506759D02*
X184502147Y-122506759D01*
X170502147Y-122506759D02*
X170502147Y-121506759D01*
X171502147Y-122506759D02*
X170502147Y-122506759D01*
X170502147Y-108506759D02*
X171502147Y-108506759D01*
X170502147Y-109506759D02*
X170502147Y-108506759D01*
X165452636Y-105331978D02*
X165452636Y-106331978D01*
X164452636Y-105331978D02*
X165452636Y-105331978D01*
X165452636Y-119331978D02*
X164452636Y-119331978D01*
X165452636Y-118331978D02*
X165452636Y-119331978D01*
X151452636Y-119331978D02*
X151452636Y-118331978D01*
X152452636Y-119331978D02*
X151452636Y-119331978D01*
X151452636Y-105331978D02*
X152452636Y-105331978D01*
X151452636Y-106331978D02*
X151452636Y-105331978D01*
X146402116Y-103733291D02*
X146402116Y-104733291D01*
X145402116Y-103733291D02*
X146402116Y-103733291D01*
X146402116Y-117733291D02*
X145402116Y-117733291D01*
X146402116Y-116733291D02*
X146402116Y-117733291D01*
X132402116Y-117733291D02*
X132402116Y-116733291D01*
X133402116Y-117733291D02*
X132402116Y-117733291D01*
X132402116Y-103733291D02*
X133402116Y-103733291D01*
X132402116Y-104733291D02*
X132402116Y-103733291D01*
X127351922Y-105332041D02*
X127351922Y-106332041D01*
X126351922Y-105332041D02*
X127351922Y-105332041D01*
X127351922Y-119332041D02*
X126351922Y-119332041D01*
X127351922Y-118332041D02*
X127351922Y-119332041D01*
X113351922Y-119332041D02*
X113351922Y-118332041D01*
X114351922Y-119332041D02*
X113351922Y-119332041D01*
X113351922Y-105332041D02*
X114351922Y-105332041D01*
X113351922Y-106332041D02*
X113351922Y-105332041D01*
X75252088Y-101838400D02*
X76252088Y-101838400D01*
X75252088Y-102838400D02*
X75252088Y-101838400D01*
X89252088Y-101838400D02*
X89252088Y-102838400D01*
X88252088Y-101838400D02*
X89252088Y-101838400D01*
X89252088Y-115838400D02*
X88252088Y-115838400D01*
X89252088Y-114838400D02*
X89252088Y-115838400D01*
X75252088Y-115838400D02*
X75252088Y-114838400D01*
X76252088Y-115838400D02*
X75252088Y-115838400D01*
X203551871Y-127556842D02*
X203551871Y-128556842D01*
X202551871Y-127556842D02*
X203551871Y-127556842D01*
X203551871Y-141556842D02*
X202551871Y-141556842D01*
X203551871Y-140556842D02*
X203551871Y-141556842D01*
X189551871Y-141556842D02*
X189551871Y-140556842D01*
X190551871Y-141556842D02*
X189551871Y-141556842D01*
X189551871Y-127556842D02*
X190551871Y-127556842D01*
X189551871Y-128556842D02*
X189551871Y-127556842D01*
X184501967Y-127556663D02*
X184501967Y-128556663D01*
X183501967Y-127556663D02*
X184501967Y-127556663D01*
X184501967Y-141556663D02*
X183501967Y-141556663D01*
X184501967Y-140556663D02*
X184501967Y-141556663D01*
X170501967Y-141556663D02*
X170501967Y-140556663D01*
X171501967Y-141556663D02*
X170501967Y-141556663D01*
X170501967Y-127556663D02*
X171501967Y-127556663D01*
X170501967Y-128556663D02*
X170501967Y-127556663D01*
X165452456Y-124381882D02*
X165452456Y-125381882D01*
X164452456Y-124381882D02*
X165452456Y-124381882D01*
X165452456Y-138381882D02*
X164452456Y-138381882D01*
X165452456Y-137381882D02*
X165452456Y-138381882D01*
X151452456Y-138381882D02*
X151452456Y-137381882D01*
X152452456Y-138381882D02*
X151452456Y-138381882D01*
X151452456Y-124381882D02*
X152452456Y-124381882D01*
X151452456Y-125381882D02*
X151452456Y-124381882D01*
X146402359Y-122784101D02*
X146402359Y-123784101D01*
X145402359Y-122784101D02*
X146402359Y-122784101D01*
X146402359Y-136784101D02*
X145402359Y-136784101D01*
X146402359Y-135784101D02*
X146402359Y-136784101D01*
X132402359Y-136784101D02*
X132402359Y-135784101D01*
X133402359Y-136784101D02*
X132402359Y-136784101D01*
X132402359Y-122784101D02*
X133402359Y-122784101D01*
X132402359Y-123784101D02*
X132402359Y-122784101D01*
X127352649Y-124381522D02*
X127352649Y-125381522D01*
X126352649Y-124381522D02*
X127352649Y-124381522D01*
X127352649Y-138381522D02*
X126352649Y-138381522D01*
X127352649Y-137381522D02*
X127352649Y-138381522D01*
X113352649Y-138381522D02*
X113352649Y-137381522D01*
X114352649Y-138381522D02*
X113352649Y-138381522D01*
X113352649Y-124381522D02*
X114352649Y-124381522D01*
X113352649Y-125381522D02*
X113352649Y-124381522D01*
X64048078Y-159851255D02*
X64470696Y-160757562D01*
X63141770Y-160273873D02*
X64048078Y-159851255D01*
X69964733Y-172539564D02*
X69058426Y-172962182D01*
X69542115Y-171633256D02*
X69964733Y-172539564D01*
X57276424Y-178456219D02*
X56853806Y-177549912D01*
X58182732Y-178033601D02*
X57276424Y-178456219D01*
X51359769Y-165767910D02*
X52266076Y-165345292D01*
X51782387Y-166674218D02*
X51359769Y-165767910D01*
X81862361Y-141032436D02*
X82768668Y-140609818D01*
X82284979Y-141938744D02*
X81862361Y-141032436D01*
X94550670Y-135115781D02*
X94973288Y-136022088D01*
X93644362Y-135538399D02*
X94550670Y-135115781D01*
X100467325Y-147804090D02*
X99561018Y-148226708D01*
X100044707Y-146897782D02*
X100467325Y-147804090D01*
X87779016Y-153720745D02*
X87356398Y-152814438D01*
X88685324Y-153298127D02*
X87779016Y-153720745D01*
X55996264Y-142584321D02*
X56418882Y-143490628D01*
X55089956Y-143006939D02*
X55996264Y-142584321D01*
X61912919Y-155272630D02*
X61006612Y-155695248D01*
X61490301Y-154366322D02*
X61912919Y-155272630D01*
X49224610Y-161189285D02*
X48801992Y-160282978D01*
X50130918Y-160766667D02*
X49224610Y-161189285D01*
X43307955Y-148500976D02*
X44214262Y-148078358D01*
X43730573Y-149407284D02*
X43307955Y-148500976D01*
X89252128Y-49453860D02*
X89252128Y-50453860D01*
X88252128Y-49453860D02*
X89252128Y-49453860D01*
X89252128Y-63453860D02*
X88252128Y-63453860D01*
X89252128Y-62453860D02*
X89252128Y-63453860D01*
X75252128Y-63453860D02*
X75252128Y-62453860D01*
X76252128Y-63453860D02*
X75252128Y-63453860D01*
X75252128Y-49453860D02*
X76252128Y-49453860D01*
X75252128Y-50453860D02*
X75252128Y-49453860D01*
D14*
X170502429Y-35143405D02*
X169232429Y-35143405D01*
X170502429Y-32603405D02*
X170502429Y-35143405D01*
X169232429Y-32603405D02*
X170502429Y-32603405D01*
X169232429Y-36413405D02*
X169232429Y-31333405D01*
X207332429Y-36413405D02*
X169232429Y-36413405D01*
X207332429Y-31333405D02*
X207332429Y-36413405D01*
X169232429Y-31333405D02*
X207332429Y-31333405D01*
X91370560Y-33898792D02*
X91370560Y-21833792D01*
X100971760Y-33898792D02*
X91370560Y-33898792D01*
X100971760Y-21833792D02*
X100971760Y-33898792D01*
D15*
X105111862Y-28818859D02*
G75*
G02X103841862Y-30088859I-1270000J0D01*
G01*
X103841862Y-30088859D02*
G75*
G02X102571862Y-28818859I0J1270000D01*
G01*
X103841862Y-25008859D02*
G75*
G02X105111862Y-26278859I0J-1270000D01*
G01*
X102571862Y-26278859D02*
G75*
G02X103841862Y-25008859I1270000J0D01*
G01*
X105111862Y-28818859D02*
X105111862Y-26278859D01*
X102571862Y-28818859D02*
X102571862Y-26278859D01*
X89871982Y-31358806D02*
X89871982Y-28818806D01*
X87331982Y-31358806D02*
G75*
G03X88601982Y-32628806I1270000J0D01*
G01*
X88601982Y-32628806D02*
G75*
G03X89871982Y-31358806I0J1270000D01*
G01*
X88601982Y-27548806D02*
G75*
G03X87331982Y-28818806I0J-1270000D01*
G01*
X89871982Y-28818806D02*
G75*
G03X88601982Y-27548806I-1270000J0D01*
G01*
X87331982Y-31358806D02*
X87331982Y-28818806D01*
D16*
X211790009Y-29443056D02*
X212235009Y-29443056D01*
X209495009Y-29443056D02*
X209940009Y-29443056D01*
X211790009Y-35683056D02*
X212235009Y-35683056D01*
X209495009Y-35683056D02*
X209940009Y-35683056D01*
X212235009Y-35683056D02*
X212235009Y-29443056D01*
X209495009Y-35683056D02*
X209495009Y-29443056D01*
X214823061Y-33158066D02*
X214823061Y-31953938D01*
X213003061Y-33158066D02*
X213003061Y-31953938D01*
D17*
X44562715Y-138017836D02*
X44667433Y-138005784D01*
X44818485Y-137935348D01*
X44864818Y-137876963D01*
X44880941Y-137832665D01*
X44882976Y-137758157D01*
X44854802Y-137697737D01*
X44796417Y-137651404D01*
X44752120Y-137635281D01*
X44677612Y-137633245D01*
X44542683Y-137659384D01*
X44468176Y-137657348D01*
X44423878Y-137641225D01*
X44365493Y-137594892D01*
X44337319Y-137534471D01*
X44339354Y-137459964D01*
X44355477Y-137415666D01*
X44401811Y-137357281D01*
X44552862Y-137286845D01*
X44657580Y-137274793D01*
X44854965Y-137145972D02*
X45301849Y-137709951D01*
X45211381Y-137200448D01*
X45543531Y-137597253D01*
X45398749Y-136892401D01*
X45761272Y-136723354D02*
X45821693Y-136695179D01*
X45896201Y-136697215D01*
X45940498Y-136713338D01*
X45998883Y-136759671D01*
X46085442Y-136866425D01*
X46155879Y-137017476D01*
X46182018Y-137152405D01*
X46179982Y-137226912D01*
X46163859Y-137271210D01*
X46117526Y-137329595D01*
X46057105Y-137357769D01*
X45982597Y-137355734D01*
X45938300Y-137339611D01*
X45879915Y-137293277D01*
X45793356Y-137186524D01*
X45722919Y-137035472D01*
X45696780Y-136900544D01*
X45698816Y-136826036D01*
X45714939Y-136781739D01*
X45761272Y-136723354D01*
X46512295Y-137071952D02*
X46556592Y-137088075D01*
X46540469Y-137132373D01*
X46496172Y-137116250D01*
X46512295Y-137071952D01*
X46540469Y-137132373D01*
X46357335Y-136739640D02*
X46401632Y-136755763D01*
X46385509Y-136800060D01*
X46341212Y-136783937D01*
X46357335Y-136739640D01*
X46385509Y-136800060D01*
X46486319Y-136385259D02*
X46909262Y-136188037D01*
X46933203Y-136949238D01*
X75429608Y-149808630D02*
X75441659Y-149913348D01*
X75512096Y-150064399D01*
X75570480Y-150110732D01*
X75614778Y-150126855D01*
X75689286Y-150128891D01*
X75749706Y-150100716D01*
X75796040Y-150042332D01*
X75812163Y-149998034D01*
X75814198Y-149923526D01*
X75788059Y-149788598D01*
X75790095Y-149714090D01*
X75806218Y-149669793D01*
X75852551Y-149611408D01*
X75912972Y-149583233D01*
X75987480Y-149585269D01*
X76031777Y-149601392D01*
X76090162Y-149647725D01*
X76160598Y-149798776D01*
X76172650Y-149903494D01*
X76301471Y-150100879D02*
X75737492Y-150547763D01*
X76246995Y-150457295D01*
X75850190Y-150789445D01*
X76555042Y-150644664D01*
X76724089Y-151007187D02*
X76752264Y-151067607D01*
X76750228Y-151142115D01*
X76734105Y-151186413D01*
X76687772Y-151244797D01*
X76581018Y-151331357D01*
X76429967Y-151401793D01*
X76295039Y-151427932D01*
X76220531Y-151425896D01*
X76176233Y-151409773D01*
X76117848Y-151363440D01*
X76089674Y-151303020D01*
X76091710Y-151228512D01*
X76107833Y-151184214D01*
X76154166Y-151125829D01*
X76260920Y-151039270D01*
X76411971Y-150968834D01*
X76546899Y-150942695D01*
X76621407Y-150944731D01*
X76665705Y-150960854D01*
X76724089Y-151007187D01*
X76375491Y-151758209D02*
X76359368Y-151802507D01*
X76315070Y-151786384D01*
X76331193Y-151742086D01*
X76375491Y-151758209D01*
X76315070Y-151786384D01*
X76707804Y-151603249D02*
X76691681Y-151647547D01*
X76647383Y-151631424D01*
X76663506Y-151587126D01*
X76707804Y-151603249D01*
X76647383Y-151631424D01*
X76610903Y-152420799D02*
X76441856Y-152058276D01*
X76526379Y-152239538D02*
X77160795Y-151943705D01*
X77041990Y-151925546D01*
X76953395Y-151893300D01*
X76895010Y-151846967D01*
X76892649Y-153025004D02*
X76723601Y-152662481D01*
X76808125Y-152843743D02*
X77442540Y-152547910D01*
X77323735Y-152529751D01*
X77235140Y-152497505D01*
X77176755Y-152451172D01*
X199615942Y-99533920D02*
X199715942Y-99567253D01*
X199882609Y-99567253D01*
X199949275Y-99533920D01*
X199982609Y-99500587D01*
X200015942Y-99433920D01*
X200015942Y-99367253D01*
X199982609Y-99300587D01*
X199949275Y-99267253D01*
X199882609Y-99233920D01*
X199749275Y-99200587D01*
X199682609Y-99167253D01*
X199649275Y-99133920D01*
X199615942Y-99067253D01*
X199615942Y-99000587D01*
X199649275Y-98933920D01*
X199682609Y-98900587D01*
X199749275Y-98867253D01*
X199915942Y-98867253D01*
X200015942Y-98900587D01*
X200249275Y-98867253D02*
X200415942Y-99567253D01*
X200549275Y-99067253D01*
X200682609Y-99567253D01*
X200849275Y-98867253D01*
X201049275Y-98867253D02*
X201482609Y-98867253D01*
X201249275Y-99133920D01*
X201349275Y-99133920D01*
X201415942Y-99167253D01*
X201449275Y-99200587D01*
X201482609Y-99267253D01*
X201482609Y-99433920D01*
X201449275Y-99500587D01*
X201415942Y-99533920D01*
X201349275Y-99567253D01*
X201149275Y-99567253D01*
X201082609Y-99533920D01*
X201049275Y-99500587D01*
X201782609Y-99500587D02*
X201815942Y-99533920D01*
X201782609Y-99567253D01*
X201749275Y-99533920D01*
X201782609Y-99500587D01*
X201782609Y-99567253D01*
X201782609Y-99133920D02*
X201815942Y-99167253D01*
X201782609Y-99200587D01*
X201749275Y-99167253D01*
X201782609Y-99133920D01*
X201782609Y-99200587D01*
X202482609Y-99567253D02*
X202082609Y-99567253D01*
X202282609Y-99567253D02*
X202282609Y-98867253D01*
X202215942Y-98967253D01*
X202149275Y-99033920D01*
X202082609Y-99067253D01*
X202715942Y-98867253D02*
X203149275Y-98867253D01*
X202915942Y-99133920D01*
X203015942Y-99133920D01*
X203082609Y-99167253D01*
X203115942Y-99200587D01*
X203149275Y-99267253D01*
X203149275Y-99433920D01*
X203115942Y-99500587D01*
X203082609Y-99533920D01*
X203015942Y-99567253D01*
X202815942Y-99567253D01*
X202749275Y-99533920D01*
X202715942Y-99500587D01*
X199615699Y-80483110D02*
X199715699Y-80516443D01*
X199882366Y-80516443D01*
X199949032Y-80483110D01*
X199982366Y-80449777D01*
X200015699Y-80383110D01*
X200015699Y-80316443D01*
X199982366Y-80249777D01*
X199949032Y-80216443D01*
X199882366Y-80183110D01*
X199749032Y-80149777D01*
X199682366Y-80116443D01*
X199649032Y-80083110D01*
X199615699Y-80016443D01*
X199615699Y-79949777D01*
X199649032Y-79883110D01*
X199682366Y-79849777D01*
X199749032Y-79816443D01*
X199915699Y-79816443D01*
X200015699Y-79849777D01*
X200249032Y-79816443D02*
X200415699Y-80516443D01*
X200549032Y-80016443D01*
X200682366Y-80516443D01*
X200849032Y-79816443D01*
X201415699Y-80049777D02*
X201415699Y-80516443D01*
X201249032Y-79783110D02*
X201082366Y-80283110D01*
X201515699Y-80283110D01*
X201782366Y-80449777D02*
X201815699Y-80483110D01*
X201782366Y-80516443D01*
X201749032Y-80483110D01*
X201782366Y-80449777D01*
X201782366Y-80516443D01*
X201782366Y-80083110D02*
X201815699Y-80116443D01*
X201782366Y-80149777D01*
X201749032Y-80116443D01*
X201782366Y-80083110D01*
X201782366Y-80149777D01*
X202482366Y-80516443D02*
X202082366Y-80516443D01*
X202282366Y-80516443D02*
X202282366Y-79816443D01*
X202215699Y-79916443D01*
X202149032Y-79983110D01*
X202082366Y-80016443D01*
X202715699Y-79816443D02*
X203149032Y-79816443D01*
X202915699Y-80083110D01*
X203015699Y-80083110D01*
X203082366Y-80116443D01*
X203115699Y-80149777D01*
X203149032Y-80216443D01*
X203149032Y-80383110D01*
X203115699Y-80449777D01*
X203082366Y-80483110D01*
X203015699Y-80516443D01*
X202815699Y-80516443D01*
X202749032Y-80483110D01*
X202715699Y-80449777D01*
X199615763Y-118583823D02*
X199715763Y-118617156D01*
X199882430Y-118617156D01*
X199949096Y-118583823D01*
X199982430Y-118550490D01*
X200015763Y-118483823D01*
X200015763Y-118417156D01*
X199982430Y-118350490D01*
X199949096Y-118317156D01*
X199882430Y-118283823D01*
X199749096Y-118250490D01*
X199682430Y-118217156D01*
X199649096Y-118183823D01*
X199615763Y-118117156D01*
X199615763Y-118050490D01*
X199649096Y-117983823D01*
X199682430Y-117950490D01*
X199749096Y-117917156D01*
X199915763Y-117917156D01*
X200015763Y-117950490D01*
X200249096Y-117917156D02*
X200415763Y-118617156D01*
X200549096Y-118117156D01*
X200682430Y-118617156D01*
X200849096Y-117917156D01*
X201082430Y-117983823D02*
X201115763Y-117950490D01*
X201182430Y-117917156D01*
X201349096Y-117917156D01*
X201415763Y-117950490D01*
X201449096Y-117983823D01*
X201482430Y-118050490D01*
X201482430Y-118117156D01*
X201449096Y-118217156D01*
X201049096Y-118617156D01*
X201482430Y-118617156D01*
X201782430Y-118550490D02*
X201815763Y-118583823D01*
X201782430Y-118617156D01*
X201749096Y-118583823D01*
X201782430Y-118550490D01*
X201782430Y-118617156D01*
X201782430Y-118183823D02*
X201815763Y-118217156D01*
X201782430Y-118250490D01*
X201749096Y-118217156D01*
X201782430Y-118183823D01*
X201782430Y-118250490D01*
X202482430Y-118617156D02*
X202082430Y-118617156D01*
X202282430Y-118617156D02*
X202282430Y-117917156D01*
X202215763Y-118017156D01*
X202149096Y-118083823D01*
X202082430Y-118117156D01*
X202715763Y-117917156D02*
X203149096Y-117917156D01*
X202915763Y-118183823D01*
X203015763Y-118183823D01*
X203082430Y-118217156D01*
X203115763Y-118250490D01*
X203149096Y-118317156D01*
X203149096Y-118483823D01*
X203115763Y-118550490D01*
X203082430Y-118583823D01*
X203015763Y-118617156D01*
X202815763Y-118617156D01*
X202749096Y-118583823D01*
X202715763Y-118550490D01*
X199615334Y-61436770D02*
X199715334Y-61470103D01*
X199882001Y-61470103D01*
X199948667Y-61436770D01*
X199982001Y-61403437D01*
X200015334Y-61336770D01*
X200015334Y-61270103D01*
X199982001Y-61203437D01*
X199948667Y-61170103D01*
X199882001Y-61136770D01*
X199748667Y-61103437D01*
X199682001Y-61070103D01*
X199648667Y-61036770D01*
X199615334Y-60970103D01*
X199615334Y-60903437D01*
X199648667Y-60836770D01*
X199682001Y-60803437D01*
X199748667Y-60770103D01*
X199915334Y-60770103D01*
X200015334Y-60803437D01*
X200248667Y-60770103D02*
X200415334Y-61470103D01*
X200548667Y-60970103D01*
X200682001Y-61470103D01*
X200848667Y-60770103D01*
X201448667Y-60770103D02*
X201115334Y-60770103D01*
X201082001Y-61103437D01*
X201115334Y-61070103D01*
X201182001Y-61036770D01*
X201348667Y-61036770D01*
X201415334Y-61070103D01*
X201448667Y-61103437D01*
X201482001Y-61170103D01*
X201482001Y-61336770D01*
X201448667Y-61403437D01*
X201415334Y-61436770D01*
X201348667Y-61470103D01*
X201182001Y-61470103D01*
X201115334Y-61436770D01*
X201082001Y-61403437D01*
X201782001Y-61403437D02*
X201815334Y-61436770D01*
X201782001Y-61470103D01*
X201748667Y-61436770D01*
X201782001Y-61403437D01*
X201782001Y-61470103D01*
X201782001Y-61036770D02*
X201815334Y-61070103D01*
X201782001Y-61103437D01*
X201748667Y-61070103D01*
X201782001Y-61036770D01*
X201782001Y-61103437D01*
X202482001Y-61470103D02*
X202082001Y-61470103D01*
X202282001Y-61470103D02*
X202282001Y-60770103D01*
X202215334Y-60870103D01*
X202148667Y-60936770D01*
X202082001Y-60970103D01*
X202715334Y-60770103D02*
X203148667Y-60770103D01*
X202915334Y-61036770D01*
X203015334Y-61036770D01*
X203082001Y-61070103D01*
X203115334Y-61103437D01*
X203148667Y-61170103D01*
X203148667Y-61336770D01*
X203115334Y-61403437D01*
X203082001Y-61436770D01*
X203015334Y-61470103D01*
X202815334Y-61470103D01*
X202748667Y-61436770D01*
X202715334Y-61403437D01*
X61826972Y-129967381D02*
X61931690Y-129955329D01*
X62082742Y-129884893D01*
X62129075Y-129826508D01*
X62145198Y-129782210D01*
X62147233Y-129707702D01*
X62119059Y-129647282D01*
X62060674Y-129600949D01*
X62016377Y-129584826D01*
X61941869Y-129582790D01*
X61806940Y-129608929D01*
X61732433Y-129606893D01*
X61688135Y-129590770D01*
X61629750Y-129544437D01*
X61601576Y-129484016D01*
X61603611Y-129409509D01*
X61619734Y-129365211D01*
X61666068Y-129306826D01*
X61817119Y-129236390D01*
X61921837Y-129224338D01*
X62119222Y-129095517D02*
X62566106Y-129659496D01*
X62475638Y-129149993D01*
X62807788Y-129546798D01*
X62663006Y-128841946D01*
X63025529Y-128672899D02*
X63085950Y-128644724D01*
X63160458Y-128646760D01*
X63204755Y-128662883D01*
X63263140Y-128709216D01*
X63349699Y-128815970D01*
X63420136Y-128967021D01*
X63446275Y-129101950D01*
X63444239Y-129176457D01*
X63428116Y-129220755D01*
X63381783Y-129279140D01*
X63321362Y-129307314D01*
X63246854Y-129305279D01*
X63202557Y-129289156D01*
X63144172Y-129242822D01*
X63057613Y-129136069D01*
X62987176Y-128985017D01*
X62961037Y-128850089D01*
X62963073Y-128775581D01*
X62979196Y-128731284D01*
X63025529Y-128672899D01*
X63776552Y-129021497D02*
X63820849Y-129037620D01*
X63804726Y-129081918D01*
X63760429Y-129065795D01*
X63776552Y-129021497D01*
X63804726Y-129081918D01*
X63621592Y-128689185D02*
X63665889Y-128705308D01*
X63649766Y-128749605D01*
X63605469Y-128733482D01*
X63621592Y-128689185D01*
X63649766Y-128749605D01*
X64028412Y-128536260D02*
X63953905Y-128534225D01*
X63909607Y-128518102D01*
X63851222Y-128471768D01*
X63837135Y-128441558D01*
X63839171Y-128367050D01*
X63855294Y-128322753D01*
X63901627Y-128264368D01*
X64022468Y-128208019D01*
X64096976Y-128210054D01*
X64141273Y-128226177D01*
X64199658Y-128272511D01*
X64213745Y-128302721D01*
X64211710Y-128377229D01*
X64195587Y-128421526D01*
X64149253Y-128479911D01*
X64028412Y-128536260D01*
X63982079Y-128594645D01*
X63965956Y-128638943D01*
X63963920Y-128713450D01*
X64020270Y-128834291D01*
X64078654Y-128880625D01*
X64122952Y-128896748D01*
X64197460Y-128898783D01*
X64318301Y-128842434D01*
X64364634Y-128784049D01*
X64380757Y-128739752D01*
X64382793Y-128665244D01*
X64326444Y-128544403D01*
X64268059Y-128498070D01*
X64223761Y-128481947D01*
X64149253Y-128479911D01*
X99868431Y-116679301D02*
X99968431Y-116712634D01*
X100135098Y-116712634D01*
X100201765Y-116679301D01*
X100235098Y-116645968D01*
X100268431Y-116579301D01*
X100268431Y-116512634D01*
X100235098Y-116445968D01*
X100201765Y-116412634D01*
X100135098Y-116379301D01*
X100001765Y-116345968D01*
X99935098Y-116312634D01*
X99901765Y-116279301D01*
X99868431Y-116212634D01*
X99868431Y-116145968D01*
X99901765Y-116079301D01*
X99935098Y-116045968D01*
X100001765Y-116012634D01*
X100168431Y-116012634D01*
X100268431Y-116045968D01*
X100501765Y-116012634D02*
X100668431Y-116712634D01*
X100801765Y-116212634D01*
X100935098Y-116712634D01*
X101101765Y-116012634D01*
X101335098Y-116079301D02*
X101368431Y-116045968D01*
X101435098Y-116012634D01*
X101601765Y-116012634D01*
X101668431Y-116045968D01*
X101701765Y-116079301D01*
X101735098Y-116145968D01*
X101735098Y-116212634D01*
X101701765Y-116312634D01*
X101301765Y-116712634D01*
X101735098Y-116712634D01*
X102035098Y-116645968D02*
X102068431Y-116679301D01*
X102035098Y-116712634D01*
X102001765Y-116679301D01*
X102035098Y-116645968D01*
X102035098Y-116712634D01*
X102035098Y-116279301D02*
X102068431Y-116312634D01*
X102035098Y-116345968D01*
X102001765Y-116312634D01*
X102035098Y-116279301D01*
X102035098Y-116345968D01*
X102468431Y-116312634D02*
X102401765Y-116279301D01*
X102368431Y-116245968D01*
X102335098Y-116179301D01*
X102335098Y-116145968D01*
X102368431Y-116079301D01*
X102401765Y-116045968D01*
X102468431Y-116012634D01*
X102601765Y-116012634D01*
X102668431Y-116045968D01*
X102701765Y-116079301D01*
X102735098Y-116145968D01*
X102735098Y-116179301D01*
X102701765Y-116245968D01*
X102668431Y-116279301D01*
X102601765Y-116312634D01*
X102468431Y-116312634D01*
X102401765Y-116345968D01*
X102368431Y-116379301D01*
X102335098Y-116445968D01*
X102335098Y-116579301D01*
X102368431Y-116645968D01*
X102401765Y-116679301D01*
X102468431Y-116712634D01*
X102601765Y-116712634D01*
X102668431Y-116679301D01*
X102701765Y-116645968D01*
X102735098Y-116579301D01*
X102735098Y-116445968D01*
X102701765Y-116379301D01*
X102668431Y-116345968D01*
X102601765Y-116312634D01*
X137635988Y-56660914D02*
X137735988Y-56694247D01*
X137902655Y-56694247D01*
X137969321Y-56660914D01*
X138002655Y-56627581D01*
X138035988Y-56560914D01*
X138035988Y-56494247D01*
X138002655Y-56427581D01*
X137969321Y-56394247D01*
X137902655Y-56360914D01*
X137769321Y-56327581D01*
X137702655Y-56294247D01*
X137669321Y-56260914D01*
X137635988Y-56194247D01*
X137635988Y-56127581D01*
X137669321Y-56060914D01*
X137702655Y-56027581D01*
X137769321Y-55994247D01*
X137935988Y-55994247D01*
X138035988Y-56027581D01*
X138269321Y-55994247D02*
X138435988Y-56694247D01*
X138569321Y-56194247D01*
X138702655Y-56694247D01*
X138869321Y-55994247D01*
X139469321Y-55994247D02*
X139135988Y-55994247D01*
X139102655Y-56327581D01*
X139135988Y-56294247D01*
X139202655Y-56260914D01*
X139369321Y-56260914D01*
X139435988Y-56294247D01*
X139469321Y-56327581D01*
X139502655Y-56394247D01*
X139502655Y-56560914D01*
X139469321Y-56627581D01*
X139435988Y-56660914D01*
X139369321Y-56694247D01*
X139202655Y-56694247D01*
X139135988Y-56660914D01*
X139102655Y-56627581D01*
X139802655Y-56627581D02*
X139835988Y-56660914D01*
X139802655Y-56694247D01*
X139769321Y-56660914D01*
X139802655Y-56627581D01*
X139802655Y-56694247D01*
X139802655Y-56260914D02*
X139835988Y-56294247D01*
X139802655Y-56327581D01*
X139769321Y-56294247D01*
X139802655Y-56260914D01*
X139802655Y-56327581D01*
X140502655Y-56694247D02*
X140102655Y-56694247D01*
X140302655Y-56694247D02*
X140302655Y-55994247D01*
X140235988Y-56094247D01*
X140169321Y-56160914D01*
X140102655Y-56194247D01*
X140935988Y-55994247D02*
X141002655Y-55994247D01*
X141069321Y-56027581D01*
X141102655Y-56060914D01*
X141135988Y-56127581D01*
X141169321Y-56260914D01*
X141169321Y-56427581D01*
X141135988Y-56560914D01*
X141102655Y-56627581D01*
X141069321Y-56660914D01*
X141002655Y-56694247D01*
X140935988Y-56694247D01*
X140869321Y-56660914D01*
X140835988Y-56627581D01*
X140802655Y-56560914D01*
X140769321Y-56427581D01*
X140769321Y-56260914D01*
X140802655Y-56127581D01*
X140835988Y-56060914D01*
X140869321Y-56027581D01*
X140935988Y-55994247D01*
X99868655Y-59531282D02*
X99968655Y-59564615D01*
X100135322Y-59564615D01*
X100201989Y-59531282D01*
X100235322Y-59497949D01*
X100268655Y-59431282D01*
X100268655Y-59364615D01*
X100235322Y-59297949D01*
X100201989Y-59264615D01*
X100135322Y-59231282D01*
X100001989Y-59197949D01*
X99935322Y-59164615D01*
X99901989Y-59131282D01*
X99868655Y-59064615D01*
X99868655Y-58997949D01*
X99901989Y-58931282D01*
X99935322Y-58897949D01*
X100001989Y-58864615D01*
X100168655Y-58864615D01*
X100268655Y-58897949D01*
X100501989Y-58864615D02*
X100668655Y-59564615D01*
X100801989Y-59064615D01*
X100935322Y-59564615D01*
X101101989Y-58864615D01*
X101701989Y-58864615D02*
X101368655Y-58864615D01*
X101335322Y-59197949D01*
X101368655Y-59164615D01*
X101435322Y-59131282D01*
X101601989Y-59131282D01*
X101668655Y-59164615D01*
X101701989Y-59197949D01*
X101735322Y-59264615D01*
X101735322Y-59431282D01*
X101701989Y-59497949D01*
X101668655Y-59531282D01*
X101601989Y-59564615D01*
X101435322Y-59564615D01*
X101368655Y-59531282D01*
X101335322Y-59497949D01*
X102035322Y-59497949D02*
X102068655Y-59531282D01*
X102035322Y-59564615D01*
X102001989Y-59531282D01*
X102035322Y-59497949D01*
X102035322Y-59564615D01*
X102035322Y-59131282D02*
X102068655Y-59164615D01*
X102035322Y-59197949D01*
X102001989Y-59164615D01*
X102035322Y-59131282D01*
X102035322Y-59197949D01*
X102468655Y-59164615D02*
X102401989Y-59131282D01*
X102368655Y-59097949D01*
X102335322Y-59031282D01*
X102335322Y-58997949D01*
X102368655Y-58931282D01*
X102401989Y-58897949D01*
X102468655Y-58864615D01*
X102601989Y-58864615D01*
X102668655Y-58897949D01*
X102701989Y-58931282D01*
X102735322Y-58997949D01*
X102735322Y-59031282D01*
X102701989Y-59097949D01*
X102668655Y-59131282D01*
X102601989Y-59164615D01*
X102468655Y-59164615D01*
X102401989Y-59197949D01*
X102368655Y-59231282D01*
X102335322Y-59297949D01*
X102335322Y-59431282D01*
X102368655Y-59497949D01*
X102401989Y-59531282D01*
X102468655Y-59564615D01*
X102601989Y-59564615D01*
X102668655Y-59531282D01*
X102701989Y-59497949D01*
X102735322Y-59431282D01*
X102735322Y-59297949D01*
X102701989Y-59231282D01*
X102668655Y-59197949D01*
X102601989Y-59164615D01*
X118918525Y-77308661D02*
X119018525Y-77341994D01*
X119185192Y-77341994D01*
X119251859Y-77308661D01*
X119285192Y-77275328D01*
X119318525Y-77208661D01*
X119318525Y-77141994D01*
X119285192Y-77075328D01*
X119251859Y-77041994D01*
X119185192Y-77008661D01*
X119051859Y-76975328D01*
X118985192Y-76941994D01*
X118951859Y-76908661D01*
X118918525Y-76841994D01*
X118918525Y-76775328D01*
X118951859Y-76708661D01*
X118985192Y-76675328D01*
X119051859Y-76641994D01*
X119218525Y-76641994D01*
X119318525Y-76675328D01*
X119551859Y-76641994D02*
X119718525Y-77341994D01*
X119851859Y-76841994D01*
X119985192Y-77341994D01*
X120151859Y-76641994D01*
X120718525Y-76875328D02*
X120718525Y-77341994D01*
X120551859Y-76608661D02*
X120385192Y-77108661D01*
X120818525Y-77108661D01*
X121085192Y-77275328D02*
X121118525Y-77308661D01*
X121085192Y-77341994D01*
X121051859Y-77308661D01*
X121085192Y-77275328D01*
X121085192Y-77341994D01*
X121085192Y-76908661D02*
X121118525Y-76941994D01*
X121085192Y-76975328D01*
X121051859Y-76941994D01*
X121085192Y-76908661D01*
X121085192Y-76975328D01*
X121451859Y-77341994D02*
X121585192Y-77341994D01*
X121651859Y-77308661D01*
X121685192Y-77275328D01*
X121751859Y-77175328D01*
X121785192Y-77041994D01*
X121785192Y-76775328D01*
X121751859Y-76708661D01*
X121718525Y-76675328D01*
X121651859Y-76641994D01*
X121518525Y-76641994D01*
X121451859Y-76675328D01*
X121418525Y-76708661D01*
X121385192Y-76775328D01*
X121385192Y-76941994D01*
X121418525Y-77008661D01*
X121451859Y-77041994D01*
X121518525Y-77075328D01*
X121651859Y-77075328D01*
X121718525Y-77041994D01*
X121751859Y-77008661D01*
X121785192Y-76941994D01*
X137635808Y-75710817D02*
X137735808Y-75744150D01*
X137902475Y-75744150D01*
X137969141Y-75710817D01*
X138002475Y-75677484D01*
X138035808Y-75610817D01*
X138035808Y-75544150D01*
X138002475Y-75477484D01*
X137969141Y-75444150D01*
X137902475Y-75410817D01*
X137769141Y-75377484D01*
X137702475Y-75344150D01*
X137669141Y-75310817D01*
X137635808Y-75244150D01*
X137635808Y-75177484D01*
X137669141Y-75110817D01*
X137702475Y-75077484D01*
X137769141Y-75044150D01*
X137935808Y-75044150D01*
X138035808Y-75077484D01*
X138269141Y-75044150D02*
X138435808Y-75744150D01*
X138569141Y-75244150D01*
X138702475Y-75744150D01*
X138869141Y-75044150D01*
X139435808Y-75277484D02*
X139435808Y-75744150D01*
X139269141Y-75010817D02*
X139102475Y-75510817D01*
X139535808Y-75510817D01*
X139802475Y-75677484D02*
X139835808Y-75710817D01*
X139802475Y-75744150D01*
X139769141Y-75710817D01*
X139802475Y-75677484D01*
X139802475Y-75744150D01*
X139802475Y-75310817D02*
X139835808Y-75344150D01*
X139802475Y-75377484D01*
X139769141Y-75344150D01*
X139802475Y-75310817D01*
X139802475Y-75377484D01*
X140502475Y-75744150D02*
X140102475Y-75744150D01*
X140302475Y-75744150D02*
X140302475Y-75044150D01*
X140235808Y-75144150D01*
X140169141Y-75210817D01*
X140102475Y-75244150D01*
X140935808Y-75044150D02*
X141002475Y-75044150D01*
X141069141Y-75077484D01*
X141102475Y-75110817D01*
X141135808Y-75177484D01*
X141169141Y-75310817D01*
X141169141Y-75477484D01*
X141135808Y-75610817D01*
X141102475Y-75677484D01*
X141069141Y-75710817D01*
X141002475Y-75744150D01*
X140935808Y-75744150D01*
X140869141Y-75710817D01*
X140835808Y-75677484D01*
X140802475Y-75610817D01*
X140769141Y-75477484D01*
X140769141Y-75310817D01*
X140802475Y-75177484D01*
X140835808Y-75110817D01*
X140869141Y-75077484D01*
X140935808Y-75044150D01*
X99868368Y-78578588D02*
X99968368Y-78611921D01*
X100135035Y-78611921D01*
X100201702Y-78578588D01*
X100235035Y-78545255D01*
X100268368Y-78478588D01*
X100268368Y-78411921D01*
X100235035Y-78345255D01*
X100201702Y-78311921D01*
X100135035Y-78278588D01*
X100001702Y-78245255D01*
X99935035Y-78211921D01*
X99901702Y-78178588D01*
X99868368Y-78111921D01*
X99868368Y-78045255D01*
X99901702Y-77978588D01*
X99935035Y-77945255D01*
X100001702Y-77911921D01*
X100168368Y-77911921D01*
X100268368Y-77945255D01*
X100501702Y-77911921D02*
X100668368Y-78611921D01*
X100801702Y-78111921D01*
X100935035Y-78611921D01*
X101101702Y-77911921D01*
X101668368Y-78145255D02*
X101668368Y-78611921D01*
X101501702Y-77878588D02*
X101335035Y-78378588D01*
X101768368Y-78378588D01*
X102035035Y-78545255D02*
X102068368Y-78578588D01*
X102035035Y-78611921D01*
X102001702Y-78578588D01*
X102035035Y-78545255D01*
X102035035Y-78611921D01*
X102035035Y-78178588D02*
X102068368Y-78211921D01*
X102035035Y-78245255D01*
X102001702Y-78211921D01*
X102035035Y-78178588D01*
X102035035Y-78245255D01*
X102468368Y-78211921D02*
X102401702Y-78178588D01*
X102368368Y-78145255D01*
X102335035Y-78078588D01*
X102335035Y-78045255D01*
X102368368Y-77978588D01*
X102401702Y-77945255D01*
X102468368Y-77911921D01*
X102601702Y-77911921D01*
X102668368Y-77945255D01*
X102701702Y-77978588D01*
X102735035Y-78045255D01*
X102735035Y-78078588D01*
X102701702Y-78145255D01*
X102668368Y-78178588D01*
X102601702Y-78211921D01*
X102468368Y-78211921D01*
X102401702Y-78245255D01*
X102368368Y-78278588D01*
X102335035Y-78345255D01*
X102335035Y-78478588D01*
X102368368Y-78545255D01*
X102401702Y-78578588D01*
X102468368Y-78611921D01*
X102601702Y-78611921D01*
X102668368Y-78578588D01*
X102701702Y-78545255D01*
X102735035Y-78478588D01*
X102735035Y-78345255D01*
X102701702Y-78278588D01*
X102668368Y-78245255D01*
X102601702Y-78211921D01*
X85329177Y-81697669D02*
X85362510Y-81597669D01*
X85362510Y-81431002D01*
X85329177Y-81364336D01*
X85295844Y-81331002D01*
X85229177Y-81297669D01*
X85162510Y-81297669D01*
X85095844Y-81331002D01*
X85062510Y-81364336D01*
X85029177Y-81431002D01*
X84995844Y-81564336D01*
X84962510Y-81631002D01*
X84929177Y-81664336D01*
X84862510Y-81697669D01*
X84795844Y-81697669D01*
X84729177Y-81664336D01*
X84695844Y-81631002D01*
X84662510Y-81564336D01*
X84662510Y-81397669D01*
X84695844Y-81297669D01*
X84662510Y-81064336D02*
X85362510Y-80897669D01*
X84862510Y-80764336D01*
X85362510Y-80631002D01*
X84662510Y-80464336D01*
X84895844Y-79897669D02*
X85362510Y-79897669D01*
X84629177Y-80064336D02*
X85129177Y-80231002D01*
X85129177Y-79797669D01*
X85295844Y-79531002D02*
X85329177Y-79497669D01*
X85362510Y-79531002D01*
X85329177Y-79564336D01*
X85295844Y-79531002D01*
X85362510Y-79531002D01*
X84929177Y-79531002D02*
X84962510Y-79497669D01*
X84995844Y-79531002D01*
X84962510Y-79564336D01*
X84929177Y-79531002D01*
X84995844Y-79531002D01*
X84662510Y-79264336D02*
X84662510Y-78797669D01*
X85362510Y-79097669D01*
X118918705Y-58258757D02*
X119018705Y-58292090D01*
X119185372Y-58292090D01*
X119252039Y-58258757D01*
X119285372Y-58225424D01*
X119318705Y-58158757D01*
X119318705Y-58092090D01*
X119285372Y-58025424D01*
X119252039Y-57992090D01*
X119185372Y-57958757D01*
X119052039Y-57925424D01*
X118985372Y-57892090D01*
X118952039Y-57858757D01*
X118918705Y-57792090D01*
X118918705Y-57725424D01*
X118952039Y-57658757D01*
X118985372Y-57625424D01*
X119052039Y-57592090D01*
X119218705Y-57592090D01*
X119318705Y-57625424D01*
X119552039Y-57592090D02*
X119718705Y-58292090D01*
X119852039Y-57792090D01*
X119985372Y-58292090D01*
X120152039Y-57592090D01*
X120752039Y-57592090D02*
X120418705Y-57592090D01*
X120385372Y-57925424D01*
X120418705Y-57892090D01*
X120485372Y-57858757D01*
X120652039Y-57858757D01*
X120718705Y-57892090D01*
X120752039Y-57925424D01*
X120785372Y-57992090D01*
X120785372Y-58158757D01*
X120752039Y-58225424D01*
X120718705Y-58258757D01*
X120652039Y-58292090D01*
X120485372Y-58292090D01*
X120418705Y-58258757D01*
X120385372Y-58225424D01*
X121085372Y-58225424D02*
X121118705Y-58258757D01*
X121085372Y-58292090D01*
X121052039Y-58258757D01*
X121085372Y-58225424D01*
X121085372Y-58292090D01*
X121085372Y-57858757D02*
X121118705Y-57892090D01*
X121085372Y-57925424D01*
X121052039Y-57892090D01*
X121085372Y-57858757D01*
X121085372Y-57925424D01*
X121452039Y-58292090D02*
X121585372Y-58292090D01*
X121652039Y-58258757D01*
X121685372Y-58225424D01*
X121752039Y-58125424D01*
X121785372Y-57992090D01*
X121785372Y-57725424D01*
X121752039Y-57658757D01*
X121718705Y-57625424D01*
X121652039Y-57592090D01*
X121518705Y-57592090D01*
X121452039Y-57625424D01*
X121418705Y-57658757D01*
X121385372Y-57725424D01*
X121385372Y-57892090D01*
X121418705Y-57958757D01*
X121452039Y-57992090D01*
X121518705Y-58025424D01*
X121652039Y-58025424D01*
X121718705Y-57992090D01*
X121752039Y-57958757D01*
X121785372Y-57892090D01*
X175735535Y-61435710D02*
X175835535Y-61469043D01*
X176002202Y-61469043D01*
X176068868Y-61435710D01*
X176102202Y-61402377D01*
X176135535Y-61335710D01*
X176135535Y-61269043D01*
X176102202Y-61202377D01*
X176068868Y-61169043D01*
X176002202Y-61135710D01*
X175868868Y-61102377D01*
X175802202Y-61069043D01*
X175768868Y-61035710D01*
X175735535Y-60969043D01*
X175735535Y-60902377D01*
X175768868Y-60835710D01*
X175802202Y-60802377D01*
X175868868Y-60769043D01*
X176035535Y-60769043D01*
X176135535Y-60802377D01*
X176368868Y-60769043D02*
X176535535Y-61469043D01*
X176668868Y-60969043D01*
X176802202Y-61469043D01*
X176968868Y-60769043D01*
X177568868Y-60769043D02*
X177235535Y-60769043D01*
X177202202Y-61102377D01*
X177235535Y-61069043D01*
X177302202Y-61035710D01*
X177468868Y-61035710D01*
X177535535Y-61069043D01*
X177568868Y-61102377D01*
X177602202Y-61169043D01*
X177602202Y-61335710D01*
X177568868Y-61402377D01*
X177535535Y-61435710D01*
X177468868Y-61469043D01*
X177302202Y-61469043D01*
X177235535Y-61435710D01*
X177202202Y-61402377D01*
X177902202Y-61402377D02*
X177935535Y-61435710D01*
X177902202Y-61469043D01*
X177868868Y-61435710D01*
X177902202Y-61402377D01*
X177902202Y-61469043D01*
X177902202Y-61035710D02*
X177935535Y-61069043D01*
X177902202Y-61102377D01*
X177868868Y-61069043D01*
X177902202Y-61035710D01*
X177902202Y-61102377D01*
X178602202Y-61469043D02*
X178202202Y-61469043D01*
X178402202Y-61469043D02*
X178402202Y-60769043D01*
X178335535Y-60869043D01*
X178268868Y-60935710D01*
X178202202Y-60969043D01*
X178868868Y-60835710D02*
X178902202Y-60802377D01*
X178968868Y-60769043D01*
X179135535Y-60769043D01*
X179202202Y-60802377D01*
X179235535Y-60835710D01*
X179268868Y-60902377D01*
X179268868Y-60969043D01*
X179235535Y-61069043D01*
X178835535Y-61469043D01*
X179268868Y-61469043D01*
X156685179Y-58259117D02*
X156785179Y-58292450D01*
X156951846Y-58292450D01*
X157018512Y-58259117D01*
X157051846Y-58225784D01*
X157085179Y-58159117D01*
X157085179Y-58092450D01*
X157051846Y-58025784D01*
X157018512Y-57992450D01*
X156951846Y-57959117D01*
X156818512Y-57925784D01*
X156751846Y-57892450D01*
X156718512Y-57859117D01*
X156685179Y-57792450D01*
X156685179Y-57725784D01*
X156718512Y-57659117D01*
X156751846Y-57625784D01*
X156818512Y-57592450D01*
X156985179Y-57592450D01*
X157085179Y-57625784D01*
X157318512Y-57592450D02*
X157485179Y-58292450D01*
X157618512Y-57792450D01*
X157751846Y-58292450D01*
X157918512Y-57592450D01*
X158518512Y-57592450D02*
X158185179Y-57592450D01*
X158151846Y-57925784D01*
X158185179Y-57892450D01*
X158251846Y-57859117D01*
X158418512Y-57859117D01*
X158485179Y-57892450D01*
X158518512Y-57925784D01*
X158551846Y-57992450D01*
X158551846Y-58159117D01*
X158518512Y-58225784D01*
X158485179Y-58259117D01*
X158418512Y-58292450D01*
X158251846Y-58292450D01*
X158185179Y-58259117D01*
X158151846Y-58225784D01*
X158851846Y-58225784D02*
X158885179Y-58259117D01*
X158851846Y-58292450D01*
X158818512Y-58259117D01*
X158851846Y-58225784D01*
X158851846Y-58292450D01*
X158851846Y-57859117D02*
X158885179Y-57892450D01*
X158851846Y-57925784D01*
X158818512Y-57892450D01*
X158851846Y-57859117D01*
X158851846Y-57925784D01*
X159551846Y-58292450D02*
X159151846Y-58292450D01*
X159351846Y-58292450D02*
X159351846Y-57592450D01*
X159285179Y-57692450D01*
X159218512Y-57759117D01*
X159151846Y-57792450D01*
X160218512Y-58292450D02*
X159818512Y-58292450D01*
X160018512Y-58292450D02*
X160018512Y-57592450D01*
X159951846Y-57692450D01*
X159885179Y-57759117D01*
X159818512Y-57792450D01*
X175735417Y-80483379D02*
X175835417Y-80516712D01*
X176002084Y-80516712D01*
X176068750Y-80483379D01*
X176102084Y-80450046D01*
X176135417Y-80383379D01*
X176135417Y-80316712D01*
X176102084Y-80250046D01*
X176068750Y-80216712D01*
X176002084Y-80183379D01*
X175868750Y-80150046D01*
X175802084Y-80116712D01*
X175768750Y-80083379D01*
X175735417Y-80016712D01*
X175735417Y-79950046D01*
X175768750Y-79883379D01*
X175802084Y-79850046D01*
X175868750Y-79816712D01*
X176035417Y-79816712D01*
X176135417Y-79850046D01*
X176368750Y-79816712D02*
X176535417Y-80516712D01*
X176668750Y-80016712D01*
X176802084Y-80516712D01*
X176968750Y-79816712D01*
X177535417Y-80050046D02*
X177535417Y-80516712D01*
X177368750Y-79783379D02*
X177202084Y-80283379D01*
X177635417Y-80283379D01*
X177902084Y-80450046D02*
X177935417Y-80483379D01*
X177902084Y-80516712D01*
X177868750Y-80483379D01*
X177902084Y-80450046D01*
X177902084Y-80516712D01*
X177902084Y-80083379D02*
X177935417Y-80116712D01*
X177902084Y-80150046D01*
X177868750Y-80116712D01*
X177902084Y-80083379D01*
X177902084Y-80150046D01*
X178602084Y-80516712D02*
X178202084Y-80516712D01*
X178402084Y-80516712D02*
X178402084Y-79816712D01*
X178335417Y-79916712D01*
X178268750Y-79983379D01*
X178202084Y-80016712D01*
X178868750Y-79883379D02*
X178902084Y-79850046D01*
X178968750Y-79816712D01*
X179135417Y-79816712D01*
X179202084Y-79850046D01*
X179235417Y-79883379D01*
X179268750Y-79950046D01*
X179268750Y-80016712D01*
X179235417Y-80116712D01*
X178835417Y-80516712D01*
X179268750Y-80516712D01*
X156685905Y-77308598D02*
X156785905Y-77341931D01*
X156952572Y-77341931D01*
X157019238Y-77308598D01*
X157052572Y-77275265D01*
X157085905Y-77208598D01*
X157085905Y-77141931D01*
X157052572Y-77075265D01*
X157019238Y-77041931D01*
X156952572Y-77008598D01*
X156819238Y-76975265D01*
X156752572Y-76941931D01*
X156719238Y-76908598D01*
X156685905Y-76841931D01*
X156685905Y-76775265D01*
X156719238Y-76708598D01*
X156752572Y-76675265D01*
X156819238Y-76641931D01*
X156985905Y-76641931D01*
X157085905Y-76675265D01*
X157319238Y-76641931D02*
X157485905Y-77341931D01*
X157619238Y-76841931D01*
X157752572Y-77341931D01*
X157919238Y-76641931D01*
X158485905Y-76875265D02*
X158485905Y-77341931D01*
X158319238Y-76608598D02*
X158152572Y-77108598D01*
X158585905Y-77108598D01*
X158852572Y-77275265D02*
X158885905Y-77308598D01*
X158852572Y-77341931D01*
X158819238Y-77308598D01*
X158852572Y-77275265D01*
X158852572Y-77341931D01*
X158852572Y-76908598D02*
X158885905Y-76941931D01*
X158852572Y-76975265D01*
X158819238Y-76941931D01*
X158852572Y-76908598D01*
X158852572Y-76975265D01*
X159552572Y-77341931D02*
X159152572Y-77341931D01*
X159352572Y-77341931D02*
X159352572Y-76641931D01*
X159285905Y-76741931D01*
X159219238Y-76808598D01*
X159152572Y-76841931D01*
X160219238Y-77341931D02*
X159819238Y-77341931D01*
X160019238Y-77341931D02*
X160019238Y-76641931D01*
X159952572Y-76741931D01*
X159885905Y-76808598D01*
X159819238Y-76841931D01*
X175735659Y-99534189D02*
X175835659Y-99567522D01*
X176002326Y-99567522D01*
X176068992Y-99534189D01*
X176102326Y-99500856D01*
X176135659Y-99434189D01*
X176135659Y-99367522D01*
X176102326Y-99300856D01*
X176068992Y-99267522D01*
X176002326Y-99234189D01*
X175868992Y-99200856D01*
X175802326Y-99167522D01*
X175768992Y-99134189D01*
X175735659Y-99067522D01*
X175735659Y-99000856D01*
X175768992Y-98934189D01*
X175802326Y-98900856D01*
X175868992Y-98867522D01*
X176035659Y-98867522D01*
X176135659Y-98900856D01*
X176368992Y-98867522D02*
X176535659Y-99567522D01*
X176668992Y-99067522D01*
X176802326Y-99567522D01*
X176968992Y-98867522D01*
X177168992Y-98867522D02*
X177602326Y-98867522D01*
X177368992Y-99134189D01*
X177468992Y-99134189D01*
X177535659Y-99167522D01*
X177568992Y-99200856D01*
X177602326Y-99267522D01*
X177602326Y-99434189D01*
X177568992Y-99500856D01*
X177535659Y-99534189D01*
X177468992Y-99567522D01*
X177268992Y-99567522D01*
X177202326Y-99534189D01*
X177168992Y-99500856D01*
X177902326Y-99500856D02*
X177935659Y-99534189D01*
X177902326Y-99567522D01*
X177868992Y-99534189D01*
X177902326Y-99500856D01*
X177902326Y-99567522D01*
X177902326Y-99134189D02*
X177935659Y-99167522D01*
X177902326Y-99200856D01*
X177868992Y-99167522D01*
X177902326Y-99134189D01*
X177902326Y-99200856D01*
X178602326Y-99567522D02*
X178202326Y-99567522D01*
X178402326Y-99567522D02*
X178402326Y-98867522D01*
X178335659Y-98967522D01*
X178268992Y-99034189D01*
X178202326Y-99067522D01*
X178868992Y-98934189D02*
X178902326Y-98900856D01*
X178968992Y-98867522D01*
X179135659Y-98867522D01*
X179202326Y-98900856D01*
X179235659Y-98934189D01*
X179268992Y-99000856D01*
X179268992Y-99067522D01*
X179235659Y-99167522D01*
X178835659Y-99567522D01*
X179268992Y-99567522D01*
X156685726Y-96358501D02*
X156785726Y-96391834D01*
X156952393Y-96391834D01*
X157019059Y-96358501D01*
X157052393Y-96325168D01*
X157085726Y-96258501D01*
X157085726Y-96191834D01*
X157052393Y-96125168D01*
X157019059Y-96091834D01*
X156952393Y-96058501D01*
X156819059Y-96025168D01*
X156752393Y-95991834D01*
X156719059Y-95958501D01*
X156685726Y-95891834D01*
X156685726Y-95825168D01*
X156719059Y-95758501D01*
X156752393Y-95725168D01*
X156819059Y-95691834D01*
X156985726Y-95691834D01*
X157085726Y-95725168D01*
X157319059Y-95691834D02*
X157485726Y-96391834D01*
X157619059Y-95891834D01*
X157752393Y-96391834D01*
X157919059Y-95691834D01*
X158119059Y-95691834D02*
X158552393Y-95691834D01*
X158319059Y-95958501D01*
X158419059Y-95958501D01*
X158485726Y-95991834D01*
X158519059Y-96025168D01*
X158552393Y-96091834D01*
X158552393Y-96258501D01*
X158519059Y-96325168D01*
X158485726Y-96358501D01*
X158419059Y-96391834D01*
X158219059Y-96391834D01*
X158152393Y-96358501D01*
X158119059Y-96325168D01*
X158852393Y-96325168D02*
X158885726Y-96358501D01*
X158852393Y-96391834D01*
X158819059Y-96358501D01*
X158852393Y-96325168D01*
X158852393Y-96391834D01*
X158852393Y-95958501D02*
X158885726Y-95991834D01*
X158852393Y-96025168D01*
X158819059Y-95991834D01*
X158852393Y-95958501D01*
X158852393Y-96025168D01*
X159552393Y-96391834D02*
X159152393Y-96391834D01*
X159352393Y-96391834D02*
X159352393Y-95691834D01*
X159285726Y-95791834D01*
X159219059Y-95858501D01*
X159152393Y-95891834D01*
X160219059Y-96391834D02*
X159819059Y-96391834D01*
X160019059Y-96391834D02*
X160019059Y-95691834D01*
X159952393Y-95791834D01*
X159885726Y-95858501D01*
X159819059Y-95891834D01*
X137635629Y-94760721D02*
X137735629Y-94794054D01*
X137902296Y-94794054D01*
X137968962Y-94760721D01*
X138002296Y-94727388D01*
X138035629Y-94660721D01*
X138035629Y-94594054D01*
X138002296Y-94527388D01*
X137968962Y-94494054D01*
X137902296Y-94460721D01*
X137768962Y-94427388D01*
X137702296Y-94394054D01*
X137668962Y-94360721D01*
X137635629Y-94294054D01*
X137635629Y-94227388D01*
X137668962Y-94160721D01*
X137702296Y-94127388D01*
X137768962Y-94094054D01*
X137935629Y-94094054D01*
X138035629Y-94127388D01*
X138268962Y-94094054D02*
X138435629Y-94794054D01*
X138568962Y-94294054D01*
X138702296Y-94794054D01*
X138868962Y-94094054D01*
X139068962Y-94094054D02*
X139502296Y-94094054D01*
X139268962Y-94360721D01*
X139368962Y-94360721D01*
X139435629Y-94394054D01*
X139468962Y-94427388D01*
X139502296Y-94494054D01*
X139502296Y-94660721D01*
X139468962Y-94727388D01*
X139435629Y-94760721D01*
X139368962Y-94794054D01*
X139168962Y-94794054D01*
X139102296Y-94760721D01*
X139068962Y-94727388D01*
X139802296Y-94727388D02*
X139835629Y-94760721D01*
X139802296Y-94794054D01*
X139768962Y-94760721D01*
X139802296Y-94727388D01*
X139802296Y-94794054D01*
X139802296Y-94360721D02*
X139835629Y-94394054D01*
X139802296Y-94427388D01*
X139768962Y-94394054D01*
X139802296Y-94360721D01*
X139802296Y-94427388D01*
X140502296Y-94794054D02*
X140102296Y-94794054D01*
X140302296Y-94794054D02*
X140302296Y-94094054D01*
X140235629Y-94194054D01*
X140168962Y-94260721D01*
X140102296Y-94294054D01*
X140935629Y-94094054D02*
X141002296Y-94094054D01*
X141068962Y-94127388D01*
X141102296Y-94160721D01*
X141135629Y-94227388D01*
X141168962Y-94360721D01*
X141168962Y-94527388D01*
X141135629Y-94660721D01*
X141102296Y-94727388D01*
X141068962Y-94760721D01*
X141002296Y-94794054D01*
X140935629Y-94794054D01*
X140868962Y-94760721D01*
X140835629Y-94727388D01*
X140802296Y-94660721D01*
X140768962Y-94527388D01*
X140768962Y-94360721D01*
X140802296Y-94227388D01*
X140835629Y-94160721D01*
X140868962Y-94127388D01*
X140935629Y-94094054D01*
X118918768Y-96359471D02*
X119018768Y-96392804D01*
X119185435Y-96392804D01*
X119252102Y-96359471D01*
X119285435Y-96326138D01*
X119318768Y-96259471D01*
X119318768Y-96192804D01*
X119285435Y-96126138D01*
X119252102Y-96092804D01*
X119185435Y-96059471D01*
X119052102Y-96026138D01*
X118985435Y-95992804D01*
X118952102Y-95959471D01*
X118918768Y-95892804D01*
X118918768Y-95826138D01*
X118952102Y-95759471D01*
X118985435Y-95726138D01*
X119052102Y-95692804D01*
X119218768Y-95692804D01*
X119318768Y-95726138D01*
X119552102Y-95692804D02*
X119718768Y-96392804D01*
X119852102Y-95892804D01*
X119985435Y-96392804D01*
X120152102Y-95692804D01*
X120352102Y-95692804D02*
X120785435Y-95692804D01*
X120552102Y-95959471D01*
X120652102Y-95959471D01*
X120718768Y-95992804D01*
X120752102Y-96026138D01*
X120785435Y-96092804D01*
X120785435Y-96259471D01*
X120752102Y-96326138D01*
X120718768Y-96359471D01*
X120652102Y-96392804D01*
X120452102Y-96392804D01*
X120385435Y-96359471D01*
X120352102Y-96326138D01*
X121085435Y-96326138D02*
X121118768Y-96359471D01*
X121085435Y-96392804D01*
X121052102Y-96359471D01*
X121085435Y-96326138D01*
X121085435Y-96392804D01*
X121085435Y-95959471D02*
X121118768Y-95992804D01*
X121085435Y-96026138D01*
X121052102Y-95992804D01*
X121085435Y-95959471D01*
X121085435Y-96026138D01*
X121452102Y-96392804D02*
X121585435Y-96392804D01*
X121652102Y-96359471D01*
X121685435Y-96326138D01*
X121752102Y-96226138D01*
X121785435Y-96092804D01*
X121785435Y-95826138D01*
X121752102Y-95759471D01*
X121718768Y-95726138D01*
X121652102Y-95692804D01*
X121518768Y-95692804D01*
X121452102Y-95726138D01*
X121418768Y-95759471D01*
X121385435Y-95826138D01*
X121385435Y-95992804D01*
X121418768Y-96059471D01*
X121452102Y-96092804D01*
X121518768Y-96126138D01*
X121652102Y-96126138D01*
X121718768Y-96092804D01*
X121752102Y-96059471D01*
X121785435Y-95992804D01*
X99868611Y-97629397D02*
X99968611Y-97662730D01*
X100135278Y-97662730D01*
X100201945Y-97629397D01*
X100235278Y-97596064D01*
X100268611Y-97529397D01*
X100268611Y-97462730D01*
X100235278Y-97396064D01*
X100201945Y-97362730D01*
X100135278Y-97329397D01*
X100001945Y-97296064D01*
X99935278Y-97262730D01*
X99901945Y-97229397D01*
X99868611Y-97162730D01*
X99868611Y-97096064D01*
X99901945Y-97029397D01*
X99935278Y-96996064D01*
X100001945Y-96962730D01*
X100168611Y-96962730D01*
X100268611Y-96996064D01*
X100501945Y-96962730D02*
X100668611Y-97662730D01*
X100801945Y-97162730D01*
X100935278Y-97662730D01*
X101101945Y-96962730D01*
X101301945Y-96962730D02*
X101735278Y-96962730D01*
X101501945Y-97229397D01*
X101601945Y-97229397D01*
X101668611Y-97262730D01*
X101701945Y-97296064D01*
X101735278Y-97362730D01*
X101735278Y-97529397D01*
X101701945Y-97596064D01*
X101668611Y-97629397D01*
X101601945Y-97662730D01*
X101401945Y-97662730D01*
X101335278Y-97629397D01*
X101301945Y-97596064D01*
X102035278Y-97596064D02*
X102068611Y-97629397D01*
X102035278Y-97662730D01*
X102001945Y-97629397D01*
X102035278Y-97596064D01*
X102035278Y-97662730D01*
X102035278Y-97229397D02*
X102068611Y-97262730D01*
X102035278Y-97296064D01*
X102001945Y-97262730D01*
X102035278Y-97229397D01*
X102035278Y-97296064D01*
X102468611Y-97262730D02*
X102401945Y-97229397D01*
X102368611Y-97196064D01*
X102335278Y-97129397D01*
X102335278Y-97096064D01*
X102368611Y-97029397D01*
X102401945Y-96996064D01*
X102468611Y-96962730D01*
X102601945Y-96962730D01*
X102668611Y-96996064D01*
X102701945Y-97029397D01*
X102735278Y-97096064D01*
X102735278Y-97129397D01*
X102701945Y-97196064D01*
X102668611Y-97229397D01*
X102601945Y-97262730D01*
X102468611Y-97262730D01*
X102401945Y-97296064D01*
X102368611Y-97329397D01*
X102335278Y-97396064D01*
X102335278Y-97529397D01*
X102368611Y-97596064D01*
X102401945Y-97629397D01*
X102468611Y-97662730D01*
X102601945Y-97662730D01*
X102668611Y-97629397D01*
X102701945Y-97596064D01*
X102735278Y-97529397D01*
X102735278Y-97396064D01*
X102701945Y-97329397D01*
X102668611Y-97296064D01*
X102601945Y-97262730D01*
X175735480Y-118584092D02*
X175835480Y-118617425D01*
X176002147Y-118617425D01*
X176068813Y-118584092D01*
X176102147Y-118550759D01*
X176135480Y-118484092D01*
X176135480Y-118417425D01*
X176102147Y-118350759D01*
X176068813Y-118317425D01*
X176002147Y-118284092D01*
X175868813Y-118250759D01*
X175802147Y-118217425D01*
X175768813Y-118184092D01*
X175735480Y-118117425D01*
X175735480Y-118050759D01*
X175768813Y-117984092D01*
X175802147Y-117950759D01*
X175868813Y-117917425D01*
X176035480Y-117917425D01*
X176135480Y-117950759D01*
X176368813Y-117917425D02*
X176535480Y-118617425D01*
X176668813Y-118117425D01*
X176802147Y-118617425D01*
X176968813Y-117917425D01*
X177202147Y-117984092D02*
X177235480Y-117950759D01*
X177302147Y-117917425D01*
X177468813Y-117917425D01*
X177535480Y-117950759D01*
X177568813Y-117984092D01*
X177602147Y-118050759D01*
X177602147Y-118117425D01*
X177568813Y-118217425D01*
X177168813Y-118617425D01*
X177602147Y-118617425D01*
X177902147Y-118550759D02*
X177935480Y-118584092D01*
X177902147Y-118617425D01*
X177868813Y-118584092D01*
X177902147Y-118550759D01*
X177902147Y-118617425D01*
X177902147Y-118184092D02*
X177935480Y-118217425D01*
X177902147Y-118250759D01*
X177868813Y-118217425D01*
X177902147Y-118184092D01*
X177902147Y-118250759D01*
X178602147Y-118617425D02*
X178202147Y-118617425D01*
X178402147Y-118617425D02*
X178402147Y-117917425D01*
X178335480Y-118017425D01*
X178268813Y-118084092D01*
X178202147Y-118117425D01*
X178868813Y-117984092D02*
X178902147Y-117950759D01*
X178968813Y-117917425D01*
X179135480Y-117917425D01*
X179202147Y-117950759D01*
X179235480Y-117984092D01*
X179268813Y-118050759D01*
X179268813Y-118117425D01*
X179235480Y-118217425D01*
X178835480Y-118617425D01*
X179268813Y-118617425D01*
X156685969Y-115409311D02*
X156785969Y-115442644D01*
X156952636Y-115442644D01*
X157019302Y-115409311D01*
X157052636Y-115375978D01*
X157085969Y-115309311D01*
X157085969Y-115242644D01*
X157052636Y-115175978D01*
X157019302Y-115142644D01*
X156952636Y-115109311D01*
X156819302Y-115075978D01*
X156752636Y-115042644D01*
X156719302Y-115009311D01*
X156685969Y-114942644D01*
X156685969Y-114875978D01*
X156719302Y-114809311D01*
X156752636Y-114775978D01*
X156819302Y-114742644D01*
X156985969Y-114742644D01*
X157085969Y-114775978D01*
X157319302Y-114742644D02*
X157485969Y-115442644D01*
X157619302Y-114942644D01*
X157752636Y-115442644D01*
X157919302Y-114742644D01*
X158152636Y-114809311D02*
X158185969Y-114775978D01*
X158252636Y-114742644D01*
X158419302Y-114742644D01*
X158485969Y-114775978D01*
X158519302Y-114809311D01*
X158552636Y-114875978D01*
X158552636Y-114942644D01*
X158519302Y-115042644D01*
X158119302Y-115442644D01*
X158552636Y-115442644D01*
X158852636Y-115375978D02*
X158885969Y-115409311D01*
X158852636Y-115442644D01*
X158819302Y-115409311D01*
X158852636Y-115375978D01*
X158852636Y-115442644D01*
X158852636Y-115009311D02*
X158885969Y-115042644D01*
X158852636Y-115075978D01*
X158819302Y-115042644D01*
X158852636Y-115009311D01*
X158852636Y-115075978D01*
X159552636Y-115442644D02*
X159152636Y-115442644D01*
X159352636Y-115442644D02*
X159352636Y-114742644D01*
X159285969Y-114842644D01*
X159219302Y-114909311D01*
X159152636Y-114942644D01*
X160219302Y-115442644D02*
X159819302Y-115442644D01*
X160019302Y-115442644D02*
X160019302Y-114742644D01*
X159952636Y-114842644D01*
X159885969Y-114909311D01*
X159819302Y-114942644D01*
X137635449Y-113810624D02*
X137735449Y-113843957D01*
X137902116Y-113843957D01*
X137968782Y-113810624D01*
X138002116Y-113777291D01*
X138035449Y-113710624D01*
X138035449Y-113643957D01*
X138002116Y-113577291D01*
X137968782Y-113543957D01*
X137902116Y-113510624D01*
X137768782Y-113477291D01*
X137702116Y-113443957D01*
X137668782Y-113410624D01*
X137635449Y-113343957D01*
X137635449Y-113277291D01*
X137668782Y-113210624D01*
X137702116Y-113177291D01*
X137768782Y-113143957D01*
X137935449Y-113143957D01*
X138035449Y-113177291D01*
X138268782Y-113143957D02*
X138435449Y-113843957D01*
X138568782Y-113343957D01*
X138702116Y-113843957D01*
X138868782Y-113143957D01*
X139102116Y-113210624D02*
X139135449Y-113177291D01*
X139202116Y-113143957D01*
X139368782Y-113143957D01*
X139435449Y-113177291D01*
X139468782Y-113210624D01*
X139502116Y-113277291D01*
X139502116Y-113343957D01*
X139468782Y-113443957D01*
X139068782Y-113843957D01*
X139502116Y-113843957D01*
X139802116Y-113777291D02*
X139835449Y-113810624D01*
X139802116Y-113843957D01*
X139768782Y-113810624D01*
X139802116Y-113777291D01*
X139802116Y-113843957D01*
X139802116Y-113410624D02*
X139835449Y-113443957D01*
X139802116Y-113477291D01*
X139768782Y-113443957D01*
X139802116Y-113410624D01*
X139802116Y-113477291D01*
X140502116Y-113843957D02*
X140102116Y-113843957D01*
X140302116Y-113843957D02*
X140302116Y-113143957D01*
X140235449Y-113243957D01*
X140168782Y-113310624D01*
X140102116Y-113343957D01*
X140935449Y-113143957D02*
X141002116Y-113143957D01*
X141068782Y-113177291D01*
X141102116Y-113210624D01*
X141135449Y-113277291D01*
X141168782Y-113410624D01*
X141168782Y-113577291D01*
X141135449Y-113710624D01*
X141102116Y-113777291D01*
X141068782Y-113810624D01*
X141002116Y-113843957D01*
X140935449Y-113843957D01*
X140868782Y-113810624D01*
X140835449Y-113777291D01*
X140802116Y-113710624D01*
X140768782Y-113577291D01*
X140768782Y-113410624D01*
X140802116Y-113277291D01*
X140835449Y-113210624D01*
X140868782Y-113177291D01*
X140935449Y-113143957D01*
X118918588Y-115409374D02*
X119018588Y-115442707D01*
X119185255Y-115442707D01*
X119251922Y-115409374D01*
X119285255Y-115376041D01*
X119318588Y-115309374D01*
X119318588Y-115242707D01*
X119285255Y-115176041D01*
X119251922Y-115142707D01*
X119185255Y-115109374D01*
X119051922Y-115076041D01*
X118985255Y-115042707D01*
X118951922Y-115009374D01*
X118918588Y-114942707D01*
X118918588Y-114876041D01*
X118951922Y-114809374D01*
X118985255Y-114776041D01*
X119051922Y-114742707D01*
X119218588Y-114742707D01*
X119318588Y-114776041D01*
X119551922Y-114742707D02*
X119718588Y-115442707D01*
X119851922Y-114942707D01*
X119985255Y-115442707D01*
X120151922Y-114742707D01*
X120385255Y-114809374D02*
X120418588Y-114776041D01*
X120485255Y-114742707D01*
X120651922Y-114742707D01*
X120718588Y-114776041D01*
X120751922Y-114809374D01*
X120785255Y-114876041D01*
X120785255Y-114942707D01*
X120751922Y-115042707D01*
X120351922Y-115442707D01*
X120785255Y-115442707D01*
X121085255Y-115376041D02*
X121118588Y-115409374D01*
X121085255Y-115442707D01*
X121051922Y-115409374D01*
X121085255Y-115376041D01*
X121085255Y-115442707D01*
X121085255Y-115009374D02*
X121118588Y-115042707D01*
X121085255Y-115076041D01*
X121051922Y-115042707D01*
X121085255Y-115009374D01*
X121085255Y-115076041D01*
X121451922Y-115442707D02*
X121585255Y-115442707D01*
X121651922Y-115409374D01*
X121685255Y-115376041D01*
X121751922Y-115276041D01*
X121785255Y-115142707D01*
X121785255Y-114876041D01*
X121751922Y-114809374D01*
X121718588Y-114776041D01*
X121651922Y-114742707D01*
X121518588Y-114742707D01*
X121451922Y-114776041D01*
X121418588Y-114809374D01*
X121385255Y-114876041D01*
X121385255Y-115042707D01*
X121418588Y-115109374D01*
X121451922Y-115142707D01*
X121518588Y-115176041D01*
X121651922Y-115176041D01*
X121718588Y-115142707D01*
X121751922Y-115109374D01*
X121785255Y-115042707D01*
X85329421Y-110271733D02*
X85362754Y-110171733D01*
X85362754Y-110005066D01*
X85329421Y-109938400D01*
X85296088Y-109905066D01*
X85229421Y-109871733D01*
X85162754Y-109871733D01*
X85096088Y-109905066D01*
X85062754Y-109938400D01*
X85029421Y-110005066D01*
X84996088Y-110138400D01*
X84962754Y-110205066D01*
X84929421Y-110238400D01*
X84862754Y-110271733D01*
X84796088Y-110271733D01*
X84729421Y-110238400D01*
X84696088Y-110205066D01*
X84662754Y-110138400D01*
X84662754Y-109971733D01*
X84696088Y-109871733D01*
X84662754Y-109638400D02*
X85362754Y-109471733D01*
X84862754Y-109338400D01*
X85362754Y-109205066D01*
X84662754Y-109038400D01*
X84729421Y-108805066D02*
X84696088Y-108771733D01*
X84662754Y-108705066D01*
X84662754Y-108538400D01*
X84696088Y-108471733D01*
X84729421Y-108438400D01*
X84796088Y-108405066D01*
X84862754Y-108405066D01*
X84962754Y-108438400D01*
X85362754Y-108838400D01*
X85362754Y-108405066D01*
X85296088Y-108105066D02*
X85329421Y-108071733D01*
X85362754Y-108105066D01*
X85329421Y-108138400D01*
X85296088Y-108105066D01*
X85362754Y-108105066D01*
X84929421Y-108105066D02*
X84962754Y-108071733D01*
X84996088Y-108105066D01*
X84962754Y-108138400D01*
X84929421Y-108105066D01*
X84996088Y-108105066D01*
X84662754Y-107838400D02*
X84662754Y-107371733D01*
X85362754Y-107671733D01*
X194785204Y-137634175D02*
X194885204Y-137667508D01*
X195051871Y-137667508D01*
X195118537Y-137634175D01*
X195151871Y-137600842D01*
X195185204Y-137534175D01*
X195185204Y-137467508D01*
X195151871Y-137400842D01*
X195118537Y-137367508D01*
X195051871Y-137334175D01*
X194918537Y-137300842D01*
X194851871Y-137267508D01*
X194818537Y-137234175D01*
X194785204Y-137167508D01*
X194785204Y-137100842D01*
X194818537Y-137034175D01*
X194851871Y-137000842D01*
X194918537Y-136967508D01*
X195085204Y-136967508D01*
X195185204Y-137000842D01*
X195418537Y-136967508D02*
X195585204Y-137667508D01*
X195718537Y-137167508D01*
X195851871Y-137667508D01*
X196018537Y-136967508D01*
X196651871Y-137667508D02*
X196251871Y-137667508D01*
X196451871Y-137667508D02*
X196451871Y-136967508D01*
X196385204Y-137067508D01*
X196318537Y-137134175D01*
X196251871Y-137167508D01*
X196951871Y-137600842D02*
X196985204Y-137634175D01*
X196951871Y-137667508D01*
X196918537Y-137634175D01*
X196951871Y-137600842D01*
X196951871Y-137667508D01*
X196951871Y-137234175D02*
X196985204Y-137267508D01*
X196951871Y-137300842D01*
X196918537Y-137267508D01*
X196951871Y-137234175D01*
X196951871Y-137300842D01*
X197651871Y-137667508D02*
X197251871Y-137667508D01*
X197451871Y-137667508D02*
X197451871Y-136967508D01*
X197385204Y-137067508D01*
X197318537Y-137134175D01*
X197251871Y-137167508D01*
X197885204Y-136967508D02*
X198318537Y-136967508D01*
X198085204Y-137234175D01*
X198185204Y-137234175D01*
X198251871Y-137267508D01*
X198285204Y-137300842D01*
X198318537Y-137367508D01*
X198318537Y-137534175D01*
X198285204Y-137600842D01*
X198251871Y-137634175D01*
X198185204Y-137667508D01*
X197985204Y-137667508D01*
X197918537Y-137634175D01*
X197885204Y-137600842D01*
X175735300Y-137633996D02*
X175835300Y-137667329D01*
X176001967Y-137667329D01*
X176068633Y-137633996D01*
X176101967Y-137600663D01*
X176135300Y-137533996D01*
X176135300Y-137467329D01*
X176101967Y-137400663D01*
X176068633Y-137367329D01*
X176001967Y-137333996D01*
X175868633Y-137300663D01*
X175801967Y-137267329D01*
X175768633Y-137233996D01*
X175735300Y-137167329D01*
X175735300Y-137100663D01*
X175768633Y-137033996D01*
X175801967Y-137000663D01*
X175868633Y-136967329D01*
X176035300Y-136967329D01*
X176135300Y-137000663D01*
X176368633Y-136967329D02*
X176535300Y-137667329D01*
X176668633Y-137167329D01*
X176801967Y-137667329D01*
X176968633Y-136967329D01*
X177601967Y-137667329D02*
X177201967Y-137667329D01*
X177401967Y-137667329D02*
X177401967Y-136967329D01*
X177335300Y-137067329D01*
X177268633Y-137133996D01*
X177201967Y-137167329D01*
X177901967Y-137600663D02*
X177935300Y-137633996D01*
X177901967Y-137667329D01*
X177868633Y-137633996D01*
X177901967Y-137600663D01*
X177901967Y-137667329D01*
X177901967Y-137233996D02*
X177935300Y-137267329D01*
X177901967Y-137300663D01*
X177868633Y-137267329D01*
X177901967Y-137233996D01*
X177901967Y-137300663D01*
X178601967Y-137667329D02*
X178201967Y-137667329D01*
X178401967Y-137667329D02*
X178401967Y-136967329D01*
X178335300Y-137067329D01*
X178268633Y-137133996D01*
X178201967Y-137167329D01*
X178868633Y-137033996D02*
X178901967Y-137000663D01*
X178968633Y-136967329D01*
X179135300Y-136967329D01*
X179201967Y-137000663D01*
X179235300Y-137033996D01*
X179268633Y-137100663D01*
X179268633Y-137167329D01*
X179235300Y-137267329D01*
X178835300Y-137667329D01*
X179268633Y-137667329D01*
X156685789Y-134459215D02*
X156785789Y-134492548D01*
X156952456Y-134492548D01*
X157019122Y-134459215D01*
X157052456Y-134425882D01*
X157085789Y-134359215D01*
X157085789Y-134292548D01*
X157052456Y-134225882D01*
X157019122Y-134192548D01*
X156952456Y-134159215D01*
X156819122Y-134125882D01*
X156752456Y-134092548D01*
X156719122Y-134059215D01*
X156685789Y-133992548D01*
X156685789Y-133925882D01*
X156719122Y-133859215D01*
X156752456Y-133825882D01*
X156819122Y-133792548D01*
X156985789Y-133792548D01*
X157085789Y-133825882D01*
X157319122Y-133792548D02*
X157485789Y-134492548D01*
X157619122Y-133992548D01*
X157752456Y-134492548D01*
X157919122Y-133792548D01*
X158552456Y-134492548D02*
X158152456Y-134492548D01*
X158352456Y-134492548D02*
X158352456Y-133792548D01*
X158285789Y-133892548D01*
X158219122Y-133959215D01*
X158152456Y-133992548D01*
X158852456Y-134425882D02*
X158885789Y-134459215D01*
X158852456Y-134492548D01*
X158819122Y-134459215D01*
X158852456Y-134425882D01*
X158852456Y-134492548D01*
X158852456Y-134059215D02*
X158885789Y-134092548D01*
X158852456Y-134125882D01*
X158819122Y-134092548D01*
X158852456Y-134059215D01*
X158852456Y-134125882D01*
X159552456Y-134492548D02*
X159152456Y-134492548D01*
X159352456Y-134492548D02*
X159352456Y-133792548D01*
X159285789Y-133892548D01*
X159219122Y-133959215D01*
X159152456Y-133992548D01*
X160219122Y-134492548D02*
X159819122Y-134492548D01*
X160019122Y-134492548D02*
X160019122Y-133792548D01*
X159952456Y-133892548D01*
X159885789Y-133959215D01*
X159819122Y-133992548D01*
X137635692Y-132861434D02*
X137735692Y-132894767D01*
X137902359Y-132894767D01*
X137969025Y-132861434D01*
X138002359Y-132828101D01*
X138035692Y-132761434D01*
X138035692Y-132694767D01*
X138002359Y-132628101D01*
X137969025Y-132594767D01*
X137902359Y-132561434D01*
X137769025Y-132528101D01*
X137702359Y-132494767D01*
X137669025Y-132461434D01*
X137635692Y-132394767D01*
X137635692Y-132328101D01*
X137669025Y-132261434D01*
X137702359Y-132228101D01*
X137769025Y-132194767D01*
X137935692Y-132194767D01*
X138035692Y-132228101D01*
X138269025Y-132194767D02*
X138435692Y-132894767D01*
X138569025Y-132394767D01*
X138702359Y-132894767D01*
X138869025Y-132194767D01*
X139502359Y-132894767D02*
X139102359Y-132894767D01*
X139302359Y-132894767D02*
X139302359Y-132194767D01*
X139235692Y-132294767D01*
X139169025Y-132361434D01*
X139102359Y-132394767D01*
X139802359Y-132828101D02*
X139835692Y-132861434D01*
X139802359Y-132894767D01*
X139769025Y-132861434D01*
X139802359Y-132828101D01*
X139802359Y-132894767D01*
X139802359Y-132461434D02*
X139835692Y-132494767D01*
X139802359Y-132528101D01*
X139769025Y-132494767D01*
X139802359Y-132461434D01*
X139802359Y-132528101D01*
X140502359Y-132894767D02*
X140102359Y-132894767D01*
X140302359Y-132894767D02*
X140302359Y-132194767D01*
X140235692Y-132294767D01*
X140169025Y-132361434D01*
X140102359Y-132394767D01*
X140935692Y-132194767D02*
X141002359Y-132194767D01*
X141069025Y-132228101D01*
X141102359Y-132261434D01*
X141135692Y-132328101D01*
X141169025Y-132461434D01*
X141169025Y-132628101D01*
X141135692Y-132761434D01*
X141102359Y-132828101D01*
X141069025Y-132861434D01*
X141002359Y-132894767D01*
X140935692Y-132894767D01*
X140869025Y-132861434D01*
X140835692Y-132828101D01*
X140802359Y-132761434D01*
X140769025Y-132628101D01*
X140769025Y-132461434D01*
X140802359Y-132328101D01*
X140835692Y-132261434D01*
X140869025Y-132228101D01*
X140935692Y-132194767D01*
X118919315Y-134458855D02*
X119019315Y-134492188D01*
X119185982Y-134492188D01*
X119252649Y-134458855D01*
X119285982Y-134425522D01*
X119319315Y-134358855D01*
X119319315Y-134292188D01*
X119285982Y-134225522D01*
X119252649Y-134192188D01*
X119185982Y-134158855D01*
X119052649Y-134125522D01*
X118985982Y-134092188D01*
X118952649Y-134058855D01*
X118919315Y-133992188D01*
X118919315Y-133925522D01*
X118952649Y-133858855D01*
X118985982Y-133825522D01*
X119052649Y-133792188D01*
X119219315Y-133792188D01*
X119319315Y-133825522D01*
X119552649Y-133792188D02*
X119719315Y-134492188D01*
X119852649Y-133992188D01*
X119985982Y-134492188D01*
X120152649Y-133792188D01*
X120785982Y-134492188D02*
X120385982Y-134492188D01*
X120585982Y-134492188D02*
X120585982Y-133792188D01*
X120519315Y-133892188D01*
X120452649Y-133958855D01*
X120385982Y-133992188D01*
X121085982Y-134425522D02*
X121119315Y-134458855D01*
X121085982Y-134492188D01*
X121052649Y-134458855D01*
X121085982Y-134425522D01*
X121085982Y-134492188D01*
X121085982Y-134058855D02*
X121119315Y-134092188D01*
X121085982Y-134125522D01*
X121052649Y-134092188D01*
X121085982Y-134058855D01*
X121085982Y-134125522D01*
X121452649Y-134492188D02*
X121585982Y-134492188D01*
X121652649Y-134458855D01*
X121685982Y-134425522D01*
X121752649Y-134325522D01*
X121785982Y-134192188D01*
X121785982Y-133925522D01*
X121752649Y-133858855D01*
X121719315Y-133825522D01*
X121652649Y-133792188D01*
X121519315Y-133792188D01*
X121452649Y-133825522D01*
X121419315Y-133858855D01*
X121385982Y-133925522D01*
X121385982Y-134092188D01*
X121419315Y-134158855D01*
X121452649Y-134192188D01*
X121519315Y-134225522D01*
X121652649Y-134225522D01*
X121719315Y-134192188D01*
X121752649Y-134158855D01*
X121785982Y-134092188D01*
X60361644Y-172689373D02*
X60466362Y-172677322D01*
X60617413Y-172606885D01*
X60663746Y-172548501D01*
X60679869Y-172504203D01*
X60681905Y-172429695D01*
X60653730Y-172369275D01*
X60595346Y-172322941D01*
X60551048Y-172306818D01*
X60476540Y-172304783D01*
X60341612Y-172330922D01*
X60267104Y-172328886D01*
X60222807Y-172312763D01*
X60164422Y-172266430D01*
X60136247Y-172206009D01*
X60138283Y-172131501D01*
X60154406Y-172087204D01*
X60200739Y-172028819D01*
X60351790Y-171958383D01*
X60456508Y-171946331D01*
X60653893Y-171817510D02*
X61100777Y-172381489D01*
X61010309Y-171871986D01*
X61342459Y-172268791D01*
X61197678Y-171563939D01*
X61560201Y-171394892D02*
X61620621Y-171366717D01*
X61695129Y-171368753D01*
X61739427Y-171384876D01*
X61797811Y-171431209D01*
X61884371Y-171537963D01*
X61954807Y-171689014D01*
X61980946Y-171823942D01*
X61978910Y-171898450D01*
X61962787Y-171942748D01*
X61916454Y-172001133D01*
X61856034Y-172029307D01*
X61781526Y-172027271D01*
X61737228Y-172011148D01*
X61678843Y-171964815D01*
X61592284Y-171858061D01*
X61521848Y-171707010D01*
X61495709Y-171572082D01*
X61497745Y-171497574D01*
X61513868Y-171453276D01*
X61560201Y-171394892D01*
X62311223Y-171743490D02*
X62355521Y-171759613D01*
X62339398Y-171803911D01*
X62295100Y-171787788D01*
X62311223Y-171743490D01*
X62339398Y-171803911D01*
X62156263Y-171411177D02*
X62200561Y-171427300D01*
X62184438Y-171471598D01*
X62140140Y-171455475D01*
X62156263Y-171411177D01*
X62184438Y-171471598D01*
X62973813Y-171508078D02*
X62611290Y-171677125D01*
X62792552Y-171592602D02*
X62496719Y-170958186D01*
X62478560Y-171076991D01*
X62446314Y-171165586D01*
X62399981Y-171223971D01*
X62947837Y-170821385D02*
X62963960Y-170777087D01*
X63010293Y-170718702D01*
X63161345Y-170648266D01*
X63235852Y-170650302D01*
X63280150Y-170666425D01*
X63338535Y-170712758D01*
X63366709Y-170773178D01*
X63378761Y-170877897D01*
X63185285Y-171409467D01*
X63578018Y-171226332D01*
X92693654Y-141756066D02*
X92705705Y-141860784D01*
X92776142Y-142011835D01*
X92834526Y-142058168D01*
X92878824Y-142074291D01*
X92953332Y-142076327D01*
X93013752Y-142048152D01*
X93060086Y-141989768D01*
X93076209Y-141945470D01*
X93078244Y-141870962D01*
X93052105Y-141736034D01*
X93054141Y-141661526D01*
X93070264Y-141617229D01*
X93116597Y-141558844D01*
X93177018Y-141530669D01*
X93251526Y-141532705D01*
X93295823Y-141548828D01*
X93354208Y-141595161D01*
X93424644Y-141746212D01*
X93436696Y-141850930D01*
X93565517Y-142048315D02*
X93001538Y-142495199D01*
X93511041Y-142404731D01*
X93114236Y-142736881D01*
X93819088Y-142592100D01*
X93988135Y-142954623D02*
X94016310Y-143015043D01*
X94014274Y-143089551D01*
X93998151Y-143133849D01*
X93951818Y-143192233D01*
X93845064Y-143278793D01*
X93694013Y-143349229D01*
X93559085Y-143375368D01*
X93484577Y-143373332D01*
X93440279Y-143357209D01*
X93381894Y-143310876D01*
X93353720Y-143250456D01*
X93355756Y-143175948D01*
X93371879Y-143131650D01*
X93418212Y-143073265D01*
X93524966Y-142986706D01*
X93676017Y-142916270D01*
X93810945Y-142890131D01*
X93885453Y-142892167D01*
X93929751Y-142908290D01*
X93988135Y-142954623D01*
X93639537Y-143705645D02*
X93623414Y-143749943D01*
X93579116Y-143733820D01*
X93595239Y-143689522D01*
X93639537Y-143705645D01*
X93579116Y-143733820D01*
X93971850Y-143550685D02*
X93955727Y-143594983D01*
X93911429Y-143578860D01*
X93927552Y-143534562D01*
X93971850Y-143550685D01*
X93911429Y-143578860D01*
X93874949Y-144368235D02*
X93705902Y-144005712D01*
X93790425Y-144186974D02*
X94424841Y-143891141D01*
X94306036Y-143872982D01*
X94217441Y-143840736D01*
X94159056Y-143794403D01*
X94692499Y-144465136D02*
X94720674Y-144525556D01*
X94718638Y-144600064D01*
X94702515Y-144644362D01*
X94656182Y-144702746D01*
X94549428Y-144789306D01*
X94398377Y-144859742D01*
X94263448Y-144885881D01*
X94188941Y-144883845D01*
X94144643Y-144867722D01*
X94086258Y-144821389D01*
X94058084Y-144760969D01*
X94060119Y-144686461D01*
X94076242Y-144642163D01*
X94122576Y-144583778D01*
X94229329Y-144497219D01*
X94380381Y-144426783D01*
X94515309Y-144400644D01*
X94589817Y-144402680D01*
X94634114Y-144418803D01*
X94692499Y-144465136D01*
X52611932Y-155281567D02*
X52716650Y-155269515D01*
X52867702Y-155199079D01*
X52914035Y-155140694D01*
X52930158Y-155096396D01*
X52932193Y-155021888D01*
X52904019Y-154961468D01*
X52845634Y-154915135D01*
X52801337Y-154899012D01*
X52726829Y-154896976D01*
X52591900Y-154923115D01*
X52517393Y-154921079D01*
X52473095Y-154904956D01*
X52414710Y-154858623D01*
X52386536Y-154798202D01*
X52388571Y-154723695D01*
X52404694Y-154679397D01*
X52451028Y-154621012D01*
X52602079Y-154550576D01*
X52706797Y-154538524D01*
X52904182Y-154409703D02*
X53351066Y-154973682D01*
X53260598Y-154464179D01*
X53592748Y-154860984D01*
X53447966Y-154156132D01*
X53810489Y-153987085D02*
X53870910Y-153958910D01*
X53945418Y-153960946D01*
X53989715Y-153977069D01*
X54048100Y-154023402D01*
X54134659Y-154130156D01*
X54205096Y-154281207D01*
X54231235Y-154416136D01*
X54229199Y-154490643D01*
X54213076Y-154534941D01*
X54166743Y-154593326D01*
X54106322Y-154621500D01*
X54031814Y-154619465D01*
X53987517Y-154603342D01*
X53929132Y-154557008D01*
X53842573Y-154450255D01*
X53772136Y-154299203D01*
X53745997Y-154164275D01*
X53748033Y-154089767D01*
X53764156Y-154045470D01*
X53810489Y-153987085D01*
X54561512Y-154335683D02*
X54605809Y-154351806D01*
X54589686Y-154396104D01*
X54545389Y-154379981D01*
X54561512Y-154335683D01*
X54589686Y-154396104D01*
X54406552Y-154003371D02*
X54450849Y-154019494D01*
X54434726Y-154063791D01*
X54390429Y-154047668D01*
X54406552Y-154003371D01*
X54434726Y-154063791D01*
X54921999Y-154241144D02*
X55042840Y-154184795D01*
X55089173Y-154126410D01*
X55105296Y-154082112D01*
X55123455Y-153963307D01*
X55097316Y-153828379D01*
X54984618Y-153586697D01*
X54926233Y-153540363D01*
X54881936Y-153524240D01*
X54807428Y-153522205D01*
X54686587Y-153578554D01*
X54640254Y-153636939D01*
X54624131Y-153681236D01*
X54622095Y-153755744D01*
X54692531Y-153906795D01*
X54750916Y-153953129D01*
X54795214Y-153969252D01*
X54869721Y-153971287D01*
X54990563Y-153914938D01*
X55036896Y-153856553D01*
X55053019Y-153812256D01*
X55055054Y-153737748D01*
X80818794Y-59531193D02*
X80918794Y-59564526D01*
X81085461Y-59564526D01*
X81152128Y-59531193D01*
X81185461Y-59497860D01*
X81218794Y-59431193D01*
X81218794Y-59364526D01*
X81185461Y-59297860D01*
X81152128Y-59264526D01*
X81085461Y-59231193D01*
X80952128Y-59197860D01*
X80885461Y-59164526D01*
X80852128Y-59131193D01*
X80818794Y-59064526D01*
X80818794Y-58997860D01*
X80852128Y-58931193D01*
X80885461Y-58897860D01*
X80952128Y-58864526D01*
X81118794Y-58864526D01*
X81218794Y-58897860D01*
X81452128Y-58864526D02*
X81618794Y-59564526D01*
X81752128Y-59064526D01*
X81885461Y-59564526D01*
X82052128Y-58864526D01*
X82652128Y-58864526D02*
X82318794Y-58864526D01*
X82285461Y-59197860D01*
X82318794Y-59164526D01*
X82385461Y-59131193D01*
X82552128Y-59131193D01*
X82618794Y-59164526D01*
X82652128Y-59197860D01*
X82685461Y-59264526D01*
X82685461Y-59431193D01*
X82652128Y-59497860D01*
X82618794Y-59531193D01*
X82552128Y-59564526D01*
X82385461Y-59564526D01*
X82318794Y-59531193D01*
X82285461Y-59497860D01*
X82985461Y-59497860D02*
X83018794Y-59531193D01*
X82985461Y-59564526D01*
X82952128Y-59531193D01*
X82985461Y-59497860D01*
X82985461Y-59564526D01*
X82985461Y-59131193D02*
X83018794Y-59164526D01*
X82985461Y-59197860D01*
X82952128Y-59164526D01*
X82985461Y-59131193D01*
X82985461Y-59197860D01*
X83252128Y-58864526D02*
X83718794Y-58864526D01*
X83418794Y-59564526D01*
D18*
X178848143Y-35252262D02*
X178848143Y-32204262D01*
X179694809Y-34381405D01*
X180541476Y-32204262D01*
X180541476Y-35252262D01*
X183202429Y-34961976D02*
X183081476Y-35107119D01*
X182718619Y-35252262D01*
X182476714Y-35252262D01*
X182113857Y-35107119D01*
X181871952Y-34816833D01*
X181751000Y-34526547D01*
X181630048Y-33945976D01*
X181630048Y-33510547D01*
X181751000Y-32929976D01*
X181871952Y-32639690D01*
X182113857Y-32349405D01*
X182476714Y-32204262D01*
X182718619Y-32204262D01*
X183081476Y-32349405D01*
X183202429Y-32494547D01*
X184291000Y-35252262D02*
X184291000Y-32204262D01*
X185258619Y-32204262D01*
X185500524Y-32349405D01*
X185621476Y-32494547D01*
X185742429Y-32784833D01*
X185742429Y-33220262D01*
X185621476Y-33510547D01*
X185500524Y-33655690D01*
X185258619Y-33800833D01*
X184291000Y-33800833D01*
X186710048Y-32494547D02*
X186831000Y-32349405D01*
X187072905Y-32204262D01*
X187677667Y-32204262D01*
X187919571Y-32349405D01*
X188040524Y-32494547D01*
X188161476Y-32784833D01*
X188161476Y-33075119D01*
X188040524Y-33510547D01*
X186589095Y-35252262D01*
X188161476Y-35252262D01*
X189008143Y-32204262D02*
X190580524Y-32204262D01*
X189733857Y-33365405D01*
X190096714Y-33365405D01*
X190338619Y-33510547D01*
X190459571Y-33655690D01*
X190580524Y-33945976D01*
X190580524Y-34671690D01*
X190459571Y-34961976D01*
X190338619Y-35107119D01*
X190096714Y-35252262D01*
X189371000Y-35252262D01*
X189129095Y-35107119D01*
X189008143Y-34961976D01*
X192152905Y-32204262D02*
X192394809Y-32204262D01*
X192636714Y-32349405D01*
X192757667Y-32494547D01*
X192878619Y-32784833D01*
X192999571Y-33365405D01*
X192999571Y-34091119D01*
X192878619Y-34671690D01*
X192757667Y-34961976D01*
X192636714Y-35107119D01*
X192394809Y-35252262D01*
X192152905Y-35252262D01*
X191911000Y-35107119D01*
X191790048Y-34961976D01*
X191669095Y-34671690D01*
X191548143Y-34091119D01*
X191548143Y-33365405D01*
X191669095Y-32784833D01*
X191790048Y-32494547D01*
X191911000Y-32349405D01*
X192152905Y-32204262D01*
X195418619Y-35252262D02*
X193967190Y-35252262D01*
X194692905Y-35252262D02*
X194692905Y-32204262D01*
X194451000Y-32639690D01*
X194209095Y-32929976D01*
X193967190Y-33075119D01*
X196870048Y-33510547D02*
X196628143Y-33365405D01*
X196507190Y-33220262D01*
X196386238Y-32929976D01*
X196386238Y-32784833D01*
X196507190Y-32494547D01*
X196628143Y-32349405D01*
X196870048Y-32204262D01*
X197353857Y-32204262D01*
X197595762Y-32349405D01*
X197716714Y-32494547D01*
X197837667Y-32784833D01*
X197837667Y-32929976D01*
X197716714Y-33220262D01*
X197595762Y-33365405D01*
X197353857Y-33510547D01*
X196870048Y-33510547D01*
X196628143Y-33655690D01*
X196507190Y-33800833D01*
X196386238Y-34091119D01*
X196386238Y-34671690D01*
X196507190Y-34961976D01*
X196628143Y-35107119D01*
X196870048Y-35252262D01*
X197353857Y-35252262D01*
X197595762Y-35107119D01*
X197716714Y-34961976D01*
X197837667Y-34671690D01*
X197837667Y-34091119D01*
X197716714Y-33800833D01*
X197595762Y-33655690D01*
X197353857Y-33510547D01*
D19*
X91937826Y-26714220D02*
X93038493Y-26714220D01*
X92445826Y-27294792D01*
X92699826Y-27294792D01*
X92869160Y-27367363D01*
X92953826Y-27439934D01*
X93038493Y-27585077D01*
X93038493Y-27947934D01*
X92953826Y-28093077D01*
X92869160Y-28165649D01*
X92699826Y-28238220D01*
X92191826Y-28238220D01*
X92022493Y-28165649D01*
X91937826Y-28093077D01*
X93800493Y-28093077D02*
X93885160Y-28165649D01*
X93800493Y-28238220D01*
X93715826Y-28165649D01*
X93800493Y-28093077D01*
X93800493Y-28238220D01*
X95493826Y-26714220D02*
X94647160Y-26714220D01*
X94562493Y-27439934D01*
X94647160Y-27367363D01*
X94816493Y-27294792D01*
X95239826Y-27294792D01*
X95409160Y-27367363D01*
X95493826Y-27439934D01*
X95578493Y-27585077D01*
X95578493Y-27947934D01*
X95493826Y-28093077D01*
X95409160Y-28165649D01*
X95239826Y-28238220D01*
X94816493Y-28238220D01*
X94647160Y-28165649D01*
X94562493Y-28093077D01*
X96340493Y-28238220D02*
X96340493Y-27222220D01*
X96340493Y-27367363D02*
X96425160Y-27294792D01*
X96594493Y-27222220D01*
X96848493Y-27222220D01*
X97017826Y-27294792D01*
X97102493Y-27439934D01*
X97102493Y-28238220D01*
X97102493Y-27439934D02*
X97187160Y-27294792D01*
X97356493Y-27222220D01*
X97610493Y-27222220D01*
X97779826Y-27294792D01*
X97864493Y-27439934D01*
X97864493Y-28238220D01*
X98711160Y-28238220D02*
X98711160Y-27222220D01*
X98711160Y-27367363D02*
X98795826Y-27294792D01*
X98965160Y-27222220D01*
X99219160Y-27222220D01*
X99388493Y-27294792D01*
X99473160Y-27439934D01*
X99473160Y-28238220D01*
X99473160Y-27439934D02*
X99557826Y-27294792D01*
X99727160Y-27222220D01*
X99981160Y-27222220D01*
X100150493Y-27294792D01*
X100235160Y-27439934D01*
X100235160Y-28238220D01*
D17*
X211133897Y-33480827D02*
X211133897Y-33823684D01*
X211133897Y-33652256D02*
X210533897Y-33652256D01*
X210619611Y-33709398D01*
X210676754Y-33766541D01*
X210705326Y-33823684D01*
X210533897Y-33109398D02*
X210533897Y-33052256D01*
X210562469Y-32995113D01*
X210591040Y-32966541D01*
X210648183Y-32937970D01*
X210762469Y-32909398D01*
X210905326Y-32909398D01*
X211019611Y-32937970D01*
X211076754Y-32966541D01*
X211105326Y-32995113D01*
X211133897Y-33052256D01*
X211133897Y-33109398D01*
X211105326Y-33166541D01*
X211076754Y-33195113D01*
X211019611Y-33223684D01*
X210905326Y-33252256D01*
X210762469Y-33252256D01*
X210648183Y-33223684D01*
X210591040Y-33195113D01*
X210562469Y-33166541D01*
X210533897Y-33109398D01*
X210533897Y-32537970D02*
X210533897Y-32480827D01*
X210562469Y-32423684D01*
X210591040Y-32395113D01*
X210648183Y-32366541D01*
X210762469Y-32337970D01*
X210905326Y-32337970D01*
X211019611Y-32366541D01*
X211076754Y-32395113D01*
X211105326Y-32423684D01*
X211133897Y-32480827D01*
X211133897Y-32537970D01*
X211105326Y-32595113D01*
X211076754Y-32623684D01*
X211019611Y-32652256D01*
X210905326Y-32680827D01*
X210762469Y-32680827D01*
X210648183Y-32652256D01*
X210591040Y-32623684D01*
X210562469Y-32595113D01*
X210533897Y-32537970D01*
X210733897Y-32080827D02*
X211133897Y-32080827D01*
X210791040Y-32080827D02*
X210762469Y-32052256D01*
X210733897Y-31995113D01*
X210733897Y-31909398D01*
X210762469Y-31852256D01*
X210819611Y-31823684D01*
X211133897Y-31823684D01*
X210819611Y-31337970D02*
X210819611Y-31537970D01*
X211133897Y-31537970D02*
X210533897Y-31537970D01*
X210533897Y-31252256D01*
M02*
