M48
; DRILL file {KiCad (5.1.4)-1} date 2019/9/12 上午 01:17:10
; FORMAT={-:-/ absolute / metric / decimal}
; #@! TF.CreationDate,2019-09-12T01:17:10+08:00
; #@! TF.GenerationSoftware,Kicad,Pcbnew,(5.1.4)-1
FMAT,2
METRIC
T1C0.508
T2C0.600
T3C0.800
T4C0.900
T5C0.991
T6C1.090
T7C1.092
T8C1.499
T9C2.100
T10C0.650
T11C0.991
T12C1.092
T13C1.702
T14C2.100
T15C3.000
T16C3.048
T17C3.988
%
G90
G05
T1
X135.608Y-35.58
X138.021Y-34.29
X139.26Y-35.052
X152.667Y-43.332
X154.8Y-50.19
X155.918Y-50.932
X157.036Y-51.618
X157.848Y-53.073
X159.271Y-52.103
X178.943Y-78.174
X178.963Y-57.15
X180.269Y-55.862
X180.269Y-97.211
X181.742Y-54.623
X181.744Y-116.274
T3
X79.016Y-43.255
X79.016Y-53.415
X101.113Y-36.432
X111.273Y-36.432
X101.12Y-39.718
X111.28Y-39.718
X75.618Y-43.257
X75.618Y-53.417
X119.325Y-34.722
X129.485Y-34.722
X72.317Y-43.256
X72.317Y-53.416
X119.325Y-41.444
X129.485Y-41.444
X201.003Y-38.71
X201.003Y-43.71
T4
X66.465Y-41.225
X66.465Y-43.765
X66.465Y-34.925
X66.465Y-37.465
X66.465Y-47.625
X66.465Y-50.165
T5
X68.58Y-73.228
X76.2Y-73.228
X87.63Y-130.376
X95.25Y-130.376
X125.73Y-108.458
X133.35Y-108.458
X134.535Y-40.77
X136.586Y-40.77
X138.611Y-40.77
X140.637Y-40.77
X182.88Y-151.331
X190.5Y-151.331
X106.68Y-91.006
X114.3Y-91.006
X163.83Y-132.281
X171.45Y-132.281
X125.73Y-89.408
X133.35Y-89.408
X125.73Y-146.558
X133.35Y-146.558
X106.68Y-129.106
X114.3Y-129.106
X106.68Y-71.956
X114.3Y-71.956
X69.795Y-154.229
X73.015Y-161.135
X187.71Y-94.181
X195.33Y-94.181
X163.83Y-94.181
X171.45Y-94.181
X34.681Y-152.246
X41.587Y-149.025
X51.945Y-144.196
X58.851Y-140.975
X144.78Y-110.056
X152.4Y-110.056
X80.518Y-113.675
X80.518Y-121.295
X87.63Y-73.228
X95.25Y-73.228
X87.63Y-111.326
X95.25Y-111.326
X78.74Y-34.925
X78.74Y-37.465
X78.74Y-40.005
X144.78Y-148.156
X152.4Y-148.156
X125.73Y-127.508
X133.35Y-127.508
X80.518Y-85.1
X80.518Y-92.72
X50.782Y-186.777
X57.688Y-183.556
X187.71Y-113.231
X195.33Y-113.231
X144.78Y-71.956
X152.4Y-71.956
X42.73Y-169.51
X49.636Y-166.289
X187.71Y-75.133
X195.33Y-75.133
X163.83Y-113.231
X171.45Y-113.231
X125.73Y-70.358
X133.35Y-70.358
X106.68Y-110.056
X114.3Y-110.056
X93.98Y-34.925
X93.98Y-37.465
X93.98Y-40.005
X163.83Y-151.331
X171.45Y-151.331
X144.78Y-129.106
X152.4Y-129.106
X87.63Y-92.276
X95.25Y-92.276
X106.68Y-148.156
X114.3Y-148.156
X163.83Y-75.133
X171.45Y-75.133
X87.059Y-146.177
X90.28Y-153.083
X187.71Y-132.281
X195.33Y-132.281
X144.78Y-91.006
X152.4Y-91.006
T6
X189.865Y-50.165
T7
X82.702Y-38.379
X84.709Y-41.478
X87.909Y-41.478
X89.916Y-38.379
X161.925Y-34.925
X161.925Y-50.165
X164.465Y-34.925
X164.465Y-50.165
X167.005Y-34.925
X167.005Y-50.165
X169.545Y-34.925
X169.545Y-50.165
X172.085Y-34.925
X172.085Y-50.165
X174.625Y-34.925
X174.625Y-50.165
X177.165Y-34.925
X177.165Y-50.165
X179.705Y-34.925
X179.705Y-50.165
X182.245Y-34.925
X182.245Y-50.165
X184.785Y-34.925
X184.785Y-50.165
X187.325Y-34.925
X187.325Y-50.165
X189.865Y-34.925
X161.91Y-38.71
X161.91Y-46.33
X164.45Y-38.71
X164.45Y-46.33
X166.99Y-38.71
X166.99Y-46.33
X169.53Y-38.71
X169.53Y-46.33
X172.07Y-38.71
X172.07Y-46.33
X174.61Y-38.71
X174.61Y-46.33
X177.15Y-38.71
X177.15Y-46.33
X179.69Y-38.71
X179.69Y-46.33
X182.23Y-38.71
X182.23Y-46.33
X184.77Y-46.33
X187.31Y-46.33
X189.85Y-46.33
X192.39Y-38.71
X192.39Y-46.33
X194.93Y-38.71
X194.93Y-46.33
T8
X38.222Y-159.841
X40.369Y-164.445
X42.903Y-154.856
X47.197Y-164.064
X187.71Y-64.465
X187.71Y-69.545
X194.06Y-61.925
X194.06Y-72.085
X163.83Y-102.563
X163.83Y-107.643
X170.18Y-100.023
X170.18Y-110.183
X125.73Y-59.69
X125.73Y-64.77
X132.08Y-57.15
X132.08Y-67.31
X106.68Y-99.388
X106.68Y-104.468
X113.03Y-96.848
X113.03Y-107.008
X163.83Y-140.663
X163.83Y-145.743
X170.18Y-138.123
X170.18Y-148.283
X144.78Y-118.438
X144.78Y-123.518
X151.13Y-115.898
X151.13Y-126.058
X87.63Y-81.608
X87.63Y-86.688
X93.98Y-79.068
X93.98Y-89.228
X106.68Y-137.488
X106.68Y-142.568
X113.03Y-134.948
X113.03Y-145.108
X163.83Y-64.465
X163.83Y-69.545
X170.18Y-61.925
X170.18Y-72.085
X75.625Y-152.91
X80.611Y-157.591
X84.833Y-148.616
X85.215Y-155.445
X187.71Y-121.613
X187.71Y-126.693
X194.06Y-119.073
X194.06Y-129.233
X144.78Y-80.338
X144.78Y-85.418
X151.13Y-77.798
X151.13Y-87.958
X68.58Y-62.56
X68.58Y-67.64
X74.93Y-60.02
X74.93Y-70.18
X87.63Y-119.708
X87.63Y-124.788
X93.98Y-117.168
X93.98Y-127.328
X125.73Y-97.79
X125.73Y-102.87
X132.08Y-95.25
X132.08Y-105.41
X182.88Y-140.663
X182.88Y-145.743
X189.23Y-138.123
X189.23Y-148.283
X106.68Y-80.338
X106.68Y-85.418
X113.03Y-77.798
X113.03Y-87.958
X163.83Y-121.613
X163.83Y-126.693
X170.18Y-119.073
X170.18Y-129.233
X125.73Y-78.74
X125.73Y-83.82
X132.08Y-76.2
X132.08Y-86.36
X125.73Y-135.89
X125.73Y-140.97
X132.08Y-133.35
X132.08Y-143.51
X106.68Y-118.438
X106.68Y-123.518
X113.03Y-115.898
X113.03Y-126.058
X106.68Y-61.288
X106.68Y-66.368
X113.03Y-58.748
X113.03Y-68.908
X58.361Y-160.962
X63.347Y-165.643
X67.569Y-156.668
X67.951Y-163.497
X187.71Y-83.513
X187.71Y-88.593
X194.06Y-80.973
X194.06Y-91.133
X163.83Y-83.513
X163.83Y-88.593
X170.18Y-80.973
X170.18Y-91.133
X30.172Y-142.577
X32.319Y-147.181
X34.854Y-137.592
X39.148Y-146.8
X47.437Y-134.527
X49.584Y-139.131
X52.118Y-129.542
X56.412Y-138.75
X144.78Y-99.388
X144.78Y-104.468
X151.13Y-96.848
X151.13Y-107.008
X67.31Y-114.945
X69.85Y-121.295
X74.93Y-121.295
X77.47Y-114.945
X87.63Y-62.56
X87.63Y-67.64
X93.98Y-60.02
X93.98Y-70.18
X87.63Y-100.658
X87.63Y-105.738
X93.98Y-98.118
X93.98Y-108.278
X144.78Y-137.488
X144.78Y-142.568
X151.13Y-134.948
X151.13Y-145.108
X125.73Y-116.84
X125.73Y-121.92
X132.08Y-114.3
X132.08Y-124.46
X67.31Y-86.37
X69.85Y-92.72
X74.93Y-92.72
X77.47Y-86.37
X46.274Y-177.108
X48.42Y-181.712
X50.955Y-172.123
X55.249Y-181.331
X187.71Y-102.563
X187.71Y-107.643
X194.06Y-100.023
X194.06Y-110.183
X144.78Y-61.288
X144.78Y-66.368
X151.13Y-58.748
X151.13Y-68.908
T9
X202.6Y-95.6
T10
X134.725Y-36.745
X140.505Y-36.745
T11
X86.309Y-33.376
X86.309Y-38.379
T12
X184.77Y-38.71
X187.31Y-38.71
X189.85Y-38.71
T13
X124.46Y-138.43
X134.62Y-138.43
X105.41Y-120.978
X115.57Y-120.978
X105.41Y-63.828
X115.57Y-63.828
X61.892Y-156.513
X66.185Y-165.721
X186.44Y-86.053
X196.6Y-86.053
X162.56Y-86.053
X172.72Y-86.053
X30.095Y-145.416
X39.303Y-141.122
X47.359Y-137.366
X56.567Y-133.072
X143.51Y-101.928
X153.67Y-101.928
X72.39Y-112.405
X72.39Y-122.565
X86.36Y-65.1
X96.52Y-65.1
X86.36Y-103.198
X96.52Y-103.198
X143.51Y-140.028
X153.67Y-140.028
X124.46Y-119.38
X134.62Y-119.38
X72.39Y-83.83
X72.39Y-93.99
X46.196Y-179.947
X55.404Y-175.653
X186.44Y-105.103
X196.6Y-105.103
X143.51Y-63.828
X153.67Y-63.828
X38.144Y-162.68
X47.352Y-158.386
X186.44Y-67.005
X196.6Y-67.005
X162.56Y-105.103
X172.72Y-105.103
X124.46Y-62.23
X134.62Y-62.23
X105.41Y-101.928
X115.57Y-101.928
X162.56Y-143.203
X172.72Y-143.203
X143.51Y-120.978
X153.67Y-120.978
X86.36Y-84.148
X96.52Y-84.148
X105.41Y-140.028
X115.57Y-140.028
X162.56Y-67.005
X172.72Y-67.005
X79.156Y-148.461
X83.45Y-157.669
X186.44Y-124.153
X196.6Y-124.153
X143.51Y-82.878
X153.67Y-82.878
X67.31Y-65.1
X77.47Y-65.1
X86.36Y-122.248
X96.52Y-122.248
X124.46Y-100.33
X134.62Y-100.33
X181.61Y-143.203
X191.77Y-143.203
X105.41Y-82.878
X115.57Y-82.878
X162.56Y-124.153
X172.72Y-124.153
X124.46Y-81.28
X134.62Y-81.28
T14
X202.6Y-47.0
X103.712Y-156.284
X66.6Y-103.2
X41.232Y-171.844
X74.0Y-38.1
X139.065Y-91.604
X120.5Y-38.1
X198.2Y-144.6
T15
X127.0Y-133.35
X127.0Y-143.51
X133.35Y-135.89
X133.35Y-140.97
X107.95Y-115.898
X107.95Y-126.058
X114.3Y-118.438
X114.3Y-123.518
X107.95Y-58.748
X107.95Y-68.908
X114.3Y-61.288
X114.3Y-66.368
X60.126Y-158.737
X60.508Y-165.566
X64.73Y-156.591
X69.716Y-161.272
X188.98Y-80.973
X188.98Y-91.133
X195.33Y-83.513
X195.33Y-88.593
X165.1Y-80.973
X165.1Y-91.133
X171.45Y-83.513
X171.45Y-88.593
X30.25Y-139.738
X34.544Y-148.946
X37.078Y-139.357
X39.225Y-143.961
X47.514Y-131.688
X51.808Y-140.896
X54.343Y-131.307
X56.49Y-135.911
X146.05Y-96.848
X146.05Y-107.008
X152.4Y-99.388
X152.4Y-104.468
X67.31Y-120.025
X69.85Y-113.675
X74.93Y-113.675
X77.47Y-120.025
X88.9Y-60.02
X88.9Y-70.18
X95.25Y-62.56
X95.25Y-67.64
X88.9Y-98.118
X88.9Y-108.278
X95.25Y-100.658
X95.25Y-105.738
X146.05Y-134.948
X146.05Y-145.108
X152.4Y-137.488
X152.4Y-142.568
X127.0Y-114.3
X127.0Y-124.46
X133.35Y-116.84
X133.35Y-121.92
X67.31Y-91.45
X69.85Y-85.1
X74.93Y-85.1
X77.47Y-91.45
X46.351Y-174.269
X50.645Y-183.477
X53.18Y-173.888
X55.326Y-178.492
X188.98Y-100.023
X188.98Y-110.183
X195.33Y-102.563
X195.33Y-107.643
X146.05Y-58.748
X146.05Y-68.908
X152.4Y-61.288
X152.4Y-66.368
X38.299Y-157.002
X42.593Y-166.21
X45.128Y-156.621
X47.275Y-161.225
X188.98Y-61.925
X188.98Y-72.085
X195.33Y-64.465
X195.33Y-69.545
X165.1Y-100.023
X165.1Y-110.183
X171.45Y-102.563
X171.45Y-107.643
X127.0Y-57.15
X127.0Y-67.31
X133.35Y-59.69
X133.35Y-64.77
X107.95Y-96.848
X107.95Y-107.008
X114.3Y-99.388
X114.3Y-104.468
X165.1Y-138.123
X165.1Y-148.283
X171.45Y-140.663
X171.45Y-145.743
X146.05Y-115.898
X146.05Y-126.058
X152.4Y-118.438
X152.4Y-123.518
X88.9Y-79.068
X88.9Y-89.228
X95.25Y-81.608
X95.25Y-86.688
X107.95Y-134.948
X107.95Y-145.108
X114.3Y-137.488
X114.3Y-142.568
X165.1Y-61.925
X165.1Y-72.085
X171.45Y-64.465
X171.45Y-69.545
X77.391Y-150.685
X77.772Y-157.514
X81.995Y-148.539
X86.98Y-153.22
X188.98Y-119.073
X188.98Y-129.233
X195.33Y-121.613
X195.33Y-126.693
X146.05Y-77.798
X146.05Y-87.958
X152.4Y-80.338
X152.4Y-85.418
X69.85Y-60.02
X69.85Y-70.18
X76.2Y-62.56
X76.2Y-67.64
X88.9Y-117.168
X88.9Y-127.328
X95.25Y-119.708
X95.25Y-124.788
X127.0Y-95.25
X127.0Y-105.41
X133.35Y-97.79
X133.35Y-102.87
X184.15Y-138.123
X184.15Y-148.283
X190.5Y-140.663
X190.5Y-145.743
X107.95Y-77.798
X107.95Y-87.958
X114.3Y-80.338
X114.3Y-85.418
X165.1Y-119.073
X165.1Y-129.233
X171.45Y-121.613
X171.45Y-126.693
X127.0Y-76.2
X127.0Y-86.36
X133.35Y-78.74
X133.35Y-83.82
T16
X65.324Y-147.346
X75.414Y-168.985
X69.927Y-145.197
X80.018Y-166.836
T17
X51.963Y-135.219
X148.59Y-101.928
X83.739Y-138.757
X93.83Y-160.396
X72.39Y-117.485
X91.44Y-65.1
X91.44Y-103.198
X148.59Y-140.028
X129.54Y-119.38
X72.39Y-88.91
X50.8Y-177.8
X191.52Y-105.103
X148.59Y-63.828
X42.748Y-160.533
X191.52Y-67.005
X167.64Y-105.103
X129.54Y-62.23
X110.49Y-101.928
X167.64Y-143.203
X148.59Y-120.978
X91.44Y-84.148
X110.49Y-140.028
X51.512Y-153.786
X61.602Y-175.425
X167.64Y-67.005
X81.303Y-153.065
X191.52Y-124.153
X148.59Y-82.878
X72.39Y-65.1
X91.44Y-122.248
X129.54Y-100.33
X186.69Y-143.203
X110.49Y-82.878
X167.64Y-124.153
X129.54Y-81.28
X129.54Y-138.43
X110.49Y-120.978
X110.49Y-63.828
X64.038Y-161.117
X191.52Y-86.053
X167.64Y-86.053
X34.699Y-143.269
T2
G00X133.295Y-32.795
M15
G01X133.295Y-33.395
M16
G05
G00X133.295Y-36.725
M15
G01X133.295Y-37.825
M16
G05
G00X141.935Y-32.795
M15
G01X141.935Y-33.395
M16
G05
G00X141.935Y-36.725
M15
G01X141.935Y-37.825
M16
G05
T7
G00X81.813Y-33.376
M15
G01X81.509Y-33.376
M16
G05
G00X91.11Y-33.376
M15
G01X90.805Y-33.376
M16
G05
T0
M30
