M48
; DRILL file {KiCad (5.1.4)-1} date 2019/9/13 上午 04:19:32
; FORMAT={-:-/ absolute / metric / decimal}
; #@! TF.CreationDate,2019-09-13T04:19:32+08:00
; #@! TF.GenerationSoftware,Kicad,Pcbnew,(5.1.4)-1
FMAT,2
METRIC
T1C0.508
T2C0.600
T3C0.800
T4C0.900
T5C0.991
T6C1.090
T7C1.092
T8C1.499
T9C2.100
T10C0.650
T11C0.991
T12C1.092
T13C1.702
T14C2.100
T15C3.000
T16C3.048
T17C3.988
%
G90
G05
T1
X145.47Y-26.934
X147.883Y-25.643
X149.121Y-26.406
X162.529Y-34.686
X164.662Y-41.544
X165.78Y-42.285
X166.898Y-42.971
X167.71Y-44.427
X169.134Y-43.457
X188.805Y-69.527
X188.825Y-48.504
X190.131Y-88.564
X190.132Y-47.216
X191.605Y-45.976
X191.606Y-107.628
T3
X88.878Y-34.609
X88.878Y-44.769
X129.187Y-26.075
X139.347Y-26.075
X210.865Y-30.063
X210.865Y-35.063
X85.48Y-34.611
X85.48Y-44.771
X110.976Y-27.786
X121.136Y-27.786
X82.18Y-34.61
X82.18Y-44.77
X110.982Y-31.072
X121.142Y-31.072
X129.187Y-32.797
X139.347Y-32.797
T4
X76.327Y-38.979
X76.327Y-41.519
X76.327Y-26.279
X76.327Y-28.819
X76.327Y-32.579
X76.327Y-35.119
T5
X135.592Y-137.912
X143.212Y-137.912
X78.442Y-64.582
X86.062Y-64.582
X97.492Y-83.629
X105.112Y-83.629
X192.742Y-142.685
X200.362Y-142.685
X135.592Y-99.811
X143.212Y-99.811
X154.642Y-63.31
X162.262Y-63.31
X97.492Y-64.582
X105.112Y-64.582
X173.692Y-123.635
X181.312Y-123.635
X79.657Y-145.583
X82.877Y-152.489
X197.573Y-104.585
X205.193Y-104.585
X197.572Y-85.534
X205.192Y-85.534
X61.807Y-135.549
X68.714Y-132.329
X154.642Y-139.51
X162.262Y-139.51
X52.592Y-160.863
X59.499Y-157.643
X135.592Y-80.761
X143.212Y-80.761
X88.602Y-26.279
X88.602Y-28.819
X88.602Y-31.359
X90.38Y-105.028
X90.38Y-112.648
X60.644Y-178.13
X67.55Y-174.91
X154.642Y-101.409
X162.262Y-101.409
X173.692Y-66.486
X181.312Y-66.486
X116.542Y-63.309
X124.162Y-63.309
X135.593Y-61.712
X143.213Y-61.712
X97.492Y-102.68
X105.112Y-102.68
X44.543Y-143.6
X51.449Y-140.379
X154.643Y-82.359
X162.263Y-82.359
X135.592Y-118.861
X143.212Y-118.861
X144.397Y-32.123
X146.448Y-32.123
X148.473Y-32.123
X150.499Y-32.123
X197.572Y-66.487
X205.192Y-66.487
X96.921Y-137.53
X100.141Y-144.436
X103.842Y-26.279
X103.842Y-28.819
X103.842Y-31.359
X116.542Y-120.46
X124.162Y-120.46
X116.543Y-139.51
X124.163Y-139.51
X173.692Y-104.585
X181.312Y-104.585
X90.38Y-76.454
X90.38Y-84.074
X97.492Y-121.73
X105.112Y-121.73
X173.692Y-142.685
X181.312Y-142.685
X116.542Y-101.41
X124.162Y-101.41
X173.692Y-85.534
X181.312Y-85.534
X116.542Y-82.359
X124.162Y-82.359
X154.643Y-120.46
X162.263Y-120.46
X197.572Y-123.634
X205.192Y-123.634
T6
X199.728Y-41.519
T7
X171.772Y-30.063
X171.772Y-37.683
X174.312Y-30.063
X174.312Y-37.683
X176.852Y-30.063
X176.852Y-37.683
X179.392Y-30.063
X179.392Y-37.683
X181.932Y-30.063
X181.932Y-37.683
X184.472Y-30.063
X184.472Y-37.683
X187.012Y-30.063
X187.012Y-37.683
X189.552Y-30.063
X189.552Y-37.683
X192.092Y-30.063
X192.092Y-37.683
X194.632Y-37.683
X197.172Y-37.683
X199.712Y-37.683
X202.252Y-30.063
X202.252Y-37.683
X204.792Y-30.063
X204.792Y-37.683
X92.564Y-29.733
X94.571Y-32.832
X97.771Y-32.832
X99.778Y-29.733
X171.788Y-26.279
X171.788Y-41.519
X174.328Y-26.279
X174.328Y-41.519
X176.868Y-26.279
X176.868Y-41.519
X179.408Y-26.279
X179.408Y-41.519
X181.948Y-26.279
X181.948Y-41.519
X184.488Y-26.279
X184.488Y-41.519
X187.028Y-26.279
X187.028Y-41.519
X189.568Y-26.279
X189.568Y-41.519
X192.108Y-26.279
X192.108Y-41.519
X194.648Y-26.279
X194.648Y-41.519
X197.188Y-26.279
X197.188Y-41.519
X199.728Y-26.279
T8
X135.592Y-127.244
X135.592Y-132.324
X141.942Y-124.704
X141.942Y-134.864
X78.442Y-53.914
X78.442Y-58.994
X84.792Y-51.374
X84.792Y-61.534
X97.492Y-72.961
X97.492Y-78.041
X103.842Y-70.421
X103.842Y-80.581
X192.742Y-132.017
X192.742Y-137.097
X199.092Y-129.477
X199.092Y-139.637
X135.592Y-89.143
X135.592Y-94.223
X141.942Y-86.603
X141.942Y-96.763
X154.642Y-52.642
X154.642Y-57.722
X160.992Y-50.102
X160.992Y-60.262
X97.492Y-53.914
X97.492Y-58.994
X103.842Y-51.374
X103.842Y-61.534
X173.692Y-112.967
X173.692Y-118.047
X180.042Y-110.427
X180.042Y-120.587
X68.223Y-152.316
X73.209Y-156.997
X77.431Y-148.022
X77.813Y-154.85
X197.573Y-93.917
X197.573Y-98.997
X203.923Y-91.377
X203.923Y-101.537
X197.572Y-74.866
X197.572Y-79.946
X203.922Y-72.326
X203.922Y-82.486
X57.299Y-125.881
X59.446Y-130.485
X61.981Y-120.895
X66.274Y-130.103
X154.642Y-128.842
X154.642Y-133.922
X160.992Y-126.302
X160.992Y-136.462
X48.084Y-151.195
X50.231Y-155.799
X52.766Y-146.209
X57.059Y-155.417
X135.592Y-70.093
X135.592Y-75.173
X141.942Y-67.553
X141.942Y-77.713
X77.172Y-106.298
X79.712Y-112.648
X84.792Y-112.648
X87.332Y-106.298
X56.136Y-168.462
X58.283Y-173.066
X60.817Y-163.476
X65.111Y-172.684
X154.642Y-90.741
X154.642Y-95.821
X160.992Y-88.201
X160.992Y-98.361
X173.692Y-55.818
X173.692Y-60.898
X180.042Y-53.278
X180.042Y-63.438
X116.542Y-52.641
X116.542Y-57.721
X122.892Y-50.101
X122.892Y-60.261
X135.593Y-51.044
X135.593Y-56.124
X141.943Y-48.504
X141.943Y-58.664
X97.492Y-92.012
X97.492Y-97.092
X103.842Y-89.472
X103.842Y-99.632
X40.035Y-133.931
X42.182Y-138.535
X44.716Y-128.946
X49.01Y-138.154
X154.643Y-71.691
X154.643Y-76.771
X160.993Y-69.151
X160.993Y-79.311
X135.592Y-108.193
X135.592Y-113.273
X141.942Y-105.653
X141.942Y-115.813
X197.572Y-55.819
X197.572Y-60.899
X203.922Y-53.279
X203.922Y-63.439
X85.487Y-144.263
X90.473Y-148.945
X94.695Y-139.969
X95.077Y-146.798
X116.542Y-109.792
X116.542Y-114.872
X122.892Y-107.252
X122.892Y-117.412
X116.543Y-128.842
X116.543Y-133.922
X122.893Y-126.302
X122.893Y-136.462
X173.692Y-93.917
X173.692Y-98.997
X180.042Y-91.377
X180.042Y-101.537
X77.172Y-77.724
X79.712Y-84.074
X84.792Y-84.074
X87.332Y-77.724
X97.492Y-111.062
X97.492Y-116.142
X103.842Y-108.522
X103.842Y-118.682
X173.692Y-132.017
X173.692Y-137.097
X180.042Y-129.477
X180.042Y-139.637
X116.542Y-90.742
X116.542Y-95.822
X122.892Y-88.202
X122.892Y-98.362
X173.692Y-74.866
X173.692Y-79.946
X180.042Y-72.326
X180.042Y-82.486
X116.542Y-71.691
X116.542Y-76.771
X122.892Y-69.151
X122.892Y-79.311
X154.643Y-109.792
X154.643Y-114.872
X160.993Y-107.252
X160.993Y-117.412
X197.572Y-112.966
X197.572Y-118.046
X203.922Y-110.426
X203.922Y-120.586
T9
X212.463Y-86.954
T10
X144.587Y-28.099
X150.367Y-28.099
T11
X96.171Y-24.729
X96.171Y-29.733
T12
X194.632Y-30.063
X197.172Y-30.063
X199.712Y-30.063
T13
X196.302Y-115.506
X206.462Y-115.506
X134.322Y-129.784
X144.482Y-129.784
X77.172Y-56.454
X87.332Y-56.454
X96.222Y-75.501
X106.382Y-75.501
X191.472Y-134.557
X201.632Y-134.557
X134.322Y-91.683
X144.482Y-91.683
X153.372Y-55.182
X163.532Y-55.182
X96.222Y-56.454
X106.382Y-56.454
X172.422Y-115.507
X182.582Y-115.507
X71.754Y-147.867
X76.048Y-157.075
X196.303Y-96.457
X206.463Y-96.457
X196.302Y-77.406
X206.462Y-77.406
X57.221Y-128.72
X66.43Y-124.426
X153.372Y-131.382
X163.532Y-131.382
X48.006Y-154.034
X57.214Y-149.74
X134.322Y-72.633
X144.482Y-72.633
X82.252Y-103.758
X82.252Y-113.918
X56.058Y-171.301
X65.266Y-167.007
X153.372Y-93.281
X163.532Y-93.281
X172.422Y-58.358
X182.582Y-58.358
X115.272Y-55.181
X125.432Y-55.181
X134.323Y-53.584
X144.483Y-53.584
X96.222Y-94.552
X106.382Y-94.552
X39.957Y-136.77
X49.165Y-132.476
X153.373Y-74.231
X163.533Y-74.231
X134.322Y-110.733
X144.482Y-110.733
X196.302Y-58.359
X206.462Y-58.359
X89.018Y-139.814
X93.312Y-149.022
X115.272Y-112.332
X125.432Y-112.332
X115.273Y-131.382
X125.433Y-131.382
X172.422Y-96.457
X182.582Y-96.457
X82.252Y-75.184
X82.252Y-85.344
X96.222Y-113.602
X106.382Y-113.602
X172.422Y-134.557
X182.582Y-134.557
X115.272Y-93.282
X125.432Y-93.282
X172.422Y-77.406
X182.582Y-77.406
X115.272Y-74.231
X125.432Y-74.231
X153.373Y-112.332
X163.533Y-112.332
T14
X113.574Y-147.638
X130.362Y-29.454
X51.094Y-163.197
X83.862Y-29.454
X212.462Y-38.353
X148.927Y-82.958
X208.062Y-135.953
X76.462Y-94.554
T15
X136.862Y-124.704
X136.862Y-134.864
X143.212Y-127.244
X143.212Y-132.324
X79.712Y-51.374
X79.712Y-61.534
X86.062Y-53.914
X86.062Y-58.994
X98.762Y-70.421
X98.762Y-80.581
X105.112Y-72.961
X105.112Y-78.041
X194.012Y-129.477
X194.012Y-139.637
X200.362Y-132.017
X200.362Y-137.097
X136.862Y-86.603
X136.862Y-96.763
X143.212Y-89.143
X143.212Y-94.223
X155.912Y-50.102
X155.912Y-60.262
X162.262Y-52.642
X162.262Y-57.722
X98.762Y-51.374
X98.762Y-61.534
X105.112Y-53.914
X105.112Y-58.994
X174.962Y-110.427
X174.962Y-120.587
X181.312Y-112.967
X181.312Y-118.047
X69.989Y-150.091
X70.37Y-156.92
X74.593Y-147.944
X79.578Y-152.626
X198.843Y-91.377
X198.843Y-101.537
X205.193Y-93.917
X205.193Y-98.997
X198.842Y-72.326
X198.842Y-82.486
X205.192Y-74.866
X205.192Y-79.946
X57.377Y-123.042
X61.67Y-132.25
X64.205Y-122.66
X66.352Y-127.264
X155.912Y-126.302
X155.912Y-136.462
X162.262Y-128.842
X162.262Y-133.922
X48.162Y-148.356
X52.455Y-157.564
X54.99Y-147.975
X57.137Y-152.579
X136.862Y-67.553
X136.862Y-77.713
X143.212Y-70.093
X143.212Y-75.173
X77.172Y-111.378
X79.712Y-105.028
X84.792Y-105.028
X87.332Y-111.378
X56.213Y-165.623
X60.507Y-174.831
X63.042Y-165.242
X65.189Y-169.846
X155.912Y-88.201
X155.912Y-98.361
X162.262Y-90.741
X162.262Y-95.821
X174.962Y-53.278
X174.962Y-63.438
X181.312Y-55.818
X181.312Y-60.898
X117.812Y-50.101
X117.812Y-60.261
X124.162Y-52.641
X124.162Y-57.721
X136.863Y-48.504
X136.863Y-58.664
X143.213Y-51.044
X143.213Y-56.124
X98.762Y-89.472
X98.762Y-99.632
X105.112Y-92.012
X105.112Y-97.092
X40.112Y-131.092
X44.406Y-140.301
X46.941Y-130.711
X49.088Y-135.315
X155.913Y-69.151
X155.913Y-79.311
X162.263Y-71.691
X162.263Y-76.771
X136.862Y-105.653
X136.862Y-115.813
X143.212Y-108.193
X143.212Y-113.273
X198.842Y-53.279
X198.842Y-63.439
X205.192Y-55.819
X205.192Y-60.899
X87.253Y-142.039
X87.634Y-148.867
X91.857Y-139.892
X96.842Y-144.573
X117.812Y-107.252
X117.812Y-117.412
X124.162Y-109.792
X124.162Y-114.872
X117.813Y-126.302
X117.813Y-136.462
X124.163Y-128.842
X124.163Y-133.922
X174.962Y-91.377
X174.962Y-101.537
X181.312Y-93.917
X181.312Y-98.997
X77.172Y-82.804
X79.712Y-76.454
X84.792Y-76.454
X87.332Y-82.804
X98.762Y-108.522
X98.762Y-118.682
X105.112Y-111.062
X105.112Y-116.142
X174.962Y-129.477
X174.962Y-139.637
X181.312Y-132.017
X181.312Y-137.097
X117.812Y-88.202
X117.812Y-98.362
X124.162Y-90.742
X124.162Y-95.822
X174.962Y-72.326
X174.962Y-82.486
X181.312Y-74.866
X181.312Y-79.946
X117.812Y-69.151
X117.812Y-79.311
X124.162Y-71.691
X124.162Y-76.771
X155.913Y-107.252
X155.913Y-117.412
X162.263Y-109.792
X162.263Y-114.872
X198.842Y-110.426
X198.842Y-120.586
X205.192Y-112.966
X205.192Y-118.046
T16
X75.186Y-138.699
X85.277Y-160.338
X79.789Y-136.551
X89.879Y-158.19
T17
X201.382Y-115.506
X139.402Y-129.784
X82.252Y-56.454
X101.302Y-75.501
X196.552Y-134.557
X139.402Y-91.683
X158.452Y-55.182
X101.302Y-56.454
X177.502Y-115.507
X73.901Y-152.471
X201.383Y-96.457
X201.382Y-77.406
X61.825Y-126.573
X158.452Y-131.382
X52.61Y-151.887
X139.402Y-72.633
X82.252Y-108.838
X60.662Y-169.154
X158.452Y-93.281
X177.502Y-58.358
X120.352Y-55.181
X139.403Y-53.584
X101.302Y-94.552
X44.561Y-134.623
X158.453Y-74.231
X61.374Y-145.14
X71.464Y-166.779
X139.402Y-110.733
X201.382Y-58.359
X91.165Y-144.418
X120.352Y-112.332
X120.353Y-131.382
X177.502Y-96.457
X82.252Y-80.264
X101.302Y-113.602
X177.502Y-134.557
X93.601Y-130.11
X103.692Y-151.749
X120.352Y-93.282
X177.502Y-77.406
X120.352Y-74.231
X158.453Y-112.332
T2
G00X143.157Y-24.149
M15
G01X143.157Y-24.749
M16
G05
G00X143.157Y-28.079
M15
G01X143.157Y-29.179
M16
G05
G00X151.797Y-24.149
M15
G01X151.797Y-24.749
M16
G05
G00X151.797Y-28.079
M15
G01X151.797Y-29.179
M16
G05
T7
G00X91.675Y-24.729
M15
G01X91.371Y-24.729
M16
G05
G00X100.972Y-24.729
M15
G01X100.667Y-24.729
M16
G05
T0
M30
