G04 #@! TF.GenerationSoftware,KiCad,Pcbnew,(5.1.4)-1*
G04 #@! TF.CreationDate,2019-09-13T04:19:27+08:00*
G04 #@! TF.ProjectId,ErgoDoxTW,4572676f-446f-4785-9457-2e6b69636164,rev?*
G04 #@! TF.SameCoordinates,Original*
G04 #@! TF.FileFunction,Paste,Bot*
G04 #@! TF.FilePolarity,Positive*
%FSLAX46Y46*%
G04 Gerber Fmt 4.6, Leading zero omitted, Abs format (unit mm)*
G04 Created by KiCad (PCBNEW (5.1.4)-1) date 2019-09-13 04:19:27*
%MOMM*%
%LPD*%
G04 APERTURE LIST*
%ADD10C,1.000000*%
%ADD11C,0.150000*%
%ADD12C,2.500000*%
%ADD13R,0.600000X1.800000*%
%ADD14R,0.300000X1.800000*%
%ADD15C,0.300000*%
%ADD16C,1.425000*%
%ADD17R,1.000000X1.400000*%
%ADD18R,2.550000X2.500000*%
%ADD19R,1.400000X1.000000*%
%ADD20R,2.500000X2.550000*%
G04 APERTURE END LIST*
D10*
X49627615Y-141228829D03*
D11*
G36*
X49470294Y-142074554D02*
G01*
X48878628Y-140805723D01*
X49784936Y-140383104D01*
X50376602Y-141651935D01*
X49470294Y-142074554D01*
X49470294Y-142074554D01*
G37*
D10*
X46364907Y-142750255D03*
D11*
G36*
X46207586Y-143595980D02*
G01*
X45615920Y-142327149D01*
X46522228Y-141904530D01*
X47113894Y-143173361D01*
X46207586Y-143595980D01*
X46207586Y-143595980D01*
G37*
D12*
X52486357Y-133730100D03*
D11*
G36*
X51859087Y-135401823D02*
G01*
X50802542Y-133136054D01*
X53113627Y-132058377D01*
X54170172Y-134324146D01*
X51859087Y-135401823D01*
X51859087Y-135401823D01*
G37*
D12*
X41007445Y-141885384D03*
D11*
G36*
X40380175Y-143557107D02*
G01*
X39323630Y-141291338D01*
X41634715Y-140213661D01*
X42691260Y-142479430D01*
X40380175Y-143557107D01*
X40380175Y-143557107D01*
G37*
D10*
X80506554Y-147404432D03*
D11*
G36*
X81352279Y-147561753D02*
G01*
X80083448Y-148153419D01*
X79660829Y-147247111D01*
X80929660Y-146655445D01*
X81352279Y-147561753D01*
X81352279Y-147561753D01*
G37*
D10*
X82027980Y-150667140D03*
D11*
G36*
X82873705Y-150824461D02*
G01*
X81604874Y-151416127D01*
X81182255Y-150509819D01*
X82451086Y-149918153D01*
X82873705Y-150824461D01*
X82873705Y-150824461D01*
G37*
D12*
X73007825Y-144545690D03*
D11*
G36*
X74679548Y-145172960D02*
G01*
X72413779Y-146229505D01*
X71336102Y-143918420D01*
X73601871Y-142861875D01*
X74679548Y-145172960D01*
X74679548Y-145172960D01*
G37*
D12*
X81163109Y-156024602D03*
D11*
G36*
X82834832Y-156651872D02*
G01*
X80569063Y-157708417D01*
X79491386Y-155397332D01*
X81757155Y-154340787D01*
X82834832Y-156651872D01*
X82834832Y-156651872D01*
G37*
D13*
X150701516Y-29719040D03*
X144251516Y-29719040D03*
X149926516Y-29719040D03*
X145026516Y-29719040D03*
D14*
X145726516Y-29719040D03*
X149226516Y-29719040D03*
X146226516Y-29719040D03*
X148726516Y-29719040D03*
D15*
X146726516Y-29719040D03*
D11*
G36*
X146876516Y-30619040D02*
G01*
X146576516Y-30619040D01*
X146576516Y-28819040D01*
X146876516Y-28819040D01*
X146876516Y-30619040D01*
X146876516Y-30619040D01*
G37*
D14*
X148226516Y-29719040D03*
X147726516Y-29719040D03*
X147226516Y-29719040D03*
D11*
G36*
X133245587Y-25201648D02*
G01*
X133269856Y-25205248D01*
X133293654Y-25211209D01*
X133316754Y-25219474D01*
X133338932Y-25229964D01*
X133359976Y-25242577D01*
X133379681Y-25257191D01*
X133397860Y-25273667D01*
X133414336Y-25291846D01*
X133428950Y-25311551D01*
X133441563Y-25332595D01*
X133452053Y-25354773D01*
X133460318Y-25377873D01*
X133466279Y-25401671D01*
X133469879Y-25425940D01*
X133471083Y-25450444D01*
X133471083Y-26700444D01*
X133469879Y-26724948D01*
X133466279Y-26749217D01*
X133460318Y-26773015D01*
X133452053Y-26796115D01*
X133441563Y-26818293D01*
X133428950Y-26839337D01*
X133414336Y-26859042D01*
X133397860Y-26877221D01*
X133379681Y-26893697D01*
X133359976Y-26908311D01*
X133338932Y-26920924D01*
X133316754Y-26931414D01*
X133293654Y-26939679D01*
X133269856Y-26945640D01*
X133245587Y-26949240D01*
X133221083Y-26950444D01*
X132296083Y-26950444D01*
X132271579Y-26949240D01*
X132247310Y-26945640D01*
X132223512Y-26939679D01*
X132200412Y-26931414D01*
X132178234Y-26920924D01*
X132157190Y-26908311D01*
X132137485Y-26893697D01*
X132119306Y-26877221D01*
X132102830Y-26859042D01*
X132088216Y-26839337D01*
X132075603Y-26818293D01*
X132065113Y-26796115D01*
X132056848Y-26773015D01*
X132050887Y-26749217D01*
X132047287Y-26724948D01*
X132046083Y-26700444D01*
X132046083Y-25450444D01*
X132047287Y-25425940D01*
X132050887Y-25401671D01*
X132056848Y-25377873D01*
X132065113Y-25354773D01*
X132075603Y-25332595D01*
X132088216Y-25311551D01*
X132102830Y-25291846D01*
X132119306Y-25273667D01*
X132137485Y-25257191D01*
X132157190Y-25242577D01*
X132178234Y-25229964D01*
X132200412Y-25219474D01*
X132223512Y-25211209D01*
X132247310Y-25205248D01*
X132271579Y-25201648D01*
X132296083Y-25200444D01*
X133221083Y-25200444D01*
X133245587Y-25201648D01*
X133245587Y-25201648D01*
G37*
D16*
X132758583Y-26075444D03*
D11*
G36*
X136220587Y-25201648D02*
G01*
X136244856Y-25205248D01*
X136268654Y-25211209D01*
X136291754Y-25219474D01*
X136313932Y-25229964D01*
X136334976Y-25242577D01*
X136354681Y-25257191D01*
X136372860Y-25273667D01*
X136389336Y-25291846D01*
X136403950Y-25311551D01*
X136416563Y-25332595D01*
X136427053Y-25354773D01*
X136435318Y-25377873D01*
X136441279Y-25401671D01*
X136444879Y-25425940D01*
X136446083Y-25450444D01*
X136446083Y-26700444D01*
X136444879Y-26724948D01*
X136441279Y-26749217D01*
X136435318Y-26773015D01*
X136427053Y-26796115D01*
X136416563Y-26818293D01*
X136403950Y-26839337D01*
X136389336Y-26859042D01*
X136372860Y-26877221D01*
X136354681Y-26893697D01*
X136334976Y-26908311D01*
X136313932Y-26920924D01*
X136291754Y-26931414D01*
X136268654Y-26939679D01*
X136244856Y-26945640D01*
X136220587Y-26949240D01*
X136196083Y-26950444D01*
X135271083Y-26950444D01*
X135246579Y-26949240D01*
X135222310Y-26945640D01*
X135198512Y-26939679D01*
X135175412Y-26931414D01*
X135153234Y-26920924D01*
X135132190Y-26908311D01*
X135112485Y-26893697D01*
X135094306Y-26877221D01*
X135077830Y-26859042D01*
X135063216Y-26839337D01*
X135050603Y-26818293D01*
X135040113Y-26796115D01*
X135031848Y-26773015D01*
X135025887Y-26749217D01*
X135022287Y-26724948D01*
X135021083Y-26700444D01*
X135021083Y-25450444D01*
X135022287Y-25425940D01*
X135025887Y-25401671D01*
X135031848Y-25377873D01*
X135040113Y-25354773D01*
X135050603Y-25332595D01*
X135063216Y-25311551D01*
X135077830Y-25291846D01*
X135094306Y-25273667D01*
X135112485Y-25257191D01*
X135132190Y-25242577D01*
X135153234Y-25229964D01*
X135175412Y-25219474D01*
X135198512Y-25211209D01*
X135222310Y-25205248D01*
X135246579Y-25201648D01*
X135271083Y-25200444D01*
X136196083Y-25200444D01*
X136220587Y-25201648D01*
X136220587Y-25201648D01*
G37*
D16*
X135733583Y-26075444D03*
D11*
G36*
X133244080Y-31932625D02*
G01*
X133268349Y-31936225D01*
X133292147Y-31942186D01*
X133315247Y-31950451D01*
X133337425Y-31960941D01*
X133358469Y-31973554D01*
X133378174Y-31988168D01*
X133396353Y-32004644D01*
X133412829Y-32022823D01*
X133427443Y-32042528D01*
X133440056Y-32063572D01*
X133450546Y-32085750D01*
X133458811Y-32108850D01*
X133464772Y-32132648D01*
X133468372Y-32156917D01*
X133469576Y-32181421D01*
X133469576Y-33431421D01*
X133468372Y-33455925D01*
X133464772Y-33480194D01*
X133458811Y-33503992D01*
X133450546Y-33527092D01*
X133440056Y-33549270D01*
X133427443Y-33570314D01*
X133412829Y-33590019D01*
X133396353Y-33608198D01*
X133378174Y-33624674D01*
X133358469Y-33639288D01*
X133337425Y-33651901D01*
X133315247Y-33662391D01*
X133292147Y-33670656D01*
X133268349Y-33676617D01*
X133244080Y-33680217D01*
X133219576Y-33681421D01*
X132294576Y-33681421D01*
X132270072Y-33680217D01*
X132245803Y-33676617D01*
X132222005Y-33670656D01*
X132198905Y-33662391D01*
X132176727Y-33651901D01*
X132155683Y-33639288D01*
X132135978Y-33624674D01*
X132117799Y-33608198D01*
X132101323Y-33590019D01*
X132086709Y-33570314D01*
X132074096Y-33549270D01*
X132063606Y-33527092D01*
X132055341Y-33503992D01*
X132049380Y-33480194D01*
X132045780Y-33455925D01*
X132044576Y-33431421D01*
X132044576Y-32181421D01*
X132045780Y-32156917D01*
X132049380Y-32132648D01*
X132055341Y-32108850D01*
X132063606Y-32085750D01*
X132074096Y-32063572D01*
X132086709Y-32042528D01*
X132101323Y-32022823D01*
X132117799Y-32004644D01*
X132135978Y-31988168D01*
X132155683Y-31973554D01*
X132176727Y-31960941D01*
X132198905Y-31950451D01*
X132222005Y-31942186D01*
X132245803Y-31936225D01*
X132270072Y-31932625D01*
X132294576Y-31931421D01*
X133219576Y-31931421D01*
X133244080Y-31932625D01*
X133244080Y-31932625D01*
G37*
D16*
X132757076Y-32806421D03*
D11*
G36*
X136219080Y-31932625D02*
G01*
X136243349Y-31936225D01*
X136267147Y-31942186D01*
X136290247Y-31950451D01*
X136312425Y-31960941D01*
X136333469Y-31973554D01*
X136353174Y-31988168D01*
X136371353Y-32004644D01*
X136387829Y-32022823D01*
X136402443Y-32042528D01*
X136415056Y-32063572D01*
X136425546Y-32085750D01*
X136433811Y-32108850D01*
X136439772Y-32132648D01*
X136443372Y-32156917D01*
X136444576Y-32181421D01*
X136444576Y-33431421D01*
X136443372Y-33455925D01*
X136439772Y-33480194D01*
X136433811Y-33503992D01*
X136425546Y-33527092D01*
X136415056Y-33549270D01*
X136402443Y-33570314D01*
X136387829Y-33590019D01*
X136371353Y-33608198D01*
X136353174Y-33624674D01*
X136333469Y-33639288D01*
X136312425Y-33651901D01*
X136290247Y-33662391D01*
X136267147Y-33670656D01*
X136243349Y-33676617D01*
X136219080Y-33680217D01*
X136194576Y-33681421D01*
X135269576Y-33681421D01*
X135245072Y-33680217D01*
X135220803Y-33676617D01*
X135197005Y-33670656D01*
X135173905Y-33662391D01*
X135151727Y-33651901D01*
X135130683Y-33639288D01*
X135110978Y-33624674D01*
X135092799Y-33608198D01*
X135076323Y-33590019D01*
X135061709Y-33570314D01*
X135049096Y-33549270D01*
X135038606Y-33527092D01*
X135030341Y-33503992D01*
X135024380Y-33480194D01*
X135020780Y-33455925D01*
X135019576Y-33431421D01*
X135019576Y-32181421D01*
X135020780Y-32156917D01*
X135024380Y-32132648D01*
X135030341Y-32108850D01*
X135038606Y-32085750D01*
X135049096Y-32063572D01*
X135061709Y-32042528D01*
X135076323Y-32022823D01*
X135092799Y-32004644D01*
X135110978Y-31988168D01*
X135130683Y-31973554D01*
X135151727Y-31960941D01*
X135173905Y-31950451D01*
X135197005Y-31942186D01*
X135220803Y-31936225D01*
X135245072Y-31932625D01*
X135269576Y-31931421D01*
X136194576Y-31931421D01*
X136219080Y-31932625D01*
X136219080Y-31932625D01*
G37*
D16*
X135732076Y-32806421D03*
D17*
X203182609Y-104584587D03*
X199582609Y-104584587D03*
D18*
X208942609Y-98996587D03*
X195092609Y-101536587D03*
D17*
X203182366Y-85533777D03*
X199582366Y-85533777D03*
D18*
X208942366Y-79945777D03*
X195092366Y-82485777D03*
D17*
X203182430Y-123634490D03*
X199582430Y-123634490D03*
D18*
X208942430Y-118046490D03*
X195092430Y-120586490D03*
D17*
X203182001Y-66487437D03*
X199582001Y-66487437D03*
D18*
X208942001Y-60899437D03*
X195092001Y-63439437D03*
D10*
X66891872Y-133178374D03*
D11*
G36*
X66734551Y-134024099D02*
G01*
X66142885Y-132755268D01*
X67049193Y-132332649D01*
X67640859Y-133601480D01*
X66734551Y-134024099D01*
X66734551Y-134024099D01*
G37*
D10*
X63629164Y-134699800D03*
D11*
G36*
X63471843Y-135545525D02*
G01*
X62880177Y-134276694D01*
X63786485Y-133854075D01*
X64378151Y-135122906D01*
X63471843Y-135545525D01*
X63471843Y-135545525D01*
G37*
D12*
X69750614Y-125679645D03*
D11*
G36*
X69123344Y-127351368D02*
G01*
X68066799Y-125085599D01*
X70377884Y-124007922D01*
X71434429Y-126273691D01*
X69123344Y-127351368D01*
X69123344Y-127351368D01*
G37*
D12*
X58271702Y-133834929D03*
D11*
G36*
X57644432Y-135506652D02*
G01*
X56587887Y-133240883D01*
X58898972Y-132163206D01*
X59955517Y-134428975D01*
X57644432Y-135506652D01*
X57644432Y-135506652D01*
G37*
D17*
X103101765Y-121729968D03*
X99501765Y-121729968D03*
D18*
X108861765Y-116141968D03*
X95011765Y-118681968D03*
D17*
X141202655Y-61711581D03*
X137602655Y-61711581D03*
D18*
X146962655Y-56123581D03*
X133112655Y-58663581D03*
D17*
X103101989Y-64581949D03*
X99501989Y-64581949D03*
D18*
X108861989Y-58993949D03*
X95011989Y-61533949D03*
D17*
X122151859Y-82359328D03*
X118551859Y-82359328D03*
D18*
X127911859Y-76771328D03*
X114061859Y-79311328D03*
D17*
X141202475Y-80761484D03*
X137602475Y-80761484D03*
D18*
X146962475Y-75173484D03*
X133112475Y-77713484D03*
D17*
X103101702Y-83629255D03*
X99501702Y-83629255D03*
D18*
X108861702Y-78041255D03*
X95011702Y-80581255D03*
D19*
X90379844Y-78464336D03*
X90379844Y-82064336D03*
D20*
X84791844Y-72704336D03*
X87331844Y-86554336D03*
D17*
X122152039Y-63309424D03*
X118552039Y-63309424D03*
D18*
X127912039Y-57721424D03*
X114062039Y-60261424D03*
D17*
X179302202Y-66486377D03*
X175702202Y-66486377D03*
D18*
X185062202Y-60898377D03*
X171212202Y-63438377D03*
D17*
X160251846Y-63309784D03*
X156651846Y-63309784D03*
D18*
X166011846Y-57721784D03*
X152161846Y-60261784D03*
D17*
X179302084Y-85534046D03*
X175702084Y-85534046D03*
D18*
X185062084Y-79946046D03*
X171212084Y-82486046D03*
D17*
X160252572Y-82359265D03*
X156652572Y-82359265D03*
D18*
X166012572Y-76771265D03*
X152162572Y-79311265D03*
D17*
X179302326Y-104584856D03*
X175702326Y-104584856D03*
D18*
X185062326Y-98996856D03*
X171212326Y-101536856D03*
D17*
X160252393Y-101409168D03*
X156652393Y-101409168D03*
D18*
X166012393Y-95821168D03*
X152162393Y-98361168D03*
D17*
X141202296Y-99811388D03*
X137602296Y-99811388D03*
D18*
X146962296Y-94223388D03*
X133112296Y-96763388D03*
D17*
X122152102Y-101410138D03*
X118552102Y-101410138D03*
D18*
X127912102Y-95822138D03*
X114062102Y-98362138D03*
D17*
X103101945Y-102680064D03*
X99501945Y-102680064D03*
D18*
X108861945Y-97092064D03*
X95011945Y-99632064D03*
D17*
X179302147Y-123634759D03*
X175702147Y-123634759D03*
D18*
X185062147Y-118046759D03*
X171212147Y-120586759D03*
D17*
X160252636Y-120459978D03*
X156652636Y-120459978D03*
D18*
X166012636Y-114871978D03*
X152162636Y-117411978D03*
D17*
X141202116Y-118861291D03*
X137602116Y-118861291D03*
D18*
X146962116Y-113273291D03*
X133112116Y-115813291D03*
D17*
X122151922Y-120460041D03*
X118551922Y-120460041D03*
D18*
X127911922Y-114872041D03*
X114061922Y-117412041D03*
D19*
X90380088Y-107038400D03*
X90380088Y-110638400D03*
D20*
X84792088Y-101278400D03*
X87332088Y-115128400D03*
D17*
X198351871Y-142684842D03*
X194751871Y-142684842D03*
D18*
X204111871Y-137096842D03*
X190261871Y-139636842D03*
D17*
X179301967Y-142684663D03*
X175701967Y-142684663D03*
D18*
X185061967Y-137096663D03*
X171211967Y-139636663D03*
D17*
X160252456Y-139509882D03*
X156652456Y-139509882D03*
D18*
X166012456Y-133921882D03*
X152162456Y-136461882D03*
D17*
X141202359Y-137912101D03*
X137602359Y-137912101D03*
D18*
X146962359Y-132324101D03*
X133112359Y-134864101D03*
D17*
X122152649Y-139509522D03*
X118552649Y-139509522D03*
D18*
X127912649Y-133921522D03*
X114062649Y-136461522D03*
D10*
X65728646Y-175759494D03*
D11*
G36*
X65571325Y-176605219D02*
G01*
X64979659Y-175336388D01*
X65885967Y-174913769D01*
X66477633Y-176182600D01*
X65571325Y-176605219D01*
X65571325Y-176605219D01*
G37*
D10*
X62465938Y-177280920D03*
D11*
G36*
X62308617Y-178126645D02*
G01*
X61716951Y-176857814D01*
X62623259Y-176435195D01*
X63214925Y-177704026D01*
X62308617Y-178126645D01*
X62308617Y-178126645D01*
G37*
D12*
X68587388Y-168260765D03*
D11*
G36*
X67960118Y-169932488D02*
G01*
X66903573Y-167666719D01*
X69214658Y-166589042D01*
X70271203Y-168854811D01*
X67960118Y-169932488D01*
X67960118Y-169932488D01*
G37*
D12*
X57108476Y-176416049D03*
D11*
G36*
X56481206Y-178087772D02*
G01*
X55424661Y-175822003D01*
X57735746Y-174744326D01*
X58792291Y-177010095D01*
X56481206Y-178087772D01*
X56481206Y-178087772D01*
G37*
D10*
X97770600Y-139351868D03*
D11*
G36*
X98616325Y-139509189D02*
G01*
X97347494Y-140100855D01*
X96924875Y-139194547D01*
X98193706Y-138602881D01*
X98616325Y-139509189D01*
X98616325Y-139509189D01*
G37*
D10*
X99292026Y-142614576D03*
D11*
G36*
X100137751Y-142771897D02*
G01*
X98868920Y-143363563D01*
X98446301Y-142457255D01*
X99715132Y-141865589D01*
X100137751Y-142771897D01*
X100137751Y-142771897D01*
G37*
D12*
X90271871Y-136493126D03*
D11*
G36*
X91943594Y-137120396D02*
G01*
X89677825Y-138176941D01*
X88600148Y-135865856D01*
X90865917Y-134809311D01*
X91943594Y-137120396D01*
X91943594Y-137120396D01*
G37*
D12*
X98427155Y-147972038D03*
D11*
G36*
X100098878Y-148599308D02*
G01*
X97833109Y-149655853D01*
X96755432Y-147344768D01*
X99021201Y-146288223D01*
X100098878Y-148599308D01*
X100098878Y-148599308D01*
G37*
D10*
X57676832Y-158492560D03*
D11*
G36*
X57519511Y-159338285D02*
G01*
X56927845Y-158069454D01*
X57834153Y-157646835D01*
X58425819Y-158915666D01*
X57519511Y-159338285D01*
X57519511Y-159338285D01*
G37*
D10*
X54414124Y-160013986D03*
D11*
G36*
X54256803Y-160859711D02*
G01*
X53665137Y-159590880D01*
X54571445Y-159168261D01*
X55163111Y-160437092D01*
X54256803Y-160859711D01*
X54256803Y-160859711D01*
G37*
D12*
X60535574Y-150993831D03*
D11*
G36*
X59908304Y-152665554D02*
G01*
X58851759Y-150399785D01*
X61162844Y-149322108D01*
X62219389Y-151587877D01*
X59908304Y-152665554D01*
X59908304Y-152665554D01*
G37*
D12*
X49056662Y-159149115D03*
D11*
G36*
X48429392Y-160820838D02*
G01*
X47372847Y-158555069D01*
X49683932Y-157477392D01*
X50740477Y-159743161D01*
X48429392Y-160820838D01*
X48429392Y-160820838D01*
G37*
D17*
X84052128Y-64581860D03*
X80452128Y-64581860D03*
D18*
X89812128Y-58993860D03*
X75962128Y-61533860D03*
D11*
G36*
X118073939Y-26916082D02*
G01*
X118098208Y-26919682D01*
X118122006Y-26925643D01*
X118145106Y-26933908D01*
X118167284Y-26944398D01*
X118188328Y-26957011D01*
X118208033Y-26971625D01*
X118226212Y-26988101D01*
X118242688Y-27006280D01*
X118257302Y-27025985D01*
X118269915Y-27047029D01*
X118280405Y-27069207D01*
X118288670Y-27092307D01*
X118294631Y-27116105D01*
X118298231Y-27140374D01*
X118299435Y-27164878D01*
X118299435Y-28414878D01*
X118298231Y-28439382D01*
X118294631Y-28463651D01*
X118288670Y-28487449D01*
X118280405Y-28510549D01*
X118269915Y-28532727D01*
X118257302Y-28553771D01*
X118242688Y-28573476D01*
X118226212Y-28591655D01*
X118208033Y-28608131D01*
X118188328Y-28622745D01*
X118167284Y-28635358D01*
X118145106Y-28645848D01*
X118122006Y-28654113D01*
X118098208Y-28660074D01*
X118073939Y-28663674D01*
X118049435Y-28664878D01*
X117124435Y-28664878D01*
X117099931Y-28663674D01*
X117075662Y-28660074D01*
X117051864Y-28654113D01*
X117028764Y-28645848D01*
X117006586Y-28635358D01*
X116985542Y-28622745D01*
X116965837Y-28608131D01*
X116947658Y-28591655D01*
X116931182Y-28573476D01*
X116916568Y-28553771D01*
X116903955Y-28532727D01*
X116893465Y-28510549D01*
X116885200Y-28487449D01*
X116879239Y-28463651D01*
X116875639Y-28439382D01*
X116874435Y-28414878D01*
X116874435Y-27164878D01*
X116875639Y-27140374D01*
X116879239Y-27116105D01*
X116885200Y-27092307D01*
X116893465Y-27069207D01*
X116903955Y-27047029D01*
X116916568Y-27025985D01*
X116931182Y-27006280D01*
X116947658Y-26988101D01*
X116965837Y-26971625D01*
X116985542Y-26957011D01*
X117006586Y-26944398D01*
X117028764Y-26933908D01*
X117051864Y-26925643D01*
X117075662Y-26919682D01*
X117099931Y-26916082D01*
X117124435Y-26914878D01*
X118049435Y-26914878D01*
X118073939Y-26916082D01*
X118073939Y-26916082D01*
G37*
D16*
X117586935Y-27789878D03*
D11*
G36*
X115098939Y-26916082D02*
G01*
X115123208Y-26919682D01*
X115147006Y-26925643D01*
X115170106Y-26933908D01*
X115192284Y-26944398D01*
X115213328Y-26957011D01*
X115233033Y-26971625D01*
X115251212Y-26988101D01*
X115267688Y-27006280D01*
X115282302Y-27025985D01*
X115294915Y-27047029D01*
X115305405Y-27069207D01*
X115313670Y-27092307D01*
X115319631Y-27116105D01*
X115323231Y-27140374D01*
X115324435Y-27164878D01*
X115324435Y-28414878D01*
X115323231Y-28439382D01*
X115319631Y-28463651D01*
X115313670Y-28487449D01*
X115305405Y-28510549D01*
X115294915Y-28532727D01*
X115282302Y-28553771D01*
X115267688Y-28573476D01*
X115251212Y-28591655D01*
X115233033Y-28608131D01*
X115213328Y-28622745D01*
X115192284Y-28635358D01*
X115170106Y-28645848D01*
X115147006Y-28654113D01*
X115123208Y-28660074D01*
X115098939Y-28663674D01*
X115074435Y-28664878D01*
X114149435Y-28664878D01*
X114124931Y-28663674D01*
X114100662Y-28660074D01*
X114076864Y-28654113D01*
X114053764Y-28645848D01*
X114031586Y-28635358D01*
X114010542Y-28622745D01*
X113990837Y-28608131D01*
X113972658Y-28591655D01*
X113956182Y-28573476D01*
X113941568Y-28553771D01*
X113928955Y-28532727D01*
X113918465Y-28510549D01*
X113910200Y-28487449D01*
X113904239Y-28463651D01*
X113900639Y-28439382D01*
X113899435Y-28414878D01*
X113899435Y-27164878D01*
X113900639Y-27140374D01*
X113904239Y-27116105D01*
X113910200Y-27092307D01*
X113918465Y-27069207D01*
X113928955Y-27047029D01*
X113941568Y-27025985D01*
X113956182Y-27006280D01*
X113972658Y-26988101D01*
X113990837Y-26971625D01*
X114010542Y-26957011D01*
X114031586Y-26944398D01*
X114053764Y-26933908D01*
X114076864Y-26925643D01*
X114100662Y-26919682D01*
X114124931Y-26916082D01*
X114149435Y-26914878D01*
X115074435Y-26914878D01*
X115098939Y-26916082D01*
X115098939Y-26916082D01*
G37*
D16*
X114611935Y-27789878D03*
D11*
G36*
X118074038Y-30205315D02*
G01*
X118098307Y-30208915D01*
X118122105Y-30214876D01*
X118145205Y-30223141D01*
X118167383Y-30233631D01*
X118188427Y-30246244D01*
X118208132Y-30260858D01*
X118226311Y-30277334D01*
X118242787Y-30295513D01*
X118257401Y-30315218D01*
X118270014Y-30336262D01*
X118280504Y-30358440D01*
X118288769Y-30381540D01*
X118294730Y-30405338D01*
X118298330Y-30429607D01*
X118299534Y-30454111D01*
X118299534Y-31704111D01*
X118298330Y-31728615D01*
X118294730Y-31752884D01*
X118288769Y-31776682D01*
X118280504Y-31799782D01*
X118270014Y-31821960D01*
X118257401Y-31843004D01*
X118242787Y-31862709D01*
X118226311Y-31880888D01*
X118208132Y-31897364D01*
X118188427Y-31911978D01*
X118167383Y-31924591D01*
X118145205Y-31935081D01*
X118122105Y-31943346D01*
X118098307Y-31949307D01*
X118074038Y-31952907D01*
X118049534Y-31954111D01*
X117124534Y-31954111D01*
X117100030Y-31952907D01*
X117075761Y-31949307D01*
X117051963Y-31943346D01*
X117028863Y-31935081D01*
X117006685Y-31924591D01*
X116985641Y-31911978D01*
X116965936Y-31897364D01*
X116947757Y-31880888D01*
X116931281Y-31862709D01*
X116916667Y-31843004D01*
X116904054Y-31821960D01*
X116893564Y-31799782D01*
X116885299Y-31776682D01*
X116879338Y-31752884D01*
X116875738Y-31728615D01*
X116874534Y-31704111D01*
X116874534Y-30454111D01*
X116875738Y-30429607D01*
X116879338Y-30405338D01*
X116885299Y-30381540D01*
X116893564Y-30358440D01*
X116904054Y-30336262D01*
X116916667Y-30315218D01*
X116931281Y-30295513D01*
X116947757Y-30277334D01*
X116965936Y-30260858D01*
X116985641Y-30246244D01*
X117006685Y-30233631D01*
X117028863Y-30223141D01*
X117051963Y-30214876D01*
X117075761Y-30208915D01*
X117100030Y-30205315D01*
X117124534Y-30204111D01*
X118049534Y-30204111D01*
X118074038Y-30205315D01*
X118074038Y-30205315D01*
G37*
D16*
X117587034Y-31079111D03*
D11*
G36*
X115099038Y-30205315D02*
G01*
X115123307Y-30208915D01*
X115147105Y-30214876D01*
X115170205Y-30223141D01*
X115192383Y-30233631D01*
X115213427Y-30246244D01*
X115233132Y-30260858D01*
X115251311Y-30277334D01*
X115267787Y-30295513D01*
X115282401Y-30315218D01*
X115295014Y-30336262D01*
X115305504Y-30358440D01*
X115313769Y-30381540D01*
X115319730Y-30405338D01*
X115323330Y-30429607D01*
X115324534Y-30454111D01*
X115324534Y-31704111D01*
X115323330Y-31728615D01*
X115319730Y-31752884D01*
X115313769Y-31776682D01*
X115305504Y-31799782D01*
X115295014Y-31821960D01*
X115282401Y-31843004D01*
X115267787Y-31862709D01*
X115251311Y-31880888D01*
X115233132Y-31897364D01*
X115213427Y-31911978D01*
X115192383Y-31924591D01*
X115170205Y-31935081D01*
X115147105Y-31943346D01*
X115123307Y-31949307D01*
X115099038Y-31952907D01*
X115074534Y-31954111D01*
X114149534Y-31954111D01*
X114125030Y-31952907D01*
X114100761Y-31949307D01*
X114076963Y-31943346D01*
X114053863Y-31935081D01*
X114031685Y-31924591D01*
X114010641Y-31911978D01*
X113990936Y-31897364D01*
X113972757Y-31880888D01*
X113956281Y-31862709D01*
X113941667Y-31843004D01*
X113929054Y-31821960D01*
X113918564Y-31799782D01*
X113910299Y-31776682D01*
X113904338Y-31752884D01*
X113900738Y-31728615D01*
X113899534Y-31704111D01*
X113899534Y-30454111D01*
X113900738Y-30429607D01*
X113904338Y-30405338D01*
X113910299Y-30381540D01*
X113918564Y-30358440D01*
X113929054Y-30336262D01*
X113941667Y-30315218D01*
X113956281Y-30295513D01*
X113972757Y-30277334D01*
X113990936Y-30260858D01*
X114010641Y-30246244D01*
X114031685Y-30233631D01*
X114053863Y-30223141D01*
X114076963Y-30214876D01*
X114100761Y-30208915D01*
X114125030Y-30205315D01*
X114149534Y-30204111D01*
X115074534Y-30204111D01*
X115099038Y-30205315D01*
X115099038Y-30205315D01*
G37*
D16*
X114612034Y-31079111D03*
D11*
G36*
X82829145Y-40525401D02*
G01*
X82853414Y-40529001D01*
X82877212Y-40534962D01*
X82900312Y-40543227D01*
X82922490Y-40553717D01*
X82943534Y-40566330D01*
X82963239Y-40580944D01*
X82981418Y-40597420D01*
X82997894Y-40615599D01*
X83012508Y-40635304D01*
X83025121Y-40656348D01*
X83035611Y-40678526D01*
X83043876Y-40701626D01*
X83049837Y-40725424D01*
X83053437Y-40749693D01*
X83054641Y-40774197D01*
X83054641Y-41699197D01*
X83053437Y-41723701D01*
X83049837Y-41747970D01*
X83043876Y-41771768D01*
X83035611Y-41794868D01*
X83025121Y-41817046D01*
X83012508Y-41838090D01*
X82997894Y-41857795D01*
X82981418Y-41875974D01*
X82963239Y-41892450D01*
X82943534Y-41907064D01*
X82922490Y-41919677D01*
X82900312Y-41930167D01*
X82877212Y-41938432D01*
X82853414Y-41944393D01*
X82829145Y-41947993D01*
X82804641Y-41949197D01*
X81554641Y-41949197D01*
X81530137Y-41947993D01*
X81505868Y-41944393D01*
X81482070Y-41938432D01*
X81458970Y-41930167D01*
X81436792Y-41919677D01*
X81415748Y-41907064D01*
X81396043Y-41892450D01*
X81377864Y-41875974D01*
X81361388Y-41857795D01*
X81346774Y-41838090D01*
X81334161Y-41817046D01*
X81323671Y-41794868D01*
X81315406Y-41771768D01*
X81309445Y-41747970D01*
X81305845Y-41723701D01*
X81304641Y-41699197D01*
X81304641Y-40774197D01*
X81305845Y-40749693D01*
X81309445Y-40725424D01*
X81315406Y-40701626D01*
X81323671Y-40678526D01*
X81334161Y-40656348D01*
X81346774Y-40635304D01*
X81361388Y-40615599D01*
X81377864Y-40597420D01*
X81396043Y-40580944D01*
X81415748Y-40566330D01*
X81436792Y-40553717D01*
X81458970Y-40543227D01*
X81482070Y-40534962D01*
X81505868Y-40529001D01*
X81530137Y-40525401D01*
X81554641Y-40524197D01*
X82804641Y-40524197D01*
X82829145Y-40525401D01*
X82829145Y-40525401D01*
G37*
D16*
X82179641Y-41236697D03*
D11*
G36*
X82829145Y-37550401D02*
G01*
X82853414Y-37554001D01*
X82877212Y-37559962D01*
X82900312Y-37568227D01*
X82922490Y-37578717D01*
X82943534Y-37591330D01*
X82963239Y-37605944D01*
X82981418Y-37622420D01*
X82997894Y-37640599D01*
X83012508Y-37660304D01*
X83025121Y-37681348D01*
X83035611Y-37703526D01*
X83043876Y-37726626D01*
X83049837Y-37750424D01*
X83053437Y-37774693D01*
X83054641Y-37799197D01*
X83054641Y-38724197D01*
X83053437Y-38748701D01*
X83049837Y-38772970D01*
X83043876Y-38796768D01*
X83035611Y-38819868D01*
X83025121Y-38842046D01*
X83012508Y-38863090D01*
X82997894Y-38882795D01*
X82981418Y-38900974D01*
X82963239Y-38917450D01*
X82943534Y-38932064D01*
X82922490Y-38944677D01*
X82900312Y-38955167D01*
X82877212Y-38963432D01*
X82853414Y-38969393D01*
X82829145Y-38972993D01*
X82804641Y-38974197D01*
X81554641Y-38974197D01*
X81530137Y-38972993D01*
X81505868Y-38969393D01*
X81482070Y-38963432D01*
X81458970Y-38955167D01*
X81436792Y-38944677D01*
X81415748Y-38932064D01*
X81396043Y-38917450D01*
X81377864Y-38900974D01*
X81361388Y-38882795D01*
X81346774Y-38863090D01*
X81334161Y-38842046D01*
X81323671Y-38819868D01*
X81315406Y-38796768D01*
X81309445Y-38772970D01*
X81305845Y-38748701D01*
X81304641Y-38724197D01*
X81304641Y-37799197D01*
X81305845Y-37774693D01*
X81309445Y-37750424D01*
X81315406Y-37726626D01*
X81323671Y-37703526D01*
X81334161Y-37681348D01*
X81346774Y-37660304D01*
X81361388Y-37640599D01*
X81377864Y-37622420D01*
X81396043Y-37605944D01*
X81415748Y-37591330D01*
X81436792Y-37578717D01*
X81458970Y-37568227D01*
X81482070Y-37559962D01*
X81505868Y-37554001D01*
X81530137Y-37550401D01*
X81554641Y-37549197D01*
X82804641Y-37549197D01*
X82829145Y-37550401D01*
X82829145Y-37550401D01*
G37*
D16*
X82179641Y-38261697D03*
D11*
G36*
X86130370Y-40525227D02*
G01*
X86154639Y-40528827D01*
X86178437Y-40534788D01*
X86201537Y-40543053D01*
X86223715Y-40553543D01*
X86244759Y-40566156D01*
X86264464Y-40580770D01*
X86282643Y-40597246D01*
X86299119Y-40615425D01*
X86313733Y-40635130D01*
X86326346Y-40656174D01*
X86336836Y-40678352D01*
X86345101Y-40701452D01*
X86351062Y-40725250D01*
X86354662Y-40749519D01*
X86355866Y-40774023D01*
X86355866Y-41699023D01*
X86354662Y-41723527D01*
X86351062Y-41747796D01*
X86345101Y-41771594D01*
X86336836Y-41794694D01*
X86326346Y-41816872D01*
X86313733Y-41837916D01*
X86299119Y-41857621D01*
X86282643Y-41875800D01*
X86264464Y-41892276D01*
X86244759Y-41906890D01*
X86223715Y-41919503D01*
X86201537Y-41929993D01*
X86178437Y-41938258D01*
X86154639Y-41944219D01*
X86130370Y-41947819D01*
X86105866Y-41949023D01*
X84855866Y-41949023D01*
X84831362Y-41947819D01*
X84807093Y-41944219D01*
X84783295Y-41938258D01*
X84760195Y-41929993D01*
X84738017Y-41919503D01*
X84716973Y-41906890D01*
X84697268Y-41892276D01*
X84679089Y-41875800D01*
X84662613Y-41857621D01*
X84647999Y-41837916D01*
X84635386Y-41816872D01*
X84624896Y-41794694D01*
X84616631Y-41771594D01*
X84610670Y-41747796D01*
X84607070Y-41723527D01*
X84605866Y-41699023D01*
X84605866Y-40774023D01*
X84607070Y-40749519D01*
X84610670Y-40725250D01*
X84616631Y-40701452D01*
X84624896Y-40678352D01*
X84635386Y-40656174D01*
X84647999Y-40635130D01*
X84662613Y-40615425D01*
X84679089Y-40597246D01*
X84697268Y-40580770D01*
X84716973Y-40566156D01*
X84738017Y-40553543D01*
X84760195Y-40543053D01*
X84783295Y-40534788D01*
X84807093Y-40528827D01*
X84831362Y-40525227D01*
X84855866Y-40524023D01*
X86105866Y-40524023D01*
X86130370Y-40525227D01*
X86130370Y-40525227D01*
G37*
D16*
X85480866Y-41236523D03*
D11*
G36*
X86130370Y-37550227D02*
G01*
X86154639Y-37553827D01*
X86178437Y-37559788D01*
X86201537Y-37568053D01*
X86223715Y-37578543D01*
X86244759Y-37591156D01*
X86264464Y-37605770D01*
X86282643Y-37622246D01*
X86299119Y-37640425D01*
X86313733Y-37660130D01*
X86326346Y-37681174D01*
X86336836Y-37703352D01*
X86345101Y-37726452D01*
X86351062Y-37750250D01*
X86354662Y-37774519D01*
X86355866Y-37799023D01*
X86355866Y-38724023D01*
X86354662Y-38748527D01*
X86351062Y-38772796D01*
X86345101Y-38796594D01*
X86336836Y-38819694D01*
X86326346Y-38841872D01*
X86313733Y-38862916D01*
X86299119Y-38882621D01*
X86282643Y-38900800D01*
X86264464Y-38917276D01*
X86244759Y-38931890D01*
X86223715Y-38944503D01*
X86201537Y-38954993D01*
X86178437Y-38963258D01*
X86154639Y-38969219D01*
X86130370Y-38972819D01*
X86105866Y-38974023D01*
X84855866Y-38974023D01*
X84831362Y-38972819D01*
X84807093Y-38969219D01*
X84783295Y-38963258D01*
X84760195Y-38954993D01*
X84738017Y-38944503D01*
X84716973Y-38931890D01*
X84697268Y-38917276D01*
X84679089Y-38900800D01*
X84662613Y-38882621D01*
X84647999Y-38862916D01*
X84635386Y-38841872D01*
X84624896Y-38819694D01*
X84616631Y-38796594D01*
X84610670Y-38772796D01*
X84607070Y-38748527D01*
X84605866Y-38724023D01*
X84605866Y-37799023D01*
X84607070Y-37774519D01*
X84610670Y-37750250D01*
X84616631Y-37726452D01*
X84624896Y-37703352D01*
X84635386Y-37681174D01*
X84647999Y-37660130D01*
X84662613Y-37640425D01*
X84679089Y-37622246D01*
X84697268Y-37605770D01*
X84716973Y-37591156D01*
X84738017Y-37578543D01*
X84760195Y-37568053D01*
X84783295Y-37559788D01*
X84807093Y-37553827D01*
X84831362Y-37550227D01*
X84855866Y-37549023D01*
X86105866Y-37549023D01*
X86130370Y-37550227D01*
X86130370Y-37550227D01*
G37*
D16*
X85480866Y-38261523D03*
D11*
G36*
X89521109Y-40525350D02*
G01*
X89545378Y-40528950D01*
X89569176Y-40534911D01*
X89592276Y-40543176D01*
X89614454Y-40553666D01*
X89635498Y-40566279D01*
X89655203Y-40580893D01*
X89673382Y-40597369D01*
X89689858Y-40615548D01*
X89704472Y-40635253D01*
X89717085Y-40656297D01*
X89727575Y-40678475D01*
X89735840Y-40701575D01*
X89741801Y-40725373D01*
X89745401Y-40749642D01*
X89746605Y-40774146D01*
X89746605Y-41699146D01*
X89745401Y-41723650D01*
X89741801Y-41747919D01*
X89735840Y-41771717D01*
X89727575Y-41794817D01*
X89717085Y-41816995D01*
X89704472Y-41838039D01*
X89689858Y-41857744D01*
X89673382Y-41875923D01*
X89655203Y-41892399D01*
X89635498Y-41907013D01*
X89614454Y-41919626D01*
X89592276Y-41930116D01*
X89569176Y-41938381D01*
X89545378Y-41944342D01*
X89521109Y-41947942D01*
X89496605Y-41949146D01*
X88246605Y-41949146D01*
X88222101Y-41947942D01*
X88197832Y-41944342D01*
X88174034Y-41938381D01*
X88150934Y-41930116D01*
X88128756Y-41919626D01*
X88107712Y-41907013D01*
X88088007Y-41892399D01*
X88069828Y-41875923D01*
X88053352Y-41857744D01*
X88038738Y-41838039D01*
X88026125Y-41816995D01*
X88015635Y-41794817D01*
X88007370Y-41771717D01*
X88001409Y-41747919D01*
X87997809Y-41723650D01*
X87996605Y-41699146D01*
X87996605Y-40774146D01*
X87997809Y-40749642D01*
X88001409Y-40725373D01*
X88007370Y-40701575D01*
X88015635Y-40678475D01*
X88026125Y-40656297D01*
X88038738Y-40635253D01*
X88053352Y-40615548D01*
X88069828Y-40597369D01*
X88088007Y-40580893D01*
X88107712Y-40566279D01*
X88128756Y-40553666D01*
X88150934Y-40543176D01*
X88174034Y-40534911D01*
X88197832Y-40528950D01*
X88222101Y-40525350D01*
X88246605Y-40524146D01*
X89496605Y-40524146D01*
X89521109Y-40525350D01*
X89521109Y-40525350D01*
G37*
D16*
X88871605Y-41236646D03*
D11*
G36*
X89521109Y-37550350D02*
G01*
X89545378Y-37553950D01*
X89569176Y-37559911D01*
X89592276Y-37568176D01*
X89614454Y-37578666D01*
X89635498Y-37591279D01*
X89655203Y-37605893D01*
X89673382Y-37622369D01*
X89689858Y-37640548D01*
X89704472Y-37660253D01*
X89717085Y-37681297D01*
X89727575Y-37703475D01*
X89735840Y-37726575D01*
X89741801Y-37750373D01*
X89745401Y-37774642D01*
X89746605Y-37799146D01*
X89746605Y-38724146D01*
X89745401Y-38748650D01*
X89741801Y-38772919D01*
X89735840Y-38796717D01*
X89727575Y-38819817D01*
X89717085Y-38841995D01*
X89704472Y-38863039D01*
X89689858Y-38882744D01*
X89673382Y-38900923D01*
X89655203Y-38917399D01*
X89635498Y-38932013D01*
X89614454Y-38944626D01*
X89592276Y-38955116D01*
X89569176Y-38963381D01*
X89545378Y-38969342D01*
X89521109Y-38972942D01*
X89496605Y-38974146D01*
X88246605Y-38974146D01*
X88222101Y-38972942D01*
X88197832Y-38969342D01*
X88174034Y-38963381D01*
X88150934Y-38955116D01*
X88128756Y-38944626D01*
X88107712Y-38932013D01*
X88088007Y-38917399D01*
X88069828Y-38900923D01*
X88053352Y-38882744D01*
X88038738Y-38863039D01*
X88026125Y-38841995D01*
X88015635Y-38819817D01*
X88007370Y-38796717D01*
X88001409Y-38772919D01*
X87997809Y-38748650D01*
X87996605Y-38724146D01*
X87996605Y-37799146D01*
X87997809Y-37774642D01*
X88001409Y-37750373D01*
X88007370Y-37726575D01*
X88015635Y-37703475D01*
X88026125Y-37681297D01*
X88038738Y-37660253D01*
X88053352Y-37640548D01*
X88069828Y-37622369D01*
X88088007Y-37605893D01*
X88107712Y-37591279D01*
X88128756Y-37578666D01*
X88150934Y-37568176D01*
X88174034Y-37559911D01*
X88197832Y-37553950D01*
X88222101Y-37550350D01*
X88246605Y-37549146D01*
X89496605Y-37549146D01*
X89521109Y-37550350D01*
X89521109Y-37550350D01*
G37*
D16*
X88871605Y-38261646D03*
M02*
