G04 #@! TF.GenerationSoftware,KiCad,Pcbnew,(5.1.4)-1*
G04 #@! TF.CreationDate,2019-09-12T01:17:16+08:00*
G04 #@! TF.ProjectId,ErgoDoxTW,4572676f-446f-4785-9457-2e6b69636164,rev?*
G04 #@! TF.SameCoordinates,Original*
G04 #@! TF.FileFunction,Paste,Bot*
G04 #@! TF.FilePolarity,Positive*
%FSLAX46Y46*%
G04 Gerber Fmt 4.6, Leading zero omitted, Abs format (unit mm)*
G04 Created by KiCad (PCBNEW (5.1.4)-1) date 2019-09-12 01:17:16*
%MOMM*%
%LPD*%
G04 APERTURE LIST*
%ADD10C,0.150000*%
%ADD11C,1.425000*%
%ADD12R,1.000000X1.400000*%
%ADD13R,2.550000X2.500000*%
%ADD14C,1.000000*%
%ADD15C,2.500000*%
%ADD16R,1.400000X1.000000*%
%ADD17R,2.500000X2.550000*%
%ADD18R,0.600000X1.800000*%
%ADD19R,0.300000X1.800000*%
%ADD20C,0.300000*%
G04 APERTURE END LIST*
D10*
G36*
X123383304Y-33848004D02*
G01*
X123407573Y-33851604D01*
X123431371Y-33857565D01*
X123454471Y-33865830D01*
X123476649Y-33876320D01*
X123497693Y-33888933D01*
X123517398Y-33903547D01*
X123535577Y-33920023D01*
X123552053Y-33938202D01*
X123566667Y-33957907D01*
X123579280Y-33978951D01*
X123589770Y-34001129D01*
X123598035Y-34024229D01*
X123603996Y-34048027D01*
X123607596Y-34072296D01*
X123608800Y-34096800D01*
X123608800Y-35346800D01*
X123607596Y-35371304D01*
X123603996Y-35395573D01*
X123598035Y-35419371D01*
X123589770Y-35442471D01*
X123579280Y-35464649D01*
X123566667Y-35485693D01*
X123552053Y-35505398D01*
X123535577Y-35523577D01*
X123517398Y-35540053D01*
X123497693Y-35554667D01*
X123476649Y-35567280D01*
X123454471Y-35577770D01*
X123431371Y-35586035D01*
X123407573Y-35591996D01*
X123383304Y-35595596D01*
X123358800Y-35596800D01*
X122433800Y-35596800D01*
X122409296Y-35595596D01*
X122385027Y-35591996D01*
X122361229Y-35586035D01*
X122338129Y-35577770D01*
X122315951Y-35567280D01*
X122294907Y-35554667D01*
X122275202Y-35540053D01*
X122257023Y-35523577D01*
X122240547Y-35505398D01*
X122225933Y-35485693D01*
X122213320Y-35464649D01*
X122202830Y-35442471D01*
X122194565Y-35419371D01*
X122188604Y-35395573D01*
X122185004Y-35371304D01*
X122183800Y-35346800D01*
X122183800Y-34096800D01*
X122185004Y-34072296D01*
X122188604Y-34048027D01*
X122194565Y-34024229D01*
X122202830Y-34001129D01*
X122213320Y-33978951D01*
X122225933Y-33957907D01*
X122240547Y-33938202D01*
X122257023Y-33920023D01*
X122275202Y-33903547D01*
X122294907Y-33888933D01*
X122315951Y-33876320D01*
X122338129Y-33865830D01*
X122361229Y-33857565D01*
X122385027Y-33851604D01*
X122409296Y-33848004D01*
X122433800Y-33846800D01*
X123358800Y-33846800D01*
X123383304Y-33848004D01*
X123383304Y-33848004D01*
G37*
D11*
X122896300Y-34721800D03*
D10*
G36*
X126358304Y-33848004D02*
G01*
X126382573Y-33851604D01*
X126406371Y-33857565D01*
X126429471Y-33865830D01*
X126451649Y-33876320D01*
X126472693Y-33888933D01*
X126492398Y-33903547D01*
X126510577Y-33920023D01*
X126527053Y-33938202D01*
X126541667Y-33957907D01*
X126554280Y-33978951D01*
X126564770Y-34001129D01*
X126573035Y-34024229D01*
X126578996Y-34048027D01*
X126582596Y-34072296D01*
X126583800Y-34096800D01*
X126583800Y-35346800D01*
X126582596Y-35371304D01*
X126578996Y-35395573D01*
X126573035Y-35419371D01*
X126564770Y-35442471D01*
X126554280Y-35464649D01*
X126541667Y-35485693D01*
X126527053Y-35505398D01*
X126510577Y-35523577D01*
X126492398Y-35540053D01*
X126472693Y-35554667D01*
X126451649Y-35567280D01*
X126429471Y-35577770D01*
X126406371Y-35586035D01*
X126382573Y-35591996D01*
X126358304Y-35595596D01*
X126333800Y-35596800D01*
X125408800Y-35596800D01*
X125384296Y-35595596D01*
X125360027Y-35591996D01*
X125336229Y-35586035D01*
X125313129Y-35577770D01*
X125290951Y-35567280D01*
X125269907Y-35554667D01*
X125250202Y-35540053D01*
X125232023Y-35523577D01*
X125215547Y-35505398D01*
X125200933Y-35485693D01*
X125188320Y-35464649D01*
X125177830Y-35442471D01*
X125169565Y-35419371D01*
X125163604Y-35395573D01*
X125160004Y-35371304D01*
X125158800Y-35346800D01*
X125158800Y-34096800D01*
X125160004Y-34072296D01*
X125163604Y-34048027D01*
X125169565Y-34024229D01*
X125177830Y-34001129D01*
X125188320Y-33978951D01*
X125200933Y-33957907D01*
X125215547Y-33938202D01*
X125232023Y-33920023D01*
X125250202Y-33903547D01*
X125269907Y-33888933D01*
X125290951Y-33876320D01*
X125313129Y-33865830D01*
X125336229Y-33857565D01*
X125360027Y-33851604D01*
X125384296Y-33848004D01*
X125408800Y-33846800D01*
X126333800Y-33846800D01*
X126358304Y-33848004D01*
X126358304Y-33848004D01*
G37*
D11*
X125871300Y-34721800D03*
D10*
G36*
X123381704Y-40579004D02*
G01*
X123405973Y-40582604D01*
X123429771Y-40588565D01*
X123452871Y-40596830D01*
X123475049Y-40607320D01*
X123496093Y-40619933D01*
X123515798Y-40634547D01*
X123533977Y-40651023D01*
X123550453Y-40669202D01*
X123565067Y-40688907D01*
X123577680Y-40709951D01*
X123588170Y-40732129D01*
X123596435Y-40755229D01*
X123602396Y-40779027D01*
X123605996Y-40803296D01*
X123607200Y-40827800D01*
X123607200Y-42077800D01*
X123605996Y-42102304D01*
X123602396Y-42126573D01*
X123596435Y-42150371D01*
X123588170Y-42173471D01*
X123577680Y-42195649D01*
X123565067Y-42216693D01*
X123550453Y-42236398D01*
X123533977Y-42254577D01*
X123515798Y-42271053D01*
X123496093Y-42285667D01*
X123475049Y-42298280D01*
X123452871Y-42308770D01*
X123429771Y-42317035D01*
X123405973Y-42322996D01*
X123381704Y-42326596D01*
X123357200Y-42327800D01*
X122432200Y-42327800D01*
X122407696Y-42326596D01*
X122383427Y-42322996D01*
X122359629Y-42317035D01*
X122336529Y-42308770D01*
X122314351Y-42298280D01*
X122293307Y-42285667D01*
X122273602Y-42271053D01*
X122255423Y-42254577D01*
X122238947Y-42236398D01*
X122224333Y-42216693D01*
X122211720Y-42195649D01*
X122201230Y-42173471D01*
X122192965Y-42150371D01*
X122187004Y-42126573D01*
X122183404Y-42102304D01*
X122182200Y-42077800D01*
X122182200Y-40827800D01*
X122183404Y-40803296D01*
X122187004Y-40779027D01*
X122192965Y-40755229D01*
X122201230Y-40732129D01*
X122211720Y-40709951D01*
X122224333Y-40688907D01*
X122238947Y-40669202D01*
X122255423Y-40651023D01*
X122273602Y-40634547D01*
X122293307Y-40619933D01*
X122314351Y-40607320D01*
X122336529Y-40596830D01*
X122359629Y-40588565D01*
X122383427Y-40582604D01*
X122407696Y-40579004D01*
X122432200Y-40577800D01*
X123357200Y-40577800D01*
X123381704Y-40579004D01*
X123381704Y-40579004D01*
G37*
D11*
X122894700Y-41452800D03*
D10*
G36*
X126356704Y-40579004D02*
G01*
X126380973Y-40582604D01*
X126404771Y-40588565D01*
X126427871Y-40596830D01*
X126450049Y-40607320D01*
X126471093Y-40619933D01*
X126490798Y-40634547D01*
X126508977Y-40651023D01*
X126525453Y-40669202D01*
X126540067Y-40688907D01*
X126552680Y-40709951D01*
X126563170Y-40732129D01*
X126571435Y-40755229D01*
X126577396Y-40779027D01*
X126580996Y-40803296D01*
X126582200Y-40827800D01*
X126582200Y-42077800D01*
X126580996Y-42102304D01*
X126577396Y-42126573D01*
X126571435Y-42150371D01*
X126563170Y-42173471D01*
X126552680Y-42195649D01*
X126540067Y-42216693D01*
X126525453Y-42236398D01*
X126508977Y-42254577D01*
X126490798Y-42271053D01*
X126471093Y-42285667D01*
X126450049Y-42298280D01*
X126427871Y-42308770D01*
X126404771Y-42317035D01*
X126380973Y-42322996D01*
X126356704Y-42326596D01*
X126332200Y-42327800D01*
X125407200Y-42327800D01*
X125382696Y-42326596D01*
X125358427Y-42322996D01*
X125334629Y-42317035D01*
X125311529Y-42308770D01*
X125289351Y-42298280D01*
X125268307Y-42285667D01*
X125248602Y-42271053D01*
X125230423Y-42254577D01*
X125213947Y-42236398D01*
X125199333Y-42216693D01*
X125186720Y-42195649D01*
X125176230Y-42173471D01*
X125167965Y-42150371D01*
X125162004Y-42126573D01*
X125158404Y-42102304D01*
X125157200Y-42077800D01*
X125157200Y-40827800D01*
X125158404Y-40803296D01*
X125162004Y-40779027D01*
X125167965Y-40755229D01*
X125176230Y-40732129D01*
X125186720Y-40709951D01*
X125199333Y-40688907D01*
X125213947Y-40669202D01*
X125230423Y-40651023D01*
X125248602Y-40634547D01*
X125268307Y-40619933D01*
X125289351Y-40607320D01*
X125311529Y-40596830D01*
X125334629Y-40588565D01*
X125358427Y-40582604D01*
X125382696Y-40579004D01*
X125407200Y-40577800D01*
X126332200Y-40577800D01*
X126356704Y-40579004D01*
X126356704Y-40579004D01*
G37*
D11*
X125869700Y-41452800D03*
D12*
X193320000Y-113231000D03*
X189720000Y-113231000D03*
D13*
X199080000Y-107643000D03*
X185230000Y-110183000D03*
D12*
X193320000Y-94180700D03*
X189720000Y-94180700D03*
D13*
X199080000Y-88592700D03*
X185230000Y-91132700D03*
D12*
X193320000Y-132281000D03*
X189720000Y-132281000D03*
D13*
X199080000Y-126693000D03*
X185230000Y-129233000D03*
D12*
X193320000Y-75133200D03*
X189720000Y-75133200D03*
D13*
X199080000Y-69545200D03*
X185230000Y-72085200D03*
D14*
X57029695Y-141824757D03*
D10*
G36*
X56872374Y-142670482D02*
G01*
X56280708Y-141401651D01*
X57187016Y-140979032D01*
X57778682Y-142247863D01*
X56872374Y-142670482D01*
X56872374Y-142670482D01*
G37*
D14*
X53766987Y-143346183D03*
D10*
G36*
X53609666Y-144191908D02*
G01*
X53018000Y-142923077D01*
X53924308Y-142500458D01*
X54515974Y-143769289D01*
X53609666Y-144191908D01*
X53609666Y-144191908D01*
G37*
D15*
X59888437Y-134326028D03*
D10*
G36*
X59261167Y-135997751D02*
G01*
X58204622Y-133731982D01*
X60515707Y-132654305D01*
X61572252Y-134920074D01*
X59261167Y-135997751D01*
X59261167Y-135997751D01*
G37*
D15*
X48409525Y-142481312D03*
D10*
G36*
X47782255Y-144153035D02*
G01*
X46725710Y-141887266D01*
X49036795Y-140809589D01*
X50093340Y-143075358D01*
X47782255Y-144153035D01*
X47782255Y-144153035D01*
G37*
D12*
X93240000Y-130376000D03*
X89640000Y-130376000D03*
D13*
X99000000Y-124788000D03*
X85150000Y-127328000D03*
D12*
X131340000Y-70358000D03*
X127740000Y-70358000D03*
D13*
X137100000Y-64770000D03*
X123250000Y-67310000D03*
D12*
X93240000Y-73228200D03*
X89640000Y-73228200D03*
D13*
X99000000Y-67640200D03*
X85150000Y-70180200D03*
D12*
X112290000Y-91005700D03*
X108690000Y-91005700D03*
D13*
X118050000Y-85417700D03*
X104200000Y-87957700D03*
D12*
X131340000Y-89408000D03*
X127740000Y-89408000D03*
D13*
X137100000Y-83820000D03*
X123250000Y-86360000D03*
D12*
X93240000Y-92275700D03*
X89640000Y-92275700D03*
D13*
X99000000Y-86687700D03*
X85150000Y-89227700D03*
D16*
X80518000Y-87110200D03*
X80518000Y-90710200D03*
D17*
X74930000Y-81350200D03*
X77470000Y-95200200D03*
D12*
X112290000Y-71955700D03*
X108690000Y-71955700D03*
D13*
X118050000Y-66367700D03*
X104200000Y-68907700D03*
D12*
X169440000Y-75133200D03*
X165840000Y-75133200D03*
D13*
X175200000Y-69545200D03*
X161350000Y-72085200D03*
D12*
X150390000Y-71955700D03*
X146790000Y-71955700D03*
D13*
X156150000Y-66367700D03*
X142300000Y-68907700D03*
D12*
X169440000Y-94180700D03*
X165840000Y-94180700D03*
D13*
X175200000Y-88592700D03*
X161350000Y-91132700D03*
D12*
X150390000Y-91005700D03*
X146790000Y-91005700D03*
D13*
X156150000Y-85417700D03*
X142300000Y-87957700D03*
D12*
X169440000Y-113231000D03*
X165840000Y-113231000D03*
D13*
X175200000Y-107643000D03*
X161350000Y-110183000D03*
D12*
X150390000Y-110056000D03*
X146790000Y-110056000D03*
D13*
X156150000Y-104468000D03*
X142300000Y-107008000D03*
D12*
X131340000Y-108458000D03*
X127740000Y-108458000D03*
D13*
X137100000Y-102870000D03*
X123250000Y-105410000D03*
D12*
X112290000Y-110056000D03*
X108690000Y-110056000D03*
D13*
X118050000Y-104468000D03*
X104200000Y-107008000D03*
D12*
X93240000Y-111326000D03*
X89640000Y-111326000D03*
D13*
X99000000Y-105738000D03*
X85150000Y-108278000D03*
D12*
X169440000Y-132281000D03*
X165840000Y-132281000D03*
D13*
X175200000Y-126693000D03*
X161350000Y-129233000D03*
D12*
X150390000Y-129106000D03*
X146790000Y-129106000D03*
D13*
X156150000Y-123518000D03*
X142300000Y-126058000D03*
D12*
X131340000Y-127508000D03*
X127740000Y-127508000D03*
D13*
X137100000Y-121920000D03*
X123250000Y-124460000D03*
D12*
X112290000Y-129106000D03*
X108690000Y-129106000D03*
D13*
X118050000Y-123518000D03*
X104200000Y-126058000D03*
D16*
X80518000Y-115685000D03*
X80518000Y-119285000D03*
D17*
X74930000Y-109925000D03*
X77470000Y-123775000D03*
D12*
X188490000Y-151331000D03*
X184890000Y-151331000D03*
D13*
X194250000Y-145743000D03*
X180400000Y-148283000D03*
D12*
X169440000Y-151331000D03*
X165840000Y-151331000D03*
D13*
X175200000Y-145743000D03*
X161350000Y-148283000D03*
D12*
X150390000Y-148156000D03*
X146790000Y-148156000D03*
D13*
X156150000Y-142568000D03*
X142300000Y-145108000D03*
D12*
X131340000Y-146558000D03*
X127740000Y-146558000D03*
D13*
X137100000Y-140970000D03*
X123250000Y-143510000D03*
D12*
X112290000Y-148156000D03*
X108690000Y-148156000D03*
D13*
X118050000Y-142568000D03*
X104200000Y-145108000D03*
D14*
X55866395Y-184405757D03*
D10*
G36*
X55709074Y-185251482D02*
G01*
X55117408Y-183982651D01*
X56023716Y-183560032D01*
X56615382Y-184828863D01*
X55709074Y-185251482D01*
X55709074Y-185251482D01*
G37*
D14*
X52603687Y-185927183D03*
D10*
G36*
X52446366Y-186772908D02*
G01*
X51854700Y-185504077D01*
X52761008Y-185081458D01*
X53352674Y-186350289D01*
X52446366Y-186772908D01*
X52446366Y-186772908D01*
G37*
D15*
X58725137Y-176907028D03*
D10*
G36*
X58097867Y-178578751D02*
G01*
X57041322Y-176312982D01*
X59352407Y-175235305D01*
X60408952Y-177501074D01*
X58097867Y-178578751D01*
X58097867Y-178578751D01*
G37*
D15*
X47246225Y-185062312D03*
D10*
G36*
X46618955Y-186734035D02*
G01*
X45562410Y-184468266D01*
X47873495Y-183390589D01*
X48930040Y-185656358D01*
X46618955Y-186734035D01*
X46618955Y-186734035D01*
G37*
D14*
X70644257Y-156050605D03*
D10*
G36*
X71489982Y-156207926D02*
G01*
X70221151Y-156799592D01*
X69798532Y-155893284D01*
X71067363Y-155301618D01*
X71489982Y-156207926D01*
X71489982Y-156207926D01*
G37*
D14*
X72165683Y-159313313D03*
D10*
G36*
X73011408Y-159470634D02*
G01*
X71742577Y-160062300D01*
X71319958Y-159155992D01*
X72588789Y-158564326D01*
X73011408Y-159470634D01*
X73011408Y-159470634D01*
G37*
D15*
X63145528Y-153191863D03*
D10*
G36*
X64817251Y-153819133D02*
G01*
X62551482Y-154875678D01*
X61473805Y-152564593D01*
X63739574Y-151508048D01*
X64817251Y-153819133D01*
X64817251Y-153819133D01*
G37*
D15*
X71300812Y-164670775D03*
D10*
G36*
X72972535Y-165298045D02*
G01*
X70706766Y-166354590D01*
X69629089Y-164043505D01*
X71894858Y-162986960D01*
X72972535Y-165298045D01*
X72972535Y-165298045D01*
G37*
D14*
X87908657Y-147998605D03*
D10*
G36*
X88754382Y-148155926D02*
G01*
X87485551Y-148747592D01*
X87062932Y-147841284D01*
X88331763Y-147249618D01*
X88754382Y-148155926D01*
X88754382Y-148155926D01*
G37*
D14*
X89430083Y-151261313D03*
D10*
G36*
X90275808Y-151418634D02*
G01*
X89006977Y-152010300D01*
X88584358Y-151103992D01*
X89853189Y-150512326D01*
X90275808Y-151418634D01*
X90275808Y-151418634D01*
G37*
D15*
X80409928Y-145139863D03*
D10*
G36*
X82081651Y-145767133D02*
G01*
X79815882Y-146823678D01*
X78738205Y-144512593D01*
X81003974Y-143456048D01*
X82081651Y-145767133D01*
X82081651Y-145767133D01*
G37*
D15*
X88565212Y-156618775D03*
D10*
G36*
X90236935Y-157246045D02*
G01*
X87971166Y-158302590D01*
X86893489Y-155991505D01*
X89159258Y-154934960D01*
X90236935Y-157246045D01*
X90236935Y-157246045D01*
G37*
D14*
X47814595Y-167138757D03*
D10*
G36*
X47657274Y-167984482D02*
G01*
X47065608Y-166715651D01*
X47971916Y-166293032D01*
X48563582Y-167561863D01*
X47657274Y-167984482D01*
X47657274Y-167984482D01*
G37*
D14*
X44551887Y-168660183D03*
D10*
G36*
X44394566Y-169505908D02*
G01*
X43802900Y-168237077D01*
X44709208Y-167814458D01*
X45300874Y-169083289D01*
X44394566Y-169505908D01*
X44394566Y-169505908D01*
G37*
D15*
X50673337Y-159640028D03*
D10*
G36*
X50046067Y-161311751D02*
G01*
X48989522Y-159045982D01*
X51300607Y-157968305D01*
X52357152Y-160234074D01*
X50046067Y-161311751D01*
X50046067Y-161311751D01*
G37*
D15*
X39194425Y-167795312D03*
D10*
G36*
X38567155Y-169467035D02*
G01*
X37510610Y-167201266D01*
X39821695Y-166123589D01*
X40878240Y-168389358D01*
X38567155Y-169467035D01*
X38567155Y-169467035D01*
G37*
D14*
X39765295Y-149874757D03*
D10*
G36*
X39607974Y-150720482D02*
G01*
X39016308Y-149451651D01*
X39922616Y-149029032D01*
X40514282Y-150297863D01*
X39607974Y-150720482D01*
X39607974Y-150720482D01*
G37*
D14*
X36502587Y-151396183D03*
D10*
G36*
X36345266Y-152241908D02*
G01*
X35753600Y-150973077D01*
X36659908Y-150550458D01*
X37251574Y-151819289D01*
X36345266Y-152241908D01*
X36345266Y-152241908D01*
G37*
D15*
X42624037Y-142376028D03*
D10*
G36*
X41996767Y-144047751D02*
G01*
X40940222Y-141781982D01*
X43251307Y-140704305D01*
X44307852Y-142970074D01*
X41996767Y-144047751D01*
X41996767Y-144047751D01*
G37*
D15*
X31145125Y-150531312D03*
D10*
G36*
X30517855Y-152203035D02*
G01*
X29461310Y-149937266D01*
X31772395Y-148859589D01*
X32828940Y-151125358D01*
X30517855Y-152203035D01*
X30517855Y-152203035D01*
G37*
D12*
X74190000Y-73228200D03*
X70590000Y-73228200D03*
D13*
X79950000Y-67640200D03*
X66100000Y-70180200D03*
D18*
X140839600Y-38365200D03*
X134389600Y-38365200D03*
X140064600Y-38365200D03*
X135164600Y-38365200D03*
D19*
X135864600Y-38365200D03*
X139364600Y-38365200D03*
X136364600Y-38365200D03*
X138864600Y-38365200D03*
D20*
X136864600Y-38365200D03*
D10*
G36*
X137014600Y-39265200D02*
G01*
X136714600Y-39265200D01*
X136714600Y-37465200D01*
X137014600Y-37465200D01*
X137014600Y-39265200D01*
X137014600Y-39265200D01*
G37*
D19*
X138364600Y-38365200D03*
X137864600Y-38365200D03*
X137364600Y-38365200D03*
D10*
G36*
X108211604Y-35562504D02*
G01*
X108235873Y-35566104D01*
X108259671Y-35572065D01*
X108282771Y-35580330D01*
X108304949Y-35590820D01*
X108325993Y-35603433D01*
X108345698Y-35618047D01*
X108363877Y-35634523D01*
X108380353Y-35652702D01*
X108394967Y-35672407D01*
X108407580Y-35693451D01*
X108418070Y-35715629D01*
X108426335Y-35738729D01*
X108432296Y-35762527D01*
X108435896Y-35786796D01*
X108437100Y-35811300D01*
X108437100Y-37061300D01*
X108435896Y-37085804D01*
X108432296Y-37110073D01*
X108426335Y-37133871D01*
X108418070Y-37156971D01*
X108407580Y-37179149D01*
X108394967Y-37200193D01*
X108380353Y-37219898D01*
X108363877Y-37238077D01*
X108345698Y-37254553D01*
X108325993Y-37269167D01*
X108304949Y-37281780D01*
X108282771Y-37292270D01*
X108259671Y-37300535D01*
X108235873Y-37306496D01*
X108211604Y-37310096D01*
X108187100Y-37311300D01*
X107262100Y-37311300D01*
X107237596Y-37310096D01*
X107213327Y-37306496D01*
X107189529Y-37300535D01*
X107166429Y-37292270D01*
X107144251Y-37281780D01*
X107123207Y-37269167D01*
X107103502Y-37254553D01*
X107085323Y-37238077D01*
X107068847Y-37219898D01*
X107054233Y-37200193D01*
X107041620Y-37179149D01*
X107031130Y-37156971D01*
X107022865Y-37133871D01*
X107016904Y-37110073D01*
X107013304Y-37085804D01*
X107012100Y-37061300D01*
X107012100Y-35811300D01*
X107013304Y-35786796D01*
X107016904Y-35762527D01*
X107022865Y-35738729D01*
X107031130Y-35715629D01*
X107041620Y-35693451D01*
X107054233Y-35672407D01*
X107068847Y-35652702D01*
X107085323Y-35634523D01*
X107103502Y-35618047D01*
X107123207Y-35603433D01*
X107144251Y-35590820D01*
X107166429Y-35580330D01*
X107189529Y-35572065D01*
X107213327Y-35566104D01*
X107237596Y-35562504D01*
X107262100Y-35561300D01*
X108187100Y-35561300D01*
X108211604Y-35562504D01*
X108211604Y-35562504D01*
G37*
D11*
X107724600Y-36436300D03*
D10*
G36*
X105236604Y-35562504D02*
G01*
X105260873Y-35566104D01*
X105284671Y-35572065D01*
X105307771Y-35580330D01*
X105329949Y-35590820D01*
X105350993Y-35603433D01*
X105370698Y-35618047D01*
X105388877Y-35634523D01*
X105405353Y-35652702D01*
X105419967Y-35672407D01*
X105432580Y-35693451D01*
X105443070Y-35715629D01*
X105451335Y-35738729D01*
X105457296Y-35762527D01*
X105460896Y-35786796D01*
X105462100Y-35811300D01*
X105462100Y-37061300D01*
X105460896Y-37085804D01*
X105457296Y-37110073D01*
X105451335Y-37133871D01*
X105443070Y-37156971D01*
X105432580Y-37179149D01*
X105419967Y-37200193D01*
X105405353Y-37219898D01*
X105388877Y-37238077D01*
X105370698Y-37254553D01*
X105350993Y-37269167D01*
X105329949Y-37281780D01*
X105307771Y-37292270D01*
X105284671Y-37300535D01*
X105260873Y-37306496D01*
X105236604Y-37310096D01*
X105212100Y-37311300D01*
X104287100Y-37311300D01*
X104262596Y-37310096D01*
X104238327Y-37306496D01*
X104214529Y-37300535D01*
X104191429Y-37292270D01*
X104169251Y-37281780D01*
X104148207Y-37269167D01*
X104128502Y-37254553D01*
X104110323Y-37238077D01*
X104093847Y-37219898D01*
X104079233Y-37200193D01*
X104066620Y-37179149D01*
X104056130Y-37156971D01*
X104047865Y-37133871D01*
X104041904Y-37110073D01*
X104038304Y-37085804D01*
X104037100Y-37061300D01*
X104037100Y-35811300D01*
X104038304Y-35786796D01*
X104041904Y-35762527D01*
X104047865Y-35738729D01*
X104056130Y-35715629D01*
X104066620Y-35693451D01*
X104079233Y-35672407D01*
X104093847Y-35652702D01*
X104110323Y-35634523D01*
X104128502Y-35618047D01*
X104148207Y-35603433D01*
X104169251Y-35590820D01*
X104191429Y-35580330D01*
X104214529Y-35572065D01*
X104238327Y-35566104D01*
X104262596Y-35562504D01*
X104287100Y-35561300D01*
X105212100Y-35561300D01*
X105236604Y-35562504D01*
X105236604Y-35562504D01*
G37*
D11*
X104749600Y-36436300D03*
D10*
G36*
X108211604Y-38851804D02*
G01*
X108235873Y-38855404D01*
X108259671Y-38861365D01*
X108282771Y-38869630D01*
X108304949Y-38880120D01*
X108325993Y-38892733D01*
X108345698Y-38907347D01*
X108363877Y-38923823D01*
X108380353Y-38942002D01*
X108394967Y-38961707D01*
X108407580Y-38982751D01*
X108418070Y-39004929D01*
X108426335Y-39028029D01*
X108432296Y-39051827D01*
X108435896Y-39076096D01*
X108437100Y-39100600D01*
X108437100Y-40350600D01*
X108435896Y-40375104D01*
X108432296Y-40399373D01*
X108426335Y-40423171D01*
X108418070Y-40446271D01*
X108407580Y-40468449D01*
X108394967Y-40489493D01*
X108380353Y-40509198D01*
X108363877Y-40527377D01*
X108345698Y-40543853D01*
X108325993Y-40558467D01*
X108304949Y-40571080D01*
X108282771Y-40581570D01*
X108259671Y-40589835D01*
X108235873Y-40595796D01*
X108211604Y-40599396D01*
X108187100Y-40600600D01*
X107262100Y-40600600D01*
X107237596Y-40599396D01*
X107213327Y-40595796D01*
X107189529Y-40589835D01*
X107166429Y-40581570D01*
X107144251Y-40571080D01*
X107123207Y-40558467D01*
X107103502Y-40543853D01*
X107085323Y-40527377D01*
X107068847Y-40509198D01*
X107054233Y-40489493D01*
X107041620Y-40468449D01*
X107031130Y-40446271D01*
X107022865Y-40423171D01*
X107016904Y-40399373D01*
X107013304Y-40375104D01*
X107012100Y-40350600D01*
X107012100Y-39100600D01*
X107013304Y-39076096D01*
X107016904Y-39051827D01*
X107022865Y-39028029D01*
X107031130Y-39004929D01*
X107041620Y-38982751D01*
X107054233Y-38961707D01*
X107068847Y-38942002D01*
X107085323Y-38923823D01*
X107103502Y-38907347D01*
X107123207Y-38892733D01*
X107144251Y-38880120D01*
X107166429Y-38869630D01*
X107189529Y-38861365D01*
X107213327Y-38855404D01*
X107237596Y-38851804D01*
X107262100Y-38850600D01*
X108187100Y-38850600D01*
X108211604Y-38851804D01*
X108211604Y-38851804D01*
G37*
D11*
X107724600Y-39725600D03*
D10*
G36*
X105236604Y-38851804D02*
G01*
X105260873Y-38855404D01*
X105284671Y-38861365D01*
X105307771Y-38869630D01*
X105329949Y-38880120D01*
X105350993Y-38892733D01*
X105370698Y-38907347D01*
X105388877Y-38923823D01*
X105405353Y-38942002D01*
X105419967Y-38961707D01*
X105432580Y-38982751D01*
X105443070Y-39004929D01*
X105451335Y-39028029D01*
X105457296Y-39051827D01*
X105460896Y-39076096D01*
X105462100Y-39100600D01*
X105462100Y-40350600D01*
X105460896Y-40375104D01*
X105457296Y-40399373D01*
X105451335Y-40423171D01*
X105443070Y-40446271D01*
X105432580Y-40468449D01*
X105419967Y-40489493D01*
X105405353Y-40509198D01*
X105388877Y-40527377D01*
X105370698Y-40543853D01*
X105350993Y-40558467D01*
X105329949Y-40571080D01*
X105307771Y-40581570D01*
X105284671Y-40589835D01*
X105260873Y-40595796D01*
X105236604Y-40599396D01*
X105212100Y-40600600D01*
X104287100Y-40600600D01*
X104262596Y-40599396D01*
X104238327Y-40595796D01*
X104214529Y-40589835D01*
X104191429Y-40581570D01*
X104169251Y-40571080D01*
X104148207Y-40558467D01*
X104128502Y-40543853D01*
X104110323Y-40527377D01*
X104093847Y-40509198D01*
X104079233Y-40489493D01*
X104066620Y-40468449D01*
X104056130Y-40446271D01*
X104047865Y-40423171D01*
X104041904Y-40399373D01*
X104038304Y-40375104D01*
X104037100Y-40350600D01*
X104037100Y-39100600D01*
X104038304Y-39076096D01*
X104041904Y-39051827D01*
X104047865Y-39028029D01*
X104056130Y-39004929D01*
X104066620Y-38982751D01*
X104079233Y-38961707D01*
X104093847Y-38942002D01*
X104110323Y-38923823D01*
X104128502Y-38907347D01*
X104148207Y-38892733D01*
X104169251Y-38880120D01*
X104191429Y-38869630D01*
X104214529Y-38861365D01*
X104238327Y-38855404D01*
X104262596Y-38851804D01*
X104287100Y-38850600D01*
X105212100Y-38850600D01*
X105236604Y-38851804D01*
X105236604Y-38851804D01*
G37*
D11*
X104749600Y-39725600D03*
D10*
G36*
X72966885Y-49171764D02*
G01*
X72991154Y-49175364D01*
X73014952Y-49181325D01*
X73038052Y-49189590D01*
X73060230Y-49200080D01*
X73081274Y-49212693D01*
X73100979Y-49227307D01*
X73119158Y-49243783D01*
X73135634Y-49261962D01*
X73150248Y-49281667D01*
X73162861Y-49302711D01*
X73173351Y-49324889D01*
X73181616Y-49347989D01*
X73187577Y-49371787D01*
X73191177Y-49396056D01*
X73192381Y-49420560D01*
X73192381Y-50345560D01*
X73191177Y-50370064D01*
X73187577Y-50394333D01*
X73181616Y-50418131D01*
X73173351Y-50441231D01*
X73162861Y-50463409D01*
X73150248Y-50484453D01*
X73135634Y-50504158D01*
X73119158Y-50522337D01*
X73100979Y-50538813D01*
X73081274Y-50553427D01*
X73060230Y-50566040D01*
X73038052Y-50576530D01*
X73014952Y-50584795D01*
X72991154Y-50590756D01*
X72966885Y-50594356D01*
X72942381Y-50595560D01*
X71692381Y-50595560D01*
X71667877Y-50594356D01*
X71643608Y-50590756D01*
X71619810Y-50584795D01*
X71596710Y-50576530D01*
X71574532Y-50566040D01*
X71553488Y-50553427D01*
X71533783Y-50538813D01*
X71515604Y-50522337D01*
X71499128Y-50504158D01*
X71484514Y-50484453D01*
X71471901Y-50463409D01*
X71461411Y-50441231D01*
X71453146Y-50418131D01*
X71447185Y-50394333D01*
X71443585Y-50370064D01*
X71442381Y-50345560D01*
X71442381Y-49420560D01*
X71443585Y-49396056D01*
X71447185Y-49371787D01*
X71453146Y-49347989D01*
X71461411Y-49324889D01*
X71471901Y-49302711D01*
X71484514Y-49281667D01*
X71499128Y-49261962D01*
X71515604Y-49243783D01*
X71533783Y-49227307D01*
X71553488Y-49212693D01*
X71574532Y-49200080D01*
X71596710Y-49189590D01*
X71619810Y-49181325D01*
X71643608Y-49175364D01*
X71667877Y-49171764D01*
X71692381Y-49170560D01*
X72942381Y-49170560D01*
X72966885Y-49171764D01*
X72966885Y-49171764D01*
G37*
D11*
X72317381Y-49883060D03*
D10*
G36*
X72966885Y-46196764D02*
G01*
X72991154Y-46200364D01*
X73014952Y-46206325D01*
X73038052Y-46214590D01*
X73060230Y-46225080D01*
X73081274Y-46237693D01*
X73100979Y-46252307D01*
X73119158Y-46268783D01*
X73135634Y-46286962D01*
X73150248Y-46306667D01*
X73162861Y-46327711D01*
X73173351Y-46349889D01*
X73181616Y-46372989D01*
X73187577Y-46396787D01*
X73191177Y-46421056D01*
X73192381Y-46445560D01*
X73192381Y-47370560D01*
X73191177Y-47395064D01*
X73187577Y-47419333D01*
X73181616Y-47443131D01*
X73173351Y-47466231D01*
X73162861Y-47488409D01*
X73150248Y-47509453D01*
X73135634Y-47529158D01*
X73119158Y-47547337D01*
X73100979Y-47563813D01*
X73081274Y-47578427D01*
X73060230Y-47591040D01*
X73038052Y-47601530D01*
X73014952Y-47609795D01*
X72991154Y-47615756D01*
X72966885Y-47619356D01*
X72942381Y-47620560D01*
X71692381Y-47620560D01*
X71667877Y-47619356D01*
X71643608Y-47615756D01*
X71619810Y-47609795D01*
X71596710Y-47601530D01*
X71574532Y-47591040D01*
X71553488Y-47578427D01*
X71533783Y-47563813D01*
X71515604Y-47547337D01*
X71499128Y-47529158D01*
X71484514Y-47509453D01*
X71471901Y-47488409D01*
X71461411Y-47466231D01*
X71453146Y-47443131D01*
X71447185Y-47419333D01*
X71443585Y-47395064D01*
X71442381Y-47370560D01*
X71442381Y-46445560D01*
X71443585Y-46421056D01*
X71447185Y-46396787D01*
X71453146Y-46372989D01*
X71461411Y-46349889D01*
X71471901Y-46327711D01*
X71484514Y-46306667D01*
X71499128Y-46286962D01*
X71515604Y-46268783D01*
X71533783Y-46252307D01*
X71553488Y-46237693D01*
X71574532Y-46225080D01*
X71596710Y-46214590D01*
X71619810Y-46206325D01*
X71643608Y-46200364D01*
X71667877Y-46196764D01*
X71692381Y-46195560D01*
X72942381Y-46195560D01*
X72966885Y-46196764D01*
X72966885Y-46196764D01*
G37*
D11*
X72317381Y-46908060D03*
D10*
G36*
X76267844Y-49171764D02*
G01*
X76292113Y-49175364D01*
X76315911Y-49181325D01*
X76339011Y-49189590D01*
X76361189Y-49200080D01*
X76382233Y-49212693D01*
X76401938Y-49227307D01*
X76420117Y-49243783D01*
X76436593Y-49261962D01*
X76451207Y-49281667D01*
X76463820Y-49302711D01*
X76474310Y-49324889D01*
X76482575Y-49347989D01*
X76488536Y-49371787D01*
X76492136Y-49396056D01*
X76493340Y-49420560D01*
X76493340Y-50345560D01*
X76492136Y-50370064D01*
X76488536Y-50394333D01*
X76482575Y-50418131D01*
X76474310Y-50441231D01*
X76463820Y-50463409D01*
X76451207Y-50484453D01*
X76436593Y-50504158D01*
X76420117Y-50522337D01*
X76401938Y-50538813D01*
X76382233Y-50553427D01*
X76361189Y-50566040D01*
X76339011Y-50576530D01*
X76315911Y-50584795D01*
X76292113Y-50590756D01*
X76267844Y-50594356D01*
X76243340Y-50595560D01*
X74993340Y-50595560D01*
X74968836Y-50594356D01*
X74944567Y-50590756D01*
X74920769Y-50584795D01*
X74897669Y-50576530D01*
X74875491Y-50566040D01*
X74854447Y-50553427D01*
X74834742Y-50538813D01*
X74816563Y-50522337D01*
X74800087Y-50504158D01*
X74785473Y-50484453D01*
X74772860Y-50463409D01*
X74762370Y-50441231D01*
X74754105Y-50418131D01*
X74748144Y-50394333D01*
X74744544Y-50370064D01*
X74743340Y-50345560D01*
X74743340Y-49420560D01*
X74744544Y-49396056D01*
X74748144Y-49371787D01*
X74754105Y-49347989D01*
X74762370Y-49324889D01*
X74772860Y-49302711D01*
X74785473Y-49281667D01*
X74800087Y-49261962D01*
X74816563Y-49243783D01*
X74834742Y-49227307D01*
X74854447Y-49212693D01*
X74875491Y-49200080D01*
X74897669Y-49189590D01*
X74920769Y-49181325D01*
X74944567Y-49175364D01*
X74968836Y-49171764D01*
X74993340Y-49170560D01*
X76243340Y-49170560D01*
X76267844Y-49171764D01*
X76267844Y-49171764D01*
G37*
D11*
X75618340Y-49883060D03*
D10*
G36*
X76267844Y-46196764D02*
G01*
X76292113Y-46200364D01*
X76315911Y-46206325D01*
X76339011Y-46214590D01*
X76361189Y-46225080D01*
X76382233Y-46237693D01*
X76401938Y-46252307D01*
X76420117Y-46268783D01*
X76436593Y-46286962D01*
X76451207Y-46306667D01*
X76463820Y-46327711D01*
X76474310Y-46349889D01*
X76482575Y-46372989D01*
X76488536Y-46396787D01*
X76492136Y-46421056D01*
X76493340Y-46445560D01*
X76493340Y-47370560D01*
X76492136Y-47395064D01*
X76488536Y-47419333D01*
X76482575Y-47443131D01*
X76474310Y-47466231D01*
X76463820Y-47488409D01*
X76451207Y-47509453D01*
X76436593Y-47529158D01*
X76420117Y-47547337D01*
X76401938Y-47563813D01*
X76382233Y-47578427D01*
X76361189Y-47591040D01*
X76339011Y-47601530D01*
X76315911Y-47609795D01*
X76292113Y-47615756D01*
X76267844Y-47619356D01*
X76243340Y-47620560D01*
X74993340Y-47620560D01*
X74968836Y-47619356D01*
X74944567Y-47615756D01*
X74920769Y-47609795D01*
X74897669Y-47601530D01*
X74875491Y-47591040D01*
X74854447Y-47578427D01*
X74834742Y-47563813D01*
X74816563Y-47547337D01*
X74800087Y-47529158D01*
X74785473Y-47509453D01*
X74772860Y-47488409D01*
X74762370Y-47466231D01*
X74754105Y-47443131D01*
X74748144Y-47419333D01*
X74744544Y-47395064D01*
X74743340Y-47370560D01*
X74743340Y-46445560D01*
X74744544Y-46421056D01*
X74748144Y-46396787D01*
X74754105Y-46372989D01*
X74762370Y-46349889D01*
X74772860Y-46327711D01*
X74785473Y-46306667D01*
X74800087Y-46286962D01*
X74816563Y-46268783D01*
X74834742Y-46252307D01*
X74854447Y-46237693D01*
X74875491Y-46225080D01*
X74897669Y-46214590D01*
X74920769Y-46206325D01*
X74944567Y-46200364D01*
X74968836Y-46196764D01*
X74993340Y-46195560D01*
X76243340Y-46195560D01*
X76267844Y-46196764D01*
X76267844Y-46196764D01*
G37*
D11*
X75618340Y-46908060D03*
D10*
G36*
X79658744Y-49171764D02*
G01*
X79683013Y-49175364D01*
X79706811Y-49181325D01*
X79729911Y-49189590D01*
X79752089Y-49200080D01*
X79773133Y-49212693D01*
X79792838Y-49227307D01*
X79811017Y-49243783D01*
X79827493Y-49261962D01*
X79842107Y-49281667D01*
X79854720Y-49302711D01*
X79865210Y-49324889D01*
X79873475Y-49347989D01*
X79879436Y-49371787D01*
X79883036Y-49396056D01*
X79884240Y-49420560D01*
X79884240Y-50345560D01*
X79883036Y-50370064D01*
X79879436Y-50394333D01*
X79873475Y-50418131D01*
X79865210Y-50441231D01*
X79854720Y-50463409D01*
X79842107Y-50484453D01*
X79827493Y-50504158D01*
X79811017Y-50522337D01*
X79792838Y-50538813D01*
X79773133Y-50553427D01*
X79752089Y-50566040D01*
X79729911Y-50576530D01*
X79706811Y-50584795D01*
X79683013Y-50590756D01*
X79658744Y-50594356D01*
X79634240Y-50595560D01*
X78384240Y-50595560D01*
X78359736Y-50594356D01*
X78335467Y-50590756D01*
X78311669Y-50584795D01*
X78288569Y-50576530D01*
X78266391Y-50566040D01*
X78245347Y-50553427D01*
X78225642Y-50538813D01*
X78207463Y-50522337D01*
X78190987Y-50504158D01*
X78176373Y-50484453D01*
X78163760Y-50463409D01*
X78153270Y-50441231D01*
X78145005Y-50418131D01*
X78139044Y-50394333D01*
X78135444Y-50370064D01*
X78134240Y-50345560D01*
X78134240Y-49420560D01*
X78135444Y-49396056D01*
X78139044Y-49371787D01*
X78145005Y-49347989D01*
X78153270Y-49324889D01*
X78163760Y-49302711D01*
X78176373Y-49281667D01*
X78190987Y-49261962D01*
X78207463Y-49243783D01*
X78225642Y-49227307D01*
X78245347Y-49212693D01*
X78266391Y-49200080D01*
X78288569Y-49189590D01*
X78311669Y-49181325D01*
X78335467Y-49175364D01*
X78359736Y-49171764D01*
X78384240Y-49170560D01*
X79634240Y-49170560D01*
X79658744Y-49171764D01*
X79658744Y-49171764D01*
G37*
D11*
X79009240Y-49883060D03*
D10*
G36*
X79658744Y-46196764D02*
G01*
X79683013Y-46200364D01*
X79706811Y-46206325D01*
X79729911Y-46214590D01*
X79752089Y-46225080D01*
X79773133Y-46237693D01*
X79792838Y-46252307D01*
X79811017Y-46268783D01*
X79827493Y-46286962D01*
X79842107Y-46306667D01*
X79854720Y-46327711D01*
X79865210Y-46349889D01*
X79873475Y-46372989D01*
X79879436Y-46396787D01*
X79883036Y-46421056D01*
X79884240Y-46445560D01*
X79884240Y-47370560D01*
X79883036Y-47395064D01*
X79879436Y-47419333D01*
X79873475Y-47443131D01*
X79865210Y-47466231D01*
X79854720Y-47488409D01*
X79842107Y-47509453D01*
X79827493Y-47529158D01*
X79811017Y-47547337D01*
X79792838Y-47563813D01*
X79773133Y-47578427D01*
X79752089Y-47591040D01*
X79729911Y-47601530D01*
X79706811Y-47609795D01*
X79683013Y-47615756D01*
X79658744Y-47619356D01*
X79634240Y-47620560D01*
X78384240Y-47620560D01*
X78359736Y-47619356D01*
X78335467Y-47615756D01*
X78311669Y-47609795D01*
X78288569Y-47601530D01*
X78266391Y-47591040D01*
X78245347Y-47578427D01*
X78225642Y-47563813D01*
X78207463Y-47547337D01*
X78190987Y-47529158D01*
X78176373Y-47509453D01*
X78163760Y-47488409D01*
X78153270Y-47466231D01*
X78145005Y-47443131D01*
X78139044Y-47419333D01*
X78135444Y-47395064D01*
X78134240Y-47370560D01*
X78134240Y-46445560D01*
X78135444Y-46421056D01*
X78139044Y-46396787D01*
X78145005Y-46372989D01*
X78153270Y-46349889D01*
X78163760Y-46327711D01*
X78176373Y-46306667D01*
X78190987Y-46286962D01*
X78207463Y-46268783D01*
X78225642Y-46252307D01*
X78245347Y-46237693D01*
X78266391Y-46225080D01*
X78288569Y-46214590D01*
X78311669Y-46206325D01*
X78335467Y-46200364D01*
X78359736Y-46196764D01*
X78384240Y-46195560D01*
X79634240Y-46195560D01*
X79658744Y-46196764D01*
X79658744Y-46196764D01*
G37*
D11*
X79009240Y-46908060D03*
M02*
